<svg width="360" height="241" viewBox="0 0 360 241" fill="none" xmlns="http://www.w3.org/2000/svg">
<g clip-path="url(#clip0_93_88)">
<rect width="96" height="96" rx="18" fill="white" fill-opacity="0.15"/>
<g filter="url(#filter1_f_93_88)">
<circle cx="12.5" cy="120.5" r="41.5" fill="#FBB03B"/>
</g>
<path d="M60.2173 51.1001C57.1173 57.4825 50.5526 62.0413 42.8937 62.0413C32.4996 62.0413 23.7467 53.4707 23.7467 42.8942C23.7467 32.5001 32.1349 23.7472 42.8937 23.7472C47.9996 23.7472 52.9232 25.7531 56.5702 29.4001C58.7585 31.5884 60.2173 34.1413 61.129 36.8766L65.3232 32.6825C64.0467 29.9472 62.4055 27.5766 60.2173 25.3884C55.4761 20.8295 49.2761 18.0942 42.7114 18.0942C29.2173 18.2766 18.0938 29.4001 18.0938 42.8942C18.0938 56.5707 29.2173 67.5119 42.7114 67.5119C55.4761 67.5119 65.6879 57.8472 67.1467 45.9942C64.4114 48.5472 63.3173 51.1001 60.2173 51.1001Z" fill="url(#paint0_linear_93_88)"/>
<path d="M75.7172 75.7177C72.9819 78.453 68.4231 78.453 65.5054 75.7177L57.1172 67.3294C59.1231 66.053 61.129 64.5941 62.7701 62.953C64.5937 61.1294 66.0525 59.3059 67.329 57.1177L75.7172 65.5059C78.4525 68.2412 78.6348 72.8 75.7172 75.7177Z" fill="url(#paint1_linear_93_88)"/>
<path d="M74.0762 34.1415L70.6115 37.6062L61.1292 46.9062C60.3998 47.6356 59.3057 47.6356 58.5762 46.9062L52.5586 40.8886L43.0763 50.3709C42.3468 51.1003 41.2527 51.1003 40.5233 50.3709L36.3292 46.1768L30.3115 52.1944C29.5821 51.2827 28.8527 50.0062 28.3057 48.9121L35.0527 42.5297C35.7821 41.8003 36.8763 41.8003 37.6057 42.5297L41.7998 46.7239L51.2821 37.2415C52.0115 36.5121 53.1057 36.5121 53.8351 37.2415L58.2115 41.618L59.8527 43.2592L69.5174 33.5944L71.5233 31.5886C72.2527 30.8592 73.3468 30.8592 74.0762 31.5886C74.8057 32.318 74.8057 33.4121 74.0762 34.1415Z" fill="url(#paint2_linear_93_88)"/>
</g>
<g filter="url(#filter2_d_93_88)">
<path d="M138.348 37.696L136.164 32.86L133.72 37.696H138.348ZM128.546 42.532C128.771 42.4973 128.945 42.3847 129.066 42.194C129.205 42.0033 129.335 41.7867 129.456 41.544L134.266 31.43C134.387 31.2047 134.491 30.9967 134.578 30.806C134.682 30.6153 134.734 30.4507 134.734 30.312C134.734 30.1387 134.673 30.0173 134.552 29.948C134.431 29.8787 134.301 29.8267 134.162 29.792V29.324H138.556V29.792C138.435 29.8267 138.313 29.8787 138.192 29.948C138.071 30 138.01 30.1213 138.01 30.312C138.01 30.4507 138.036 30.5893 138.088 30.728C138.157 30.8667 138.253 31.0487 138.374 31.274L143.782 41.856C143.869 42.0467 143.981 42.1853 144.12 42.272C144.276 42.3587 144.449 42.4453 144.64 42.532V43H140.064V42.532C140.133 42.532 140.22 42.506 140.324 42.454C140.428 42.402 140.48 42.324 140.48 42.22C140.48 42.0467 140.411 41.8213 140.272 41.544L139.284 39.62H132.94L132.004 41.466C131.831 41.83 131.744 42.09 131.744 42.246C131.744 42.4367 131.909 42.532 132.238 42.532V43H128.546V42.532ZM159.642 30.26C159.642 29.948 159.451 29.792 159.07 29.792V29.324H163.074V29.792C162.952 29.792 162.84 29.8353 162.736 29.922C162.649 29.9913 162.606 30.104 162.606 30.26V42.064C162.606 42.22 162.649 42.3413 162.736 42.428C162.84 42.4973 162.952 42.532 163.074 42.532V43H159.07V42.532C159.451 42.532 159.642 42.376 159.642 42.064V37.176H151.27V42.064C151.27 42.22 151.313 42.3413 151.4 42.428C151.504 42.4973 151.616 42.532 151.738 42.532V43H147.812V42.532C148.141 42.532 148.306 42.376 148.306 42.064V30.26C148.306 29.948 148.141 29.792 147.812 29.792V29.324H151.738V29.792C151.616 29.792 151.504 29.8353 151.4 29.922C151.313 29.9913 151.27 30.104 151.27 30.26V34.68H159.642V30.26ZM175.926 37.696L173.742 32.86L171.298 37.696H175.926ZM166.124 42.532C166.349 42.4973 166.523 42.3847 166.644 42.194C166.783 42.0033 166.913 41.7867 167.034 41.544L171.844 31.43C171.965 31.2047 172.069 30.9967 172.156 30.806C172.26 30.6153 172.312 30.4507 172.312 30.312C172.312 30.1387 172.251 30.0173 172.13 29.948C172.009 29.8787 171.879 29.8267 171.74 29.792V29.324H176.134V29.792C176.013 29.8267 175.891 29.8787 175.77 29.948C175.649 30 175.588 30.1213 175.588 30.312C175.588 30.4507 175.614 30.5893 175.666 30.728C175.735 30.8667 175.831 31.0487 175.952 31.274L181.36 41.856C181.447 42.0467 181.559 42.1853 181.698 42.272C181.854 42.3587 182.027 42.4453 182.218 42.532V43H177.642V42.532C177.711 42.532 177.798 42.506 177.902 42.454C178.006 42.402 178.058 42.324 178.058 42.22C178.058 42.0467 177.989 41.8213 177.85 41.544L176.862 39.62H170.518L169.582 41.466C169.409 41.83 169.322 42.09 169.322 42.246C169.322 42.4367 169.487 42.532 169.816 42.532V43H166.124V42.532ZM191.084 32.86L187.236 41.466C187.063 41.8127 186.976 42.0727 186.976 42.246C186.976 42.4367 187.141 42.532 187.47 42.532V43H183.466V42.532C183.691 42.4973 183.865 42.3847 183.986 42.194C184.125 42.0033 184.255 41.7867 184.376 41.544L189.186 31.43C189.29 31.2047 189.394 30.9967 189.498 30.806C189.602 30.6153 189.654 30.4507 189.654 30.312C189.654 30.1387 189.593 30.0173 189.472 29.948C189.351 29.8787 189.221 29.8267 189.082 29.792V29.324H193.476V29.792C193.355 29.8267 193.233 29.8787 193.112 29.948C192.991 30 192.93 30.1213 192.93 30.312C192.93 30.4507 192.956 30.5893 193.008 30.728C193.077 30.8667 193.173 31.0487 193.294 31.274L198.702 41.856C198.789 42.0467 198.901 42.1853 199.04 42.272C199.196 42.3587 199.369 42.4453 199.56 42.532V43H194.984V42.532C195.053 42.532 195.14 42.506 195.244 42.454C195.348 42.402 195.4 42.324 195.4 42.22C195.4 42.0813 195.331 41.856 195.192 41.544L191.084 32.86ZM218.098 43H214.25V42.532C214.648 42.532 214.848 42.376 214.848 42.064V33.172L206.918 41.7C206.64 41.9773 206.502 42.1767 206.502 42.298C206.502 42.454 206.614 42.532 206.84 42.532V43H202.628V42.532C202.957 42.532 203.122 42.376 203.122 42.064V30.26C203.122 29.948 202.957 29.792 202.628 29.792V29.324H206.554V29.792C206.103 29.792 205.878 29.948 205.878 30.26V38.788L213.34 30.78C213.686 30.4333 213.86 30.1907 213.86 30.052C213.86 29.8787 213.79 29.792 213.652 29.792V29.324H218.098V29.792C217.768 29.792 217.604 29.948 217.604 30.26V42.064C217.604 42.376 217.768 42.532 218.098 42.532V43ZM229.286 43.078C228.419 43.078 227.613 43 226.868 42.844C226.14 42.688 225.49 42.5147 224.918 42.324C224.363 42.116 223.895 41.934 223.514 41.778C223.15 41.622 222.907 41.544 222.786 41.544C222.699 41.544 222.621 41.5613 222.552 41.596C222.5 41.6307 222.439 41.6653 222.37 41.7L222.136 41.622L223.644 37.878L223.93 38.034C223.913 38.0513 223.904 38.112 223.904 38.216V38.398C223.904 38.7967 224.077 39.152 224.424 39.464C224.771 39.776 225.213 40.0447 225.75 40.27C226.305 40.478 226.911 40.6427 227.57 40.764C228.229 40.868 228.87 40.92 229.494 40.92C229.945 40.92 230.404 40.894 230.872 40.842C231.357 40.7727 231.791 40.66 232.172 40.504C232.571 40.348 232.891 40.14 233.134 39.88C233.394 39.6027 233.524 39.2473 233.524 38.814C233.524 38.398 233.403 38.0687 233.16 37.826C232.917 37.566 232.605 37.3667 232.224 37.228C231.843 37.0893 231.418 37.0027 230.95 36.968C230.499 36.916 230.057 36.89 229.624 36.89C228.948 36.89 228.437 36.9333 228.09 37.02C227.743 37.0893 227.518 37.28 227.414 37.592H227.102V34.056H227.414C227.449 34.4027 227.657 34.6367 228.038 34.758C228.419 34.862 228.948 34.914 229.624 34.914C230.04 34.914 230.456 34.888 230.872 34.836C231.288 34.784 231.661 34.6887 231.99 34.55C232.337 34.4113 232.614 34.2207 232.822 33.978C233.047 33.7353 233.16 33.432 233.16 33.068C233.16 32.7213 233.065 32.444 232.874 32.236C232.683 32.0107 232.415 31.8373 232.068 31.716C231.739 31.5947 231.349 31.5167 230.898 31.482C230.447 31.43 229.962 31.404 229.442 31.404C228.853 31.404 228.272 31.456 227.7 31.56C227.145 31.664 226.651 31.8027 226.218 31.976C225.785 32.1493 225.438 32.34 225.178 32.548C224.918 32.756 224.788 32.964 224.788 33.172C224.788 33.2413 224.797 33.328 224.814 33.432C224.831 33.5187 224.857 33.6053 224.892 33.692L224.658 33.848L222.578 31.196L222.89 30.962C223.029 31.0487 223.176 31.092 223.332 31.092C223.419 31.092 223.609 30.9967 223.904 30.806C224.199 30.598 224.606 30.3727 225.126 30.13C225.646 29.8873 226.279 29.6707 227.024 29.48C227.769 29.272 228.645 29.168 229.65 29.168C230.447 29.168 231.227 29.2373 231.99 29.376C232.753 29.5147 233.429 29.74 234.018 30.052C234.607 30.3467 235.084 30.7367 235.448 31.222C235.812 31.69 235.994 32.262 235.994 32.938C235.994 33.562 235.812 34.1427 235.448 34.68C235.084 35.2 234.59 35.5293 233.966 35.668V35.72C234.711 35.8933 235.318 36.24 235.786 36.76C236.271 37.2627 236.514 37.904 236.514 38.684C236.514 39.5853 236.289 40.322 235.838 40.894C235.405 41.466 234.833 41.9167 234.122 42.246C233.429 42.558 232.657 42.7747 231.808 42.896C230.959 43.0173 230.118 43.078 229.286 43.078ZM139.44 59.044C140.012 59.044 140.497 58.9313 140.896 58.706C141.312 58.4807 141.52 58.0387 141.52 57.38C141.52 56.7213 141.312 56.2793 140.896 56.054C140.497 55.8287 140.012 55.716 139.44 55.716H133.902V59.044H139.44ZM129.976 67V66.532C130.617 66.532 130.938 66.376 130.938 66.064V54.26C130.938 53.948 130.617 53.792 129.976 53.792V53.324H139.128C140.792 53.324 142.101 53.636 143.054 54.26C144.007 54.8667 144.484 55.9067 144.484 57.38C144.484 58.8533 144.007 59.902 143.054 60.526C142.101 61.1327 140.792 61.436 139.128 61.436H133.902V66.064C133.902 66.376 134.179 66.532 134.734 66.532V67H129.976ZM163.75 66.532C164.2 66.532 164.426 66.376 164.426 66.064V54.26C164.426 53.948 164.2 53.792 163.75 53.792V53.324H168.066V53.792C167.615 53.792 167.39 53.948 167.39 54.26V66.064C167.39 66.376 167.615 66.532 168.066 66.532V67H163.75V66.532ZM155.898 64.608C156.99 64.608 157.77 64.4087 158.238 64.01C158.723 63.594 158.966 63.0567 158.966 62.398C158.966 61.7393 158.723 61.2713 158.238 60.994C157.77 60.6993 156.99 60.552 155.898 60.552H151.192V64.608H155.898ZM156.782 58.316C157.562 58.316 158.272 58.394 158.914 58.55C159.555 58.6887 160.092 58.9227 160.526 59.252C160.976 59.5813 161.323 60.0147 161.566 60.552C161.808 61.072 161.93 61.7133 161.93 62.476C161.93 64.0013 161.462 65.1367 160.526 65.882C159.607 66.6273 158.359 67 156.782 67H147.5V66.532C147.985 66.532 148.228 66.376 148.228 66.064V54.26C148.228 53.948 147.985 53.792 147.5 53.792V53.324H151.868V53.792C151.417 53.792 151.192 53.948 151.192 54.26V58.316H156.782ZM184.55 54.26C184.55 53.948 184.359 53.792 183.978 53.792V53.324H187.982V53.792C187.861 53.792 187.748 53.8353 187.644 53.922C187.557 53.9913 187.514 54.104 187.514 54.26V66.064C187.514 66.22 187.557 66.3413 187.644 66.428C187.748 66.4973 187.861 66.532 187.982 66.532V67H183.978V66.532C184.359 66.532 184.55 66.376 184.55 66.064V61.176H176.178V66.064C176.178 66.22 176.221 66.3413 176.308 66.428C176.412 66.4973 176.525 66.532 176.646 66.532V67H172.72V66.532C173.049 66.532 173.214 66.376 173.214 66.064V54.26C173.214 53.948 173.049 53.792 172.72 53.792V53.324H176.646V53.792C176.525 53.792 176.412 53.8353 176.308 53.922C176.221 53.9913 176.178 54.104 176.178 54.26V58.68H184.55V54.26ZM195.92 66.064C195.92 66.22 195.972 66.3413 196.076 66.428C196.18 66.4973 196.302 66.532 196.44 66.532V67H192.384V66.532C192.766 66.532 192.956 66.376 192.956 66.064V54.26C192.956 53.948 192.766 53.792 192.384 53.792V53.324H196.44V53.792C196.302 53.792 196.18 53.8353 196.076 53.922C195.972 53.9913 195.92 54.104 195.92 54.26V59.2L201.302 54.962C201.545 54.754 201.736 54.5893 201.874 54.468C202.013 54.3293 202.082 54.2167 202.082 54.13C202.082 54.0087 202.039 53.922 201.952 53.87C201.883 53.818 201.796 53.792 201.692 53.792V53.324H207.152V53.792C206.84 53.792 206.528 53.922 206.216 54.182L200.236 58.94L205.696 65.258C205.922 65.518 206.182 65.778 206.476 66.038C206.788 66.2807 207.092 66.4453 207.386 66.532V67H202.576V66.532C202.802 66.532 202.914 66.4713 202.914 66.35C202.914 66.2633 202.793 66.0727 202.55 65.778L198.104 60.656L195.92 62.346V66.064ZM218.176 61.696L215.992 56.86L213.548 61.696H218.176ZM208.374 66.532C208.599 66.4973 208.773 66.3847 208.894 66.194C209.033 66.0033 209.163 65.7867 209.284 65.544L214.094 55.43C214.215 55.2047 214.319 54.9967 214.406 54.806C214.51 54.6153 214.562 54.4507 214.562 54.312C214.562 54.1387 214.501 54.0173 214.38 53.948C214.259 53.8787 214.129 53.8267 213.99 53.792V53.324H218.384V53.792C218.263 53.8267 218.141 53.8787 218.02 53.948C217.899 54 217.838 54.1213 217.838 54.312C217.838 54.4507 217.864 54.5893 217.916 54.728C217.985 54.8667 218.081 55.0487 218.202 55.274L223.61 65.856C223.697 66.0467 223.809 66.1853 223.948 66.272C224.104 66.3587 224.277 66.4453 224.468 66.532V67H219.892V66.532C219.961 66.532 220.048 66.506 220.152 66.454C220.256 66.402 220.308 66.324 220.308 66.22C220.308 66.0467 220.239 65.8213 220.1 65.544L219.112 63.62H212.768L211.832 65.466C211.659 65.83 211.572 66.09 211.572 66.246C211.572 66.4367 211.737 66.532 212.066 66.532V67H208.374V66.532Z" fill="white"/>
</g>
<path d="M4.72 132V125C4.72 124.4 4.63333 123.92 4.46 123.56C4.3 123.187 3.92 123 3.32 123H3.02V122.6H4.72C5.18667 122.6 5.54667 122.66 5.8 122.78C6.06667 122.9 6.25333 123.133 6.36 123.48C6.46667 123.827 6.52 124.333 6.52 125V130.2L10.72 122.6H12.52V132H10.72V124.4L6.52 132H4.72ZM19.257 132.2C18.2704 132.2 17.4504 131.98 16.797 131.54C16.1437 131.1 15.657 130.507 15.337 129.76C15.017 129.013 14.857 128.193 14.857 127.3C14.857 126.393 15.017 125.573 15.337 124.84C15.657 124.093 16.1437 123.5 16.797 123.06C17.4504 122.62 18.2704 122.4 19.257 122.4C19.9637 122.4 20.557 122.453 21.037 122.56C21.5304 122.667 21.9037 122.847 22.157 123.1C22.4104 123.353 22.557 123.667 22.597 124.04C22.637 124.4 22.657 124.953 22.657 125.7H22.257C22.2037 124.847 21.9304 124.22 21.437 123.82C20.957 123.407 20.3637 123.2 19.657 123.2C18.9904 123.2 18.4437 123.387 18.017 123.76C17.5904 124.12 17.2704 124.607 17.057 125.22C16.857 125.833 16.757 126.527 16.757 127.3C16.757 128.06 16.857 128.753 17.057 129.38C17.2704 129.993 17.5904 130.487 18.017 130.86C18.4437 131.22 18.9904 131.4 19.657 131.4C20.3637 131.4 20.937 131.26 21.377 130.98C21.817 130.7 22.2104 130.307 22.557 129.8L22.957 130.1C22.6637 130.607 22.3304 131.013 21.957 131.32C21.5837 131.627 21.1704 131.853 20.717 132C20.277 132.133 19.7904 132.2 19.257 132.2ZM28.925 132.2C27.9383 132.2 27.1183 131.98 26.465 131.54C25.8117 131.1 25.325 130.507 25.005 129.76C24.685 129.013 24.525 128.193 24.525 127.3C24.525 126.393 24.685 125.573 25.005 124.84C25.325 124.093 25.8117 123.5 26.465 123.06C27.1183 122.62 27.9383 122.4 28.925 122.4C29.6317 122.4 30.225 122.453 30.705 122.56C31.1983 122.667 31.5717 122.847 31.825 123.1C32.0783 123.353 32.225 123.667 32.265 124.04C32.305 124.4 32.325 124.953 32.325 125.7H31.925C31.8717 124.847 31.5983 124.22 31.105 123.82C30.625 123.407 30.0317 123.2 29.325 123.2C28.6583 123.2 28.1117 123.387 27.685 123.76C27.2583 124.12 26.9383 124.607 26.725 125.22C26.525 125.833 26.425 126.527 26.425 127.3C26.425 128.06 26.525 128.753 26.725 129.38C26.9383 129.993 27.2583 130.487 27.685 130.86C28.1117 131.22 28.6583 131.4 29.325 131.4C30.0317 131.4 30.605 131.26 31.045 130.98C31.485 130.7 31.8783 130.307 32.225 129.8L32.625 130.1C32.3317 130.607 31.9983 131.013 31.625 131.32C31.2517 131.627 30.8383 131.853 30.385 132C29.945 132.133 29.4583 132.2 28.925 132.2ZM34.453 132.2C34.3463 132.2 34.1796 132.18 33.953 132.14C33.7396 132.1 33.5796 132.06 33.473 132.02V131.52C33.793 131.52 34.1063 131.44 34.413 131.28C34.733 131.107 35.013 130.793 35.253 130.34C35.5063 129.873 35.7063 129.213 35.853 128.36C35.9996 127.493 36.073 126.373 36.073 125C36.073 124.4 35.9863 123.92 35.813 123.56C35.653 123.187 35.2663 123 34.653 123V122.6H42.773V132H40.973V123.4H37.453V125C37.453 126.493 37.3663 127.713 37.193 128.66C37.033 129.607 36.8063 130.34 36.513 130.86C36.233 131.367 35.913 131.72 35.553 131.92C35.193 132.107 34.8263 132.2 34.453 132.2ZM49.3109 132.2C48.3776 132.2 47.5976 131.98 46.9709 131.54C46.3576 131.1 45.8909 130.507 45.5709 129.76C45.2643 129.013 45.1109 128.193 45.1109 127.3C45.1109 126.393 45.2709 125.573 45.5909 124.84C45.9109 124.093 46.3709 123.5 46.9709 123.06C47.5709 122.62 48.2843 122.4 49.1109 122.4C50.0176 122.4 50.7643 122.573 51.3509 122.92C51.9509 123.253 52.3909 123.747 52.6709 124.4C52.9643 125.053 53.1109 125.853 53.1109 126.8L53.0709 127.6H47.0109C47.0109 128.693 47.2443 129.6 47.7109 130.32C48.1909 131.04 48.8576 131.4 49.7109 131.4C50.3643 131.4 50.9043 131.26 51.3309 130.98C51.7709 130.7 52.1643 130.307 52.5109 129.8L52.9109 130.1C52.6176 130.607 52.2843 131.013 51.9109 131.32C51.5509 131.627 51.1509 131.853 50.7109 132C50.2843 132.133 49.8176 132.2 49.3109 132.2ZM47.0109 126.8H51.2109C51.2109 125.64 51.0376 124.753 50.6909 124.14C50.3443 123.513 49.8176 123.2 49.1109 123.2C48.7109 123.2 48.3509 123.36 48.0309 123.68C47.7243 123.987 47.4776 124.413 47.2909 124.96C47.1043 125.493 47.0109 126.107 47.0109 126.8ZM54.1208 135.1V131.9C54.1208 131.7 54.1874 131.533 54.3208 131.4C54.4541 131.267 54.6208 131.2 54.8208 131.2H55.4208C55.7274 130.533 55.9674 129.84 56.1408 129.12C56.3141 128.387 56.4341 127.667 56.5008 126.96C56.5808 126.253 56.6208 125.6 56.6208 125C56.6208 124.4 56.5341 123.92 56.3608 123.56C56.2008 123.187 55.8208 123 55.2208 123V122.6H63.2208V131.2H64.0208C64.2208 131.2 64.3874 131.267 64.5208 131.4C64.6541 131.533 64.7208 131.7 64.7208 131.9V135.1H63.9208C63.8541 134.353 63.7341 133.753 63.5608 133.3C63.4008 132.847 63.1808 132.513 62.9008 132.3C62.6208 132.1 62.2608 132 61.8208 132H57.0208C56.5941 132 56.2341 132.1 55.9408 132.3C55.6608 132.513 55.4408 132.847 55.2808 133.3C55.1208 133.753 55.0008 134.353 54.9208 135.1H54.1208ZM56.8208 131.2H61.4208V123.4H57.9208C57.9208 125.107 57.8341 126.587 57.6608 127.84C57.5008 129.08 57.2208 130.2 56.8208 131.2ZM67.307 136V135.4C67.9204 135.4 68.4404 135.26 68.867 134.98C69.307 134.713 69.687 134.153 70.007 133.3L70.407 132.2L67.207 124.4C67.007 123.893 66.7137 123.513 66.327 123.26C65.9537 123.007 65.5137 122.853 65.007 122.8V122.4H66.707C67.307 122.4 67.8004 122.54 68.187 122.82C68.587 123.1 68.8937 123.493 69.107 124L71.387 129.54L73.907 122.6H74.907L71.007 133.3C70.7404 134.033 70.4537 134.593 70.147 134.98C69.8537 135.367 69.5204 135.633 69.147 135.78C68.787 135.927 68.3737 136 67.907 136H67.307ZM80.4633 132.2C79.5299 132.2 78.7499 131.98 78.1233 131.54C77.5099 131.1 77.0433 130.507 76.7233 129.76C76.4166 129.013 76.2633 128.193 76.2633 127.3C76.2633 126.393 76.4233 125.573 76.7433 124.84C77.0633 124.093 77.5233 123.5 78.1233 123.06C78.7233 122.62 79.4366 122.4 80.2633 122.4C81.1699 122.4 81.9166 122.573 82.5033 122.92C83.1033 123.253 83.5433 123.747 83.8233 124.4C84.1166 125.053 84.2633 125.853 84.2633 126.8L84.2233 127.6H78.1633C78.1633 128.693 78.3966 129.6 78.8633 130.32C79.3433 131.04 80.0099 131.4 80.8633 131.4C81.5166 131.4 82.0566 131.26 82.4833 130.98C82.9233 130.7 83.3166 130.307 83.6633 129.8L84.0633 130.1C83.7699 130.607 83.4366 131.013 83.0633 131.32C82.7033 131.627 82.3033 131.853 81.8633 132C81.4366 132.133 80.9699 132.2 80.4633 132.2ZM78.1633 126.8H82.3633C82.3633 125.64 82.1899 124.753 81.8433 124.14C81.4966 123.513 80.9699 123.2 80.2633 123.2C79.8633 123.2 79.5033 123.36 79.1833 123.68C78.8766 123.987 78.6299 124.413 78.4433 124.96C78.2566 125.493 78.1633 126.107 78.1633 126.8ZM97.7689 132.4C96.5156 132.4 95.6489 132.093 95.1689 131.48C94.7022 130.867 94.4689 130.04 94.4689 129V124.7L91.1689 132H90.7689L87.3689 124.5V132H86.5689V122.6H88.4689L91.4689 129.2L94.4689 122.6H96.2689V129C96.2689 129.493 96.3289 129.973 96.4489 130.44C96.5822 130.893 96.7622 131.267 96.9889 131.56C97.2156 131.853 97.4756 132 97.7689 132V132.4ZM104.837 132V125C104.837 124.4 104.751 123.92 104.577 123.56C104.417 123.187 104.037 123 103.437 123H103.137V122.6H104.837C105.304 122.6 105.664 122.66 105.917 122.78C106.184 122.9 106.371 123.133 106.477 123.48C106.584 123.827 106.637 124.333 106.637 125V126.9H110.637V122.6H112.437V129.6C112.437 130.2 112.517 130.687 112.677 131.06C112.851 131.42 113.237 131.6 113.837 131.6H114.137V132H112.437C111.971 132 111.604 131.94 111.337 131.82C111.084 131.7 110.904 131.467 110.797 131.12C110.691 130.773 110.637 130.267 110.637 129.6V127.7H106.637V132H104.837ZM115.892 132V125C115.892 124.4 115.805 123.92 115.632 123.56C115.472 123.187 115.092 123 114.492 123H114.192V122.6H115.892C116.359 122.6 116.719 122.66 116.972 122.78C117.239 122.9 117.425 123.133 117.532 123.48C117.639 123.827 117.692 124.333 117.692 125V130.2L121.892 122.6H123.692V132H121.892V124.4L117.692 132H115.892ZM126.849 132V125C126.849 124.4 126.762 123.92 126.589 123.56C126.429 123.187 126.049 123 125.449 123H125.149V122.6H126.849C127.316 122.6 127.676 122.66 127.929 122.78C128.196 122.9 128.382 123.133 128.489 123.48C128.596 123.827 128.649 124.333 128.649 125V131.2H131.749V122.6H133.549V131.2H136.649V122.6H138.449V132H126.849ZM141.995 136V135.4C142.608 135.4 143.128 135.26 143.555 134.98C143.995 134.713 144.375 134.153 144.695 133.3L145.095 132.2L141.895 124.4C141.695 123.893 141.401 123.513 141.015 123.26C140.641 123.007 140.201 122.853 139.695 122.8V122.4H141.395C141.995 122.4 142.488 122.54 142.875 122.82C143.275 123.1 143.581 123.493 143.795 124L146.075 129.54L148.595 122.6H149.595L145.695 133.3C145.428 134.033 145.141 134.593 144.835 134.98C144.541 135.367 144.208 135.633 143.835 135.78C143.475 135.927 143.061 136 142.595 136H141.995ZM150.983 135.1L150.783 134.8C151.129 134.573 151.416 134.327 151.643 134.06C151.883 133.793 152.063 133.5 152.183 133.18C152.316 132.86 152.383 132.5 152.383 132.1C152.329 132.14 152.243 132.18 152.123 132.22C152.003 132.273 151.889 132.3 151.783 132.3C151.476 132.3 151.216 132.193 151.003 131.98C150.789 131.767 150.683 131.507 150.683 131.2C150.683 130.853 150.796 130.567 151.023 130.34C151.249 130.113 151.536 130 151.883 130C152.283 130 152.596 130.12 152.823 130.36C153.063 130.6 153.183 130.947 153.183 131.4C153.183 132.253 152.989 132.98 152.603 133.58C152.229 134.193 151.689 134.7 150.983 135.1ZM168.089 132.2C167.582 132.2 167.082 132.073 166.589 131.82C166.109 131.567 165.642 131.16 165.189 130.6L162.889 127.7V132H161.089V125C161.089 124.4 161.002 123.92 160.829 123.56C160.669 123.187 160.289 123 159.689 123H159.289V122.6H161.089C161.555 122.6 161.915 122.66 162.169 122.78C162.435 122.9 162.622 123.133 162.729 123.48C162.835 123.827 162.889 124.333 162.889 125V127.4L165.389 123.9C165.682 123.5 166.022 123.187 166.409 122.96C166.809 122.72 167.335 122.6 167.989 122.6H168.489V123.1C168.182 123.1 167.869 123.167 167.549 123.3C167.229 123.42 166.942 123.653 166.689 124L164.489 127.1L166.789 130C167.135 130.453 167.489 130.82 167.849 131.1C168.222 131.38 168.635 131.553 169.089 131.62V132C168.982 132.053 168.835 132.1 168.649 132.14C168.475 132.18 168.289 132.2 168.089 132.2ZM173.827 132.2C172.894 132.2 172.101 131.98 171.447 131.54C170.794 131.1 170.294 130.507 169.947 129.76C169.601 129.013 169.427 128.193 169.427 127.3C169.427 126.393 169.601 125.573 169.947 124.84C170.294 124.093 170.794 123.5 171.447 123.06C172.101 122.62 172.894 122.4 173.827 122.4C174.761 122.4 175.554 122.62 176.207 123.06C176.861 123.5 177.361 124.093 177.707 124.84C178.054 125.573 178.227 126.393 178.227 127.3C178.227 128.193 178.054 129.013 177.707 129.76C177.361 130.507 176.861 131.1 176.207 131.54C175.554 131.98 174.761 132.2 173.827 132.2ZM173.827 131.4C174.334 131.4 174.774 131.22 175.147 130.86C175.521 130.487 175.807 129.993 176.007 129.38C176.221 128.753 176.327 128.06 176.327 127.3C176.327 126.527 176.221 125.833 176.007 125.22C175.807 124.607 175.521 124.12 175.147 123.76C174.774 123.387 174.334 123.2 173.827 123.2C173.334 123.2 172.894 123.387 172.507 123.76C172.134 124.12 171.841 124.607 171.627 125.22C171.427 125.833 171.327 126.527 171.327 127.3C171.327 128.06 171.427 128.753 171.627 129.38C171.841 129.993 172.134 130.487 172.507 130.86C172.894 131.22 173.334 131.4 173.827 131.4ZM180.853 132V125C180.853 124.4 180.766 123.92 180.593 123.56C180.433 123.187 180.053 123 179.453 123H179.153V122.6H180.853C181.319 122.6 181.679 122.66 181.933 122.78C182.199 122.9 182.386 123.133 182.493 123.48C182.599 123.827 182.653 124.333 182.653 125V126.9H186.653V122.6H188.453V129.6C188.453 130.2 188.533 130.687 188.693 131.06C188.866 131.42 189.253 131.6 189.853 131.6H190.153V132H188.453C187.986 132 187.619 131.94 187.353 131.82C187.099 131.7 186.919 131.467 186.813 131.12C186.706 130.773 186.653 130.267 186.653 129.6V127.7H182.653V132H180.853ZM198.968 132.2C198.461 132.2 197.961 132.073 197.468 131.82C196.988 131.567 196.521 131.16 196.067 130.6L193.768 127.7V132H191.968V125C191.968 124.4 191.881 123.92 191.708 123.56C191.548 123.187 191.168 123 190.568 123H190.167V122.6H191.968C192.434 122.6 192.794 122.66 193.048 122.78C193.314 122.9 193.501 123.133 193.608 123.48C193.714 123.827 193.768 124.333 193.768 125V127.4L196.268 123.9C196.561 123.5 196.901 123.187 197.288 122.96C197.688 122.72 198.214 122.6 198.868 122.6H199.368V123.1C199.061 123.1 198.748 123.167 198.428 123.3C198.108 123.42 197.821 123.653 197.568 124L195.368 127.1L197.668 130C198.014 130.453 198.368 130.82 198.728 131.1C199.101 131.38 199.514 131.553 199.968 131.62V132C199.861 132.053 199.714 132.1 199.528 132.14C199.354 132.18 199.168 132.2 198.968 132.2ZM202.229 136V135.4C202.842 135.4 203.362 135.26 203.789 134.98C204.229 134.713 204.609 134.153 204.929 133.3L205.329 132.2L202.129 124.4C201.929 123.893 201.636 123.513 201.249 123.26C200.876 123.007 200.436 122.853 199.929 122.8V122.4H201.629C202.229 122.4 202.722 122.54 203.109 122.82C203.509 123.1 203.816 123.493 204.029 124L206.309 129.54L208.829 122.6H209.829L205.929 133.3C205.662 134.033 205.376 134.593 205.069 134.98C204.776 135.367 204.442 135.633 204.069 135.78C203.709 135.927 203.296 136 202.829 136H202.229ZM212.142 135.8V125C212.142 124.4 212.056 123.92 211.882 123.56C211.722 123.187 211.342 123 210.742 123H210.342V122.6H212.142C212.649 122.6 213.029 122.673 213.282 122.82C213.549 122.967 213.736 123.193 213.842 123.5C214.109 123.233 214.469 122.987 214.922 122.76C215.376 122.52 215.949 122.4 216.642 122.4C217.442 122.4 218.109 122.62 218.642 123.06C219.176 123.5 219.576 124.093 219.842 124.84C220.109 125.573 220.242 126.393 220.242 127.3C220.242 128.193 220.102 129.013 219.822 129.76C219.556 130.507 219.142 131.1 218.582 131.54C218.022 131.98 217.309 132.2 216.442 132.2C215.882 132.2 215.402 132.133 215.002 132C214.602 131.88 214.249 131.747 213.942 131.6V135.8H212.142ZM215.842 131.4C216.442 131.4 216.922 131.22 217.282 130.86C217.656 130.487 217.922 129.993 218.082 129.38C218.256 128.753 218.342 128.06 218.342 127.3C218.342 126.527 218.262 125.833 218.102 125.22C217.942 124.607 217.689 124.12 217.342 123.76C217.009 123.387 216.576 123.2 216.042 123.2C215.496 123.2 215.056 123.327 214.722 123.58C214.389 123.82 214.129 124.093 213.942 124.4V130.8C214.249 130.947 214.562 131.087 214.882 131.22C215.216 131.34 215.536 131.4 215.842 131.4ZM226.264 132.2C225.331 132.2 224.551 131.98 223.924 131.54C223.311 131.1 222.844 130.507 222.524 129.76C222.217 129.013 222.064 128.193 222.064 127.3C222.064 126.393 222.224 125.573 222.544 124.84C222.864 124.093 223.324 123.5 223.924 123.06C224.524 122.62 225.237 122.4 226.064 122.4C226.971 122.4 227.717 122.573 228.304 122.92C228.904 123.253 229.344 123.747 229.624 124.4C229.917 125.053 230.064 125.853 230.064 126.8L230.024 127.6H223.964C223.964 128.693 224.197 129.6 224.664 130.32C225.144 131.04 225.811 131.4 226.664 131.4C227.317 131.4 227.857 131.26 228.284 130.98C228.724 130.7 229.117 130.307 229.464 129.8L229.864 130.1C229.571 130.607 229.237 131.013 228.864 131.32C228.504 131.627 228.104 131.853 227.664 132C227.237 132.133 226.771 132.2 226.264 132.2ZM223.964 126.8H228.164C228.164 125.64 227.991 124.753 227.644 124.14C227.297 123.513 226.771 123.2 226.064 123.2C225.664 123.2 225.304 123.36 224.984 123.68C224.677 123.987 224.431 124.413 224.244 124.96C224.057 125.493 223.964 126.107 223.964 126.8ZM232.65 132V125C232.65 124.4 232.563 123.92 232.39 123.56C232.23 123.187 231.85 123 231.25 123H230.95V122.6H232.65C233.116 122.6 233.476 122.66 233.73 122.78C233.996 122.9 234.183 123.133 234.29 123.48C234.396 123.827 234.45 124.333 234.45 125V126.9H238.45V122.6H240.25V129.6C240.25 130.2 240.33 130.687 240.49 131.06C240.663 131.42 241.05 131.6 241.65 131.6H241.95V132H240.25C239.783 132 239.416 131.94 239.15 131.82C238.896 131.7 238.716 131.467 238.61 131.12C238.503 130.773 238.45 130.267 238.45 129.6V127.7H234.45V132H232.65ZM246.064 132V123.4H245.064C244.464 123.4 243.964 123.573 243.564 123.92C243.164 124.253 242.964 124.747 242.964 125.4H242.564V124.2C242.564 123.8 242.664 123.433 242.864 123.1C243.064 122.767 243.464 122.6 244.064 122.6H251.164V123.4H247.864V132H246.064ZM256.484 132.2C255.55 132.2 254.757 131.98 254.104 131.54C253.45 131.1 252.95 130.507 252.604 129.76C252.257 129.013 252.084 128.193 252.084 127.3C252.084 126.393 252.257 125.573 252.604 124.84C252.95 124.093 253.45 123.5 254.104 123.06C254.757 122.62 255.55 122.4 256.484 122.4C257.417 122.4 258.21 122.62 258.864 123.06C259.517 123.5 260.017 124.093 260.364 124.84C260.71 125.573 260.884 126.393 260.884 127.3C260.884 128.193 260.71 129.013 260.364 129.76C260.017 130.507 259.517 131.1 258.864 131.54C258.21 131.98 257.417 132.2 256.484 132.2ZM256.484 131.4C256.99 131.4 257.43 131.22 257.804 130.86C258.177 130.487 258.464 129.993 258.664 129.38C258.877 128.753 258.984 128.06 258.984 127.3C258.984 126.527 258.877 125.833 258.664 125.22C258.464 124.607 258.177 124.12 257.804 123.76C257.43 123.387 256.99 123.2 256.484 123.2C255.99 123.2 255.55 123.387 255.164 123.76C254.79 124.12 254.497 124.607 254.284 125.22C254.084 125.833 253.984 126.527 253.984 127.3C253.984 128.06 254.084 128.753 254.284 129.38C254.497 129.993 254.79 130.487 255.164 130.86C255.55 131.22 255.99 131.4 256.484 131.4ZM263.429 132V125C263.429 124.4 263.342 123.92 263.169 123.56C263.009 123.187 262.629 123 262.029 123H261.829V122.6H266.729C267.396 122.6 268.016 122.673 268.589 122.82C269.176 122.967 269.642 123.213 269.989 123.56C270.349 123.907 270.529 124.387 270.529 125C270.529 125.56 270.369 126.013 270.049 126.36C269.742 126.707 269.236 126.953 268.529 127.1C269.289 127.247 269.876 127.52 270.289 127.92C270.716 128.307 270.929 128.8 270.929 129.4C270.929 130.067 270.742 130.593 270.369 130.98C270.009 131.353 269.509 131.62 268.869 131.78C268.242 131.927 267.529 132 266.729 132H263.429ZM266.529 131.3C267.329 131.3 267.942 131.147 268.369 130.84C268.809 130.533 269.029 130.053 269.029 129.4C269.029 128.773 268.802 128.3 268.349 127.98C267.909 127.66 267.236 127.5 266.329 127.5H265.229V131.1C265.376 131.153 265.576 131.2 265.829 131.24C266.096 131.28 266.329 131.3 266.529 131.3ZM265.229 126.7H266.329C267.036 126.7 267.596 126.56 268.009 126.28C268.422 125.987 268.629 125.56 268.629 125C268.629 124.44 268.429 124.02 268.029 123.74C267.629 123.447 267.129 123.3 266.529 123.3C266.329 123.3 266.096 123.32 265.829 123.36C265.576 123.4 265.376 123.447 265.229 123.5V126.7ZM278.529 132V125C278.529 124.4 278.442 123.92 278.269 123.56C278.109 123.187 277.729 123 277.129 123H276.829V122.6H278.529C278.995 122.6 279.355 122.66 279.609 122.78C279.875 122.9 280.062 123.133 280.169 123.48C280.275 123.827 280.329 124.333 280.329 125V130.2L284.529 122.6H286.329V132H284.529V124.4L280.329 132H278.529ZM13.02 154.1C12.9533 153.353 12.8333 152.753 12.66 152.3C12.5 151.847 12.28 151.513 12 151.3C11.72 151.1 11.36 151 10.92 151H4.72V144C4.72 143.4 4.63333 142.92 4.46 142.56C4.3 142.187 3.92 142 3.32 142H3.02V141.6H4.72C5.18667 141.6 5.54667 141.66 5.8 141.78C6.06667 141.9 6.25333 142.133 6.36 142.48C6.46667 142.827 6.52 143.333 6.52 144V150.2H10.52V141.6H12.32V150.2H13.12C13.32 150.2 13.4867 150.267 13.62 150.4C13.7533 150.533 13.82 150.7 13.82 150.9V154.1H13.02ZM19.2914 151.2C18.3581 151.2 17.5781 150.98 16.9514 150.54C16.3381 150.1 15.8714 149.507 15.5514 148.76C15.2447 148.013 15.0914 147.193 15.0914 146.3C15.0914 145.393 15.2514 144.573 15.5714 143.84C15.8914 143.093 16.3514 142.5 16.9514 142.06C17.5514 141.62 18.2647 141.4 19.0914 141.4C19.9981 141.4 20.7447 141.573 21.3314 141.92C21.9314 142.253 22.3714 142.747 22.6514 143.4C22.9447 144.053 23.0914 144.853 23.0914 145.8L23.0514 146.6H16.9914C16.9914 147.693 17.2247 148.6 17.6914 149.32C18.1714 150.04 18.8381 150.4 19.6914 150.4C20.3447 150.4 20.8847 150.26 21.3114 149.98C21.7514 149.7 22.1447 149.307 22.4914 148.8L22.8914 149.1C22.5981 149.607 22.2647 150.013 21.8914 150.32C21.5314 150.627 21.1314 150.853 20.6914 151C20.2647 151.133 19.7981 151.2 19.2914 151.2ZM16.9914 145.8H21.1914C21.1914 144.64 21.0181 143.753 20.6714 143.14C20.3247 142.513 19.7981 142.2 19.0914 142.2C18.6914 142.2 18.3314 142.36 18.0114 142.68C17.7047 142.987 17.4581 143.413 17.2714 143.96C17.0847 144.493 16.9914 145.107 16.9914 145.8ZM24.9022 151.2C24.7955 151.2 24.6289 151.18 24.4022 151.14C24.1889 151.1 24.0289 151.06 23.9222 151.02V150.52C24.2422 150.52 24.5555 150.44 24.8622 150.28C25.1822 150.107 25.4622 149.793 25.7022 149.34C25.9555 148.873 26.1555 148.213 26.3022 147.36C26.4489 146.493 26.5222 145.373 26.5222 144C26.5222 143.4 26.4355 142.92 26.2622 142.56C26.1022 142.187 25.7155 142 25.1022 142V141.6H33.2222V151H31.4222V142.4H27.9022V144C27.9022 145.493 27.8155 146.713 27.6422 147.66C27.4822 148.607 27.2555 149.34 26.9622 149.86C26.6822 150.367 26.3622 150.72 26.0022 150.92C25.6422 151.107 25.2755 151.2 24.9022 151.2ZM39.7602 151.2C38.8268 151.2 38.0468 150.98 37.4202 150.54C36.8068 150.1 36.3402 149.507 36.0202 148.76C35.7135 148.013 35.5602 147.193 35.5602 146.3C35.5602 145.393 35.7202 144.573 36.0402 143.84C36.3602 143.093 36.8202 142.5 37.4202 142.06C38.0202 141.62 38.7335 141.4 39.5602 141.4C40.4668 141.4 41.2135 141.573 41.8002 141.92C42.4002 142.253 42.8402 142.747 43.1202 143.4C43.4135 144.053 43.5602 144.853 43.5602 145.8L43.5202 146.6H37.4602C37.4602 147.693 37.6935 148.6 38.1602 149.32C38.6402 150.04 39.3068 150.4 40.1602 150.4C40.8135 150.4 41.3535 150.26 41.7802 149.98C42.2202 149.7 42.6135 149.307 42.9602 148.8L43.3602 149.1C43.0668 149.607 42.7335 150.013 42.3602 150.32C42.0002 150.627 41.6002 150.853 41.1602 151C40.7335 151.133 40.2668 151.2 39.7602 151.2ZM37.4602 145.8H41.6602C41.6602 144.64 41.4868 143.753 41.1402 143.14C40.7935 142.513 40.2668 142.2 39.5602 142.2C39.1602 142.2 38.8002 142.36 38.4802 142.68C38.1735 142.987 37.9268 143.413 37.7402 143.96C37.5535 144.493 37.4602 145.107 37.4602 145.8ZM46.0658 151V144C46.0658 143.4 45.9791 142.92 45.8058 142.56C45.6458 142.187 45.2658 142 44.6658 142H44.4658V141.6H49.3658C50.0324 141.6 50.6524 141.673 51.2258 141.82C51.8124 141.967 52.2791 142.213 52.6258 142.56C52.9858 142.907 53.1658 143.387 53.1658 144C53.1658 144.56 53.0058 145.013 52.6858 145.36C52.3791 145.707 51.8724 145.953 51.1658 146.1C51.9258 146.247 52.5124 146.52 52.9258 146.92C53.3524 147.307 53.5658 147.8 53.5658 148.4C53.5658 149.067 53.3791 149.593 53.0058 149.98C52.6458 150.353 52.1458 150.62 51.5058 150.78C50.8791 150.927 50.1658 151 49.3658 151H46.0658ZM49.1658 150.3C49.9658 150.3 50.5791 150.147 51.0058 149.84C51.4458 149.533 51.6658 149.053 51.6658 148.4C51.6658 147.773 51.4391 147.3 50.9858 146.98C50.5458 146.66 49.8724 146.5 48.9658 146.5H47.8658V150.1C48.0124 150.153 48.2124 150.2 48.4658 150.24C48.7324 150.28 48.9658 150.3 49.1658 150.3ZM47.8658 145.7H48.9658C49.6724 145.7 50.2324 145.56 50.6458 145.28C51.0591 144.987 51.2658 144.56 51.2658 144C51.2658 143.44 51.0658 143.02 50.6658 142.74C50.2658 142.447 49.7658 142.3 49.1658 142.3C48.9658 142.3 48.7324 142.32 48.4658 142.36C48.2124 142.4 48.0124 142.447 47.8658 142.5V145.7ZM56.3695 155V154.4C56.9829 154.4 57.5029 154.26 57.9295 153.98C58.3695 153.713 58.7495 153.153 59.0695 152.3L59.4695 151.2L56.2695 143.4C56.0695 142.893 55.7762 142.513 55.3895 142.26C55.0162 142.007 54.5762 141.853 54.0695 141.8V141.4H55.7695C56.3695 141.4 56.8629 141.54 57.2495 141.82C57.6495 142.1 57.9562 142.493 58.1695 143L60.4495 148.54L62.9695 141.6H63.9695L60.0695 152.3C59.8029 153.033 59.5162 153.593 59.2095 153.98C58.9162 154.367 58.5829 154.633 58.2095 154.78C57.8495 154.927 57.4362 155 56.9695 155H56.3695ZM73.363 151.2C72.5763 151.2 71.8763 151.013 71.263 150.64C70.663 150.267 70.1896 149.747 69.843 149.08C69.4963 148.4 69.303 147.607 69.263 146.7H68.063V151H66.263V144C66.263 143.4 66.1763 142.92 66.003 142.56C65.843 142.187 65.463 142 64.863 142H64.563V141.6H66.263C66.7296 141.6 67.0896 141.66 67.343 141.78C67.6096 141.9 67.7963 142.133 67.903 142.48C68.0096 142.827 68.063 143.333 68.063 144V145.9H69.263C69.303 144.993 69.4963 144.207 69.843 143.54C70.1896 142.86 70.663 142.333 71.263 141.96C71.8763 141.587 72.5763 141.4 73.363 141.4C74.203 141.4 74.9296 141.607 75.543 142.02C76.1563 142.433 76.6296 143.007 76.963 143.74C77.2963 144.473 77.463 145.327 77.463 146.3C77.463 147.26 77.2963 148.113 76.963 148.86C76.6296 149.593 76.1563 150.167 75.543 150.58C74.9296 150.993 74.203 151.2 73.363 151.2ZM73.363 150.4C73.803 150.4 74.183 150.247 74.503 149.94C74.8363 149.633 75.0963 149.18 75.283 148.58C75.4696 147.967 75.563 147.207 75.563 146.3C75.563 145.393 75.4696 144.64 75.283 144.04C75.0963 143.427 74.8363 142.967 74.503 142.66C74.183 142.353 73.803 142.2 73.363 142.2C72.9363 142.2 72.5563 142.353 72.223 142.66C71.8896 142.967 71.6296 143.427 71.443 144.04C71.2563 144.64 71.163 145.393 71.163 146.3C71.163 147.207 71.2563 147.967 71.443 148.58C71.6296 149.18 71.8896 149.633 72.223 149.94C72.5563 150.247 72.9363 150.4 73.363 150.4ZM87.0511 151.2C86.7711 151.2 86.4644 151.153 86.1311 151.06C85.8111 150.98 85.4978 150.833 85.1911 150.62C84.8844 150.407 84.6311 150.12 84.4311 149.76C84.2444 149.4 84.1511 148.947 84.1511 148.4C84.1511 147.667 84.3844 147.1 84.8511 146.7C85.3311 146.3 85.9578 146.02 86.7311 145.86C87.5178 145.687 88.3578 145.6 89.2511 145.6H89.8511C89.8511 144.667 89.7578 143.96 89.5711 143.48C89.3844 142.987 89.1311 142.653 88.8111 142.48C88.5044 142.293 88.1511 142.2 87.7511 142.2C87.1911 142.2 86.7178 142.32 86.3311 142.56C85.9578 142.8 85.6978 143.247 85.5511 143.9H84.6511C84.6511 143.553 84.6711 143.233 84.7111 142.94C84.7511 142.633 84.8978 142.353 85.1511 142.1C85.4044 141.847 85.8178 141.667 86.3911 141.56C86.9644 141.453 87.5511 141.4 88.1511 141.4C88.6044 141.4 89.0378 141.453 89.4511 141.56C89.8778 141.667 90.2511 141.867 90.5711 142.16C90.9044 142.44 91.1644 142.86 91.3511 143.42C91.5511 143.967 91.6511 144.693 91.6511 145.6V151H90.6511L89.9511 150.1H89.8511C89.6511 150.353 89.3244 150.6 88.8711 150.84C88.4178 151.08 87.8111 151.2 87.0511 151.2ZM87.9511 150.3C88.4444 150.3 88.8311 150.18 89.1111 149.94C89.4044 149.687 89.6511 149.407 89.8511 149.1V146.4H89.2511C88.2511 146.4 87.4644 146.587 86.8911 146.96C86.3311 147.32 86.0511 147.8 86.0511 148.4C86.0511 149.053 86.2444 149.533 86.6311 149.84C87.0178 150.147 87.4578 150.3 87.9511 150.3ZM95.0023 155V154.4C95.6157 154.4 96.1357 154.26 96.5623 153.98C97.0023 153.713 97.3823 153.153 97.7023 152.3L98.1023 151.2L94.9023 143.4C94.7023 142.893 94.409 142.513 94.0223 142.26C93.649 142.007 93.209 141.853 92.7023 141.8V141.4H94.4023C95.0023 141.4 95.4957 141.54 95.8823 141.82C96.2823 142.1 96.589 142.493 96.8023 143L99.0823 148.54L101.602 141.6H102.602L98.7023 152.3C98.4357 153.033 98.149 153.593 97.8423 153.98C97.549 154.367 97.2157 154.633 96.8423 154.78C96.4823 154.927 96.069 155 95.6023 155H95.0023ZM103.496 154.1V150.9C103.496 150.7 103.562 150.533 103.696 150.4C103.829 150.267 103.996 150.2 104.196 150.2H104.796C105.102 149.533 105.342 148.84 105.516 148.12C105.689 147.387 105.809 146.667 105.876 145.96C105.956 145.253 105.996 144.6 105.996 144C105.996 143.4 105.909 142.92 105.736 142.56C105.576 142.187 105.196 142 104.596 142V141.6H112.596V150.2H113.396C113.596 150.2 113.762 150.267 113.896 150.4C114.029 150.533 114.096 150.7 114.096 150.9V154.1H113.296C113.229 153.353 113.109 152.753 112.936 152.3C112.776 151.847 112.556 151.513 112.276 151.3C111.996 151.1 111.636 151 111.196 151H106.396C105.969 151 105.609 151.1 105.316 151.3C105.036 151.513 104.816 151.847 104.656 152.3C104.496 152.753 104.376 153.353 104.296 154.1H103.496ZM106.196 150.2H110.796V142.4H107.296C107.296 144.107 107.209 145.587 107.036 146.84C106.876 148.08 106.596 149.2 106.196 150.2ZM116.302 151V144C116.302 143.4 116.215 142.92 116.042 142.56C115.882 142.187 115.502 142 114.902 142H114.602V141.6H116.302C116.769 141.6 117.129 141.66 117.382 141.78C117.649 141.9 117.835 142.133 117.942 142.48C118.049 142.827 118.102 143.333 118.102 144V149.2L122.302 141.6H124.102V151H122.302V143.4L118.102 151H116.302ZM129.619 151V142.4H128.619C128.019 142.4 127.519 142.573 127.119 142.92C126.719 143.253 126.519 143.747 126.519 144.4H126.119V143.2C126.119 142.8 126.219 142.433 126.419 142.1C126.619 141.767 127.019 141.6 127.619 141.6H134.719V142.4H131.419V151H129.619ZM140.038 151.2C139.105 151.2 138.312 150.98 137.658 150.54C137.005 150.1 136.505 149.507 136.158 148.76C135.812 148.013 135.638 147.193 135.638 146.3C135.638 145.393 135.812 144.573 136.158 143.84C136.505 143.093 137.005 142.5 137.658 142.06C138.312 141.62 139.105 141.4 140.038 141.4C140.972 141.4 141.765 141.62 142.418 142.06C143.072 142.5 143.572 143.093 143.918 143.84C144.265 144.573 144.438 145.393 144.438 146.3C144.438 147.193 144.265 148.013 143.918 148.76C143.572 149.507 143.072 150.1 142.418 150.54C141.765 150.98 140.972 151.2 140.038 151.2ZM140.038 150.4C140.545 150.4 140.985 150.22 141.358 149.86C141.732 149.487 142.018 148.993 142.218 148.38C142.432 147.753 142.538 147.06 142.538 146.3C142.538 145.527 142.432 144.833 142.218 144.22C142.018 143.607 141.732 143.12 141.358 142.76C140.985 142.387 140.545 142.2 140.038 142.2C139.545 142.2 139.105 142.387 138.718 142.76C138.345 143.12 138.052 143.607 137.838 144.22C137.638 144.833 137.538 145.527 137.538 146.3C137.538 147.06 137.638 147.753 137.838 148.38C138.052 148.993 138.345 149.487 138.718 149.86C139.105 150.22 139.545 150.4 140.038 150.4ZM147.084 154.8V144C147.084 143.4 146.997 142.92 146.824 142.56C146.664 142.187 146.284 142 145.684 142H145.284V141.6H147.084C147.59 141.6 147.97 141.673 148.224 141.82C148.49 141.967 148.677 142.193 148.784 142.5C149.05 142.233 149.41 141.987 149.864 141.76C150.317 141.52 150.89 141.4 151.584 141.4C152.384 141.4 153.05 141.62 153.584 142.06C154.117 142.5 154.517 143.093 154.784 143.84C155.05 144.573 155.184 145.393 155.184 146.3C155.184 147.193 155.044 148.013 154.764 148.76C154.497 149.507 154.084 150.1 153.524 150.54C152.964 150.98 152.25 151.2 151.384 151.2C150.824 151.2 150.344 151.133 149.944 151C149.544 150.88 149.19 150.747 148.884 150.6V154.8H147.084ZM150.784 150.4C151.384 150.4 151.864 150.22 152.224 149.86C152.597 149.487 152.864 148.993 153.024 148.38C153.197 147.753 153.284 147.06 153.284 146.3C153.284 145.527 153.204 144.833 153.044 144.22C152.884 143.607 152.63 143.12 152.284 142.76C151.95 142.387 151.517 142.2 150.984 142.2C150.437 142.2 149.997 142.327 149.664 142.58C149.33 142.82 149.07 143.093 148.884 143.4V149.8C149.19 149.947 149.504 150.087 149.824 150.22C150.157 150.34 150.477 150.4 150.784 150.4ZM157.825 151V144C157.825 143.4 157.739 142.92 157.565 142.56C157.405 142.187 157.025 142 156.425 142H156.125V141.6H157.825C158.292 141.6 158.652 141.66 158.905 141.78C159.172 141.9 159.359 142.133 159.465 142.48C159.572 142.827 159.625 143.333 159.625 144V149.2L163.825 141.6H165.625V151H163.825V143.4L159.625 151H157.825ZM175.883 151.2C175.096 151.2 174.396 151.013 173.783 150.64C173.183 150.267 172.709 149.747 172.363 149.08C172.016 148.4 171.823 147.607 171.783 146.7H170.583V151H168.783V144C168.783 143.4 168.696 142.92 168.523 142.56C168.363 142.187 167.983 142 167.383 142H167.083V141.6H168.783C169.249 141.6 169.609 141.66 169.863 141.78C170.129 141.9 170.316 142.133 170.423 142.48C170.529 142.827 170.583 143.333 170.583 144V145.9H171.783C171.823 144.993 172.016 144.207 172.363 143.54C172.709 142.86 173.183 142.333 173.783 141.96C174.396 141.587 175.096 141.4 175.883 141.4C176.723 141.4 177.449 141.607 178.063 142.02C178.676 142.433 179.149 143.007 179.483 143.74C179.816 144.473 179.983 145.327 179.983 146.3C179.983 147.26 179.816 148.113 179.483 148.86C179.149 149.593 178.676 150.167 178.063 150.58C177.449 150.993 176.723 151.2 175.883 151.2ZM175.883 150.4C176.323 150.4 176.703 150.247 177.023 149.94C177.356 149.633 177.616 149.18 177.803 148.58C177.989 147.967 178.082 147.207 178.082 146.3C178.082 145.393 177.989 144.64 177.803 144.04C177.616 143.427 177.356 142.967 177.023 142.66C176.703 142.353 176.323 142.2 175.883 142.2C175.456 142.2 175.076 142.353 174.743 142.66C174.409 142.967 174.149 143.427 173.963 144.04C173.776 144.64 173.683 145.393 173.683 146.3C173.683 147.207 173.776 147.967 173.963 148.58C174.149 149.18 174.409 149.633 174.743 149.94C175.076 150.247 175.456 150.4 175.883 150.4ZM186.211 154.1V150.9C186.211 150.7 186.277 150.533 186.411 150.4C186.544 150.267 186.711 150.2 186.911 150.2H187.511C187.817 149.533 188.057 148.84 188.231 148.12C188.404 147.387 188.524 146.667 188.591 145.96C188.671 145.253 188.711 144.6 188.711 144C188.711 143.4 188.624 142.92 188.451 142.56C188.291 142.187 187.911 142 187.311 142V141.6H195.311V150.2H196.111C196.311 150.2 196.477 150.267 196.611 150.4C196.744 150.533 196.811 150.7 196.811 150.9V154.1H196.011C195.944 153.353 195.824 152.753 195.651 152.3C195.491 151.847 195.271 151.513 194.991 151.3C194.711 151.1 194.351 151 193.911 151H189.111C188.684 151 188.324 151.1 188.031 151.3C187.751 151.513 187.531 151.847 187.371 152.3C187.211 152.753 187.091 153.353 187.011 154.1H186.211ZM188.911 150.2H193.511V142.4H190.011C190.011 144.107 189.924 145.587 189.751 146.84C189.591 148.08 189.311 149.2 188.911 150.2ZM198.457 151.2C198.35 151.2 198.184 151.18 197.957 151.14C197.744 151.1 197.584 151.06 197.477 151.02V150.52C197.797 150.52 198.11 150.44 198.417 150.28C198.737 150.107 199.017 149.793 199.257 149.34C199.51 148.873 199.71 148.213 199.857 147.36C200.004 146.493 200.077 145.373 200.077 144C200.077 143.4 199.99 142.92 199.817 142.56C199.657 142.187 199.27 142 198.657 142V141.6H206.777V151H204.977V142.4H201.457V144C201.457 145.493 201.37 146.713 201.197 147.66C201.037 148.607 200.81 149.34 200.517 149.86C200.237 150.367 199.917 150.72 199.557 150.92C199.197 151.107 198.83 151.2 198.457 151.2ZM209.655 151.2C209.455 151.2 209.255 151.18 209.055 151.14C208.868 151.1 208.702 151.053 208.555 151V150.6C209.022 150.547 209.402 150.353 209.695 150.02C209.988 149.687 210.242 149.347 210.455 149L211.655 146.9C211.055 146.793 210.522 146.52 210.055 146.08C209.588 145.64 209.355 145.047 209.355 144.3C209.355 143.607 209.535 143.067 209.895 142.68C210.268 142.28 210.755 142 211.355 141.84C211.968 141.68 212.635 141.6 213.355 141.6H218.055V142H217.975C217.415 142.013 217.055 142.207 216.895 142.58C216.735 142.94 216.655 143.413 216.655 144V151H214.855V147H213.295L212.095 149.4C211.788 150 211.448 150.453 211.075 150.76C210.702 151.053 210.228 151.2 209.655 151.2ZM213.555 146.3C213.755 146.3 213.982 146.28 214.235 146.24C214.502 146.2 214.708 146.153 214.855 146.1V142.5C214.708 142.447 214.502 142.4 214.235 142.36C213.982 142.32 213.755 142.3 213.555 142.3C212.848 142.3 212.288 142.46 211.875 142.78C211.462 143.087 211.255 143.593 211.255 144.3C211.255 145.007 211.462 145.52 211.875 145.84C212.288 146.147 212.848 146.3 213.555 146.3ZM227.89 151.2C227.357 151.2 226.863 151.133 226.41 151C225.97 150.853 225.563 150.627 225.19 150.32C224.83 150.013 224.497 149.607 224.19 149.1L224.59 148.8C224.937 149.307 225.33 149.7 225.77 149.98C226.21 150.26 226.783 150.4 227.49 150.4C228.41 150.4 229.11 150.06 229.59 149.38C230.07 148.7 230.337 147.84 230.39 146.8H226.19V146H230.39C230.363 145.293 230.237 144.653 230.01 144.08C229.797 143.507 229.483 143.053 229.07 142.72C228.657 142.373 228.13 142.2 227.49 142.2C226.783 142.2 226.183 142.407 225.69 142.82C225.21 143.22 224.943 143.847 224.89 144.7H224.49C224.49 143.953 224.51 143.4 224.55 143.04C224.59 142.667 224.737 142.353 224.99 142.1C225.243 141.847 225.61 141.667 226.09 141.56C226.583 141.453 227.183 141.4 227.89 141.4C228.89 141.4 229.71 141.62 230.35 142.06C231.003 142.5 231.49 143.093 231.81 143.84C232.13 144.573 232.29 145.393 232.29 146.3C232.29 147.193 232.13 148.013 231.81 148.76C231.49 149.507 231.003 150.1 230.35 150.54C229.71 150.98 228.89 151.2 227.89 151.2ZM238.915 154.8V151.2C237.849 151.173 236.955 150.94 236.235 150.5C235.529 150.06 234.995 149.473 234.635 148.74C234.289 148.007 234.115 147.193 234.115 146.3C234.115 145.393 234.289 144.58 234.635 143.86C234.995 143.127 235.529 142.54 236.235 142.1C236.955 141.66 237.849 141.427 238.915 141.4V140.2C238.915 139.6 238.829 139.12 238.655 138.76C238.495 138.387 238.115 138.2 237.515 138.2H237.215V137.8H238.915C239.382 137.8 239.742 137.86 239.995 137.98C240.262 138.1 240.449 138.333 240.555 138.68C240.662 139.027 240.715 139.533 240.715 140.2V141.4C241.782 141.427 242.669 141.66 243.375 142.1C244.095 142.54 244.629 143.127 244.975 143.86C245.335 144.58 245.515 145.393 245.515 146.3C245.515 147.193 245.335 148.007 244.975 148.74C244.629 149.473 244.095 150.06 243.375 150.5C242.669 150.94 241.782 151.173 240.715 151.2V154.8H238.915ZM238.935 150.5V142.1C238.269 142.167 237.715 142.38 237.275 142.74C236.849 143.1 236.529 143.58 236.315 144.18C236.115 144.78 236.015 145.487 236.015 146.3C236.015 147.1 236.115 147.807 236.315 148.42C236.529 149.02 236.849 149.5 237.275 149.86C237.715 150.207 238.269 150.42 238.935 150.5ZM240.695 150.5C241.375 150.42 241.929 150.207 242.355 149.86C242.782 149.5 243.095 149.02 243.295 148.42C243.509 147.807 243.615 147.1 243.615 146.3C243.615 145.487 243.509 144.78 243.295 144.18C243.095 143.58 242.782 143.1 242.355 142.74C241.929 142.38 241.375 142.167 240.695 142.1V150.5ZM252.158 154.8V151.2C251.091 151.173 250.198 150.94 249.478 150.5C248.771 150.06 248.238 149.473 247.878 148.74C247.531 148.007 247.358 147.193 247.358 146.3C247.358 145.393 247.531 144.58 247.878 143.86C248.238 143.127 248.771 142.54 249.478 142.1C250.198 141.66 251.091 141.427 252.158 141.4V140.2C252.158 139.6 252.071 139.12 251.898 138.76C251.738 138.387 251.358 138.2 250.758 138.2H250.458V137.8H252.158C252.624 137.8 252.984 137.86 253.238 137.98C253.504 138.1 253.691 138.333 253.798 138.68C253.904 139.027 253.958 139.533 253.958 140.2V141.4C255.024 141.427 255.911 141.66 256.618 142.1C257.338 142.54 257.871 143.127 258.218 143.86C258.578 144.58 258.758 145.393 258.758 146.3C258.758 147.193 258.578 148.007 258.218 148.74C257.871 149.473 257.338 150.06 256.618 150.5C255.911 150.94 255.024 151.173 253.958 151.2V154.8H252.158ZM252.178 150.5V142.1C251.511 142.167 250.958 142.38 250.518 142.74C250.091 143.1 249.771 143.58 249.558 144.18C249.358 144.78 249.258 145.487 249.258 146.3C249.258 147.1 249.358 147.807 249.558 148.42C249.771 149.02 250.091 149.5 250.518 149.86C250.958 150.207 251.511 150.42 252.178 150.5ZM253.938 150.5C254.618 150.42 255.171 150.207 255.598 149.86C256.024 149.5 256.338 149.02 256.537 148.42C256.751 147.807 256.858 147.1 256.858 146.3C256.858 145.487 256.751 144.78 256.537 144.18C256.338 143.58 256.024 143.1 255.598 142.74C255.171 142.38 254.618 142.167 253.938 142.1V150.5ZM264.78 151.2C263.846 151.2 263.066 150.98 262.44 150.54C261.826 150.1 261.36 149.507 261.04 148.76C260.733 148.013 260.58 147.193 260.58 146.3C260.58 145.393 260.74 144.573 261.06 143.84C261.38 143.093 261.84 142.5 262.44 142.06C263.04 141.62 263.753 141.4 264.58 141.4C265.486 141.4 266.233 141.573 266.82 141.92C267.42 142.253 267.86 142.747 268.14 143.4C268.433 144.053 268.58 144.853 268.58 145.8L268.54 146.6H262.48C262.48 147.693 262.713 148.6 263.18 149.32C263.66 150.04 264.326 150.4 265.18 150.4C265.833 150.4 266.373 150.26 266.8 149.98C267.24 149.7 267.633 149.307 267.98 148.8L268.38 149.1C268.086 149.607 267.753 150.013 267.38 150.32C267.02 150.627 266.62 150.853 266.18 151C265.753 151.133 265.286 151.2 264.78 151.2ZM262.48 145.8H266.68C266.68 144.64 266.506 143.753 266.16 143.14C265.813 142.513 265.286 142.2 264.58 142.2C264.18 142.2 263.82 142.36 263.5 142.68C263.193 142.987 262.946 143.413 262.76 143.96C262.573 144.493 262.48 145.107 262.48 145.8ZM278.225 151.2C277.719 151.2 277.219 151.073 276.725 150.82C276.245 150.567 275.779 150.16 275.325 149.6L273.025 146.7V151H271.225V144C271.225 143.4 271.139 142.92 270.965 142.56C270.805 142.187 270.425 142 269.825 142H269.425V141.6H271.225C271.692 141.6 272.052 141.66 272.305 141.78C272.572 141.9 272.759 142.133 272.865 142.48C272.972 142.827 273.025 143.333 273.025 144V146.4L275.525 142.9C275.819 142.5 276.159 142.187 276.545 141.96C276.945 141.72 277.472 141.6 278.125 141.6H278.625V142.1C278.319 142.1 278.005 142.167 277.685 142.3C277.365 142.42 277.079 142.653 276.825 143L274.625 146.1L276.925 149C277.272 149.453 277.625 149.82 277.985 150.1C278.359 150.38 278.772 150.553 279.225 150.62V151C279.119 151.053 278.972 151.1 278.785 151.14C278.612 151.18 278.425 151.2 278.225 151.2ZM283.467 151V142.4H282.467C281.867 142.4 281.367 142.573 280.967 142.92C280.567 143.253 280.367 143.747 280.367 144.4H279.967V143.2C279.967 142.8 280.067 142.433 280.267 142.1C280.467 141.767 280.867 141.6 281.467 141.6H288.567V142.4H285.267V151H283.467ZM290.579 151V144C290.579 143.4 290.493 142.92 290.319 142.56C290.159 142.187 289.779 142 289.179 142H288.879V141.6H290.579C291.046 141.6 291.406 141.66 291.659 141.78C291.926 141.9 292.113 142.133 292.219 142.48C292.326 142.827 292.379 143.333 292.379 144V149.2L296.579 141.6H298.379V151H296.579V143.4L292.379 151H290.579ZM301.456 151V144C301.456 143.4 301.37 142.92 301.196 142.56C301.036 142.187 300.656 142 300.056 142H299.856V141.6H304.756C305.423 141.6 306.043 141.673 306.616 141.82C307.203 141.967 307.67 142.213 308.016 142.56C308.376 142.907 308.556 143.387 308.556 144C308.556 144.56 308.396 145.013 308.076 145.36C307.77 145.707 307.263 145.953 306.556 146.1C307.316 146.247 307.903 146.52 308.316 146.92C308.743 147.307 308.956 147.8 308.956 148.4C308.956 149.067 308.77 149.593 308.396 149.98C308.036 150.353 307.536 150.62 306.896 150.78C306.27 150.927 305.556 151 304.756 151H301.456ZM304.556 150.3C305.356 150.3 305.97 150.147 306.396 149.84C306.836 149.533 307.056 149.053 307.056 148.4C307.056 147.773 306.83 147.3 306.376 146.98C305.936 146.66 305.263 146.5 304.356 146.5H303.256V150.1C303.403 150.153 303.603 150.2 303.856 150.24C304.123 150.28 304.356 150.3 304.556 150.3ZM303.256 145.7H304.356C305.063 145.7 305.623 145.56 306.036 145.28C306.45 144.987 306.656 144.56 306.656 144C306.656 143.44 306.456 143.02 306.056 142.74C305.656 142.447 305.156 142.3 304.556 142.3C304.356 142.3 304.123 142.32 303.856 142.36C303.603 142.4 303.403 142.447 303.256 142.5V145.7ZM311.556 151V144C311.556 143.4 311.469 142.92 311.296 142.56C311.136 142.187 310.756 142 310.156 142H309.856V141.6H311.556C312.023 141.6 312.383 141.66 312.636 141.78C312.903 141.9 313.089 142.133 313.196 142.48C313.303 142.827 313.356 143.333 313.356 144V145.9H317.356V141.6H319.156V148.6C319.156 149.2 319.236 149.687 319.396 150.06C319.569 150.42 319.956 150.6 320.556 150.6H320.856V151H319.156C318.689 151 318.323 150.94 318.056 150.82C317.803 150.7 317.623 150.467 317.516 150.12C317.409 149.773 317.356 149.267 317.356 148.6V146.7H313.356V151H311.556ZM326.191 151.2C325.257 151.2 324.464 150.98 323.811 150.54C323.157 150.1 322.657 149.507 322.311 148.76C321.964 148.013 321.791 147.193 321.791 146.3C321.791 145.393 321.964 144.573 322.311 143.84C322.657 143.093 323.157 142.5 323.811 142.06C324.464 141.62 325.257 141.4 326.191 141.4C327.124 141.4 327.917 141.62 328.571 142.06C329.224 142.5 329.724 143.093 330.071 143.84C330.417 144.573 330.591 145.393 330.591 146.3C330.591 147.193 330.417 148.013 330.071 148.76C329.724 149.507 329.224 150.1 328.571 150.54C327.917 150.98 327.124 151.2 326.191 151.2ZM326.191 150.4C326.697 150.4 327.137 150.22 327.511 149.86C327.884 149.487 328.171 148.993 328.371 148.38C328.584 147.753 328.691 147.06 328.691 146.3C328.691 145.527 328.584 144.833 328.371 144.22C328.171 143.607 327.884 143.12 327.511 142.76C327.137 142.387 326.697 142.2 326.191 142.2C325.697 142.2 325.257 142.387 324.871 142.76C324.497 143.12 324.204 143.607 323.991 144.22C323.791 144.833 323.691 145.527 323.691 146.3C323.691 147.06 323.791 147.753 323.991 148.38C324.204 148.993 324.497 149.487 324.871 149.86C325.257 150.22 325.697 150.4 326.191 150.4ZM333.136 151V144C333.136 143.4 333.049 142.92 332.876 142.56C332.716 142.187 332.336 142 331.736 142H331.536V141.6H338.136C338.736 141.6 339.136 141.767 339.336 142.1C339.536 142.433 339.636 142.8 339.636 143.2V144.4H339.236C339.236 143.747 339.036 143.253 338.636 142.92C338.236 142.573 337.736 142.4 337.136 142.4H334.936V151H333.136ZM345.488 151.2C344.554 151.2 343.761 150.98 343.108 150.54C342.454 150.1 341.954 149.507 341.608 148.76C341.261 148.013 341.088 147.193 341.088 146.3C341.088 145.393 341.261 144.573 341.608 143.84C341.954 143.093 342.454 142.5 343.108 142.06C343.761 141.62 344.554 141.4 345.488 141.4C346.421 141.4 347.214 141.62 347.868 142.06C348.521 142.5 349.021 143.093 349.368 143.84C349.714 144.573 349.888 145.393 349.888 146.3C349.888 147.193 349.714 148.013 349.368 148.76C349.021 149.507 348.521 150.1 347.868 150.54C347.214 150.98 346.421 151.2 345.488 151.2ZM345.488 150.4C345.994 150.4 346.434 150.22 346.808 149.86C347.181 149.487 347.468 148.993 347.668 148.38C347.881 147.753 347.988 147.06 347.988 146.3C347.988 145.527 347.881 144.833 347.668 144.22C347.468 143.607 347.181 143.12 346.808 142.76C346.434 142.387 345.994 142.2 345.488 142.2C344.994 142.2 344.554 142.387 344.168 142.76C343.794 143.12 343.501 143.607 343.288 144.22C343.088 144.833 342.988 145.527 342.988 146.3C342.988 147.06 343.088 147.753 343.288 148.38C343.501 148.993 343.794 149.487 344.168 149.86C344.554 150.22 344.994 150.4 345.488 150.4ZM4.64 170V163C4.64 162.4 4.55333 161.92 4.38 161.56C4.22 161.187 3.84 161 3.24 161H3.04V160.6H12.24V170H10.44V161.4H6.44V170H4.64ZM18.9836 170.2C18.0503 170.2 17.2569 169.98 16.6036 169.54C15.9503 169.1 15.4503 168.507 15.1036 167.76C14.7569 167.013 14.5836 166.193 14.5836 165.3C14.5836 164.393 14.7569 163.573 15.1036 162.84C15.4503 162.093 15.9503 161.5 16.6036 161.06C17.2569 160.62 18.0503 160.4 18.9836 160.4C19.9169 160.4 20.7103 160.62 21.3636 161.06C22.0169 161.5 22.5169 162.093 22.8636 162.84C23.2103 163.573 23.3836 164.393 23.3836 165.3C23.3836 166.193 23.2103 167.013 22.8636 167.76C22.5169 168.507 22.0169 169.1 21.3636 169.54C20.7103 169.98 19.9169 170.2 18.9836 170.2ZM18.9836 169.4C19.4903 169.4 19.9303 169.22 20.3036 168.86C20.6769 168.487 20.9636 167.993 21.1636 167.38C21.3769 166.753 21.4836 166.06 21.4836 165.3C21.4836 164.527 21.3769 163.833 21.1636 163.22C20.9636 162.607 20.6769 162.12 20.3036 161.76C19.9303 161.387 19.4903 161.2 18.9836 161.2C18.4903 161.2 18.0503 161.387 17.6636 161.76C17.2903 162.12 16.9969 162.607 16.7836 163.22C16.5836 163.833 16.4836 164.527 16.4836 165.3C16.4836 166.06 16.5836 166.753 16.7836 167.38C16.9969 167.993 17.2903 168.487 17.6636 168.86C18.0503 169.22 18.4903 169.4 18.9836 169.4ZM29.5891 170.2C28.6024 170.2 27.7824 169.98 27.1291 169.54C26.4757 169.1 25.9891 168.507 25.6691 167.76C25.3491 167.013 25.1891 166.193 25.1891 165.3C25.1891 164.393 25.3491 163.573 25.6691 162.84C25.9891 162.093 26.4757 161.5 27.1291 161.06C27.7824 160.62 28.6024 160.4 29.5891 160.4C30.2957 160.4 30.8891 160.453 31.3691 160.56C31.8624 160.667 32.2357 160.847 32.4891 161.1C32.7424 161.353 32.8891 161.667 32.9291 162.04C32.9691 162.4 32.9891 162.953 32.9891 163.7H32.5891C32.5357 162.847 32.2624 162.22 31.7691 161.82C31.2891 161.407 30.6957 161.2 29.9891 161.2C29.3224 161.2 28.7757 161.387 28.3491 161.76C27.9224 162.12 27.6024 162.607 27.3891 163.22C27.1891 163.833 27.0891 164.527 27.0891 165.3C27.0891 166.06 27.1891 166.753 27.3891 167.38C27.6024 167.993 27.9224 168.487 28.3491 168.86C28.7757 169.22 29.3224 169.4 29.9891 169.4C30.6957 169.4 31.2691 169.26 31.7091 168.98C32.1491 168.7 32.5424 168.307 32.8891 167.8L33.2891 168.1C32.9957 168.607 32.6624 169.013 32.2891 169.32C31.9157 169.627 31.5024 169.853 31.0491 170C30.6091 170.133 30.1224 170.2 29.5891 170.2ZM38.037 170V161.4H37.037C36.437 161.4 35.937 161.573 35.537 161.92C35.137 162.253 34.937 162.747 34.937 163.4H34.537V162.2C34.537 161.8 34.637 161.433 34.837 161.1C35.037 160.767 35.437 160.6 36.037 160.6H43.137V161.4H39.837V170H38.037ZM45.1697 173.8V163C45.1697 162.4 45.083 161.92 44.9097 161.56C44.7497 161.187 44.3697 161 43.7697 161H43.3697V160.6H45.1697C45.6764 160.6 46.0564 160.673 46.3097 160.82C46.5764 160.967 46.763 161.193 46.8697 161.5C47.1364 161.233 47.4964 160.987 47.9497 160.76C48.403 160.52 48.9764 160.4 49.6697 160.4C50.4697 160.4 51.1364 160.62 51.6697 161.06C52.203 161.5 52.603 162.093 52.8697 162.84C53.1364 163.573 53.2697 164.393 53.2697 165.3C53.2697 166.193 53.1297 167.013 52.8497 167.76C52.583 168.507 52.1697 169.1 51.6097 169.54C51.0497 169.98 50.3364 170.2 49.4697 170.2C48.9097 170.2 48.4297 170.133 48.0297 170C47.6297 169.88 47.2764 169.747 46.9697 169.6V173.8H45.1697ZM48.8697 169.4C49.4697 169.4 49.9497 169.22 50.3097 168.86C50.683 168.487 50.9497 167.993 51.1097 167.38C51.283 166.753 51.3697 166.06 51.3697 165.3C51.3697 164.527 51.2897 163.833 51.1297 163.22C50.9697 162.607 50.7164 162.12 50.3697 161.76C50.0364 161.387 49.603 161.2 49.0697 161.2C48.523 161.2 48.083 161.327 47.7497 161.58C47.4164 161.82 47.1564 162.093 46.9697 162.4V168.8C47.2764 168.947 47.5897 169.087 47.9097 169.22C48.243 169.34 48.563 169.4 48.8697 169.4ZM59.4914 170.2C58.5581 170.2 57.7647 169.98 57.1114 169.54C56.4581 169.1 55.9581 168.507 55.6114 167.76C55.2647 167.013 55.0914 166.193 55.0914 165.3C55.0914 164.393 55.2647 163.573 55.6114 162.84C55.9581 162.093 56.4581 161.5 57.1114 161.06C57.7647 160.62 58.5581 160.4 59.4914 160.4C60.4247 160.4 61.2181 160.62 61.8714 161.06C62.5247 161.5 63.0247 162.093 63.3714 162.84C63.7181 163.573 63.8914 164.393 63.8914 165.3C63.8914 166.193 63.7181 167.013 63.3714 167.76C63.0247 168.507 62.5247 169.1 61.8714 169.54C61.2181 169.98 60.4247 170.2 59.4914 170.2ZM59.4914 169.4C59.9981 169.4 60.4381 169.22 60.8114 168.86C61.1847 168.487 61.4714 167.993 61.6714 167.38C61.8847 166.753 61.9914 166.06 61.9914 165.3C61.9914 164.527 61.8847 163.833 61.6714 163.22C61.4714 162.607 61.1847 162.12 60.8114 161.76C60.4381 161.387 59.9981 161.2 59.4914 161.2C58.9981 161.2 58.5581 161.387 58.1714 161.76C57.7981 162.12 57.5047 162.607 57.2914 163.22C57.0914 163.833 56.9914 164.527 56.9914 165.3C56.9914 166.06 57.0914 166.753 57.2914 167.38C57.5047 167.993 57.7981 168.487 58.1714 168.86C58.5581 169.22 58.9981 169.4 59.4914 169.4ZM69.8969 170.2C68.9635 170.2 68.1835 169.98 67.5569 169.54C66.9435 169.1 66.4769 168.507 66.1569 167.76C65.8502 167.013 65.6969 166.193 65.6969 165.3C65.6969 164.393 65.8569 163.573 66.1769 162.84C66.4969 162.093 66.9569 161.5 67.5569 161.06C68.1569 160.62 68.8702 160.4 69.6969 160.4C70.6035 160.4 71.3502 160.573 71.9369 160.92C72.5369 161.253 72.9769 161.747 73.2569 162.4C73.5502 163.053 73.6969 163.853 73.6969 164.8L73.6569 165.6H67.5969C67.5969 166.693 67.8302 167.6 68.2969 168.32C68.7769 169.04 69.4435 169.4 70.2969 169.4C70.9502 169.4 71.4902 169.26 71.9169 168.98C72.3569 168.7 72.7502 168.307 73.0969 167.8L73.4969 168.1C73.2035 168.607 72.8702 169.013 72.4969 169.32C72.1369 169.627 71.7369 169.853 71.2969 170C70.8702 170.133 70.4035 170.2 69.8969 170.2ZM67.5969 164.8H71.7969C71.7969 163.64 71.6235 162.753 71.2769 162.14C70.9302 161.513 70.4035 161.2 69.6969 161.2C69.2969 161.2 68.9369 161.36 68.6169 161.68C68.3102 161.987 68.0635 162.413 67.8769 162.96C67.6902 163.493 67.5969 164.107 67.5969 164.8ZM76.2825 170V163C76.2825 162.4 76.1958 161.92 76.0225 161.56C75.8625 161.187 75.4825 161 74.8825 161H74.5825V160.6H76.2825C76.7492 160.6 77.1092 160.66 77.3625 160.78C77.6292 160.9 77.8158 161.133 77.9225 161.48C78.0292 161.827 78.0825 162.333 78.0825 163V164.9H82.0825V160.6H83.8825V167.6C83.8825 168.2 83.9625 168.687 84.1225 169.06C84.2958 169.42 84.6825 169.6 85.2825 169.6H85.5825V170H83.8825C83.4158 170 83.0492 169.94 82.7825 169.82C82.5292 169.7 82.3492 169.467 82.2425 169.12C82.1358 168.773 82.0825 168.267 82.0825 167.6V165.7H78.0825V170H76.2825ZM87.3372 170V163C87.3372 162.4 87.2505 161.92 87.0772 161.56C86.9172 161.187 86.5372 161 85.9372 161H85.6372V160.6H87.3372C87.8039 160.6 88.1639 160.66 88.4172 160.78C88.6839 160.9 88.8705 161.133 88.9772 161.48C89.0839 161.827 89.1372 162.333 89.1372 163V168.2L93.3372 160.6H95.1372V170H93.3372V162.4L89.1372 170H87.3372ZM98.0142 170.2C97.8142 170.2 97.6142 170.18 97.4142 170.14C97.2276 170.1 97.0609 170.053 96.9142 170V169.6C97.3809 169.547 97.7609 169.353 98.0542 169.02C98.3476 168.687 98.6009 168.347 98.8142 168L100.014 165.9C99.4142 165.793 98.8809 165.52 98.4142 165.08C97.9476 164.64 97.7142 164.047 97.7142 163.3C97.7142 162.607 97.8942 162.067 98.2542 161.68C98.6276 161.28 99.1142 161 99.7142 160.84C100.328 160.68 100.994 160.6 101.714 160.6H106.414V161H106.334C105.774 161.013 105.414 161.207 105.254 161.58C105.094 161.94 105.014 162.413 105.014 163V170H103.214V166H101.654L100.454 168.4C100.148 169 99.8076 169.453 99.4342 169.76C99.0609 170.053 98.5876 170.2 98.0142 170.2ZM101.914 165.3C102.114 165.3 102.341 165.28 102.594 165.24C102.861 165.2 103.068 165.153 103.214 165.1V161.5C103.068 161.447 102.861 161.4 102.594 161.36C102.341 161.32 102.114 161.3 101.914 161.3C101.208 161.3 100.648 161.46 100.234 161.78C99.8209 162.087 99.6142 162.593 99.6142 163.3C99.6142 164.007 99.8209 164.52 100.234 164.84C100.648 165.147 101.208 165.3 101.914 165.3ZM113.41 170V163C113.41 162.4 113.323 161.92 113.15 161.56C112.99 161.187 112.61 161 112.01 161H111.81V160.6H121.01V170H119.21V161.4H115.21V170H113.41ZM124.193 173.8V163C124.193 162.4 124.106 161.92 123.933 161.56C123.773 161.187 123.393 161 122.793 161H122.393V160.6H124.193C124.7 160.6 125.08 160.673 125.333 160.82C125.6 160.967 125.786 161.193 125.893 161.5C126.16 161.233 126.52 160.987 126.973 160.76C127.426 160.52 128 160.4 128.693 160.4C129.493 160.4 130.16 160.62 130.693 161.06C131.226 161.5 131.626 162.093 131.893 162.84C132.16 163.573 132.293 164.393 132.293 165.3C132.293 166.193 132.153 167.013 131.873 167.76C131.606 168.507 131.193 169.1 130.633 169.54C130.073 169.98 129.36 170.2 128.493 170.2C127.933 170.2 127.453 170.133 127.053 170C126.653 169.88 126.3 169.747 125.993 169.6V173.8H124.193ZM127.893 169.4C128.493 169.4 128.973 169.22 129.333 168.86C129.706 168.487 129.973 167.993 130.133 167.38C130.306 166.753 130.393 166.06 130.393 165.3C130.393 164.527 130.313 163.833 130.153 163.22C129.993 162.607 129.74 162.12 129.393 161.76C129.06 161.387 128.626 161.2 128.093 161.2C127.546 161.2 127.106 161.327 126.773 161.58C126.44 161.82 126.18 162.093 125.993 162.4V168.8C126.3 168.947 126.613 169.087 126.933 169.22C127.266 169.34 127.586 169.4 127.893 169.4ZM138.515 170.2C137.582 170.2 136.788 169.98 136.135 169.54C135.482 169.1 134.982 168.507 134.635 167.76C134.288 167.013 134.115 166.193 134.115 165.3C134.115 164.393 134.288 163.573 134.635 162.84C134.982 162.093 135.482 161.5 136.135 161.06C136.788 160.62 137.582 160.4 138.515 160.4C139.448 160.4 140.242 160.62 140.895 161.06C141.548 161.5 142.048 162.093 142.395 162.84C142.742 163.573 142.915 164.393 142.915 165.3C142.915 166.193 142.742 167.013 142.395 167.76C142.048 168.507 141.548 169.1 140.895 169.54C140.242 169.98 139.448 170.2 138.515 170.2ZM138.515 169.4C139.022 169.4 139.462 169.22 139.835 168.86C140.208 168.487 140.495 167.993 140.695 167.38C140.908 166.753 141.015 166.06 141.015 165.3C141.015 164.527 140.908 163.833 140.695 163.22C140.495 162.607 140.208 162.12 139.835 161.76C139.462 161.387 139.022 161.2 138.515 161.2C138.022 161.2 137.582 161.387 137.195 161.76C136.822 162.12 136.528 162.607 136.315 163.22C136.115 163.833 136.015 164.527 136.015 165.3C136.015 166.06 136.115 166.753 136.315 167.38C136.528 167.993 136.822 168.487 137.195 168.86C137.582 169.22 138.022 169.4 138.515 169.4ZM143.75 173.1V169.9C143.75 169.7 143.816 169.533 143.95 169.4C144.083 169.267 144.25 169.2 144.45 169.2H145.05C145.356 168.533 145.596 167.84 145.77 167.12C145.943 166.387 146.063 165.667 146.13 164.96C146.21 164.253 146.25 163.6 146.25 163C146.25 162.4 146.163 161.92 145.99 161.56C145.83 161.187 145.45 161 144.85 161V160.6H152.85V169.2H153.65C153.85 169.2 154.016 169.267 154.15 169.4C154.283 169.533 154.35 169.7 154.35 169.9V173.1H153.55C153.483 172.353 153.363 171.753 153.19 171.3C153.03 170.847 152.81 170.513 152.53 170.3C152.25 170.1 151.89 170 151.45 170H146.65C146.223 170 145.863 170.1 145.57 170.3C145.29 170.513 145.07 170.847 144.91 171.3C144.75 171.753 144.63 172.353 144.55 173.1H143.75ZM146.45 169.2H151.05V161.4H147.55C147.55 163.107 147.463 164.587 147.29 165.84C147.13 167.08 146.85 168.2 146.45 169.2ZM158.516 170.2C158.236 170.2 157.929 170.153 157.596 170.06C157.276 169.98 156.963 169.833 156.656 169.62C156.349 169.407 156.096 169.12 155.896 168.76C155.709 168.4 155.616 167.947 155.616 167.4C155.616 166.667 155.849 166.1 156.316 165.7C156.796 165.3 157.423 165.02 158.196 164.86C158.983 164.687 159.823 164.6 160.716 164.6H161.316C161.316 163.667 161.223 162.96 161.036 162.48C160.849 161.987 160.596 161.653 160.276 161.48C159.969 161.293 159.616 161.2 159.216 161.2C158.656 161.2 158.183 161.32 157.796 161.56C157.423 161.8 157.163 162.247 157.016 162.9H156.116C156.116 162.553 156.136 162.233 156.176 161.94C156.216 161.633 156.363 161.353 156.616 161.1C156.869 160.847 157.283 160.667 157.856 160.56C158.429 160.453 159.016 160.4 159.616 160.4C160.069 160.4 160.503 160.453 160.916 160.56C161.343 160.667 161.716 160.867 162.036 161.16C162.369 161.44 162.629 161.86 162.816 162.42C163.016 162.967 163.116 163.693 163.116 164.6V170H162.116L161.416 169.1H161.316C161.116 169.353 160.789 169.6 160.336 169.84C159.883 170.08 159.276 170.2 158.516 170.2ZM159.416 169.3C159.909 169.3 160.296 169.18 160.576 168.94C160.869 168.687 161.116 168.407 161.316 168.1V165.4H160.716C159.716 165.4 158.929 165.587 158.356 165.96C157.796 166.32 157.516 166.8 157.516 167.4C157.516 168.053 157.709 168.533 158.096 168.84C158.483 169.147 158.923 169.3 159.416 169.3ZM165.625 170.2C165.425 170.2 165.232 170.18 165.045 170.14C164.872 170.1 164.732 170.053 164.625 170V169.62C165.078 169.553 165.485 169.393 165.845 169.14C166.218 168.873 166.578 168.493 166.925 168L169.025 165.1L167.125 162C166.938 161.693 166.672 161.467 166.325 161.32C165.992 161.173 165.625 161.1 165.225 161.1V160.6H165.725C166.378 160.6 166.912 160.713 167.325 160.94C167.738 161.167 168.072 161.487 168.325 161.9L170.425 165.4V160.6H172.225V165.4L174.325 161.9C174.578 161.487 174.912 161.167 175.325 160.94C175.738 160.713 176.272 160.6 176.925 160.6H177.425V161.1C177.025 161.1 176.652 161.173 176.305 161.32C175.972 161.467 175.712 161.693 175.525 162L173.625 165.1L175.725 168C176.072 168.493 176.425 168.873 176.785 169.14C177.158 169.393 177.572 169.553 178.025 169.62V170C177.918 170.053 177.772 170.1 177.585 170.14C177.412 170.18 177.225 170.2 177.025 170.2C176.518 170.2 176.038 170.073 175.585 169.82C175.145 169.567 174.725 169.16 174.325 168.6L172.225 165.7V170H170.425V165.7L168.325 168.6C167.925 169.16 167.498 169.567 167.045 169.82C166.605 170.073 166.132 170.2 165.625 170.2ZM180.376 170.28C180.082 170.28 179.829 170.173 179.616 169.96C179.402 169.747 179.296 169.487 179.296 169.18C179.296 168.887 179.402 168.633 179.616 168.42C179.829 168.207 180.082 168.1 180.376 168.1C180.682 168.1 180.936 168.207 181.136 168.42C181.349 168.633 181.456 168.887 181.456 169.18C181.456 169.487 181.349 169.747 181.136 169.96C180.922 170.173 180.669 170.28 180.376 170.28Z" fill="#C0C0C0"/>
<defs>
<filter id="filter1_f_93_88" x="-89" y="19" width="203" height="203" filterUnits="userSpaceOnUse" color-interpolation-filters="sRGB">
<feFlood flood-opacity="0" result="BackgroundImageFix"/>
<feBlend mode="normal" in="SourceGraphic" in2="BackgroundImageFix" result="shape"/>
<feGaussianBlur stdDeviation="30" result="effect1_foregroundBlur_93_88"/>
</filter>
<filter id="filter2_d_93_88" x="124.546" y="25.168" width="115.968" height="45.832" filterUnits="userSpaceOnUse" color-interpolation-filters="sRGB">
<feFlood flood-opacity="0" result="BackgroundImageFix"/>
<feColorMatrix in="SourceAlpha" type="matrix" values="0 0 0 0 0 0 0 0 0 0 0 0 0 0 0 0 0 0 127 0" result="hardAlpha"/>
<feOffset/>
<feGaussianBlur stdDeviation="2"/>
<feComposite in2="hardAlpha" operator="out"/>
<feColorMatrix type="matrix" values="0 0 0 0 0 0 0 0 0 0 0 0 0 0 0 0 0 0 0.7 0"/>
<feBlend mode="normal" in2="BackgroundImageFix" result="effect1_dropShadow_93_88"/>
<feBlend mode="normal" in="SourceGraphic" in2="effect1_dropShadow_93_88" result="shape"/>
</filter>
<linearGradient id="paint0_linear_93_88" x1="54.108" y1="26.7661" x2="30.3567" y2="72.037" gradientUnits="userSpaceOnUse">
<stop stop-color="#FF7929"/>
<stop offset="1" stop-color="#FBB03B"/>
</linearGradient>
<linearGradient id="paint1_linear_93_88" x1="72.3299" y1="60.7416" x2="62.4651" y2="79.7474" gradientUnits="userSpaceOnUse">
<stop stop-color="#FF7929"/>
<stop offset="1" stop-color="#FBB03B"/>
</linearGradient>
<linearGradient id="paint2_linear_93_88" x1="62.3117" y1="34.7535" x2="56.749" y2="58.1423" gradientUnits="userSpaceOnUse">
<stop stop-color="#FF7929"/>
<stop offset="1" stop-color="#FBB03B"/>
</linearGradient>
<clipPath id="clip0_93_88">
<rect width="96" height="96" rx="18" fill="white"/>
</clipPath>
</defs>
</svg>
