<svg width="360" height="241" viewBox="0 0 360 241" fill="none" xmlns="http://www.w3.org/2000/svg">
<g clip-path="url(#clip0_93_98)">
<rect width="96" height="96" rx="18" fill="white" fill-opacity="0.15"/>
<g filter="url(#filter1_f_93_98)">
<circle cx="12.5" cy="120.5" r="41.5" fill="#FBB03B"/>
</g>
<g clip-path="url(#clip1_93_98)">
<path d="M77.8748 61.0277L76.709 60.4448L50.4369 73.5808C48.929 74.3447 47.071 74.3447 45.5631 73.5808L19.291 60.4448L18.1252 61.0277C17.5098 61.3352 17.1211 61.9642 17.1211 62.6522C17.1211 63.3403 17.5098 63.9693 18.1252 64.2768L47.1877 78.8081C47.699 79.0638 48.301 79.0638 48.8123 78.8081L77.8748 64.2768C78.4902 63.9693 78.8789 63.3403 78.8789 62.6522C78.8789 61.9642 78.4902 61.3352 77.8748 61.0277Z" fill="url(#paint0_linear_93_98)"/>
<path d="M77.8748 52.5511L76.709 51.9683L50.4369 65.1043C48.929 65.8681 47.071 65.8681 45.5631 65.1043L19.291 51.9683L18.1252 52.5511C17.5098 52.8587 17.1211 53.4876 17.1211 54.1757C17.1211 54.8637 17.5098 55.4927 18.1252 55.8003L47.1877 70.3315C47.699 70.5873 48.301 70.5873 48.8123 70.3315L77.8748 55.8003C78.4902 55.4927 78.8789 54.8637 78.8789 54.1757C78.8789 53.4876 78.4902 52.8587 77.8748 52.5511Z" fill="url(#paint1_linear_93_98)"/>
<path d="M32.0259 38.3753L35.6587 44.6676C36.1603 45.5363 37.2712 45.8341 38.14 45.3324L39.6358 44.4688C40.5428 45.1565 41.517 45.7232 42.5505 46.1641V47.8789C42.5505 48.882 43.3638 49.6953 44.3669 49.6953H51.6325C52.6357 49.6953 53.4489 48.882 53.4489 47.8789V46.1641C54.4825 45.7232 55.4567 45.1565 56.3637 44.4688L57.8594 45.3324C58.7281 45.834 59.839 45.5363 60.3406 44.6676L63.9734 38.3753C64.475 37.5066 64.1774 36.3957 63.3086 35.8941L61.8192 35.0341C61.8899 34.4685 61.9255 33.9047 61.9255 33.3477C61.9255 32.7906 61.8899 32.2268 61.8193 31.6612L63.3088 30.8012C64.1775 30.2996 64.4751 29.1887 63.9736 28.32L60.3407 22.0277C59.8392 21.159 58.7283 20.8612 57.8595 21.3629L56.3637 22.2264C55.4569 21.5388 54.4825 20.972 53.4489 20.5311V18.8164C53.4489 17.8133 52.6357 17 51.6325 17H44.3669C43.3638 17 42.5505 17.8133 42.5505 18.8164V20.5311C41.517 20.972 40.5425 21.5388 39.6358 22.2264L38.14 21.3628C37.2713 20.8612 36.1604 21.1588 35.6588 22.0276L32.026 28.3198C31.5244 29.1886 31.8221 30.2995 32.6908 30.8011L34.1803 31.6611C34.1095 32.2268 34.0739 32.7906 34.0739 33.3477C34.0739 33.9047 34.1095 34.4685 34.1801 35.0341L32.6907 35.8941C31.822 36.3957 31.5243 37.5066 32.0259 38.3753ZM47.9997 27.8984C51.0044 27.8984 53.4489 30.343 53.4489 33.3477C53.4489 36.3524 51.0044 38.7969 47.9997 38.7969C44.995 38.7969 42.5505 36.3524 42.5505 33.3477C42.5505 30.343 44.995 27.8984 47.9997 27.8984Z" fill="url(#paint2_linear_93_98)"/>
<path d="M18.1252 47.3239L47.1877 61.8551C47.699 62.1109 48.301 62.1109 48.8123 61.8551L77.8748 47.3239C78.4902 47.0163 78.8789 46.3874 78.8789 45.6993C78.8789 45.0112 78.4902 44.3823 77.8748 44.0747L67.6414 38.958C67.5214 39.3803 67.3492 39.7946 67.1201 40.1916L63.4872 46.484C62.517 48.1646 60.7079 49.209 58.7663 49.209C58.7662 49.209 58.7663 49.209 58.7662 49.209C58.1586 49.209 57.556 49.1064 56.9846 48.9085C56.5018 51.4227 54.2856 53.3282 51.6328 53.3282H44.3672C41.7144 53.3282 39.4982 51.4227 39.0156 48.9085C38.4441 49.1065 37.8416 49.209 37.2338 49.209C35.2921 49.209 33.483 48.1648 32.5127 46.4837L28.88 40.192C28.6529 39.7986 28.4779 39.385 28.3559 38.9595L18.1252 44.0747C17.5098 44.3823 17.1211 45.0112 17.1211 45.6993C17.1211 46.3874 17.5098 47.0163 18.1252 47.3239Z" fill="url(#paint3_linear_93_98)"/>
</g>
</g>
<g filter="url(#filter2_d_93_98)">
<path d="M139.44 24.044C140.012 24.044 140.497 23.9313 140.896 23.706C141.312 23.4807 141.52 23.0387 141.52 22.38C141.52 21.7213 141.312 21.2793 140.896 21.054C140.497 20.8287 140.012 20.716 139.44 20.716H133.902V24.044H139.44ZM129.976 32V31.532C130.617 31.532 130.938 31.376 130.938 31.064V19.26C130.938 18.948 130.617 18.792 129.976 18.792V18.324H139.128C140.792 18.324 142.101 18.636 143.054 19.26C144.007 19.8667 144.484 20.9067 144.484 22.38C144.484 23.8533 144.007 24.902 143.054 25.526C142.101 26.1327 140.792 26.436 139.128 26.436H133.902V31.064C133.902 31.376 134.179 31.532 134.734 31.532V32H129.976ZM155.69 26.696L153.506 21.86L151.062 26.696H155.69ZM145.888 31.532C146.113 31.4973 146.286 31.3847 146.408 31.194C146.546 31.0033 146.676 30.7867 146.798 30.544L151.608 20.43C151.729 20.2047 151.833 19.9967 151.92 19.806C152.024 19.6153 152.076 19.4507 152.076 19.312C152.076 19.1387 152.015 19.0173 151.894 18.948C151.772 18.8787 151.642 18.8267 151.504 18.792V18.324H155.898V18.792C155.776 18.8267 155.655 18.8787 155.534 18.948C155.412 19 155.352 19.1213 155.352 19.312C155.352 19.4507 155.378 19.5893 155.43 19.728C155.499 19.8667 155.594 20.0487 155.716 20.274L161.124 30.856C161.21 31.0467 161.323 31.1853 161.462 31.272C161.618 31.3587 161.791 31.4453 161.982 31.532V32H157.406V31.532C157.475 31.532 157.562 31.506 157.666 31.454C157.77 31.402 157.822 31.324 157.822 31.22C157.822 31.0467 157.752 30.8213 157.614 30.544L156.626 28.62H150.282L149.346 30.466C149.172 30.83 149.086 31.09 149.086 31.246C149.086 31.4367 149.25 31.532 149.58 31.532V32H145.888V31.532ZM171.472 32.078C170.605 32.078 169.799 32 169.054 31.844C168.326 31.688 167.676 31.5147 167.104 31.324C166.549 31.116 166.081 30.934 165.7 30.778C165.336 30.622 165.093 30.544 164.972 30.544C164.885 30.544 164.807 30.5613 164.738 30.596C164.686 30.6307 164.625 30.6653 164.556 30.7L164.322 30.622L165.83 26.878L166.116 27.034C166.098 27.0513 166.09 27.112 166.09 27.216V27.398C166.09 27.7967 166.263 28.152 166.61 28.464C166.956 28.776 167.398 29.0447 167.936 29.27C168.49 29.478 169.097 29.6427 169.756 29.764C170.414 29.868 171.056 29.92 171.68 29.92C172.13 29.92 172.59 29.894 173.058 29.842C173.543 29.7727 173.976 29.66 174.358 29.504C174.756 29.348 175.077 29.14 175.32 28.88C175.58 28.6027 175.71 28.2473 175.71 27.814C175.71 27.398 175.588 27.0687 175.346 26.826C175.103 26.566 174.791 26.3667 174.41 26.228C174.028 26.0893 173.604 26.0027 173.136 25.968C172.685 25.916 172.243 25.89 171.81 25.89C171.134 25.89 170.622 25.9333 170.276 26.02C169.929 26.0893 169.704 26.28 169.6 26.592H169.288V23.056H169.6C169.634 23.4027 169.842 23.6367 170.224 23.758C170.605 23.862 171.134 23.914 171.81 23.914C172.226 23.914 172.642 23.888 173.058 23.836C173.474 23.784 173.846 23.6887 174.176 23.55C174.522 23.4113 174.8 23.2207 175.008 22.978C175.233 22.7353 175.346 22.432 175.346 22.068C175.346 21.7213 175.25 21.444 175.06 21.236C174.869 21.0107 174.6 20.8373 174.254 20.716C173.924 20.5947 173.534 20.5167 173.084 20.482C172.633 20.43 172.148 20.404 171.628 20.404C171.038 20.404 170.458 20.456 169.886 20.56C169.331 20.664 168.837 20.8027 168.404 20.976C167.97 21.1493 167.624 21.34 167.364 21.548C167.104 21.756 166.974 21.964 166.974 22.172C166.974 22.2413 166.982 22.328 167 22.432C167.017 22.5187 167.043 22.6053 167.078 22.692L166.844 22.848L164.764 20.196L165.076 19.962C165.214 20.0487 165.362 20.092 165.518 20.092C165.604 20.092 165.795 19.9967 166.09 19.806C166.384 19.598 166.792 19.3727 167.312 19.13C167.832 18.8873 168.464 18.6707 169.21 18.48C169.955 18.272 170.83 18.168 171.836 18.168C172.633 18.168 173.413 18.2373 174.176 18.376C174.938 18.5147 175.614 18.74 176.204 19.052C176.793 19.3467 177.27 19.7367 177.634 20.222C177.998 20.69 178.18 21.262 178.18 21.938C178.18 22.562 177.998 23.1427 177.634 23.68C177.27 24.2 176.776 24.5293 176.152 24.668V24.72C176.897 24.8933 177.504 25.24 177.972 25.76C178.457 26.2627 178.7 26.904 178.7 27.684C178.7 28.5853 178.474 29.322 178.024 29.894C177.59 30.466 177.018 30.9167 176.308 31.246C175.614 31.558 174.843 31.7747 173.994 31.896C173.144 32.0173 172.304 32.078 171.472 32.078ZM192.075 24.044C192.647 24.044 193.132 23.9313 193.531 23.706C193.947 23.4807 194.155 23.0387 194.155 22.38C194.155 21.7213 193.947 21.2793 193.531 21.054C193.132 20.8287 192.647 20.716 192.075 20.716H186.537V24.044H192.075ZM182.611 32V31.532C183.252 31.532 183.573 31.376 183.573 31.064V19.26C183.573 18.948 183.252 18.792 182.611 18.792V18.324H191.763C193.427 18.324 194.735 18.636 195.689 19.26C196.642 19.8667 197.119 20.9067 197.119 22.38C197.119 23.8533 196.642 24.902 195.689 25.526C194.735 26.1327 193.427 26.436 191.763 26.436H186.537V31.064C186.537 31.376 186.814 31.532 187.369 31.532V32H182.611ZM208.325 26.696L206.141 21.86L203.697 26.696H208.325ZM198.523 31.532C198.748 31.4973 198.921 31.3847 199.043 31.194C199.181 31.0033 199.311 30.7867 199.433 30.544L204.243 20.43C204.364 20.2047 204.468 19.9967 204.555 19.806C204.659 19.6153 204.711 19.4507 204.711 19.312C204.711 19.1387 204.65 19.0173 204.529 18.948C204.407 18.8787 204.277 18.8267 204.139 18.792V18.324H208.533V18.792C208.411 18.8267 208.29 18.8787 208.169 18.948C208.047 19 207.987 19.1213 207.987 19.312C207.987 19.4507 208.013 19.5893 208.065 19.728C208.134 19.8667 208.229 20.0487 208.351 20.274L213.759 30.856C213.845 31.0467 213.958 31.1853 214.097 31.272C214.253 31.3587 214.426 31.4453 214.617 31.532V32H210.041V31.532C210.11 31.532 210.197 31.506 210.301 31.454C210.405 31.402 210.457 31.324 210.457 31.22C210.457 31.0467 210.387 30.8213 210.249 30.544L209.261 28.62H202.917L201.981 30.466C201.807 30.83 201.721 31.09 201.721 31.246C201.721 31.4367 201.885 31.532 202.215 31.532V32H198.523V31.532ZM221.168 20.56V23.316H226.758C227.538 23.316 228.249 23.394 228.89 23.55C229.532 23.6887 230.069 23.9227 230.502 24.252C230.953 24.5813 231.3 25.0147 231.542 25.552C231.785 26.072 231.906 26.7133 231.906 27.476C231.906 29.0013 231.438 30.1367 230.502 30.882C229.584 31.6273 228.336 32 226.758 32H217.476V31.532C217.962 31.532 218.204 31.376 218.204 31.064V19.26C218.204 18.948 217.962 18.792 217.476 18.792V18.324H228.916C229.176 18.324 229.384 18.3153 229.54 18.298C229.714 18.2633 229.8 18.168 229.8 18.012H230.268V21.418H229.8C229.8 21.1233 229.714 20.9067 229.54 20.768C229.384 20.6293 229.176 20.56 228.916 20.56H221.168ZM225.874 29.608C226.966 29.608 227.746 29.4087 228.214 29.01C228.7 28.594 228.942 28.0567 228.942 27.398C228.942 26.7393 228.7 26.2713 228.214 25.994C227.746 25.6993 226.966 25.552 225.874 25.552H221.168V29.608H225.874ZM243.688 20.56C243.03 20.56 242.371 20.664 241.712 20.872C241.054 21.08 240.456 21.3833 239.918 21.782C239.398 22.1633 238.974 22.64 238.644 23.212C238.315 23.784 238.15 24.434 238.15 25.162C238.15 25.89 238.315 26.54 238.644 27.112C238.974 27.684 239.398 28.1693 239.918 28.568C240.456 28.9493 241.054 29.244 241.712 29.452C242.371 29.66 243.03 29.764 243.688 29.764C244.347 29.764 245.006 29.66 245.664 29.452C246.323 29.244 246.912 28.9493 247.432 28.568C247.97 28.1693 248.403 27.684 248.732 27.112C249.062 26.54 249.226 25.89 249.226 25.162C249.226 24.434 249.062 23.784 248.732 23.212C248.403 22.64 247.97 22.1633 247.432 21.782C246.912 21.3833 246.323 21.08 245.664 20.872C245.006 20.664 244.347 20.56 243.688 20.56ZM243.688 18.168C244.642 18.168 245.612 18.3153 246.6 18.61C247.588 18.8873 248.49 19.312 249.304 19.884C250.119 20.456 250.786 21.184 251.306 22.068C251.826 22.9347 252.086 23.966 252.086 25.162C252.086 26.358 251.826 27.398 251.306 28.282C250.786 29.1487 250.119 29.868 249.304 30.44C248.49 31.012 247.588 31.428 246.6 31.688C245.612 31.948 244.642 32.078 243.688 32.078C242.735 32.078 241.764 31.948 240.776 31.688C239.788 31.428 238.887 31.012 238.072 30.44C237.258 29.868 236.59 29.1487 236.07 28.282C235.55 27.398 235.29 26.358 235.29 25.162C235.29 23.966 235.55 22.9347 236.07 22.068C236.59 21.184 237.258 20.456 238.072 19.884C238.887 19.312 239.788 18.8873 240.776 18.61C241.764 18.3153 242.735 18.168 243.688 18.168ZM263.223 31.064C263.223 31.376 263.413 31.532 263.795 31.532V32H259.791V31.532C259.912 31.532 260.016 31.4973 260.103 31.428C260.207 31.3413 260.259 31.22 260.259 31.064V20.716H255.969C255.813 20.716 255.657 20.7593 255.501 20.846C255.362 20.9327 255.293 21.0973 255.293 21.34H254.825V17.7H255.293C255.293 17.9427 255.362 18.1073 255.501 18.194C255.657 18.2807 255.813 18.324 255.969 18.324H267.513C267.669 18.324 267.816 18.2807 267.955 18.194C268.111 18.1073 268.189 17.9427 268.189 17.7H268.657V21.34H268.189C268.189 21.0973 268.111 20.9327 267.955 20.846C267.816 20.7593 267.669 20.716 267.513 20.716H263.223V31.064ZM275.139 31.064C275.139 31.22 275.191 31.3413 275.295 31.428C275.399 31.4973 275.52 31.532 275.659 31.532V32H271.603V31.532C271.984 31.532 272.175 31.376 272.175 31.064V19.26C272.175 18.948 271.984 18.792 271.603 18.792V18.324H275.659V18.792C275.52 18.792 275.399 18.8353 275.295 18.922C275.191 18.9913 275.139 19.104 275.139 19.26V24.2L280.521 19.962C280.764 19.754 280.954 19.5893 281.093 19.468C281.232 19.3293 281.301 19.2167 281.301 19.13C281.301 19.0087 281.258 18.922 281.171 18.87C281.102 18.818 281.015 18.792 280.911 18.792V18.324H286.371V18.792C286.059 18.792 285.747 18.922 285.435 19.182L279.455 23.94L284.915 30.258C285.14 30.518 285.4 30.778 285.695 31.038C286.007 31.2807 286.31 31.4453 286.605 31.532V32H281.795V31.532C282.02 31.532 282.133 31.4713 282.133 31.35C282.133 31.2633 282.012 31.0727 281.769 30.778L277.323 25.656L275.139 27.346V31.064ZM297.395 26.696L295.211 21.86L292.767 26.696H297.395ZM287.593 31.532C287.818 31.4973 287.992 31.3847 288.113 31.194C288.252 31.0033 288.382 30.7867 288.503 30.544L293.313 20.43C293.434 20.2047 293.538 19.9967 293.625 19.806C293.729 19.6153 293.781 19.4507 293.781 19.312C293.781 19.1387 293.72 19.0173 293.599 18.948C293.478 18.8787 293.348 18.8267 293.209 18.792V18.324H297.603V18.792C297.482 18.8267 297.36 18.8787 297.239 18.948C297.118 19 297.057 19.1213 297.057 19.312C297.057 19.4507 297.083 19.5893 297.135 19.728C297.204 19.8667 297.3 20.0487 297.421 20.274L302.829 30.856C302.916 31.0467 303.028 31.1853 303.167 31.272C303.323 31.3587 303.496 31.4453 303.687 31.532V32H299.111V31.532C299.18 31.532 299.267 31.506 299.371 31.454C299.475 31.402 299.527 31.324 299.527 31.22C299.527 31.0467 299.458 30.8213 299.319 30.544L298.331 28.62H291.987L291.051 30.466C290.878 30.83 290.791 31.09 290.791 31.246C290.791 31.4367 290.956 31.532 291.285 31.532V32H287.593V31.532ZM138.816 47.68C139.596 47.68 140.237 47.5847 140.74 47.394C141.26 47.186 141.52 46.7613 141.52 46.12C141.52 45.4787 141.26 45.0627 140.74 44.872C140.237 44.664 139.596 44.56 138.816 44.56H133.85V47.68H138.816ZM138.816 53.608C139.908 53.608 140.688 53.4433 141.156 53.114C141.641 52.7673 141.884 52.3167 141.884 51.762C141.884 51.2073 141.641 50.7653 141.156 50.436C140.688 50.0893 139.908 49.916 138.816 49.916H133.85V53.608H138.816ZM138.296 42.324C139.093 42.324 139.865 42.3933 140.61 42.532C141.355 42.6533 142.014 42.8613 142.586 43.156C143.158 43.4333 143.617 43.806 143.964 44.274C144.311 44.7247 144.484 45.288 144.484 45.964C144.484 46.7787 144.233 47.4113 143.73 47.862C143.227 48.2953 142.629 48.6333 141.936 48.876V48.928C142.751 49.1707 143.435 49.5607 143.99 50.098C144.562 50.618 144.848 51.372 144.848 52.36C144.848 52.88 144.735 53.3653 144.51 53.816C144.285 54.2493 143.947 54.6307 143.496 54.96C143.063 55.2893 142.525 55.5493 141.884 55.74C141.243 55.9133 140.515 56 139.7 56H130.158V55.532C130.643 55.532 130.886 55.376 130.886 55.064V43.26C130.886 42.948 130.643 42.792 130.158 42.792V42.324H138.296ZM156.878 44.56C156.219 44.56 155.56 44.664 154.902 44.872C154.243 45.08 153.645 45.3833 153.108 45.782C152.588 46.1633 152.163 46.64 151.834 47.212C151.504 47.784 151.34 48.434 151.34 49.162C151.34 49.89 151.504 50.54 151.834 51.112C152.163 51.684 152.588 52.1693 153.108 52.568C153.645 52.9493 154.243 53.244 154.902 53.452C155.56 53.66 156.219 53.764 156.878 53.764C157.536 53.764 158.195 53.66 158.854 53.452C159.512 53.244 160.102 52.9493 160.622 52.568C161.159 52.1693 161.592 51.684 161.922 51.112C162.251 50.54 162.416 49.89 162.416 49.162C162.416 48.434 162.251 47.784 161.922 47.212C161.592 46.64 161.159 46.1633 160.622 45.782C160.102 45.3833 159.512 45.08 158.854 44.872C158.195 44.664 157.536 44.56 156.878 44.56ZM156.878 42.168C157.831 42.168 158.802 42.3153 159.79 42.61C160.778 42.8873 161.679 43.312 162.494 43.884C163.308 44.456 163.976 45.184 164.496 46.068C165.016 46.9347 165.276 47.966 165.276 49.162C165.276 50.358 165.016 51.398 164.496 52.282C163.976 53.1487 163.308 53.868 162.494 54.44C161.679 55.012 160.778 55.428 159.79 55.688C158.802 55.948 157.831 56.078 156.878 56.078C155.924 56.078 154.954 55.948 153.966 55.688C152.978 55.428 152.076 55.012 151.262 54.44C150.447 53.868 149.78 53.1487 149.26 52.282C148.74 51.398 148.48 50.358 148.48 49.162C148.48 47.966 148.74 46.9347 149.26 46.068C149.78 45.184 150.447 44.456 151.262 43.884C152.076 43.312 152.978 42.8873 153.966 42.61C154.954 42.3153 155.924 42.168 156.878 42.168ZM178.44 48.044C179.012 48.044 179.497 47.9313 179.896 47.706C180.312 47.4807 180.52 47.0387 180.52 46.38C180.52 45.7213 180.312 45.2793 179.896 45.054C179.497 44.8287 179.012 44.716 178.44 44.716H172.902V48.044H178.44ZM168.976 56V55.532C169.617 55.532 169.938 55.376 169.938 55.064V43.26C169.938 42.948 169.617 42.792 168.976 42.792V42.324H178.128C179.792 42.324 181.101 42.636 182.054 43.26C183.007 43.8667 183.484 44.9067 183.484 46.38C183.484 47.8533 183.007 48.902 182.054 49.526C181.101 50.1327 179.792 50.436 178.128 50.436H172.902V55.064C172.902 55.376 173.179 55.532 173.734 55.532V56H168.976ZM194.456 44.56C193.797 44.56 193.138 44.664 192.48 44.872C191.821 45.08 191.223 45.3833 190.686 45.782C190.166 46.1633 189.741 46.64 189.412 47.212C189.082 47.784 188.918 48.434 188.918 49.162C188.918 49.89 189.082 50.54 189.412 51.112C189.741 51.684 190.166 52.1693 190.686 52.568C191.223 52.9493 191.821 53.244 192.48 53.452C193.138 53.66 193.797 53.764 194.456 53.764C195.114 53.764 195.773 53.66 196.432 53.452C197.09 53.244 197.68 52.9493 198.2 52.568C198.737 52.1693 199.17 51.684 199.5 51.112C199.829 50.54 199.994 49.89 199.994 49.162C199.994 48.434 199.829 47.784 199.5 47.212C199.17 46.64 198.737 46.1633 198.2 45.782C197.68 45.3833 197.09 45.08 196.432 44.872C195.773 44.664 195.114 44.56 194.456 44.56ZM194.456 42.168C195.409 42.168 196.38 42.3153 197.368 42.61C198.356 42.8873 199.257 43.312 200.072 43.884C200.886 44.456 201.554 45.184 202.074 46.068C202.594 46.9347 202.854 47.966 202.854 49.162C202.854 50.358 202.594 51.398 202.074 52.282C201.554 53.1487 200.886 53.868 200.072 54.44C199.257 55.012 198.356 55.428 197.368 55.688C196.38 55.948 195.409 56.078 194.456 56.078C193.502 56.078 192.532 55.948 191.544 55.688C190.556 55.428 189.654 55.012 188.84 54.44C188.025 53.868 187.358 53.1487 186.838 52.282C186.318 51.398 186.058 50.358 186.058 49.162C186.058 47.966 186.318 46.9347 186.838 46.068C187.358 45.184 188.025 44.456 188.84 43.884C189.654 43.312 190.556 42.8873 191.544 42.61C192.532 42.3153 193.502 42.168 194.456 42.168ZM218.878 43.26C218.878 42.948 218.687 42.792 218.306 42.792V42.324H222.31V42.792C222.189 42.792 222.076 42.8353 221.972 42.922C221.885 42.9913 221.842 43.104 221.842 43.26V55.064C221.842 55.22 221.885 55.3413 221.972 55.428C222.076 55.4973 222.189 55.532 222.31 55.532V56H218.306V55.532C218.687 55.532 218.878 55.376 218.878 55.064V50.176H210.506V55.064C210.506 55.22 210.549 55.3413 210.636 55.428C210.74 55.4973 210.853 55.532 210.974 55.532V56H207.048V55.532C207.377 55.532 207.542 55.376 207.542 55.064V43.26C207.542 42.948 207.377 42.792 207.048 42.792V42.324H210.974V42.792C210.853 42.792 210.74 42.8353 210.636 42.922C210.549 42.9913 210.506 43.104 210.506 43.26V47.68H218.878V43.26ZM230.248 55.064C230.248 55.22 230.3 55.3413 230.404 55.428C230.508 55.4973 230.63 55.532 230.768 55.532V56H226.712V55.532C227.094 55.532 227.284 55.376 227.284 55.064V43.26C227.284 42.948 227.094 42.792 226.712 42.792V42.324H230.768V42.792C230.63 42.792 230.508 42.8353 230.404 42.922C230.3 42.9913 230.248 43.104 230.248 43.26V48.2L235.63 43.962C235.873 43.754 236.064 43.5893 236.202 43.468C236.341 43.3293 236.41 43.2167 236.41 43.13C236.41 43.0087 236.367 42.922 236.28 42.87C236.211 42.818 236.124 42.792 236.02 42.792V42.324H241.48V42.792C241.168 42.792 240.856 42.922 240.544 43.182L234.564 47.94L240.024 54.258C240.25 54.518 240.51 54.778 240.804 55.038C241.116 55.2807 241.42 55.4453 241.714 55.532V56H236.904V55.532C237.13 55.532 237.242 55.4713 237.242 55.35C237.242 55.2633 237.121 55.0727 236.878 54.778L232.432 49.656L230.248 51.346V55.064ZM259.992 56H256.144V55.532C256.543 55.532 256.742 55.376 256.742 55.064V46.172L248.812 54.7C248.535 54.9773 248.396 55.1767 248.396 55.298C248.396 55.454 248.509 55.532 248.734 55.532V56H244.522V55.532C244.852 55.532 245.016 55.376 245.016 55.064V43.26C245.016 42.948 244.852 42.792 244.522 42.792V42.324H248.448V42.792C247.998 42.792 247.772 42.948 247.772 43.26V51.788L255.234 43.78C255.581 43.4333 255.754 43.1907 255.754 43.052C255.754 42.8787 255.685 42.792 255.546 42.792V42.324H259.992V42.792C259.663 42.792 259.498 42.948 259.498 43.26V55.064C259.498 55.376 259.663 55.532 259.992 55.532V56ZM142.04 68.716H133.928V79.064C133.928 79.22 133.971 79.3413 134.058 79.428C134.162 79.4973 134.275 79.532 134.396 79.532V80H130.47V79.532C130.799 79.532 130.964 79.376 130.964 79.064V67.26C130.964 66.948 130.799 66.792 130.47 66.792V66.324H145.472V66.792C145.351 66.792 145.238 66.8353 145.134 66.922C145.047 66.9913 145.004 67.104 145.004 67.26V79.064C145.004 79.22 145.047 79.3413 145.134 79.428C145.238 79.4973 145.351 79.532 145.472 79.532V80H141.468V79.532C141.849 79.532 142.04 79.376 142.04 79.064V68.716ZM159.397 72.044C159.969 72.044 160.454 71.9313 160.853 71.706C161.269 71.4807 161.477 71.0387 161.477 70.38C161.477 69.7213 161.269 69.2793 160.853 69.054C160.454 68.8287 159.969 68.716 159.397 68.716H153.859V72.044H159.397ZM149.933 80V79.532C150.574 79.532 150.895 79.376 150.895 79.064V67.26C150.895 66.948 150.574 66.792 149.933 66.792V66.324H159.085C160.749 66.324 162.058 66.636 163.011 67.26C163.964 67.8667 164.441 68.9067 164.441 70.38C164.441 71.8533 163.964 72.902 163.011 73.526C162.058 74.1327 160.749 74.436 159.085 74.436H153.859V79.064C153.859 79.376 154.136 79.532 154.691 79.532V80H149.933ZM175.413 68.56C174.754 68.56 174.095 68.664 173.437 68.872C172.778 69.08 172.18 69.3833 171.643 69.782C171.123 70.1633 170.698 70.64 170.369 71.212C170.039 71.784 169.875 72.434 169.875 73.162C169.875 73.89 170.039 74.54 170.369 75.112C170.698 75.684 171.123 76.1693 171.643 76.568C172.18 76.9493 172.778 77.244 173.437 77.452C174.095 77.66 174.754 77.764 175.413 77.764C176.071 77.764 176.73 77.66 177.389 77.452C178.047 77.244 178.637 76.9493 179.157 76.568C179.694 76.1693 180.127 75.684 180.457 75.112C180.786 74.54 180.951 73.89 180.951 73.162C180.951 72.434 180.786 71.784 180.457 71.212C180.127 70.64 179.694 70.1633 179.157 69.782C178.637 69.3833 178.047 69.08 177.389 68.872C176.73 68.664 176.071 68.56 175.413 68.56ZM175.413 66.168C176.366 66.168 177.337 66.3153 178.325 66.61C179.313 66.8873 180.214 67.312 181.029 67.884C181.843 68.456 182.511 69.184 183.031 70.068C183.551 70.9347 183.811 71.966 183.811 73.162C183.811 74.358 183.551 75.398 183.031 76.282C182.511 77.1487 181.843 77.868 181.029 78.44C180.214 79.012 179.313 79.428 178.325 79.688C177.337 79.948 176.366 80.078 175.413 80.078C174.459 80.078 173.489 79.948 172.501 79.688C171.513 79.428 170.611 79.012 169.797 78.44C168.982 77.868 168.315 77.1487 167.795 76.282C167.275 75.398 167.015 74.358 167.015 73.162C167.015 71.966 167.275 70.9347 167.795 70.068C168.315 69.184 168.982 68.456 169.797 67.884C170.611 67.312 171.513 66.8873 172.501 66.61C173.489 66.3153 174.459 66.168 175.413 66.168ZM204.619 81.43C204.619 81.9153 204.81 82.1493 205.191 82.132V82.6H201.603V82.132C201.932 82.132 202.097 81.8893 202.097 81.404V80H189.019V81.404C189.019 81.8893 189.184 82.132 189.513 82.132V82.6H185.925V82.132C186.306 82.1493 186.497 81.9153 186.497 81.43V77.764H188.603L193.179 68.43C193.283 68.2047 193.378 67.9967 193.465 67.806C193.552 67.6153 193.595 67.4507 193.595 67.312C193.595 67.1387 193.534 67.0173 193.413 66.948C193.292 66.8787 193.162 66.8267 193.023 66.792V66.324H197.729V66.792C197.608 66.8267 197.486 66.8787 197.365 66.948C197.244 67 197.183 67.1213 197.183 67.312C197.183 67.4507 197.209 67.5893 197.261 67.728C197.33 67.8667 197.426 68.0487 197.547 68.274L202.513 77.764H204.619V81.43ZM191.411 77.764H199.185L195.207 69.496L191.411 77.764ZM215.942 74.696L213.758 69.86L211.314 74.696H215.942ZM206.14 79.532C206.365 79.4973 206.538 79.3847 206.66 79.194C206.798 79.0033 206.928 78.7867 207.05 78.544L211.86 68.43C211.981 68.2047 212.085 67.9967 212.172 67.806C212.276 67.6153 212.328 67.4507 212.328 67.312C212.328 67.1387 212.267 67.0173 212.146 66.948C212.024 66.8787 211.894 66.8267 211.756 66.792V66.324H216.15V66.792C216.028 66.8267 215.907 66.8787 215.786 66.948C215.664 67 215.604 67.1213 215.604 67.312C215.604 67.4507 215.63 67.5893 215.682 67.728C215.751 67.8667 215.846 68.0487 215.968 68.274L221.376 78.856C221.462 79.0467 221.575 79.1853 221.714 79.272C221.87 79.3587 222.043 79.4453 222.234 79.532V80H217.658V79.532C217.727 79.532 217.814 79.506 217.918 79.454C218.022 79.402 218.074 79.324 218.074 79.22C218.074 79.0467 218.004 78.8213 217.866 78.544L216.878 76.62H210.534L209.598 78.466C209.424 78.83 209.338 79.09 209.338 79.246C209.338 79.4367 209.502 79.532 209.832 79.532V80H206.14V79.532ZM236.482 79.064C236.482 79.22 236.534 79.3413 236.638 79.428C236.742 79.4973 236.863 79.532 237.002 79.532V80H233.076V79.532C233.214 79.532 233.336 79.4973 233.44 79.428C233.544 79.3413 233.596 79.22 233.596 79.064V74.41L232.53 73.578L228.006 78.778C227.763 79.0727 227.642 79.2633 227.642 79.35C227.642 79.4713 227.754 79.532 227.98 79.532V80H223.378V79.532C223.672 79.4453 223.967 79.2807 224.262 79.038C224.574 78.778 224.842 78.518 225.068 78.258L230.528 71.94L224.548 67.182C224.236 66.922 223.924 66.792 223.612 66.792V66.324H229.072V66.792C228.968 66.792 228.872 66.818 228.786 66.87C228.716 66.922 228.682 67.0087 228.682 67.13C228.682 67.2167 228.751 67.3293 228.89 67.468C229.028 67.5893 229.219 67.754 229.462 67.962L233.596 71.212V67.26C233.596 67.104 233.544 66.9913 233.44 66.922C233.336 66.8353 233.214 66.792 233.076 66.792V66.324H237.002V66.792C236.863 66.792 236.742 66.8353 236.638 66.922C236.534 66.9913 236.482 67.104 236.482 67.26V71.394L240.824 67.962C241.066 67.754 241.257 67.5893 241.396 67.468C241.534 67.3293 241.604 67.2167 241.604 67.13C241.604 67.0087 241.56 66.922 241.474 66.87C241.404 66.818 241.318 66.792 241.214 66.792V66.324H246.674V66.792C246.362 66.792 246.05 66.922 245.738 67.182L239.758 71.94L245.218 78.258C245.443 78.518 245.703 78.778 245.998 79.038C246.31 79.2807 246.613 79.4453 246.908 79.532V80H242.098V79.532C242.323 79.532 242.436 79.4713 242.436 79.35C242.436 79.2633 242.314 79.0727 242.072 78.778L237.626 73.656L236.482 74.54V79.064Z" fill="white"/>
</g>
<path d="M8.3 132.2C7.31333 132.2 6.49333 131.98 5.84 131.54C5.18667 131.1 4.7 130.507 4.38 129.76C4.06 129.013 3.9 128.193 3.9 127.3C3.9 126.393 4.06 125.573 4.38 124.84C4.7 124.093 5.18667 123.5 5.84 123.06C6.49333 122.62 7.31333 122.4 8.3 122.4C9.00667 122.4 9.6 122.453 10.08 122.56C10.5733 122.667 10.9467 122.847 11.2 123.1C11.4533 123.353 11.6 123.667 11.64 124.04C11.68 124.4 11.7 124.953 11.7 125.7H11.3C11.2467 124.847 10.9733 124.22 10.48 123.82C10 123.407 9.40667 123.2 8.7 123.2C8.03333 123.2 7.48667 123.387 7.06 123.76C6.63333 124.12 6.31333 124.607 6.1 125.22C5.9 125.833 5.8 126.527 5.8 127.3C5.8 128.06 5.9 128.753 6.1 129.38C6.31333 129.993 6.63333 130.487 7.06 130.86C7.48667 131.22 8.03333 131.4 8.7 131.4C9.40667 131.4 9.98 131.26 10.42 130.98C10.86 130.7 11.2533 130.307 11.6 129.8L12 130.1C11.7067 130.607 11.3733 131.013 11 131.32C10.6267 131.627 10.2133 131.853 9.76 132C9.32 132.133 8.83333 132.2 8.3 132.2ZM17.968 132.2C17.0346 132.2 16.2413 131.98 15.588 131.54C14.9346 131.1 14.4346 130.507 14.088 129.76C13.7413 129.013 13.568 128.193 13.568 127.3C13.568 126.393 13.7413 125.573 14.088 124.84C14.4346 124.093 14.9346 123.5 15.588 123.06C16.2413 122.62 17.0346 122.4 17.968 122.4C18.9013 122.4 19.6946 122.62 20.348 123.06C21.0013 123.5 21.5013 124.093 21.848 124.84C22.1946 125.573 22.368 126.393 22.368 127.3C22.368 128.193 22.1946 129.013 21.848 129.76C21.5013 130.507 21.0013 131.1 20.348 131.54C19.6946 131.98 18.9013 132.2 17.968 132.2ZM17.968 131.4C18.4746 131.4 18.9146 131.22 19.288 130.86C19.6613 130.487 19.948 129.993 20.148 129.38C20.3613 128.753 20.468 128.06 20.468 127.3C20.468 126.527 20.3613 125.833 20.148 125.22C19.948 124.607 19.6613 124.12 19.288 123.76C18.9146 123.387 18.4746 123.2 17.968 123.2C17.4746 123.2 17.0346 123.387 16.648 123.76C16.2746 124.12 15.9813 124.607 15.768 125.22C15.568 125.833 15.468 126.527 15.468 127.3C15.468 128.06 15.568 128.753 15.768 129.38C15.9813 129.993 16.2746 130.487 16.648 130.86C17.0346 131.22 17.4746 131.4 17.968 131.4ZM27.4934 132.2C26.6001 132.2 25.8801 132.047 25.3334 131.74C24.7868 131.433 24.3401 131.053 23.9934 130.6L24.3934 130.3C24.6468 130.553 24.9734 130.8 25.3734 131.04C25.7868 131.28 26.3601 131.4 27.0934 131.4C27.8934 131.4 28.5068 131.247 28.9334 130.94C29.3734 130.633 29.5934 130.153 29.5934 129.5C29.5934 128.873 29.3601 128.4 28.8934 128.08C28.4268 127.76 27.7268 127.6 26.7934 127.6H25.8934V126.8H26.7934C27.5934 126.8 28.2068 126.653 28.6334 126.36C29.0734 126.053 29.2934 125.6 29.2934 125C29.2934 124.4 29.1001 123.953 28.7134 123.66C28.3268 123.353 27.8534 123.2 27.2934 123.2C26.5734 123.2 25.9668 123.387 25.4734 123.76C24.9934 124.133 24.7334 124.647 24.6934 125.3H24.2934C24.2934 124.74 24.3134 124.3 24.3534 123.98C24.3934 123.647 24.5401 123.353 24.7934 123.1C25.0468 122.847 25.4134 122.667 25.8934 122.56C26.3734 122.453 26.9401 122.4 27.5934 122.4C28.1934 122.4 28.7668 122.48 29.3134 122.64C29.8601 122.8 30.3068 123.067 30.6534 123.44C31.0134 123.813 31.1934 124.333 31.1934 125C31.1934 125.6 31.0068 126.08 30.6334 126.44C30.2734 126.8 29.7934 127.053 29.1934 127.2C29.9134 127.347 30.4734 127.62 30.8734 128.02C31.2868 128.407 31.4934 128.9 31.4934 129.5C31.4934 130.193 31.3068 130.74 30.9334 131.14C30.5734 131.527 30.0934 131.8 29.4934 131.96C28.8934 132.12 28.2268 132.2 27.4934 132.2ZM32.5388 135.1V131.9C32.5388 131.7 32.6054 131.533 32.7388 131.4C32.8721 131.267 33.0388 131.2 33.2388 131.2H33.8388C34.1454 130.533 34.3854 129.84 34.5588 129.12C34.7321 128.387 34.8521 127.667 34.9188 126.96C34.9988 126.253 35.0388 125.6 35.0388 125C35.0388 124.4 34.9521 123.92 34.7788 123.56C34.6188 123.187 34.2388 123 33.6388 123V122.6H41.6388V131.2H42.4388C42.6388 131.2 42.8054 131.267 42.9388 131.4C43.0721 131.533 43.1388 131.7 43.1388 131.9V135.1H42.3388C42.2721 134.353 42.1521 133.753 41.9788 133.3C41.8188 132.847 41.5988 132.513 41.3188 132.3C41.0388 132.1 40.6788 132 40.2388 132H35.4388C35.0121 132 34.6521 132.1 34.3588 132.3C34.0788 132.513 33.8588 132.847 33.6988 133.3C33.5388 133.753 33.4188 134.353 33.3388 135.1H32.5388ZM35.2388 131.2H39.8388V123.4H36.3388C36.3388 125.107 36.2521 126.587 36.0788 127.84C35.9188 129.08 35.6388 130.2 35.2388 131.2ZM47.305 132.2C47.025 132.2 46.7183 132.153 46.385 132.06C46.065 131.98 45.7517 131.833 45.445 131.62C45.1383 131.407 44.885 131.12 44.685 130.76C44.4983 130.4 44.405 129.947 44.405 129.4C44.405 128.667 44.6383 128.1 45.105 127.7C45.585 127.3 46.2117 127.02 46.985 126.86C47.7717 126.687 48.6117 126.6 49.505 126.6H50.105C50.105 125.667 50.0117 124.96 49.825 124.48C49.6383 123.987 49.385 123.653 49.065 123.48C48.7583 123.293 48.405 123.2 48.005 123.2C47.445 123.2 46.9717 123.32 46.585 123.56C46.2117 123.8 45.9517 124.247 45.805 124.9H44.905C44.905 124.553 44.925 124.233 44.965 123.94C45.005 123.633 45.1517 123.353 45.405 123.1C45.6583 122.847 46.0717 122.667 46.645 122.56C47.2183 122.453 47.805 122.4 48.405 122.4C48.8583 122.4 49.2917 122.453 49.705 122.56C50.1317 122.667 50.505 122.867 50.825 123.16C51.1583 123.44 51.4183 123.86 51.605 124.42C51.805 124.967 51.905 125.693 51.905 126.6V132H50.905L50.205 131.1H50.105C49.905 131.353 49.5783 131.6 49.125 131.84C48.6717 132.08 48.065 132.2 47.305 132.2ZM48.205 131.3C48.6983 131.3 49.085 131.18 49.365 130.94C49.6583 130.687 49.905 130.407 50.105 130.1V127.4H49.505C48.505 127.4 47.7183 127.587 47.145 127.96C46.585 128.32 46.305 128.8 46.305 129.4C46.305 130.053 46.4983 130.533 46.885 130.84C47.2717 131.147 47.7117 131.3 48.205 131.3ZM58.3539 132.2C57.4206 132.2 56.6406 131.98 56.0139 131.54C55.4006 131.1 54.9339 130.507 54.6139 129.76C54.3072 129.013 54.1539 128.193 54.1539 127.3C54.1539 126.393 54.3139 125.573 54.6339 124.84C54.9539 124.093 55.4139 123.5 56.0139 123.06C56.6139 122.62 57.3272 122.4 58.1539 122.4C59.0606 122.4 59.8072 122.573 60.3939 122.92C60.9939 123.253 61.4339 123.747 61.7139 124.4C62.0072 125.053 62.1539 125.853 62.1539 126.8L62.1139 127.6H56.0539C56.0539 128.693 56.2872 129.6 56.7539 130.32C57.2339 131.04 57.9006 131.4 58.7539 131.4C59.4072 131.4 59.9472 131.26 60.3739 130.98C60.8139 130.7 61.2072 130.307 61.5539 129.8L61.9539 130.1C61.6606 130.607 61.3272 131.013 60.9539 131.32C60.5939 131.627 60.1939 131.853 59.7539 132C59.3272 132.133 58.8606 132.2 58.3539 132.2ZM56.0539 126.8H60.2539C60.2539 125.64 60.0806 124.753 59.7339 124.14C59.3872 123.513 58.8606 123.2 58.1539 123.2C57.7539 123.2 57.3939 123.36 57.0739 123.68C56.7672 123.987 56.5206 124.413 56.3339 124.96C56.1472 125.493 56.0539 126.107 56.0539 126.8ZM75.6595 132.4C74.4062 132.4 73.5395 132.093 73.0595 131.48C72.5929 130.867 72.3595 130.04 72.3595 129V124.7L69.0595 132H68.6595L65.2595 124.5V132H64.4595V122.6H66.3595L69.3595 129.2L72.3595 122.6H74.1595V129C74.1595 129.493 74.2195 129.973 74.3395 130.44C74.4729 130.893 74.6529 131.267 74.8795 131.56C75.1062 131.853 75.3662 132 75.6595 132V132.4ZM82.1678 132.2C82.0611 132.2 81.8945 132.18 81.6678 132.14C81.4545 132.1 81.2945 132.06 81.1878 132.02V131.52C81.5078 131.52 81.8211 131.44 82.1278 131.28C82.4478 131.107 82.7278 130.793 82.9678 130.34C83.2211 129.873 83.4211 129.213 83.5678 128.36C83.7145 127.493 83.7878 126.373 83.7878 125C83.7878 124.4 83.7011 123.92 83.5278 123.56C83.3678 123.187 82.9811 123 82.3678 123V122.6H90.4878V132H88.6878V123.4H85.1678V125C85.1678 126.493 85.0811 127.713 84.9078 128.66C84.7478 129.607 84.5211 130.34 84.2278 130.86C83.9478 131.367 83.6278 131.72 83.2678 131.92C82.9078 132.107 82.5411 132.2 82.1678 132.2ZM97.2258 132.2C96.2924 132.2 95.4991 131.98 94.8458 131.54C94.1924 131.1 93.6924 130.507 93.3458 129.76C92.9991 129.013 92.8258 128.193 92.8258 127.3C92.8258 126.393 92.9991 125.573 93.3458 124.84C93.6924 124.093 94.1924 123.5 94.8458 123.06C95.4991 122.62 96.2924 122.4 97.2258 122.4C98.1591 122.4 98.9524 122.62 99.6058 123.06C100.259 123.5 100.759 124.093 101.106 124.84C101.452 125.573 101.626 126.393 101.626 127.3C101.626 128.193 101.452 129.013 101.106 129.76C100.759 130.507 100.259 131.1 99.6058 131.54C98.9524 131.98 98.1591 132.2 97.2258 132.2ZM97.2258 131.4C97.7324 131.4 98.1724 131.22 98.5458 130.86C98.9191 130.487 99.2058 129.993 99.4058 129.38C99.6191 128.753 99.7258 128.06 99.7258 127.3C99.7258 126.527 99.6191 125.833 99.4058 125.22C99.2058 124.607 98.9191 124.12 98.5458 123.76C98.1724 123.387 97.7324 123.2 97.2258 123.2C96.7324 123.2 96.2924 123.387 95.9058 123.76C95.5324 124.12 95.2391 124.607 95.0258 125.22C94.8258 125.833 94.7258 126.527 94.7258 127.3C94.7258 128.06 94.8258 128.753 95.0258 129.38C95.2391 129.993 95.5324 130.487 95.9058 130.86C96.2924 131.22 96.7324 131.4 97.2258 131.4ZM104.171 132V125C104.171 124.4 104.085 123.92 103.911 123.56C103.751 123.187 103.371 123 102.771 123H102.571V122.6H109.171C109.771 122.6 110.171 122.767 110.371 123.1C110.571 123.433 110.671 123.8 110.671 124.2V125.4H110.271C110.271 124.747 110.071 124.253 109.671 123.92C109.271 123.573 108.771 123.4 108.171 123.4H105.971V132H104.171ZM112.943 132V125C112.943 124.4 112.856 123.92 112.683 123.56C112.523 123.187 112.143 123 111.543 123H111.243V122.6H112.943C113.409 122.6 113.769 122.66 114.023 122.78C114.289 122.9 114.476 123.133 114.583 123.48C114.689 123.827 114.743 124.333 114.743 125V130.2L118.943 122.6H120.743V132H118.943V124.4L114.743 132H112.943ZM129.6 132V128.14C129.4 128.22 129.126 128.3 128.78 128.38C128.446 128.46 128.053 128.5 127.6 128.5C127.04 128.5 126.48 128.427 125.92 128.28C125.373 128.133 124.913 127.853 124.54 127.44C124.18 127.013 124 126.4 124 125.6V125C124 124.4 123.913 123.92 123.74 123.56C123.58 123.187 123.2 123 122.6 123H122.4V122.6H124.1C124.566 122.6 124.926 122.66 125.18 122.78C125.446 122.9 125.633 123.133 125.74 123.48C125.846 123.827 125.9 124.333 125.9 125V125.8C125.9 126.493 126.086 126.987 126.46 127.28C126.833 127.56 127.246 127.7 127.7 127.7C128.1 127.7 128.466 127.66 128.8 127.58C129.133 127.5 129.4 127.42 129.6 127.34V122.6H131.4V132H129.6ZM134.564 132V125C134.564 124.4 134.477 123.92 134.304 123.56C134.144 123.187 133.764 123 133.164 123H132.864V122.6H134.564C135.03 122.6 135.39 122.66 135.644 122.78C135.91 122.9 136.097 123.133 136.204 123.48C136.31 123.827 136.364 124.333 136.364 125V126.9H140.364V122.6H142.164V129.6C142.164 130.2 142.244 130.687 142.404 131.06C142.577 131.42 142.964 131.6 143.564 131.6H143.864V132H142.164C141.697 132 141.33 131.94 141.064 131.82C140.81 131.7 140.63 131.467 140.524 131.12C140.417 130.773 140.364 130.267 140.364 129.6V127.7H136.364V132H134.564ZM145.998 136V135.4C146.612 135.4 147.132 135.26 147.558 134.98C147.998 134.713 148.378 134.153 148.698 133.3L149.098 132.2L145.898 124.4C145.698 123.893 145.405 123.513 145.018 123.26C144.645 123.007 144.205 122.853 143.698 122.8V122.4H145.398C145.998 122.4 146.492 122.54 146.878 122.82C147.278 123.1 147.585 123.493 147.798 124L150.078 129.54L152.598 122.6H153.598L149.698 133.3C149.432 134.033 149.145 134.593 148.838 134.98C148.545 135.367 148.212 135.633 147.838 135.78C147.478 135.927 147.065 136 146.598 136H145.998ZM162.992 132.2C162.205 132.2 161.505 132.013 160.892 131.64C160.292 131.267 159.819 130.747 159.472 130.08C159.125 129.4 158.932 128.607 158.892 127.7H157.692V132H155.892V125C155.892 124.4 155.805 123.92 155.632 123.56C155.472 123.187 155.092 123 154.492 123H154.192V122.6H155.892C156.359 122.6 156.719 122.66 156.972 122.78C157.239 122.9 157.425 123.133 157.532 123.48C157.639 123.827 157.692 124.333 157.692 125V126.9H158.892C158.932 125.993 159.125 125.207 159.472 124.54C159.819 123.86 160.292 123.333 160.892 122.96C161.505 122.587 162.205 122.4 162.992 122.4C163.832 122.4 164.559 122.607 165.172 123.02C165.785 123.433 166.259 124.007 166.592 124.74C166.925 125.473 167.092 126.327 167.092 127.3C167.092 128.26 166.925 129.113 166.592 129.86C166.259 130.593 165.785 131.167 165.172 131.58C164.559 131.993 163.832 132.2 162.992 132.2ZM162.992 131.4C163.432 131.4 163.812 131.247 164.132 130.94C164.465 130.633 164.725 130.18 164.912 129.58C165.099 128.967 165.192 128.207 165.192 127.3C165.192 126.393 165.099 125.64 164.912 125.04C164.725 124.427 164.465 123.967 164.132 123.66C163.812 123.353 163.432 123.2 162.992 123.2C162.565 123.2 162.185 123.353 161.852 123.66C161.519 123.967 161.259 124.427 161.072 125.04C160.885 125.64 160.792 126.393 160.792 127.3C160.792 128.207 160.885 128.967 161.072 129.58C161.259 130.18 161.519 130.633 161.852 130.94C162.185 131.247 162.565 131.4 162.992 131.4ZM174.72 132V125C174.72 124.4 174.633 123.92 174.46 123.56C174.3 123.187 173.92 123 173.32 123H173.02V122.6H174.72C175.187 122.6 175.547 122.66 175.8 122.78C176.067 122.9 176.253 123.133 176.36 123.48C176.467 123.827 176.52 124.333 176.52 125V130.2L180.72 122.6H182.52V132H180.72V124.4L176.52 132H174.72ZM6.68 151.2C6.4 151.2 6.09333 151.153 5.76 151.06C5.44 150.98 5.12667 150.833 4.82 150.62C4.51333 150.407 4.26 150.12 4.06 149.76C3.87333 149.4 3.78 148.947 3.78 148.4C3.78 147.667 4.01333 147.1 4.48 146.7C4.96 146.3 5.58667 146.02 6.36 145.86C7.14667 145.687 7.98667 145.6 8.88 145.6H9.48C9.48 144.667 9.38667 143.96 9.2 143.48C9.01333 142.987 8.76 142.653 8.44 142.48C8.13333 142.293 7.78 142.2 7.38 142.2C6.82 142.2 6.34667 142.32 5.96 142.56C5.58667 142.8 5.32667 143.247 5.18 143.9H4.28C4.28 143.553 4.3 143.233 4.34 142.94C4.38 142.633 4.52667 142.353 4.78 142.1C5.03333 141.847 5.44667 141.667 6.02 141.56C6.59333 141.453 7.18 141.4 7.78 141.4C8.23333 141.4 8.66667 141.453 9.08 141.56C9.50667 141.667 9.88 141.867 10.2 142.16C10.5333 142.44 10.7933 142.86 10.98 143.42C11.18 143.967 11.28 144.693 11.28 145.6V151H10.28L9.58 150.1H9.48C9.28 150.353 8.95333 150.6 8.5 150.84C8.04667 151.08 7.44 151.2 6.68 151.2ZM7.58 150.3C8.07333 150.3 8.46 150.18 8.74 149.94C9.03333 149.687 9.28 149.407 9.48 149.1V146.4H8.88C7.88 146.4 7.09333 146.587 6.52 146.96C5.96 147.32 5.68 147.8 5.68 148.4C5.68 149.053 5.87333 149.533 6.26 149.84C6.64667 150.147 7.08667 150.3 7.58 150.3ZM14.2689 151V144C14.2689 143.4 14.1822 142.92 14.0089 142.56C13.8489 142.187 13.4689 142 12.8689 142H12.6689V141.6H17.5689C18.2356 141.6 18.8556 141.673 19.4289 141.82C20.0156 141.967 20.4822 142.213 20.8289 142.56C21.1889 142.907 21.3689 143.387 21.3689 144C21.3689 144.56 21.2089 145.013 20.8889 145.36C20.5822 145.707 20.0756 145.953 19.3689 146.1C20.1289 146.247 20.7156 146.52 21.1289 146.92C21.5556 147.307 21.7689 147.8 21.7689 148.4C21.7689 149.067 21.5822 149.593 21.2089 149.98C20.8489 150.353 20.3489 150.62 19.7089 150.78C19.0822 150.927 18.3689 151 17.5689 151H14.2689ZM17.3689 150.3C18.1689 150.3 18.7822 150.147 19.2089 149.84C19.6489 149.533 19.8689 149.053 19.8689 148.4C19.8689 147.773 19.6422 147.3 19.1889 146.98C18.7489 146.66 18.0756 146.5 17.1689 146.5H16.0689V150.1C16.2156 150.153 16.4156 150.2 16.6689 150.24C16.9356 150.28 17.1689 150.3 17.3689 150.3ZM16.0689 145.7H17.1689C17.8756 145.7 18.4356 145.56 18.8489 145.28C19.2622 144.987 19.4689 144.56 19.4689 144C19.4689 143.44 19.2689 143.02 18.8689 142.74C18.4689 142.447 17.9689 142.3 17.3689 142.3C17.1689 142.3 16.9356 142.32 16.6689 142.36C16.4156 142.4 16.2156 142.447 16.0689 142.5V145.7ZM26.7284 151V142.4H25.7284C25.1284 142.4 24.6284 142.573 24.2284 142.92C23.8284 143.253 23.6284 143.747 23.6284 144.4H23.2284V143.2C23.2284 142.8 23.3284 142.433 23.5284 142.1C23.7284 141.767 24.1284 141.6 24.7284 141.6H31.8284V142.4H28.5284V151H26.7284ZM37.1477 151.2C36.2143 151.2 35.421 150.98 34.7677 150.54C34.1143 150.1 33.6143 149.507 33.2677 148.76C32.921 148.013 32.7477 147.193 32.7477 146.3C32.7477 145.393 32.921 144.573 33.2677 143.84C33.6143 143.093 34.1143 142.5 34.7677 142.06C35.421 141.62 36.2143 141.4 37.1477 141.4C38.081 141.4 38.8743 141.62 39.5277 142.06C40.181 142.5 40.681 143.093 41.0277 143.84C41.3743 144.573 41.5477 145.393 41.5477 146.3C41.5477 147.193 41.3743 148.013 41.0277 148.76C40.681 149.507 40.181 150.1 39.5277 150.54C38.8743 150.98 38.081 151.2 37.1477 151.2ZM37.1477 150.4C37.6543 150.4 38.0943 150.22 38.4677 149.86C38.841 149.487 39.1277 148.993 39.3277 148.38C39.541 147.753 39.6477 147.06 39.6477 146.3C39.6477 145.527 39.541 144.833 39.3277 144.22C39.1277 143.607 38.841 143.12 38.4677 142.76C38.0943 142.387 37.6543 142.2 37.1477 142.2C36.6543 142.2 36.2143 142.387 35.8277 142.76C35.4543 143.12 35.161 143.607 34.9477 144.22C34.7477 144.833 34.6477 145.527 34.6477 146.3C34.6477 147.06 34.7477 147.753 34.9477 148.38C35.161 148.993 35.4543 149.487 35.8277 149.86C36.2143 150.22 36.6543 150.4 37.1477 150.4ZM55.0931 151.4C53.8398 151.4 52.9731 151.093 52.4931 150.48C52.0265 149.867 51.7931 149.04 51.7931 148V143.7L48.4931 151H48.0931L44.6931 143.5V151H43.8931V141.6H45.7931L48.7931 148.2L51.7931 141.6H53.5931V148C53.5931 148.493 53.6531 148.973 53.7731 149.44C53.9065 149.893 54.0865 150.267 54.3131 150.56C54.5398 150.853 54.7998 151 55.0931 151V151.4ZM59.1214 151.2C58.8414 151.2 58.5347 151.153 58.2014 151.06C57.8814 150.98 57.5681 150.833 57.2614 150.62C56.9547 150.407 56.7014 150.12 56.5014 149.76C56.3147 149.4 56.2214 148.947 56.2214 148.4C56.2214 147.667 56.4547 147.1 56.9214 146.7C57.4014 146.3 58.0281 146.02 58.8014 145.86C59.5881 145.687 60.4281 145.6 61.3214 145.6H61.9214C61.9214 144.667 61.8281 143.96 61.6414 143.48C61.4547 142.987 61.2014 142.653 60.8814 142.48C60.5747 142.293 60.2214 142.2 59.8214 142.2C59.2614 142.2 58.7881 142.32 58.4014 142.56C58.0281 142.8 57.7681 143.247 57.6214 143.9H56.7214C56.7214 143.553 56.7414 143.233 56.7814 142.94C56.8214 142.633 56.9681 142.353 57.2214 142.1C57.4747 141.847 57.8881 141.667 58.4614 141.56C59.0347 141.453 59.6214 141.4 60.2214 141.4C60.6747 141.4 61.1081 141.453 61.5214 141.56C61.9481 141.667 62.3214 141.867 62.6414 142.16C62.9747 142.44 63.2347 142.86 63.4214 143.42C63.6214 143.967 63.7214 144.693 63.7214 145.6V151H62.7214L62.0214 150.1H61.9214C61.7214 150.353 61.3947 150.6 60.9414 150.84C60.4881 151.08 59.8814 151.2 59.1214 151.2ZM60.0214 150.3C60.5147 150.3 60.9014 150.18 61.1814 149.94C61.4747 149.687 61.7214 149.407 61.9214 149.1V146.4H61.3214C60.3214 146.4 59.5347 146.587 58.9614 146.96C58.4014 147.32 58.1214 147.8 58.1214 148.4C58.1214 149.053 58.3147 149.533 58.7014 149.84C59.0881 150.147 59.5281 150.3 60.0214 150.3ZM69.1503 151V142.4H68.1503C67.5503 142.4 67.0503 142.573 66.6503 142.92C66.2503 143.253 66.0503 143.747 66.0503 144.4H65.6503V143.2C65.6503 142.8 65.7503 142.433 65.9503 142.1C66.1503 141.767 66.5503 141.6 67.1503 141.6H74.2503V142.4H70.9503V151H69.1503ZM76.263 151V144C76.263 143.4 76.1763 142.92 76.003 142.56C75.843 142.187 75.463 142 74.863 142H74.563V141.6H76.263C76.7296 141.6 77.0896 141.66 77.343 141.78C77.6096 141.9 77.7963 142.133 77.903 142.48C78.0096 142.827 78.063 143.333 78.063 144V149.2L82.263 141.6H84.063V151H82.263V143.4L78.063 151H76.263ZM89.72 151.2C88.8267 151.2 88.1067 151.047 87.56 150.74C87.0133 150.433 86.5667 150.053 86.22 149.6L86.62 149.3C86.8733 149.553 87.2 149.8 87.6 150.04C88.0133 150.28 88.5867 150.4 89.32 150.4C90.12 150.4 90.7333 150.247 91.16 149.94C91.6 149.633 91.82 149.153 91.82 148.5C91.82 147.873 91.5867 147.4 91.12 147.08C90.6533 146.76 89.9533 146.6 89.02 146.6H88.12V145.8H89.02C89.82 145.8 90.4333 145.653 90.86 145.36C91.3 145.053 91.52 144.6 91.52 144C91.52 143.4 91.3267 142.953 90.94 142.66C90.5533 142.353 90.08 142.2 89.52 142.2C88.8 142.2 88.1933 142.387 87.7 142.76C87.22 143.133 86.96 143.647 86.92 144.3H86.52C86.52 143.74 86.54 143.3 86.58 142.98C86.62 142.647 86.7667 142.353 87.02 142.1C87.2733 141.847 87.64 141.667 88.12 141.56C88.6 141.453 89.1667 141.4 89.82 141.4C90.42 141.4 90.9933 141.48 91.54 141.64C92.0867 141.8 92.5333 142.067 92.88 142.44C93.24 142.813 93.42 143.333 93.42 144C93.42 144.6 93.2333 145.08 92.86 145.44C92.5 145.8 92.02 146.053 91.42 146.2C92.14 146.347 92.7 146.62 93.1 147.02C93.5133 147.407 93.72 147.9 93.72 148.5C93.72 149.193 93.5333 149.74 93.16 150.14C92.8 150.527 92.32 150.8 91.72 150.96C91.12 151.12 90.4533 151.2 89.72 151.2ZM96.3216 151V144C96.3216 143.4 96.2349 142.92 96.0616 142.56C95.9016 142.187 95.5216 142 94.9216 142H94.6216V141.6H96.3216C96.7882 141.6 97.1482 141.66 97.4016 141.78C97.6682 141.9 97.8549 142.133 97.9616 142.48C98.0682 142.827 98.1216 143.333 98.1216 144V149.2L102.322 141.6H104.122V151H102.322V143.4L98.1216 151H96.3216ZM107.299 154.8V144C107.299 143.4 107.212 142.92 107.039 142.56C106.879 142.187 106.499 142 105.899 142H105.499V141.6H107.299C107.805 141.6 108.185 141.673 108.439 141.82C108.705 141.967 108.892 142.193 108.999 142.5C109.265 142.233 109.625 141.987 110.079 141.76C110.532 141.52 111.105 141.4 111.799 141.4C112.599 141.4 113.265 141.62 113.799 142.06C114.332 142.5 114.732 143.093 114.999 143.84C115.265 144.573 115.399 145.393 115.399 146.3C115.399 147.193 115.259 148.013 114.979 148.76C114.712 149.507 114.299 150.1 113.739 150.54C113.179 150.98 112.465 151.2 111.599 151.2C111.039 151.2 110.559 151.133 110.159 151C109.759 150.88 109.405 150.747 109.099 150.6V154.8H107.299ZM110.999 150.4C111.599 150.4 112.079 150.22 112.439 149.86C112.812 149.487 113.079 148.993 113.239 148.38C113.412 147.753 113.499 147.06 113.499 146.3C113.499 145.527 113.419 144.833 113.259 144.22C113.099 143.607 112.845 143.12 112.499 142.76C112.165 142.387 111.732 142.2 111.199 142.2C110.652 142.2 110.212 142.327 109.879 142.58C109.545 142.82 109.285 143.093 109.099 143.4V149.8C109.405 149.947 109.719 150.087 110.039 150.22C110.372 150.34 110.692 150.4 110.999 150.4ZM121.62 151.2C120.687 151.2 119.894 150.98 119.24 150.54C118.587 150.1 118.087 149.507 117.74 148.76C117.394 148.013 117.22 147.193 117.22 146.3C117.22 145.393 117.394 144.573 117.74 143.84C118.087 143.093 118.587 142.5 119.24 142.06C119.894 141.62 120.687 141.4 121.62 141.4C122.554 141.4 123.347 141.62 124 142.06C124.654 142.5 125.154 143.093 125.5 143.84C125.847 144.573 126.02 145.393 126.02 146.3C126.02 147.193 125.847 148.013 125.5 148.76C125.154 149.507 124.654 150.1 124 150.54C123.347 150.98 122.554 151.2 121.62 151.2ZM121.62 150.4C122.127 150.4 122.567 150.22 122.94 149.86C123.314 149.487 123.6 148.993 123.8 148.38C124.014 147.753 124.12 147.06 124.12 146.3C124.12 145.527 124.014 144.833 123.8 144.22C123.6 143.607 123.314 143.12 122.94 142.76C122.567 142.387 122.127 142.2 121.62 142.2C121.127 142.2 120.687 142.387 120.3 142.76C119.927 143.12 119.634 143.607 119.42 144.22C119.22 144.833 119.12 145.527 119.12 146.3C119.12 147.06 119.22 147.753 119.42 148.38C119.634 148.993 119.927 149.487 120.3 149.86C120.687 150.22 121.127 150.4 121.62 150.4ZM128.566 151V144C128.566 143.4 128.479 142.92 128.306 142.56C128.146 142.187 127.766 142 127.166 142H126.966V141.6H131.866C132.532 141.6 133.152 141.673 133.726 141.82C134.312 141.967 134.779 142.213 135.126 142.56C135.486 142.907 135.666 143.387 135.666 144C135.666 144.56 135.506 145.013 135.186 145.36C134.879 145.707 134.372 145.953 133.666 146.1C134.426 146.247 135.012 146.52 135.426 146.92C135.852 147.307 136.066 147.8 136.066 148.4C136.066 149.067 135.879 149.593 135.506 149.98C135.146 150.353 134.646 150.62 134.006 150.78C133.379 150.927 132.666 151 131.866 151H128.566ZM131.666 150.3C132.466 150.3 133.079 150.147 133.506 149.84C133.946 149.533 134.166 149.053 134.166 148.4C134.166 147.773 133.939 147.3 133.486 146.98C133.046 146.66 132.372 146.5 131.466 146.5H130.366V150.1C130.512 150.153 130.712 150.2 130.966 150.24C131.232 150.28 131.466 150.3 131.666 150.3ZM130.366 145.7H131.466C132.172 145.7 132.732 145.56 133.146 145.28C133.559 144.987 133.766 144.56 133.766 144C133.766 143.44 133.566 143.02 133.166 142.74C132.766 142.447 132.266 142.3 131.666 142.3C131.466 142.3 131.232 142.32 130.966 142.36C130.712 142.4 130.512 142.447 130.366 142.5V145.7ZM140.625 151.2C140.345 151.2 140.039 151.153 139.705 151.06C139.385 150.98 139.072 150.833 138.765 150.62C138.459 150.407 138.205 150.12 138.005 149.76C137.819 149.4 137.725 148.947 137.725 148.4C137.725 147.667 137.959 147.1 138.425 146.7C138.905 146.3 139.532 146.02 140.305 145.86C141.092 145.687 141.932 145.6 142.825 145.6H143.425C143.425 144.667 143.332 143.96 143.145 143.48C142.959 142.987 142.705 142.653 142.385 142.48C142.079 142.293 141.725 142.2 141.325 142.2C140.765 142.2 140.292 142.32 139.905 142.56C139.532 142.8 139.272 143.247 139.125 143.9H138.225C138.225 143.553 138.245 143.233 138.285 142.94C138.325 142.633 138.472 142.353 138.725 142.1C138.979 141.847 139.392 141.667 139.965 141.56C140.539 141.453 141.125 141.4 141.725 141.4C142.179 141.4 142.612 141.453 143.025 141.56C143.452 141.667 143.825 141.867 144.145 142.16C144.479 142.44 144.739 142.86 144.925 143.42C145.125 143.967 145.225 144.693 145.225 145.6V151H144.225L143.525 150.1H143.425C143.225 150.353 142.899 150.6 142.445 150.84C141.992 151.08 141.385 151.2 140.625 151.2ZM141.525 150.3C142.019 150.3 142.405 150.18 142.685 149.94C142.979 149.687 143.225 149.407 143.425 149.1V146.4H142.825C141.825 146.4 141.039 146.587 140.465 146.96C139.905 147.32 139.625 147.8 139.625 148.4C139.625 149.053 139.819 149.533 140.205 149.84C140.592 150.147 141.032 150.3 141.525 150.3ZM148.294 151V144C148.294 143.4 148.208 142.92 148.034 142.56C147.874 142.187 147.494 142 146.894 142H146.594V141.6H148.294C148.761 141.6 149.121 141.66 149.374 141.78C149.641 141.9 149.828 142.133 149.934 142.48C150.041 142.827 150.094 143.333 150.094 144V145.9H154.094V141.6H155.894V148.6C155.894 149.2 155.974 149.687 156.134 150.06C156.308 150.42 156.694 150.6 157.294 150.6H157.594V151H155.894C155.428 151 155.061 150.94 154.794 150.82C154.541 150.7 154.361 150.467 154.254 150.12C154.148 149.773 154.094 149.267 154.094 148.6V146.7H150.094V151H148.294ZM159.349 151V144C159.349 143.4 159.262 142.92 159.089 142.56C158.929 142.187 158.549 142 157.949 142H157.649V141.6H159.349C159.816 141.6 160.176 141.66 160.429 141.78C160.696 141.9 160.882 142.133 160.989 142.48C161.096 142.827 161.149 143.333 161.149 144V145.9H165.149V141.6H166.949V148.6C166.949 149.2 167.029 149.687 167.189 150.06C167.362 150.42 167.749 150.6 168.349 150.6H168.649V151H166.949C166.482 151 166.116 150.94 165.849 150.82C165.596 150.7 165.416 150.467 165.309 150.12C165.202 149.773 165.149 149.267 165.149 148.6V146.7H161.149V151H159.349ZM170.784 155V154.4C171.397 154.4 171.917 154.26 172.344 153.98C172.784 153.713 173.164 153.153 173.484 152.3L173.884 151.2L170.684 143.4C170.484 142.893 170.19 142.513 169.804 142.26C169.43 142.007 168.99 141.853 168.484 141.8V141.4H170.184C170.784 141.4 171.277 141.54 171.664 141.82C172.064 142.1 172.37 142.493 172.584 143L174.864 148.54L177.384 141.6H178.384L174.484 152.3C174.217 153.033 173.93 153.593 173.624 153.98C173.33 154.367 172.997 154.633 172.624 154.78C172.264 154.927 171.85 155 171.384 155H170.784ZM187.777 151.2C186.99 151.2 186.29 151.013 185.677 150.64C185.077 150.267 184.604 149.747 184.257 149.08C183.91 148.4 183.717 147.607 183.677 146.7H182.477V151H180.677V144C180.677 143.4 180.59 142.92 180.417 142.56C180.257 142.187 179.877 142 179.277 142H178.977V141.6H180.677C181.144 141.6 181.504 141.66 181.757 141.78C182.024 141.9 182.21 142.133 182.317 142.48C182.424 142.827 182.477 143.333 182.477 144V145.9H183.677C183.717 144.993 183.91 144.207 184.257 143.54C184.604 142.86 185.077 142.333 185.677 141.96C186.29 141.587 186.99 141.4 187.777 141.4C188.617 141.4 189.344 141.607 189.957 142.02C190.57 142.433 191.044 143.007 191.377 143.74C191.71 144.473 191.877 145.327 191.877 146.3C191.877 147.26 191.71 148.113 191.377 148.86C191.044 149.593 190.57 150.167 189.957 150.58C189.344 150.993 188.617 151.2 187.777 151.2ZM187.777 150.4C188.217 150.4 188.597 150.247 188.917 149.94C189.25 149.633 189.51 149.18 189.697 148.58C189.884 147.967 189.977 147.207 189.977 146.3C189.977 145.393 189.884 144.64 189.697 144.04C189.51 143.427 189.25 142.967 188.917 142.66C188.597 142.353 188.217 142.2 187.777 142.2C187.35 142.2 186.97 142.353 186.637 142.66C186.304 142.967 186.044 143.427 185.857 144.04C185.67 144.64 185.577 145.393 185.577 146.3C185.577 147.207 185.67 147.967 185.857 148.58C186.044 149.18 186.304 149.633 186.637 149.94C186.97 150.247 187.35 150.4 187.777 150.4ZM203.085 151.2C202.098 151.2 201.278 150.98 200.625 150.54C199.972 150.1 199.485 149.507 199.165 148.76C198.845 148.013 198.685 147.193 198.685 146.3C198.685 145.393 198.845 144.573 199.165 143.84C199.485 143.093 199.972 142.5 200.625 142.06C201.278 141.62 202.098 141.4 203.085 141.4C203.792 141.4 204.385 141.453 204.865 141.56C205.358 141.667 205.732 141.847 205.985 142.1C206.238 142.353 206.385 142.667 206.425 143.04C206.465 143.4 206.485 143.953 206.485 144.7H206.085C206.032 143.847 205.758 143.22 205.265 142.82C204.785 142.407 204.192 142.2 203.485 142.2C202.818 142.2 202.272 142.387 201.845 142.76C201.418 143.12 201.098 143.607 200.885 144.22C200.685 144.833 200.585 145.527 200.585 146.3C200.585 147.06 200.685 147.753 200.885 148.38C201.098 148.993 201.418 149.487 201.845 149.86C202.272 150.22 202.818 150.4 203.485 150.4C204.192 150.4 204.765 150.26 205.205 149.98C205.645 149.7 206.038 149.307 206.385 148.8L206.785 149.1C206.492 149.607 206.158 150.013 205.785 150.32C205.412 150.627 204.998 150.853 204.545 151C204.105 151.133 203.618 151.2 203.085 151.2ZM209.173 151V144C209.173 143.4 209.086 142.92 208.913 142.56C208.753 142.187 208.373 142 207.773 142H207.473V141.6H209.173C209.64 141.6 210 141.66 210.253 141.78C210.52 141.9 210.706 142.133 210.813 142.48C210.92 142.827 210.973 143.333 210.973 144V149.2L215.173 141.6H216.973V151H215.173V143.4L210.973 151H209.173ZM223.71 151.2C222.723 151.2 221.903 150.98 221.25 150.54C220.597 150.1 220.11 149.507 219.79 148.76C219.47 148.013 219.31 147.193 219.31 146.3C219.31 145.393 219.47 144.573 219.79 143.84C220.11 143.093 220.597 142.5 221.25 142.06C221.903 141.62 222.723 141.4 223.71 141.4C224.417 141.4 225.01 141.453 225.49 141.56C225.983 141.667 226.357 141.847 226.61 142.1C226.863 142.353 227.01 142.667 227.05 143.04C227.09 143.4 227.11 143.953 227.11 144.7H226.71C226.657 143.847 226.383 143.22 225.89 142.82C225.41 142.407 224.817 142.2 224.11 142.2C223.443 142.2 222.897 142.387 222.47 142.76C222.043 143.12 221.723 143.607 221.51 144.22C221.31 144.833 221.21 145.527 221.21 146.3C221.21 147.06 221.31 147.753 221.51 148.38C221.723 148.993 222.043 149.487 222.47 149.86C222.897 150.22 223.443 150.4 224.11 150.4C224.817 150.4 225.39 150.26 225.83 149.98C226.27 149.7 226.663 149.307 227.01 148.8L227.41 149.1C227.117 149.607 226.783 150.013 226.41 150.32C226.037 150.627 225.623 150.853 225.17 151C224.73 151.133 224.243 151.2 223.71 151.2ZM232.158 151V142.4H231.158C230.558 142.4 230.058 142.573 229.658 142.92C229.258 143.253 229.058 143.747 229.058 144.4H228.658V143.2C228.658 142.8 228.758 142.433 228.958 142.1C229.158 141.767 229.558 141.6 230.158 141.6H237.258V142.4H233.958V151H232.158ZM242.377 151.2C241.444 151.2 240.664 150.98 240.037 150.54C239.424 150.1 238.957 149.507 238.637 148.76C238.331 148.013 238.177 147.193 238.177 146.3C238.177 145.393 238.337 144.573 238.657 143.84C238.977 143.093 239.437 142.5 240.037 142.06C240.637 141.62 241.351 141.4 242.177 141.4C243.084 141.4 243.831 141.573 244.417 141.92C245.017 142.253 245.457 142.747 245.737 143.4C246.031 144.053 246.177 144.853 246.177 145.8L246.137 146.6H240.077C240.077 147.693 240.311 148.6 240.777 149.32C241.257 150.04 241.924 150.4 242.777 150.4C243.431 150.4 243.971 150.26 244.397 149.98C244.837 149.7 245.231 149.307 245.577 148.8L245.977 149.1C245.684 149.607 245.351 150.013 244.977 150.32C244.617 150.627 244.217 150.853 243.777 151C243.351 151.133 242.884 151.2 242.377 151.2ZM240.077 145.8H244.277C244.277 144.64 244.104 143.753 243.757 143.14C243.411 142.513 242.884 142.2 242.177 142.2C241.777 142.2 241.417 142.36 241.097 142.68C240.791 142.987 240.544 143.413 240.357 143.96C240.171 144.493 240.077 145.107 240.077 145.8ZM259.683 151.4C258.43 151.4 257.563 151.093 257.083 150.48C256.616 149.867 256.383 149.04 256.383 148V143.7L253.083 151H252.683L249.283 143.5V151H248.483V141.6H250.383L253.383 148.2L256.383 141.6H258.183V148C258.183 148.493 258.243 148.973 258.363 149.44C258.496 149.893 258.676 150.267 258.903 150.56C259.13 150.853 259.39 151 259.683 151V151.4ZM262.131 155V154.4C262.745 154.4 263.265 154.26 263.691 153.98C264.131 153.713 264.511 153.153 264.831 152.3L265.231 151.2L262.031 143.4C261.831 142.893 261.538 142.513 261.151 142.26C260.778 142.007 260.338 141.853 259.831 141.8V141.4H261.531C262.131 141.4 262.625 141.54 263.011 141.82C263.411 142.1 263.718 142.493 263.931 143L266.211 148.54L268.731 141.6H269.731L265.831 152.3C265.565 153.033 265.278 153.593 264.971 153.98C264.678 154.367 264.345 154.633 263.971 154.78C263.611 154.927 263.198 155 262.731 155H262.131ZM4.64 170V163C4.64 162.4 4.55333 161.92 4.38 161.56C4.22 161.187 3.84 161 3.24 161H3.04V160.6H7.94C8.60667 160.6 9.22667 160.673 9.8 160.82C10.3867 160.967 10.8533 161.213 11.2 161.56C11.56 161.907 11.74 162.387 11.74 163C11.74 163.56 11.58 164.013 11.26 164.36C10.9533 164.707 10.4467 164.953 9.74 165.1C10.5 165.247 11.0867 165.52 11.5 165.92C11.9267 166.307 12.14 166.8 12.14 167.4C12.14 168.067 11.9533 168.593 11.58 168.98C11.22 169.353 10.72 169.62 10.08 169.78C9.45333 169.927 8.74 170 7.94 170H4.64ZM7.74 169.3C8.54 169.3 9.15333 169.147 9.58 168.84C10.02 168.533 10.24 168.053 10.24 167.4C10.24 166.773 10.0133 166.3 9.56 165.98C9.12 165.66 8.44667 165.5 7.54 165.5H6.44V169.1C6.58667 169.153 6.78667 169.2 7.04 169.24C7.30667 169.28 7.54 169.3 7.74 169.3ZM6.44 164.7H7.54C8.24667 164.7 8.80667 164.56 9.22 164.28C9.63333 163.987 9.84 163.56 9.84 163C9.84 162.44 9.64 162.02 9.24 161.74C8.84 161.447 8.34 161.3 7.74 161.3C7.54 161.3 7.30667 161.32 7.04 161.36C6.78667 161.4 6.58667 161.447 6.44 161.5V164.7ZM17.2395 170.2C16.3462 170.2 15.6262 170.047 15.0795 169.74C14.5329 169.433 14.0862 169.053 13.7395 168.6L14.1395 168.3C14.3929 168.553 14.7195 168.8 15.1195 169.04C15.5329 169.28 16.1062 169.4 16.8395 169.4C17.6395 169.4 18.2529 169.247 18.6795 168.94C19.1195 168.633 19.3395 168.153 19.3395 167.5C19.3395 166.873 19.1062 166.4 18.6395 166.08C18.1729 165.76 17.4729 165.6 16.5395 165.6H15.6395V164.8H16.5395C17.3395 164.8 17.9529 164.653 18.3795 164.36C18.8195 164.053 19.0395 163.6 19.0395 163C19.0395 162.4 18.8462 161.953 18.4595 161.66C18.0729 161.353 17.5995 161.2 17.0395 161.2C16.3195 161.2 15.7129 161.387 15.2195 161.76C14.7395 162.133 14.4795 162.647 14.4395 163.3H14.0395C14.0395 162.74 14.0595 162.3 14.0995 161.98C14.1395 161.647 14.2862 161.353 14.5395 161.1C14.7929 160.847 15.1595 160.667 15.6395 160.56C16.1195 160.453 16.6862 160.4 17.3395 160.4C17.9395 160.4 18.5129 160.48 19.0595 160.64C19.6062 160.8 20.0529 161.067 20.3995 161.44C20.7595 161.813 20.9395 162.333 20.9395 163C20.9395 163.6 20.7529 164.08 20.3795 164.44C20.0195 164.8 19.5395 165.053 18.9395 165.2C19.6595 165.347 20.2195 165.62 20.6195 166.02C21.0329 166.407 21.2395 166.9 21.2395 167.5C21.2395 168.193 21.0529 168.74 20.6795 169.14C20.3195 169.527 19.8395 169.8 19.2395 169.96C18.6395 170.12 17.9729 170.2 17.2395 170.2ZM25.8011 170.2C25.5211 170.2 25.2144 170.153 24.8811 170.06C24.5611 169.98 24.2478 169.833 23.9411 169.62C23.6344 169.407 23.3811 169.12 23.1811 168.76C22.9944 168.4 22.9011 167.947 22.9011 167.4C22.9011 166.667 23.1344 166.1 23.6011 165.7C24.0811 165.3 24.7078 165.02 25.4811 164.86C26.2678 164.687 27.1078 164.6 28.0011 164.6H28.6011C28.6011 163.667 28.5078 162.96 28.3211 162.48C28.1344 161.987 27.8811 161.653 27.5611 161.48C27.2544 161.293 26.9011 161.2 26.5011 161.2C25.9411 161.2 25.4678 161.32 25.0811 161.56C24.7078 161.8 24.4478 162.247 24.3011 162.9H23.4011C23.4011 162.553 23.4211 162.233 23.4611 161.94C23.5011 161.633 23.6478 161.353 23.9011 161.1C24.1544 160.847 24.5678 160.667 25.1411 160.56C25.7144 160.453 26.3011 160.4 26.9011 160.4C27.3544 160.4 27.7878 160.453 28.2011 160.56C28.6278 160.667 29.0011 160.867 29.3211 161.16C29.6544 161.44 29.9144 161.86 30.1011 162.42C30.3011 162.967 30.4011 163.693 30.4011 164.6V170H29.4011L28.7011 169.1H28.6011C28.4011 169.353 28.0744 169.6 27.6211 169.84C27.1678 170.08 26.5611 170.2 25.8011 170.2ZM26.7011 169.3C27.1944 169.3 27.5811 169.18 27.8611 168.94C28.1544 168.687 28.4011 168.407 28.6011 168.1V165.4H28.0011C27.0011 165.4 26.2144 165.587 25.6411 165.96C25.0811 166.32 24.8011 166.8 24.8011 167.4C24.8011 168.053 24.9944 168.533 25.3811 168.84C25.7678 169.147 26.2078 169.3 26.7011 169.3ZM33.47 170V163C33.47 162.4 33.3833 161.92 33.21 161.56C33.05 161.187 32.67 161 32.07 161H31.77V160.6H33.47C33.9367 160.6 34.2967 160.66 34.55 160.78C34.8167 160.9 35.0033 161.133 35.11 161.48C35.2167 161.827 35.27 162.333 35.27 163V168.2L39.47 160.6H41.27V170H39.47V162.4L35.27 170H33.47ZM55.347 170.4C54.0937 170.4 53.227 170.093 52.747 169.48C52.2804 168.867 52.047 168.04 52.047 167V162.7L48.747 170H48.347L44.947 162.5V170H44.147V160.6H46.047L49.047 167.2L52.047 160.6H53.847V167C53.847 167.493 53.907 167.973 54.027 168.44C54.1604 168.893 54.3404 169.267 54.567 169.56C54.7937 169.853 55.0537 170 55.347 170V170.4ZM60.9953 170.2C60.062 170.2 59.2686 169.98 58.6153 169.54C57.962 169.1 57.462 168.507 57.1153 167.76C56.7686 167.013 56.5953 166.193 56.5953 165.3C56.5953 164.393 56.7686 163.573 57.1153 162.84C57.462 162.093 57.962 161.5 58.6153 161.06C59.2686 160.62 60.062 160.4 60.9953 160.4C61.9286 160.4 62.722 160.62 63.3753 161.06C64.0286 161.5 64.5286 162.093 64.8753 162.84C65.222 163.573 65.3953 164.393 65.3953 165.3C65.3953 166.193 65.222 167.013 64.8753 167.76C64.5286 168.507 64.0286 169.1 63.3753 169.54C62.722 169.98 61.9286 170.2 60.9953 170.2ZM60.9953 169.4C61.502 169.4 61.942 169.22 62.3153 168.86C62.6886 168.487 62.9753 167.993 63.1753 167.38C63.3886 166.753 63.4953 166.06 63.4953 165.3C63.4953 164.527 63.3886 163.833 63.1753 163.22C62.9753 162.607 62.6886 162.12 62.3153 161.76C61.942 161.387 61.502 161.2 60.9953 161.2C60.502 161.2 60.062 161.387 59.6753 161.76C59.302 162.12 59.0086 162.607 58.7953 163.22C58.5953 163.833 58.4953 164.527 58.4953 165.3C58.4953 166.06 58.5953 166.753 58.7953 167.38C59.0086 167.993 59.302 168.487 59.6753 168.86C60.062 169.22 60.502 169.4 60.9953 169.4ZM66.2302 173.1V169.9C66.2302 169.7 66.2968 169.533 66.4302 169.4C66.5635 169.267 66.7302 169.2 66.9302 169.2H67.5302C67.8368 168.533 68.0768 167.84 68.2502 167.12C68.4235 166.387 68.5435 165.667 68.6102 164.96C68.6902 164.253 68.7302 163.6 68.7302 163C68.7302 162.4 68.6435 161.92 68.4702 161.56C68.3102 161.187 67.9302 161 67.3302 161V160.6H75.3302V169.2H76.1302C76.3302 169.2 76.4968 169.267 76.6302 169.4C76.7635 169.533 76.8302 169.7 76.8302 169.9V173.1H76.0302C75.9635 172.353 75.8435 171.753 75.6702 171.3C75.5102 170.847 75.2902 170.513 75.0102 170.3C74.7302 170.1 74.3702 170 73.9302 170H69.1302C68.7035 170 68.3435 170.1 68.0502 170.3C67.7702 170.513 67.5502 170.847 67.3902 171.3C67.2302 171.753 67.1102 172.353 67.0302 173.1H66.2302ZM68.9302 169.2H73.5302V161.4H70.0302C70.0302 163.107 69.9435 164.587 69.7702 165.84C69.6102 167.08 69.3302 168.2 68.9302 169.2ZM82.2992 170.2C81.3659 170.2 80.5859 169.98 79.9592 169.54C79.3459 169.1 78.8792 168.507 78.5592 167.76C78.2526 167.013 78.0992 166.193 78.0992 165.3C78.0992 164.393 78.2592 163.573 78.5792 162.84C78.8992 162.093 79.3592 161.5 79.9592 161.06C80.5592 160.62 81.2726 160.4 82.0992 160.4C83.0059 160.4 83.7526 160.573 84.3392 160.92C84.9392 161.253 85.3792 161.747 85.6592 162.4C85.9526 163.053 86.0992 163.853 86.0992 164.8L86.0592 165.6H79.9992C79.9992 166.693 80.2326 167.6 80.6992 168.32C81.1792 169.04 81.8459 169.4 82.6992 169.4C83.3526 169.4 83.8926 169.26 84.3192 168.98C84.7592 168.7 85.1526 168.307 85.4992 167.8L85.8992 168.1C85.6059 168.607 85.2726 169.013 84.8992 169.32C84.5392 169.627 84.1392 169.853 83.6992 170C83.2726 170.133 82.8059 170.2 82.2992 170.2ZM79.9992 164.8H84.1992C84.1992 163.64 84.0259 162.753 83.6792 162.14C83.3326 161.513 82.8059 161.2 82.0992 161.2C81.6992 161.2 81.3392 161.36 81.0192 161.68C80.7126 161.987 80.4659 162.413 80.2792 162.96C80.0926 163.493 79.9992 164.107 79.9992 164.8ZM88.6848 170V163C88.6848 162.4 88.5982 161.92 88.4248 161.56C88.2648 161.187 87.8848 161 87.2848 161H86.9848V160.6H88.6848C89.1515 160.6 89.5115 160.66 89.7648 160.78C90.0315 160.9 90.2182 161.133 90.3248 161.48C90.4315 161.827 90.4848 162.333 90.4848 163V168.2L94.6848 160.6H96.4848V170H94.6848V162.4L90.4848 170H88.6848ZM92.5848 159.58C91.9315 159.58 91.3982 159.427 90.9848 159.12C90.5715 158.813 90.2382 158.433 89.9848 157.98L90.3848 157.68C90.6382 157.933 90.9248 158.133 91.2448 158.28C91.5782 158.413 92.0248 158.48 92.5848 158.48C93.1448 158.48 93.5848 158.413 93.9048 158.28C94.2382 158.133 94.5315 157.933 94.7848 157.68L95.1848 157.98C94.9315 158.433 94.5982 158.813 94.1848 159.12C93.7715 159.427 93.2382 159.58 92.5848 159.58ZM103.222 170.2C102.235 170.2 101.415 169.98 100.762 169.54C100.109 169.1 99.6219 168.507 99.3019 167.76C98.9819 167.013 98.8219 166.193 98.8219 165.3C98.8219 164.393 98.9819 163.573 99.3019 162.84C99.6219 162.093 100.109 161.5 100.762 161.06C101.415 160.62 102.235 160.4 103.222 160.4C103.929 160.4 104.522 160.453 105.002 160.56C105.495 160.667 105.869 160.847 106.122 161.1C106.375 161.353 106.522 161.667 106.562 162.04C106.602 162.4 106.622 162.953 106.622 163.7H106.222C106.169 162.847 105.895 162.22 105.402 161.82C104.922 161.407 104.329 161.2 103.622 161.2C102.955 161.2 102.409 161.387 101.982 161.76C101.555 162.12 101.235 162.607 101.022 163.22C100.822 163.833 100.722 164.527 100.722 165.3C100.722 166.06 100.822 166.753 101.022 167.38C101.235 167.993 101.555 168.487 101.982 168.86C102.409 169.22 102.955 169.4 103.622 169.4C104.329 169.4 104.902 169.26 105.342 168.98C105.782 168.7 106.175 168.307 106.522 167.8L106.922 168.1C106.629 168.607 106.295 169.013 105.922 169.32C105.549 169.627 105.135 169.853 104.682 170C104.242 170.133 103.755 170.2 103.222 170.2ZM111.67 170V161.4H110.67C110.07 161.4 109.57 161.573 109.17 161.92C108.77 162.253 108.57 162.747 108.57 163.4H108.17V162.2C108.17 161.8 108.27 161.433 108.47 161.1C108.67 160.767 109.07 160.6 109.67 160.6H116.77V161.4H113.47V170H111.67ZM118.703 170V163C118.703 162.4 118.616 161.92 118.443 161.56C118.283 161.187 117.903 161 117.303 161H117.103V160.6H122.003C122.669 160.6 123.289 160.673 123.863 160.82C124.449 160.967 124.916 161.213 125.263 161.56C125.623 161.907 125.803 162.387 125.803 163C125.803 163.56 125.643 164.013 125.323 164.36C125.016 164.707 124.509 164.953 123.803 165.1C124.563 165.247 125.149 165.52 125.563 165.92C125.989 166.307 126.203 166.8 126.203 167.4C126.203 168.067 126.016 168.593 125.643 168.98C125.283 169.353 124.783 169.62 124.143 169.78C123.516 169.927 122.803 170 122.003 170H118.703ZM121.803 169.3C122.603 169.3 123.216 169.147 123.643 168.84C124.083 168.533 124.303 168.053 124.303 167.4C124.303 166.773 124.076 166.3 123.623 165.98C123.183 165.66 122.509 165.5 121.603 165.5H120.503V169.1C120.649 169.153 120.849 169.2 121.103 169.24C121.369 169.28 121.603 169.3 121.803 169.3ZM120.503 164.7H121.603C122.309 164.7 122.869 164.56 123.283 164.28C123.696 163.987 123.903 163.56 123.903 163C123.903 162.44 123.703 162.02 123.303 161.74C122.903 161.447 122.403 161.3 121.803 161.3C121.603 161.3 121.369 161.32 121.103 161.36C120.849 161.4 120.649 161.447 120.503 161.5V164.7ZM128.802 170V163C128.802 162.4 128.715 161.92 128.542 161.56C128.382 161.187 128.002 161 127.402 161H127.102V160.6H128.802C129.269 160.6 129.629 160.66 129.882 160.78C130.149 160.9 130.335 161.133 130.442 161.48C130.549 161.827 130.602 162.333 130.602 163V168.2L134.802 160.6H136.602V170H134.802V162.4L130.602 170H128.802ZM139.479 170.2C139.279 170.2 139.079 170.18 138.879 170.14C138.692 170.1 138.526 170.053 138.379 170V169.6C138.846 169.547 139.226 169.353 139.519 169.02C139.812 168.687 140.066 168.347 140.279 168L141.479 165.9C140.879 165.793 140.346 165.52 139.879 165.08C139.412 164.64 139.179 164.047 139.179 163.3C139.179 162.607 139.359 162.067 139.719 161.68C140.092 161.28 140.579 161 141.179 160.84C141.792 160.68 142.459 160.6 143.179 160.6H147.879V161H147.799C147.239 161.013 146.879 161.207 146.719 161.58C146.559 161.94 146.479 162.413 146.479 163V170H144.679V166H143.119L141.919 168.4C141.612 169 141.272 169.453 140.899 169.76C140.526 170.053 140.052 170.2 139.479 170.2ZM143.379 165.3C143.579 165.3 143.806 165.28 144.059 165.24C144.326 165.2 144.532 165.153 144.679 165.1V161.5C144.532 161.447 144.326 161.4 144.059 161.36C143.806 161.32 143.579 161.3 143.379 161.3C142.672 161.3 142.112 161.46 141.699 161.78C141.286 162.087 141.079 162.593 141.079 163.3C141.079 164.007 141.286 164.52 141.699 164.84C142.112 165.147 142.672 165.3 143.379 165.3ZM158.534 170.2C157.548 170.2 156.728 169.98 156.074 169.54C155.421 169.1 154.934 168.507 154.614 167.76C154.294 167.013 154.134 166.193 154.134 165.3C154.134 164.393 154.294 163.573 154.614 162.84C154.934 162.093 155.421 161.5 156.074 161.06C156.728 160.62 157.548 160.4 158.534 160.4C159.241 160.4 159.834 160.453 160.314 160.56C160.808 160.667 161.181 160.847 161.434 161.1C161.688 161.353 161.834 161.667 161.874 162.04C161.914 162.4 161.934 162.953 161.934 163.7H161.534C161.481 162.847 161.208 162.22 160.714 161.82C160.234 161.407 159.641 161.2 158.934 161.2C158.268 161.2 157.721 161.387 157.294 161.76C156.868 162.12 156.548 162.607 156.334 163.22C156.134 163.833 156.034 164.527 156.034 165.3C156.034 166.06 156.134 166.753 156.334 167.38C156.548 167.993 156.868 168.487 157.294 168.86C157.721 169.22 158.268 169.4 158.934 169.4C159.641 169.4 160.214 169.26 160.654 168.98C161.094 168.7 161.488 168.307 161.834 167.8L162.234 168.1C161.941 168.607 161.608 169.013 161.234 169.32C160.861 169.627 160.448 169.853 159.994 170C159.554 170.133 159.068 170.2 158.534 170.2ZM176.682 170.2C176.176 170.2 175.676 170.073 175.182 169.82C174.702 169.567 174.236 169.16 173.782 168.6L171.482 165.7V170H169.682V163C169.682 162.4 169.596 161.92 169.422 161.56C169.262 161.187 168.882 161 168.282 161H167.882V160.6H169.682C170.149 160.6 170.509 160.66 170.762 160.78C171.029 160.9 171.216 161.133 171.322 161.48C171.429 161.827 171.482 162.333 171.482 163V165.4L173.982 161.9C174.276 161.5 174.616 161.187 175.002 160.96C175.402 160.72 175.929 160.6 176.582 160.6H177.082V161.1C176.776 161.1 176.462 161.167 176.142 161.3C175.822 161.42 175.536 161.653 175.282 162L173.082 165.1L175.382 168C175.729 168.453 176.082 168.82 176.442 169.1C176.816 169.38 177.229 169.553 177.682 169.62V170C177.576 170.053 177.429 170.1 177.242 170.14C177.069 170.18 176.882 170.2 176.682 170.2ZM179.004 170.2C178.897 170.2 178.73 170.18 178.504 170.14C178.29 170.1 178.13 170.06 178.024 170.02V169.52C178.344 169.52 178.657 169.44 178.964 169.28C179.284 169.107 179.564 168.793 179.804 168.34C180.057 167.873 180.257 167.213 180.404 166.36C180.55 165.493 180.624 164.373 180.624 163C180.624 162.4 180.537 161.92 180.364 161.56C180.204 161.187 179.817 161 179.204 161V160.6H187.324V170H185.524V161.4H182.004V163C182.004 164.493 181.917 165.713 181.744 166.66C181.584 167.607 181.357 168.34 181.064 168.86C180.784 169.367 180.464 169.72 180.104 169.92C179.744 170.107 179.377 170.2 179.004 170.2ZM190.482 170V163C190.482 162.4 190.395 161.92 190.222 161.56C190.062 161.187 189.682 161 189.082 161H188.782V160.6H190.482C190.948 160.6 191.308 160.66 191.562 160.78C191.828 160.9 192.015 161.133 192.122 161.48C192.228 161.827 192.282 162.333 192.282 163V168.2L196.482 160.6H198.282V170H196.482V162.4L192.282 170H190.482ZM204.819 170.2C203.885 170.2 203.105 169.98 202.479 169.54C201.865 169.1 201.399 168.507 201.079 167.76C200.772 167.013 200.619 166.193 200.619 165.3C200.619 164.393 200.779 163.573 201.099 162.84C201.419 162.093 201.879 161.5 202.479 161.06C203.079 160.62 203.792 160.4 204.619 160.4C205.525 160.4 206.272 160.573 206.859 160.92C207.459 161.253 207.899 161.747 208.179 162.4C208.472 163.053 208.619 163.853 208.619 164.8L208.579 165.6H202.519C202.519 166.693 202.752 167.6 203.219 168.32C203.699 169.04 204.365 169.4 205.219 169.4C205.872 169.4 206.412 169.26 206.839 168.98C207.279 168.7 207.672 168.307 208.019 167.8L208.419 168.1C208.125 168.607 207.792 169.013 207.419 169.32C207.059 169.627 206.659 169.853 206.219 170C205.792 170.133 205.325 170.2 204.819 170.2ZM202.519 164.8H206.719C206.719 163.64 206.545 162.753 206.199 162.14C205.852 161.513 205.325 161.2 204.619 161.2C204.219 161.2 203.859 161.36 203.539 161.68C203.232 161.987 202.985 162.413 202.799 162.96C202.612 163.493 202.519 164.107 202.519 164.8ZM211.204 170V163C211.204 162.4 211.118 161.92 210.944 161.56C210.784 161.187 210.404 161 209.804 161H209.504V160.6H211.204C211.671 160.6 212.031 160.66 212.284 160.78C212.551 160.9 212.738 161.133 212.844 161.48C212.951 161.827 213.004 162.333 213.004 163V164.9H217.004V160.6H218.804V167.6C218.804 168.2 218.884 168.687 219.044 169.06C219.218 169.42 219.604 169.6 220.204 169.6H220.504V170H218.804C218.338 170 217.971 169.94 217.704 169.82C217.451 169.7 217.271 169.467 217.164 169.12C217.058 168.773 217.004 168.267 217.004 167.6V165.7H213.004V170H211.204ZM224.619 170V161.4H223.619C223.019 161.4 222.519 161.573 222.119 161.92C221.719 162.253 221.519 162.747 221.519 163.4H221.119V162.2C221.119 161.8 221.219 161.433 221.419 161.1C221.619 160.767 222.019 160.6 222.619 160.6H229.719V161.4H226.419V170H224.619ZM233.692 170.2C233.412 170.2 233.105 170.153 232.772 170.06C232.452 169.98 232.138 169.833 231.832 169.62C231.525 169.407 231.272 169.12 231.072 168.76C230.885 168.4 230.792 167.947 230.792 167.4C230.792 166.667 231.025 166.1 231.492 165.7C231.972 165.3 232.598 165.02 233.372 164.86C234.158 164.687 234.998 164.6 235.892 164.6H236.492C236.492 163.667 236.398 162.96 236.212 162.48C236.025 161.987 235.772 161.653 235.452 161.48C235.145 161.293 234.792 161.2 234.392 161.2C233.832 161.2 233.358 161.32 232.972 161.56C232.598 161.8 232.338 162.247 232.192 162.9H231.292C231.292 162.553 231.312 162.233 231.352 161.94C231.392 161.633 231.538 161.353 231.792 161.1C232.045 160.847 232.458 160.667 233.032 160.56C233.605 160.453 234.192 160.4 234.792 160.4C235.245 160.4 235.678 160.453 236.092 160.56C236.518 160.667 236.892 160.867 237.212 161.16C237.545 161.44 237.805 161.86 237.992 162.42C238.192 162.967 238.292 163.693 238.292 164.6V170H237.292L236.592 169.1H236.492C236.292 169.353 235.965 169.6 235.512 169.84C235.058 170.08 234.452 170.2 233.692 170.2ZM234.592 169.3C235.085 169.3 235.472 169.18 235.752 168.94C236.045 168.687 236.292 168.407 236.492 168.1V165.4H235.892C234.892 165.4 234.105 165.587 233.532 165.96C232.972 166.32 232.692 166.8 232.692 167.4C232.692 168.053 232.885 168.533 233.272 168.84C233.658 169.147 234.098 169.3 234.592 169.3ZM252.281 170.4C251.027 170.4 250.161 170.093 249.681 169.48C249.214 168.867 248.981 168.04 248.981 167V162.7L245.681 170H245.281L241.881 162.5V170H241.081V160.6H242.981L245.981 167.2L248.981 160.6H250.781V167C250.781 167.493 250.841 167.973 250.961 168.44C251.094 168.893 251.274 169.267 251.501 169.56C251.727 169.853 251.987 170 252.281 170V170.4ZM254.349 170V163C254.349 162.4 254.262 161.92 254.089 161.56C253.929 161.187 253.549 161 252.949 161H252.649V160.6H254.349C254.816 160.6 255.176 160.66 255.429 160.78C255.696 160.9 255.882 161.133 255.989 161.48C256.096 161.827 256.149 162.333 256.149 163V168.2L260.349 160.6H262.149V170H260.349V162.4L256.149 170H254.349ZM265.786 170.28C265.493 170.28 265.239 170.173 265.026 169.96C264.813 169.747 264.706 169.487 264.706 169.18C264.706 168.887 264.813 168.633 265.026 168.42C265.239 168.207 265.493 168.1 265.786 168.1C266.093 168.1 266.346 168.207 266.546 168.42C266.759 168.633 266.866 168.887 266.866 169.18C266.866 169.487 266.759 169.747 266.546 169.96C266.333 170.173 266.079 170.28 265.786 170.28Z" fill="#C0C0C0"/>
<defs>
<filter id="filter1_f_93_98" x="-89" y="19" width="203" height="203" filterUnits="userSpaceOnUse" color-interpolation-filters="sRGB">
<feFlood flood-opacity="0" result="BackgroundImageFix"/>
<feBlend mode="normal" in="SourceGraphic" in2="BackgroundImageFix" result="shape"/>
<feGaussianBlur stdDeviation="30" result="effect1_foregroundBlur_93_98"/>
</filter>
<filter id="filter2_d_93_98" x="125.976" y="13.7002" width="181.711" height="72.8999" filterUnits="userSpaceOnUse" color-interpolation-filters="sRGB">
<feFlood flood-opacity="0" result="BackgroundImageFix"/>
<feColorMatrix in="SourceAlpha" type="matrix" values="0 0 0 0 0 0 0 0 0 0 0 0 0 0 0 0 0 0 127 0" result="hardAlpha"/>
<feOffset/>
<feGaussianBlur stdDeviation="2"/>
<feComposite in2="hardAlpha" operator="out"/>
<feColorMatrix type="matrix" values="0 0 0 0 0 0 0 0 0 0 0 0 0 0 0 0 0 0 0.7 0"/>
<feBlend mode="normal" in2="BackgroundImageFix" result="effect1_dropShadow_93_98"/>
<feBlend mode="normal" in="SourceGraphic" in2="effect1_dropShadow_93_98" result="shape"/>
</filter>
<linearGradient id="paint0_linear_93_98" x1="62.4632" y1="63.7009" x2="59.1525" y2="84.8598" gradientUnits="userSpaceOnUse">
<stop stop-color="#FF7929"/>
<stop offset="1" stop-color="#FBB03B"/>
</linearGradient>
<linearGradient id="paint1_linear_93_98" x1="62.4632" y1="55.2243" x2="59.1525" y2="76.3832" gradientUnits="userSpaceOnUse">
<stop stop-color="#FF7929"/>
<stop offset="1" stop-color="#FBB03B"/>
</linearGradient>
<linearGradient id="paint2_linear_93_98" x1="55.5957" y1="22.7374" x2="39.8763" y2="52.6816" gradientUnits="userSpaceOnUse">
<stop stop-color="#FF7929"/>
<stop offset="1" stop-color="#FBB03B"/>
</linearGradient>
<linearGradient id="paint3_linear_93_98" x1="62.4632" y1="43.0097" x2="57.4033" y2="68.9981" gradientUnits="userSpaceOnUse">
<stop stop-color="#FF7929"/>
<stop offset="1" stop-color="#FBB03B"/>
</linearGradient>
<clipPath id="clip0_93_98">
<rect width="96" height="96" rx="18" fill="white"/>
</clipPath>
<clipPath id="clip1_93_98">
<rect width="62" height="62" fill="white" transform="translate(17 17)"/>
</clipPath>
</defs>
</svg>
