<svg width="360" height="241" viewBox="0 0 360 241" fill="none" xmlns="http://www.w3.org/2000/svg">
<g clip-path="url(#clip0_93_108)">
<rect width="96" height="96" rx="18" fill="white" fill-opacity="0.15"/>
<g filter="url(#filter1_f_93_108)">
<circle cx="12.5" cy="120.5" r="41.5" fill="#FBB03B"/>
</g>
<path d="M53.181 60.2646C51.7586 60.2646 50.6016 61.4217 50.6016 62.844C50.6016 64.2664 51.7586 65.4234 53.181 65.4234C54.6033 65.4234 55.7603 64.2664 55.7603 62.844C55.7603 61.4217 54.6033 60.2646 53.181 60.2646Z" fill="url(#paint0_linear_93_108)"/>
<path d="M37.1683 50.5616C38.5902 50.5616 39.7477 49.4041 39.7477 47.9822C39.7477 46.5598 38.5902 45.4028 37.1683 45.4028C35.7459 45.4028 34.5889 46.5598 34.5889 47.9822C34.5889 49.4041 35.7459 50.5616 37.1683 50.5616Z" fill="url(#paint1_linear_93_108)"/>
<path d="M52.9368 35.6988C54.3592 35.6988 55.5162 34.5418 55.5162 33.1194C55.5162 31.6975 54.3592 30.5405 52.9368 30.5405C51.5144 30.5405 50.3574 31.6975 50.3574 33.1194C50.3574 34.5418 51.5144 35.6988 52.9368 35.6988Z" fill="url(#paint2_linear_93_108)"/>
<path d="M70.4397 19.1797H25.5603C20.84 19.1797 17 23.0197 17 27.74V68.3792C17 73.0995 20.84 76.94 25.5603 76.94H70.4397C75.16 76.94 79 73.0995 79 68.3792V27.74C79 23.0197 75.16 19.1797 70.4397 19.1797ZM26.529 31.3004H46.9906C47.7701 28.757 50.1404 26.9018 52.9365 26.9018C55.732 26.9018 58.1023 28.757 58.8824 31.3004H69.4653C70.47 31.3004 71.285 32.1154 71.285 33.1201C71.285 34.1248 70.47 34.9394 69.4653 34.9394H58.8824C58.1023 37.4833 55.732 39.338 52.9365 39.338C50.1404 39.338 47.7701 37.4833 46.9906 34.9394H26.529C25.5243 34.9394 24.7098 34.1248 24.7098 33.1201C24.7098 32.1154 25.5243 31.3004 26.529 31.3004ZM26.529 46.1623H31.2224C32.0024 43.6189 34.3727 41.7637 37.1683 41.7637C39.9643 41.7637 42.3346 43.6189 43.1146 46.1623H69.4653C70.47 46.1623 71.2845 46.9773 71.2845 47.982C71.2845 48.9867 70.47 49.8013 69.4653 49.8013H43.1146C42.3346 52.3452 39.9643 54.1999 37.1687 54.1999C34.3727 54.1999 32.0024 52.3452 31.2228 49.8013H26.529C25.5243 49.8013 24.7098 48.9867 24.7098 47.982C24.7098 46.9773 25.5243 46.1623 26.529 46.1623ZM69.7098 64.6632H59.1264C58.3464 67.2071 55.9761 69.0618 53.1805 69.0618C50.3845 69.0618 48.0147 67.2071 47.2346 64.6632H26.7736C25.7684 64.6632 24.9539 63.8486 24.9539 62.8439C24.9539 61.8392 25.7684 61.0242 26.7736 61.0242H47.2346C48.0147 58.4808 50.385 56.6256 53.1805 56.6256C55.9761 56.6256 58.3464 58.4808 59.1264 61.0242H69.7098C70.7145 61.0242 71.5291 61.8392 71.5291 62.8439C71.5291 63.8486 70.7145 64.6632 69.7098 64.6632Z" fill="url(#paint3_linear_93_108)"/>
</g>
<g filter="url(#filter2_d_93_108)">
<path d="M142.3 17.26C142.3 16.948 142.109 16.792 141.728 16.792V16.324H145.732V16.792C145.611 16.792 145.498 16.8353 145.394 16.922C145.307 16.9913 145.264 17.104 145.264 17.26V29.064C145.264 29.22 145.307 29.3413 145.394 29.428C145.498 29.4973 145.611 29.532 145.732 29.532V30H141.728V29.532C142.109 29.532 142.3 29.376 142.3 29.064V24.176H133.928V29.064C133.928 29.22 133.971 29.3413 134.058 29.428C134.162 29.4973 134.275 29.532 134.396 29.532V30H130.47V29.532C130.799 29.532 130.964 29.376 130.964 29.064V17.26C130.964 16.948 130.799 16.792 130.47 16.792V16.324H134.396V16.792C134.275 16.792 134.162 16.8353 134.058 16.922C133.971 16.9913 133.928 17.104 133.928 17.26V21.68H142.3V17.26ZM158.584 24.696L156.4 19.86L153.956 24.696H158.584ZM148.782 29.532C149.008 29.4973 149.181 29.3847 149.302 29.194C149.441 29.0033 149.571 28.7867 149.692 28.544L154.502 18.43C154.624 18.2047 154.728 17.9967 154.814 17.806C154.918 17.6153 154.97 17.4507 154.97 17.312C154.97 17.1387 154.91 17.0173 154.788 16.948C154.667 16.8787 154.537 16.8267 154.398 16.792V16.324H158.792V16.792C158.671 16.8267 158.55 16.8787 158.428 16.948C158.307 17 158.246 17.1213 158.246 17.312C158.246 17.4507 158.272 17.5893 158.324 17.728C158.394 17.8667 158.489 18.0487 158.61 18.274L164.018 28.856C164.105 29.0467 164.218 29.1853 164.356 29.272C164.512 29.3587 164.686 29.4453 164.876 29.532V30H160.3V29.532C160.37 29.532 160.456 29.506 160.56 29.454C160.664 29.402 160.716 29.324 160.716 29.22C160.716 29.0467 160.647 28.8213 160.508 28.544L159.52 26.62H153.176L152.24 28.466C152.067 28.83 151.98 29.09 151.98 29.246C151.98 29.4367 152.145 29.532 152.474 29.532V30H148.782V29.532ZM182.244 28.128C182.192 28.128 182.14 28.128 182.088 28.128C182.053 28.1107 182.01 28.102 181.958 28.102C181.854 28.102 181.603 28.206 181.204 28.414C180.823 28.622 180.329 28.856 179.722 29.116C179.133 29.376 178.457 29.6013 177.694 29.792C176.931 29.9827 176.134 30.078 175.302 30.078C174.21 30.078 173.161 29.9393 172.156 29.662C171.151 29.3847 170.258 28.96 169.478 28.388C168.715 27.7987 168.109 27.0707 167.658 26.204C167.207 25.3373 166.982 24.3233 166.982 23.162C166.982 22.018 167.207 21.0127 167.658 20.146C168.109 19.262 168.715 18.5253 169.478 17.936C170.258 17.3467 171.151 16.9047 172.156 16.61C173.161 16.3153 174.21 16.168 175.302 16.168C176.186 16.168 176.983 16.2373 177.694 16.376C178.422 16.5147 179.055 16.662 179.592 16.818C180.129 16.974 180.554 17.1213 180.866 17.26C181.178 17.3987 181.369 17.468 181.438 17.468C181.525 17.468 181.594 17.4247 181.646 17.338C181.715 17.2513 181.767 17.182 181.802 17.13L182.192 17.442L180.164 20.588L179.904 20.406C179.904 20.354 179.895 20.302 179.878 20.25C179.878 20.198 179.869 20.1373 179.852 20.068C179.817 19.8773 179.644 19.6867 179.332 19.496C179.02 19.288 178.63 19.106 178.162 18.95C177.711 18.794 177.226 18.664 176.706 18.56C176.203 18.456 175.735 18.404 175.302 18.404C174.574 18.404 173.872 18.508 173.196 18.716C172.537 18.924 171.957 19.2273 171.454 19.626C170.969 20.0247 170.579 20.5187 170.284 21.108C169.989 21.68 169.842 22.3387 169.842 23.084C169.842 23.8293 169.989 24.4967 170.284 25.086C170.579 25.658 170.969 26.1433 171.454 26.542C171.957 26.9407 172.537 27.244 173.196 27.452C173.872 27.66 174.574 27.764 175.302 27.764C175.857 27.764 176.437 27.7033 177.044 27.582C177.651 27.4433 178.205 27.2787 178.708 27.088C179.211 26.88 179.627 26.6547 179.956 26.412C180.303 26.152 180.476 25.9093 180.476 25.684C180.476 25.5627 180.441 25.4587 180.372 25.372L180.736 25.164L182.452 27.92L182.244 28.128ZM193.754 29.064C193.754 29.376 193.944 29.532 194.326 29.532V30H190.322V29.532C190.443 29.532 190.547 29.4973 190.634 29.428C190.738 29.3413 190.79 29.22 190.79 29.064V18.716H186.5C186.344 18.716 186.188 18.7593 186.032 18.846C185.893 18.9327 185.824 19.0973 185.824 19.34H185.356V15.7H185.824C185.824 15.9427 185.893 16.1073 186.032 16.194C186.188 16.2807 186.344 16.324 186.5 16.324H198.044C198.2 16.324 198.347 16.2807 198.486 16.194C198.642 16.1073 198.72 15.9427 198.72 15.7H199.188V19.34H198.72C198.72 19.0973 198.642 18.9327 198.486 18.846C198.347 18.7593 198.2 18.716 198.044 18.716H193.754V29.064ZM211.676 22.044C212.248 22.044 212.734 21.9313 213.132 21.706C213.548 21.4807 213.756 21.0387 213.756 20.38C213.756 19.7213 213.548 19.2793 213.132 19.054C212.734 18.8287 212.248 18.716 211.676 18.716H206.138V22.044H211.676ZM202.212 30V29.532C202.854 29.532 203.174 29.376 203.174 29.064V17.26C203.174 16.948 202.854 16.792 202.212 16.792V16.324H211.364C213.028 16.324 214.337 16.636 215.29 17.26C216.244 17.8667 216.72 18.9067 216.72 20.38C216.72 21.8533 216.244 22.902 215.29 23.526C214.337 24.1327 213.028 24.436 211.364 24.436H206.138V29.064C206.138 29.376 206.416 29.532 206.97 29.532V30H202.212ZM227.692 18.56C227.033 18.56 226.375 18.664 225.716 18.872C225.057 19.08 224.459 19.3833 223.922 19.782C223.402 20.1633 222.977 20.64 222.648 21.212C222.319 21.784 222.154 22.434 222.154 23.162C222.154 23.89 222.319 24.54 222.648 25.112C222.977 25.684 223.402 26.1693 223.922 26.568C224.459 26.9493 225.057 27.244 225.716 27.452C226.375 27.66 227.033 27.764 227.692 27.764C228.351 27.764 229.009 27.66 229.668 27.452C230.327 27.244 230.916 26.9493 231.436 26.568C231.973 26.1693 232.407 25.684 232.736 25.112C233.065 24.54 233.23 23.89 233.23 23.162C233.23 22.434 233.065 21.784 232.736 21.212C232.407 20.64 231.973 20.1633 231.436 19.782C230.916 19.3833 230.327 19.08 229.668 18.872C229.009 18.664 228.351 18.56 227.692 18.56ZM227.692 16.168C228.645 16.168 229.616 16.3153 230.604 16.61C231.592 16.8873 232.493 17.312 233.308 17.884C234.123 18.456 234.79 19.184 235.31 20.068C235.83 20.9347 236.09 21.966 236.09 23.162C236.09 24.358 235.83 25.398 235.31 26.282C234.79 27.1487 234.123 27.868 233.308 28.44C232.493 29.012 231.592 29.428 230.604 29.688C229.616 29.948 228.645 30.078 227.692 30.078C226.739 30.078 225.768 29.948 224.78 29.688C223.792 29.428 222.891 29.012 222.076 28.44C221.261 27.868 220.594 27.1487 220.074 26.282C219.554 25.398 219.294 24.358 219.294 23.162C219.294 21.966 219.554 20.9347 220.074 20.068C220.594 19.184 221.261 18.456 222.076 17.884C222.891 17.312 223.792 16.8873 224.78 16.61C225.768 16.3153 226.739 16.168 227.692 16.168ZM255.65 30H251.802V29.532C252.201 29.532 252.4 29.376 252.4 29.064V20.172L244.47 28.7C244.193 28.9773 244.054 29.1767 244.054 29.298C244.054 29.454 244.167 29.532 244.392 29.532V30H240.18V29.532C240.51 29.532 240.674 29.376 240.674 29.064V17.26C240.674 16.948 240.51 16.792 240.18 16.792V16.324H244.106V16.792C243.656 16.792 243.43 16.948 243.43 17.26V25.788L250.892 17.78C251.239 17.4333 251.412 17.1907 251.412 17.052C251.412 16.8787 251.343 16.792 251.204 16.792V16.324H255.65V16.792C255.321 16.792 255.156 16.948 255.156 17.26V29.064C255.156 29.376 255.321 29.532 255.65 29.532V30ZM252.036 11.28C251.984 11.852 251.846 12.372 251.62 12.84C251.395 13.308 251.092 13.7067 250.71 14.036C250.346 14.348 249.913 14.5907 249.41 14.764C248.925 14.9373 248.396 15.024 247.824 15.024C247.252 15.024 246.715 14.9373 246.212 14.764C245.727 14.5907 245.294 14.348 244.912 14.036C244.548 13.7067 244.254 13.308 244.028 12.84C243.803 12.372 243.664 11.852 243.612 11.28H245.12C245.207 11.696 245.337 12.034 245.51 12.294C245.684 12.554 245.892 12.7533 246.134 12.892C246.377 13.0307 246.637 13.126 246.914 13.178C247.209 13.23 247.512 13.256 247.824 13.256C248.136 13.256 248.431 13.23 248.708 13.178C249.003 13.126 249.272 13.0307 249.514 12.892C249.757 12.7533 249.965 12.554 250.138 12.294C250.312 12.034 250.442 11.696 250.528 11.28H252.036ZM263.485 29.064C263.485 29.22 263.537 29.3413 263.641 29.428C263.745 29.4973 263.866 29.532 264.005 29.532V30H259.949V29.532C260.33 29.532 260.521 29.376 260.521 29.064V17.26C260.521 16.948 260.33 16.792 259.949 16.792V16.324H264.005V16.792C263.866 16.792 263.745 16.8353 263.641 16.922C263.537 16.9913 263.485 17.104 263.485 17.26V22.2L268.867 17.962C269.109 17.754 269.3 17.5893 269.439 17.468C269.577 17.3293 269.647 17.2167 269.647 17.13C269.647 17.0087 269.603 16.922 269.517 16.87C269.447 16.818 269.361 16.792 269.257 16.792V16.324H274.717V16.792C274.405 16.792 274.093 16.922 273.781 17.182L267.801 21.94L273.261 28.258C273.486 28.518 273.746 28.778 274.041 29.038C274.353 29.2807 274.656 29.4453 274.951 29.532V30H270.141V29.532C270.366 29.532 270.479 29.4713 270.479 29.35C270.479 29.2633 270.357 29.0727 270.115 28.778L265.669 23.656L263.485 25.346V29.064ZM285.741 24.696L283.557 19.86L281.113 24.696H285.741ZM275.939 29.532C276.164 29.4973 276.337 29.3847 276.459 29.194C276.597 29.0033 276.727 28.7867 276.849 28.544L281.659 18.43C281.78 18.2047 281.884 17.9967 281.971 17.806C282.075 17.6153 282.127 17.4507 282.127 17.312C282.127 17.1387 282.066 17.0173 281.945 16.948C281.823 16.8787 281.693 16.8267 281.555 16.792V16.324H285.949V16.792C285.827 16.8267 285.706 16.8787 285.585 16.948C285.463 17 285.403 17.1213 285.403 17.312C285.403 17.4507 285.429 17.5893 285.481 17.728C285.55 17.8667 285.645 18.0487 285.767 18.274L291.175 28.856C291.261 29.0467 291.374 29.1853 291.513 29.272C291.669 29.3587 291.842 29.4453 292.033 29.532V30H287.457V29.532C287.526 29.532 287.613 29.506 287.717 29.454C287.821 29.402 287.873 29.324 287.873 29.22C287.873 29.0467 287.803 28.8213 287.665 28.544L286.677 26.62H280.333L279.397 28.466C279.223 28.83 279.137 29.09 279.137 29.246C279.137 29.4367 279.301 29.532 279.631 29.532V30H275.939V29.532ZM144.666 52.128C144.614 52.128 144.562 52.128 144.51 52.128C144.475 52.1107 144.432 52.102 144.38 52.102C144.276 52.102 144.025 52.206 143.626 52.414C143.245 52.622 142.751 52.856 142.144 53.116C141.555 53.376 140.879 53.6013 140.116 53.792C139.353 53.9827 138.556 54.078 137.724 54.078C136.632 54.078 135.583 53.9393 134.578 53.662C133.573 53.3847 132.68 52.96 131.9 52.388C131.137 51.7987 130.531 51.0707 130.08 50.204C129.629 49.3373 129.404 48.3233 129.404 47.162C129.404 46.018 129.629 45.0127 130.08 44.146C130.531 43.262 131.137 42.5253 131.9 41.936C132.68 41.3467 133.573 40.9047 134.578 40.61C135.583 40.3153 136.632 40.168 137.724 40.168C138.608 40.168 139.405 40.2373 140.116 40.376C140.844 40.5147 141.477 40.662 142.014 40.818C142.551 40.974 142.976 41.1213 143.288 41.26C143.6 41.3987 143.791 41.468 143.86 41.468C143.947 41.468 144.016 41.4247 144.068 41.338C144.137 41.2513 144.189 41.182 144.224 41.13L144.614 41.442L142.586 44.588L142.326 44.406C142.326 44.354 142.317 44.302 142.3 44.25C142.3 44.198 142.291 44.1373 142.274 44.068C142.239 43.8773 142.066 43.6867 141.754 43.496C141.442 43.288 141.052 43.106 140.584 42.95C140.133 42.794 139.648 42.664 139.128 42.56C138.625 42.456 138.157 42.404 137.724 42.404C136.996 42.404 136.294 42.508 135.618 42.716C134.959 42.924 134.379 43.2273 133.876 43.626C133.391 44.0247 133.001 44.5187 132.706 45.108C132.411 45.68 132.264 46.3387 132.264 47.084C132.264 47.8293 132.411 48.4967 132.706 49.086C133.001 49.658 133.391 50.1433 133.876 50.542C134.379 50.9407 134.959 51.244 135.618 51.452C136.294 51.66 136.996 51.764 137.724 51.764C138.279 51.764 138.859 51.7033 139.466 51.582C140.073 51.4433 140.627 51.2787 141.13 51.088C141.633 50.88 142.049 50.6547 142.378 50.412C142.725 50.152 142.898 49.9093 142.898 49.684C142.898 49.5627 142.863 49.4587 142.794 49.372L143.158 49.164L144.874 51.92L144.666 52.128ZM164.6 54H160.752V53.532C161.15 53.532 161.35 53.376 161.35 53.064V44.172L153.42 52.7C153.142 52.9773 153.004 53.1767 153.004 53.298C153.004 53.454 153.116 53.532 153.342 53.532V54H149.13V53.532C149.459 53.532 149.624 53.376 149.624 53.064V41.26C149.624 40.948 149.459 40.792 149.13 40.792V40.324H153.056V40.792C152.605 40.792 152.38 40.948 152.38 41.26V49.788L159.842 41.78C160.188 41.4333 160.362 41.1907 160.362 41.052C160.362 40.8787 160.292 40.792 160.154 40.792V40.324H164.6V40.792C164.27 40.792 164.106 40.948 164.106 41.26V53.064C164.106 53.376 164.27 53.532 164.6 53.532V54ZM183.666 52.128C183.614 52.128 183.562 52.128 183.51 52.128C183.475 52.1107 183.432 52.102 183.38 52.102C183.276 52.102 183.025 52.206 182.626 52.414C182.245 52.622 181.751 52.856 181.144 53.116C180.555 53.376 179.879 53.6013 179.116 53.792C178.353 53.9827 177.556 54.078 176.724 54.078C175.632 54.078 174.583 53.9393 173.578 53.662C172.573 53.3847 171.68 52.96 170.9 52.388C170.137 51.7987 169.531 51.0707 169.08 50.204C168.629 49.3373 168.404 48.3233 168.404 47.162C168.404 46.018 168.629 45.0127 169.08 44.146C169.531 43.262 170.137 42.5253 170.9 41.936C171.68 41.3467 172.573 40.9047 173.578 40.61C174.583 40.3153 175.632 40.168 176.724 40.168C177.608 40.168 178.405 40.2373 179.116 40.376C179.844 40.5147 180.477 40.662 181.014 40.818C181.551 40.974 181.976 41.1213 182.288 41.26C182.6 41.3987 182.791 41.468 182.86 41.468C182.947 41.468 183.016 41.4247 183.068 41.338C183.137 41.2513 183.189 41.182 183.224 41.13L183.614 41.442L181.586 44.588L181.326 44.406C181.326 44.354 181.317 44.302 181.3 44.25C181.3 44.198 181.291 44.1373 181.274 44.068C181.239 43.8773 181.066 43.6867 180.754 43.496C180.442 43.288 180.052 43.106 179.584 42.95C179.133 42.794 178.648 42.664 178.128 42.56C177.625 42.456 177.157 42.404 176.724 42.404C175.996 42.404 175.294 42.508 174.618 42.716C173.959 42.924 173.379 43.2273 172.876 43.626C172.391 44.0247 172.001 44.5187 171.706 45.108C171.411 45.68 171.264 46.3387 171.264 47.084C171.264 47.8293 171.411 48.4967 171.706 49.086C172.001 49.658 172.391 50.1433 172.876 50.542C173.379 50.9407 173.959 51.244 174.618 51.452C175.294 51.66 175.996 51.764 176.724 51.764C177.279 51.764 177.859 51.7033 178.466 51.582C179.073 51.4433 179.627 51.2787 180.13 51.088C180.633 50.88 181.049 50.6547 181.378 50.412C181.725 50.152 181.898 49.9093 181.898 49.684C181.898 49.5627 181.863 49.4587 181.794 49.372L182.158 49.164L183.874 51.92L183.666 52.128ZM195.176 53.064C195.176 53.376 195.366 53.532 195.748 53.532V54H191.744V53.532C191.865 53.532 191.969 53.4973 192.056 53.428C192.16 53.3413 192.212 53.22 192.212 53.064V42.716H187.922C187.766 42.716 187.61 42.7593 187.454 42.846C187.315 42.9327 187.246 43.0973 187.246 43.34H186.778V39.7H187.246C187.246 39.9427 187.315 40.1073 187.454 40.194C187.61 40.2807 187.766 40.324 187.922 40.324H199.466C199.622 40.324 199.769 40.2807 199.908 40.194C200.064 40.1073 200.142 39.9427 200.142 39.7H200.61V43.34H200.142C200.142 43.0973 200.064 42.9327 199.908 42.846C199.769 42.7593 199.622 42.716 199.466 42.716H195.176V53.064ZM216.738 43.132C216.738 42.9413 216.66 42.8027 216.504 42.716C216.366 42.612 216.114 42.56 215.75 42.56H207.326V45.784H212.422C212.769 45.784 213.038 45.7407 213.228 45.654C213.419 45.55 213.514 45.2987 213.514 44.9H213.982V48.956H213.514C213.514 48.5573 213.419 48.306 213.228 48.202C213.038 48.0807 212.769 48.02 212.422 48.02H207.326V51.608H216.01C216.27 51.608 216.478 51.5473 216.634 51.426C216.808 51.3047 216.894 51.14 216.894 50.932H217.362V54.494H216.894C216.894 54.234 216.808 54.0867 216.634 54.052C216.478 54.0173 216.27 54 216.01 54H203.894V53.532C204.016 53.532 204.12 53.4973 204.206 53.428C204.31 53.3413 204.362 53.22 204.362 53.064V41.26C204.362 41.104 204.31 40.9913 204.206 40.922C204.12 40.8353 204.016 40.792 203.894 40.792V40.324H215.75C216.114 40.324 216.366 40.272 216.504 40.168C216.66 40.0467 216.738 39.8907 216.738 39.7H217.206V43.132H216.738ZM221.288 53.532C221.427 53.532 221.548 53.4973 221.652 53.428C221.756 53.3413 221.808 53.22 221.808 53.064V41.208C221.808 41.052 221.756 40.948 221.652 40.896C221.548 40.8267 221.427 40.792 221.288 40.792V40.324H226.15V40.792C226.063 40.792 225.968 40.818 225.864 40.87C225.777 40.922 225.734 41 225.734 41.104C225.734 41.1907 225.769 41.3033 225.838 41.442C225.907 41.5807 225.985 41.728 226.072 41.884L229.79 48.644L233.534 41.962C233.655 41.7367 233.742 41.5633 233.794 41.442C233.863 41.3033 233.898 41.182 233.898 41.078C233.898 40.8873 233.785 40.792 233.56 40.792V40.324H238.37V40.792C238.231 40.792 238.11 40.8267 238.006 40.896C237.902 40.948 237.85 41.052 237.85 41.208V53.064C237.85 53.22 237.902 53.3413 238.006 53.428C238.11 53.4973 238.231 53.532 238.37 53.532V54H234.288V53.532C234.756 53.532 234.99 53.376 234.99 53.064V44.432H234.938L229.712 54H229.634L224.512 44.406H224.46V53.064C224.46 53.376 224.703 53.532 225.188 53.532V54H221.288V53.532ZM259.066 53.532C259.517 53.532 259.742 53.376 259.742 53.064V41.26C259.742 40.948 259.517 40.792 259.066 40.792V40.324H263.382V40.792C262.932 40.792 262.706 40.948 262.706 41.26V53.064C262.706 53.376 262.932 53.532 263.382 53.532V54H259.066V53.532ZM251.214 51.608C252.306 51.608 253.086 51.4087 253.554 51.01C254.04 50.594 254.282 50.0567 254.282 49.398C254.282 48.7393 254.04 48.2713 253.554 47.994C253.086 47.6993 252.306 47.552 251.214 47.552H246.508V51.608H251.214ZM252.098 45.316C252.878 45.316 253.589 45.394 254.23 45.55C254.872 45.6887 255.409 45.9227 255.842 46.252C256.293 46.5813 256.64 47.0147 256.882 47.552C257.125 48.072 257.246 48.7133 257.246 49.476C257.246 51.0013 256.778 52.1367 255.842 52.882C254.924 53.6273 253.676 54 252.098 54H242.816V53.532C243.302 53.532 243.544 53.376 243.544 53.064V41.26C243.544 40.948 243.302 40.792 242.816 40.792V40.324H247.184V40.792C246.734 40.792 246.508 40.948 246.508 41.26V45.316H252.098ZM142.04 66.716H133.928V77.064C133.928 77.22 133.971 77.3413 134.058 77.428C134.162 77.4973 134.275 77.532 134.396 77.532V78H130.47V77.532C130.799 77.532 130.964 77.376 130.964 77.064V65.26C130.964 64.948 130.799 64.792 130.47 64.792V64.324H145.472V64.792C145.351 64.792 145.238 64.8353 145.134 64.922C145.047 64.9913 145.004 65.104 145.004 65.26V77.064C145.004 77.22 145.047 77.3413 145.134 77.428C145.238 77.4973 145.351 77.532 145.472 77.532V78H141.468V77.532C141.849 77.532 142.04 77.376 142.04 77.064V66.716ZM159.397 70.044C159.969 70.044 160.454 69.9313 160.853 69.706C161.269 69.4807 161.477 69.0387 161.477 68.38C161.477 67.7213 161.269 67.2793 160.853 67.054C160.454 66.8287 159.969 66.716 159.397 66.716H153.859V70.044H159.397ZM149.933 78V77.532C150.574 77.532 150.895 77.376 150.895 77.064V65.26C150.895 64.948 150.574 64.792 149.933 64.792V64.324H159.085C160.749 64.324 162.058 64.636 163.011 65.26C163.964 65.8667 164.441 66.9067 164.441 68.38C164.441 69.8533 163.964 70.902 163.011 71.526C162.058 72.1327 160.749 72.436 159.085 72.436H153.859V77.064C153.859 77.376 154.136 77.532 154.691 77.532V78H149.933ZM175.413 66.56C174.754 66.56 174.095 66.664 173.437 66.872C172.778 67.08 172.18 67.3833 171.643 67.782C171.123 68.1633 170.698 68.64 170.369 69.212C170.039 69.784 169.875 70.434 169.875 71.162C169.875 71.89 170.039 72.54 170.369 73.112C170.698 73.684 171.123 74.1693 171.643 74.568C172.18 74.9493 172.778 75.244 173.437 75.452C174.095 75.66 174.754 75.764 175.413 75.764C176.071 75.764 176.73 75.66 177.389 75.452C178.047 75.244 178.637 74.9493 179.157 74.568C179.694 74.1693 180.127 73.684 180.457 73.112C180.786 72.54 180.951 71.89 180.951 71.162C180.951 70.434 180.786 69.784 180.457 69.212C180.127 68.64 179.694 68.1633 179.157 67.782C178.637 67.3833 178.047 67.08 177.389 66.872C176.73 66.664 176.071 66.56 175.413 66.56ZM175.413 64.168C176.366 64.168 177.337 64.3153 178.325 64.61C179.313 64.8873 180.214 65.312 181.029 65.884C181.843 66.456 182.511 67.184 183.031 68.068C183.551 68.9347 183.811 69.966 183.811 71.162C183.811 72.358 183.551 73.398 183.031 74.282C182.511 75.1487 181.843 75.868 181.029 76.44C180.214 77.012 179.313 77.428 178.325 77.688C177.337 77.948 176.366 78.078 175.413 78.078C174.459 78.078 173.489 77.948 172.501 77.688C171.513 77.428 170.611 77.012 169.797 76.44C168.982 75.868 168.315 75.1487 167.795 74.282C167.275 73.398 167.015 72.358 167.015 71.162C167.015 69.966 167.275 68.9347 167.795 68.068C168.315 67.184 168.982 66.456 169.797 65.884C170.611 65.312 171.513 64.8873 172.501 64.61C173.489 64.3153 174.459 64.168 175.413 64.168ZM204.619 79.43C204.619 79.9153 204.81 80.1493 205.191 80.132V80.6H201.603V80.132C201.932 80.132 202.097 79.8893 202.097 79.404V78H189.019V79.404C189.019 79.8893 189.184 80.132 189.513 80.132V80.6H185.925V80.132C186.306 80.1493 186.497 79.9153 186.497 79.43V75.764H188.603L193.179 66.43C193.283 66.2047 193.378 65.9967 193.465 65.806C193.552 65.6153 193.595 65.4507 193.595 65.312C193.595 65.1387 193.534 65.0173 193.413 64.948C193.292 64.8787 193.162 64.8267 193.023 64.792V64.324H197.729V64.792C197.608 64.8267 197.486 64.8787 197.365 64.948C197.244 65 197.183 65.1213 197.183 65.312C197.183 65.4507 197.209 65.5893 197.261 65.728C197.33 65.8667 197.426 66.0487 197.547 66.274L202.513 75.764H204.619V79.43ZM191.411 75.764H199.185L195.207 67.496L191.411 75.764ZM215.942 72.696L213.758 67.86L211.314 72.696H215.942ZM206.14 77.532C206.365 77.4973 206.538 77.3847 206.66 77.194C206.798 77.0033 206.928 76.7867 207.05 76.544L211.86 66.43C211.981 66.2047 212.085 65.9967 212.172 65.806C212.276 65.6153 212.328 65.4507 212.328 65.312C212.328 65.1387 212.267 65.0173 212.146 64.948C212.024 64.8787 211.894 64.8267 211.756 64.792V64.324H216.15V64.792C216.028 64.8267 215.907 64.8787 215.786 64.948C215.664 65 215.604 65.1213 215.604 65.312C215.604 65.4507 215.63 65.5893 215.682 65.728C215.751 65.8667 215.846 66.0487 215.968 66.274L221.376 76.856C221.462 77.0467 221.575 77.1853 221.714 77.272C221.87 77.3587 222.043 77.4453 222.234 77.532V78H217.658V77.532C217.727 77.532 217.814 77.506 217.918 77.454C218.022 77.402 218.074 77.324 218.074 77.22C218.074 77.0467 218.004 76.8213 217.866 76.544L216.878 74.62H210.534L209.598 76.466C209.424 76.83 209.338 77.09 209.338 77.246C209.338 77.4367 209.502 77.532 209.832 77.532V78H206.14V77.532ZM236.482 77.064C236.482 77.22 236.534 77.3413 236.638 77.428C236.742 77.4973 236.863 77.532 237.002 77.532V78H233.076V77.532C233.214 77.532 233.336 77.4973 233.44 77.428C233.544 77.3413 233.596 77.22 233.596 77.064V72.41L232.53 71.578L228.006 76.778C227.763 77.0727 227.642 77.2633 227.642 77.35C227.642 77.4713 227.754 77.532 227.98 77.532V78H223.378V77.532C223.672 77.4453 223.967 77.2807 224.262 77.038C224.574 76.778 224.842 76.518 225.068 76.258L230.528 69.94L224.548 65.182C224.236 64.922 223.924 64.792 223.612 64.792V64.324H229.072V64.792C228.968 64.792 228.872 64.818 228.786 64.87C228.716 64.922 228.682 65.0087 228.682 65.13C228.682 65.2167 228.751 65.3293 228.89 65.468C229.028 65.5893 229.219 65.754 229.462 65.962L233.596 69.212V65.26C233.596 65.104 233.544 64.9913 233.44 64.922C233.336 64.8353 233.214 64.792 233.076 64.792V64.324H237.002V64.792C236.863 64.792 236.742 64.8353 236.638 64.922C236.534 64.9913 236.482 65.104 236.482 65.26V69.394L240.824 65.962C241.066 65.754 241.257 65.5893 241.396 65.468C241.534 65.3293 241.604 65.2167 241.604 65.13C241.604 65.0087 241.56 64.922 241.474 64.87C241.404 64.818 241.318 64.792 241.214 64.792V64.324H246.674V64.792C246.362 64.792 246.05 64.922 245.738 65.182L239.758 69.94L245.218 76.258C245.443 76.518 245.703 76.778 245.998 77.038C246.31 77.2807 246.613 77.4453 246.908 77.532V78H242.098V77.532C242.323 77.532 242.436 77.4713 242.436 77.35C242.436 77.2633 242.314 77.0727 242.072 76.778L237.626 71.656L236.482 72.54V77.064Z" fill="white"/>
</g>
<path d="M7.22 132.2C6.32667 132.2 5.60667 132.047 5.06 131.74C4.51333 131.433 4.06667 131.053 3.72 130.6L4.12 130.3C4.37333 130.553 4.7 130.8 5.1 131.04C5.51333 131.28 6.08667 131.4 6.82 131.4C7.62 131.4 8.23333 131.247 8.66 130.94C9.1 130.633 9.32 130.153 9.32 129.5C9.32 128.873 9.08667 128.4 8.62 128.08C8.15333 127.76 7.45333 127.6 6.52 127.6H5.62V126.8H6.52C7.32 126.8 7.93333 126.653 8.36 126.36C8.8 126.053 9.02 125.6 9.02 125C9.02 124.4 8.82667 123.953 8.44 123.66C8.05333 123.353 7.58 123.2 7.02 123.2C6.3 123.2 5.69333 123.387 5.2 123.76C4.72 124.133 4.46 124.647 4.42 125.3H4.02C4.02 124.74 4.04 124.3 4.08 123.98C4.12 123.647 4.26667 123.353 4.52 123.1C4.77333 122.847 5.14 122.667 5.62 122.56C6.1 122.453 6.66667 122.4 7.32 122.4C7.92 122.4 8.49333 122.48 9.04 122.64C9.58667 122.8 10.0333 123.067 10.38 123.44C10.74 123.813 10.92 124.333 10.92 125C10.92 125.6 10.7333 126.08 10.36 126.44C10 126.8 9.52 127.053 8.92 127.2C9.64 127.347 10.2 127.62 10.6 128.02C11.0133 128.407 11.22 128.9 11.22 129.5C11.22 130.193 11.0333 130.74 10.66 131.14C10.3 131.527 9.82 131.8 9.22 131.96C8.62 132.12 7.95333 132.2 7.22 132.2ZM15.7816 132.2C15.5016 132.2 15.1949 132.153 14.8616 132.06C14.5416 131.98 14.2282 131.833 13.9216 131.62C13.6149 131.407 13.3616 131.12 13.1616 130.76C12.9749 130.4 12.8816 129.947 12.8816 129.4C12.8816 128.667 13.1149 128.1 13.5816 127.7C14.0616 127.3 14.6882 127.02 15.4616 126.86C16.2482 126.687 17.0882 126.6 17.9816 126.6H18.5816C18.5816 125.667 18.4882 124.96 18.3016 124.48C18.1149 123.987 17.8616 123.653 17.5416 123.48C17.2349 123.293 16.8816 123.2 16.4816 123.2C15.9216 123.2 15.4482 123.32 15.0616 123.56C14.6882 123.8 14.4282 124.247 14.2816 124.9H13.3816C13.3816 124.553 13.4016 124.233 13.4416 123.94C13.4816 123.633 13.6282 123.353 13.8816 123.1C14.1349 122.847 14.5482 122.667 15.1216 122.56C15.6949 122.453 16.2816 122.4 16.8816 122.4C17.3349 122.4 17.7682 122.453 18.1816 122.56C18.6082 122.667 18.9816 122.867 19.3016 123.16C19.6349 123.44 19.8949 123.86 20.0816 124.42C20.2816 124.967 20.3816 125.693 20.3816 126.6V132H19.3816L18.6816 131.1H18.5816C18.3816 131.353 18.0549 131.6 17.6016 131.84C17.1482 132.08 16.5416 132.2 15.7816 132.2ZM16.6816 131.3C17.1749 131.3 17.5616 131.18 17.8416 130.94C18.1349 130.687 18.3816 130.407 18.5816 130.1V127.4H17.9816C16.9816 127.4 16.1949 127.587 15.6216 127.96C15.0616 128.32 14.7816 128.8 14.7816 129.4C14.7816 130.053 14.9749 130.533 15.3616 130.84C15.7482 131.147 16.1882 131.3 16.6816 131.3ZM23.3705 132V125C23.3705 124.4 23.2838 123.92 23.1105 123.56C22.9505 123.187 22.5705 123 21.9705 123H21.7705V122.6H30.9705V132H29.1705V123.4H25.1705V132H23.3705ZM37.7141 132.2C36.7807 132.2 35.9874 131.98 35.3341 131.54C34.6807 131.1 34.1807 130.507 33.8341 129.76C33.4874 129.013 33.3141 128.193 33.3141 127.3C33.3141 126.393 33.4874 125.573 33.8341 124.84C34.1807 124.093 34.6807 123.5 35.3341 123.06C35.9874 122.62 36.7807 122.4 37.7141 122.4C38.6474 122.4 39.4407 122.62 40.0941 123.06C40.7474 123.5 41.2474 124.093 41.5941 124.84C41.9407 125.573 42.1141 126.393 42.1141 127.3C42.1141 128.193 41.9407 129.013 41.5941 129.76C41.2474 130.507 40.7474 131.1 40.0941 131.54C39.4407 131.98 38.6474 132.2 37.7141 132.2ZM37.7141 131.4C38.2207 131.4 38.6607 131.22 39.0341 130.86C39.4074 130.487 39.6941 129.993 39.8941 129.38C40.1074 128.753 40.2141 128.06 40.2141 127.3C40.2141 126.527 40.1074 125.833 39.8941 125.22C39.6941 124.607 39.4074 124.12 39.0341 123.76C38.6607 123.387 38.2207 123.2 37.7141 123.2C37.2207 123.2 36.7807 123.387 36.3941 123.76C36.0207 124.12 35.7274 124.607 35.5141 125.22C35.3141 125.833 35.2141 126.527 35.2141 127.3C35.2141 128.06 35.3141 128.753 35.5141 129.38C35.7274 129.993 36.0207 130.487 36.3941 130.86C36.7807 131.22 37.2207 131.4 37.7141 131.4ZM43.7498 132.2C43.6432 132.2 43.4765 132.18 43.2498 132.14C43.0365 132.1 42.8765 132.06 42.7698 132.02V131.52C43.0898 131.52 43.4032 131.44 43.7098 131.28C44.0298 131.107 44.3098 130.793 44.5498 130.34C44.8032 129.873 45.0032 129.213 45.1498 128.36C45.2965 127.493 45.3698 126.373 45.3698 125C45.3698 124.4 45.2832 123.92 45.1098 123.56C44.9498 123.187 44.5632 123 43.9498 123V122.6H52.0698V132H50.2698V123.4H46.7498V125C46.7498 126.493 46.6632 127.713 46.4898 128.66C46.3298 129.607 46.1032 130.34 45.8098 130.86C45.5298 131.367 45.2098 131.72 44.8498 131.92C44.4898 132.107 44.1232 132.2 43.7498 132.2ZM55.2278 132V125C55.2278 124.4 55.1411 123.92 54.9678 123.56C54.8078 123.187 54.4278 123 53.8278 123H53.5278V122.6H55.2278C55.6945 122.6 56.0545 122.66 56.3078 122.78C56.5745 122.9 56.7611 123.133 56.8678 123.48C56.9745 123.827 57.0278 124.333 57.0278 125V126.9H61.0278V122.6H62.8278V129.6C62.8278 130.2 62.9078 130.687 63.0678 131.06C63.2411 131.42 63.6278 131.6 64.2278 131.6H64.5278V132H62.8278C62.3611 132 61.9945 131.94 61.7278 131.82C61.4745 131.7 61.2945 131.467 61.1878 131.12C61.0811 130.773 61.0278 130.267 61.0278 129.6V127.7H57.0278V132H55.2278ZM66.0025 132.2C65.8025 132.2 65.6025 132.18 65.4025 132.14C65.2158 132.1 65.0492 132.053 64.9025 132V131.6C65.3692 131.547 65.7492 131.353 66.0425 131.02C66.3358 130.687 66.5892 130.347 66.8025 130L68.0025 127.9C67.4025 127.793 66.8692 127.52 66.4025 127.08C65.9358 126.64 65.7025 126.047 65.7025 125.3C65.7025 124.607 65.8825 124.067 66.2425 123.68C66.6158 123.28 67.1025 123 67.7025 122.84C68.3158 122.68 68.9825 122.6 69.7025 122.6H74.4025V123H74.3225C73.7625 123.013 73.4025 123.207 73.2425 123.58C73.0825 123.94 73.0025 124.413 73.0025 125V132H71.2025V128H69.6425L68.4425 130.4C68.1358 131 67.7958 131.453 67.4225 131.76C67.0492 132.053 66.5758 132.2 66.0025 132.2ZM69.9025 127.3C70.1025 127.3 70.3292 127.28 70.5825 127.24C70.8492 127.2 71.0558 127.153 71.2025 127.1V123.5C71.0558 123.447 70.8492 123.4 70.5825 123.36C70.3292 123.32 70.1025 123.3 69.9025 123.3C69.1958 123.3 68.6358 123.46 68.2225 123.78C67.8092 124.087 67.6025 124.593 67.6025 125.3C67.6025 126.007 67.8092 126.52 68.2225 126.84C68.6358 127.147 69.1958 127.3 69.9025 127.3ZM79.8578 132.2C78.9245 132.2 78.1445 131.98 77.5178 131.54C76.9045 131.1 76.4378 130.507 76.1178 129.76C75.8111 129.013 75.6578 128.193 75.6578 127.3C75.6578 126.393 75.8178 125.573 76.1378 124.84C76.4578 124.093 76.9178 123.5 77.5178 123.06C78.1178 122.62 78.8311 122.4 79.6578 122.4C80.5645 122.4 81.3111 122.573 81.8978 122.92C82.4978 123.253 82.9378 123.747 83.2178 124.4C83.5111 125.053 83.6578 125.853 83.6578 126.8L83.6178 127.6H77.5578C77.5578 128.693 77.7911 129.6 78.2578 130.32C78.7378 131.04 79.4045 131.4 80.2578 131.4C80.9111 131.4 81.4511 131.26 81.8778 130.98C82.3178 130.7 82.7111 130.307 83.0578 129.8L83.4578 130.1C83.1645 130.607 82.8311 131.013 82.4578 131.32C82.0978 131.627 81.6978 131.853 81.2578 132C80.8311 132.133 80.3645 132.2 79.8578 132.2ZM77.5578 126.8H81.7578C81.7578 125.64 81.5845 124.753 81.2378 124.14C80.8911 123.513 80.3645 123.2 79.6578 123.2C79.2578 123.2 78.8978 123.36 78.5778 123.68C78.2711 123.987 78.0245 124.413 77.8378 124.96C77.6511 125.493 77.5578 126.107 77.5578 126.8ZM97.1634 132.4C95.9101 132.4 95.0434 132.093 94.5634 131.48C94.0968 130.867 93.8634 130.04 93.8634 129V124.7L90.5634 132H90.1634L86.7634 124.5V132H85.9634V122.6H87.8634L90.8634 129.2L93.8634 122.6H95.6634V129C95.6634 129.493 95.7234 129.973 95.8434 130.44C95.9768 130.893 96.1568 131.267 96.3834 131.56C96.6101 131.853 96.8701 132 97.1634 132V132.4ZM107.812 132.2C106.825 132.2 106.005 131.98 105.352 131.54C104.698 131.1 104.212 130.507 103.892 129.76C103.572 129.013 103.412 128.193 103.412 127.3C103.412 126.393 103.572 125.573 103.892 124.84C104.212 124.093 104.698 123.5 105.352 123.06C106.005 122.62 106.825 122.4 107.812 122.4C108.518 122.4 109.112 122.453 109.592 122.56C110.085 122.667 110.458 122.847 110.712 123.1C110.965 123.353 111.112 123.667 111.152 124.04C111.192 124.4 111.212 124.953 111.212 125.7H110.812C110.758 124.847 110.485 124.22 109.992 123.82C109.512 123.407 108.918 123.2 108.212 123.2C107.545 123.2 106.998 123.387 106.572 123.76C106.145 124.12 105.825 124.607 105.612 125.22C105.412 125.833 105.312 126.527 105.312 127.3C105.312 128.06 105.412 128.753 105.612 129.38C105.825 129.993 106.145 130.487 106.572 130.86C106.998 131.22 107.545 131.4 108.212 131.4C108.918 131.4 109.492 131.26 109.932 130.98C110.372 130.7 110.765 130.307 111.112 129.8L111.512 130.1C111.218 130.607 110.885 131.013 110.512 131.32C110.138 131.627 109.725 131.853 109.272 132C108.832 132.133 108.345 132.2 107.812 132.2ZM120.96 132.2C120.453 132.2 119.953 132.073 119.46 131.82C118.98 131.567 118.513 131.16 118.06 130.6L115.76 127.7V132H113.96V125C113.96 124.4 113.873 123.92 113.7 123.56C113.54 123.187 113.16 123 112.56 123H112.16V122.6H113.96C114.426 122.6 114.786 122.66 115.04 122.78C115.306 122.9 115.493 123.133 115.6 123.48C115.706 123.827 115.76 124.333 115.76 125V127.4L118.26 123.9C118.553 123.5 118.893 123.187 119.28 122.96C119.68 122.72 120.206 122.6 120.86 122.6H121.36V123.1C121.053 123.1 120.74 123.167 120.42 123.3C120.1 123.42 119.813 123.653 119.56 124L117.36 127.1L119.66 130C120.006 130.453 120.36 130.82 120.72 131.1C121.093 131.38 121.506 131.553 121.96 131.62V132C121.853 132.053 121.706 132.1 121.52 132.14C121.346 132.18 121.16 132.2 120.96 132.2ZM123.861 135.8V125C123.861 124.4 123.774 123.92 123.601 123.56C123.441 123.187 123.061 123 122.461 123H122.061V122.6H123.861C124.368 122.6 124.748 122.673 125.001 122.82C125.268 122.967 125.454 123.193 125.561 123.5C125.828 123.233 126.188 122.987 126.641 122.76C127.094 122.52 127.668 122.4 128.361 122.4C129.161 122.4 129.828 122.62 130.361 123.06C130.894 123.5 131.294 124.093 131.561 124.84C131.828 125.573 131.961 126.393 131.961 127.3C131.961 128.193 131.821 129.013 131.541 129.76C131.274 130.507 130.861 131.1 130.301 131.54C129.741 131.98 129.028 132.2 128.161 132.2C127.601 132.2 127.121 132.133 126.721 132C126.321 131.88 125.968 131.747 125.661 131.6V135.8H123.861ZM127.561 131.4C128.161 131.4 128.641 131.22 129.001 130.86C129.374 130.487 129.641 129.993 129.801 129.38C129.974 128.753 130.061 128.06 130.061 127.3C130.061 126.527 129.981 125.833 129.821 125.22C129.661 124.607 129.408 124.12 129.061 123.76C128.728 123.387 128.294 123.2 127.761 123.2C127.214 123.2 126.774 123.327 126.441 123.58C126.108 123.82 125.848 124.093 125.661 124.4V130.8C125.968 130.947 126.281 131.087 126.601 131.22C126.934 131.34 127.254 131.4 127.561 131.4ZM134.603 132V125C134.603 124.4 134.516 123.92 134.343 123.56C134.183 123.187 133.803 123 133.203 123H132.903V122.6H134.603C135.069 122.6 135.429 122.66 135.683 122.78C135.949 122.9 136.136 123.133 136.243 123.48C136.349 123.827 136.403 124.333 136.403 125V130.2L140.603 122.6H142.403V132H140.603V124.4L136.403 132H134.603ZM145.48 132V125C145.48 124.4 145.393 123.92 145.22 123.56C145.06 123.187 144.68 123 144.08 123H143.88V122.6H153.08V132H151.28V123.4H147.28V132H145.48ZM158.603 132V123.4H157.603C157.003 123.4 156.503 123.573 156.103 123.92C155.703 124.253 155.503 124.747 155.503 125.4H155.103V124.2C155.103 123.8 155.203 123.433 155.403 123.1C155.603 122.767 156.003 122.6 156.603 122.6H163.703V123.4H160.403V132H158.603ZM165.716 132V125C165.716 124.4 165.629 123.92 165.456 123.56C165.296 123.187 164.916 123 164.316 123H164.016V122.6H165.716C166.183 122.6 166.543 122.66 166.796 122.78C167.063 122.9 167.249 123.133 167.356 123.48C167.463 123.827 167.516 124.333 167.516 125V126.4H169.016C169.723 126.4 170.369 126.487 170.956 126.66C171.543 126.82 172.016 127.1 172.376 127.5C172.736 127.9 172.916 128.467 172.916 129.2C172.916 129.92 172.736 130.487 172.376 130.9C172.016 131.3 171.543 131.587 170.956 131.76C170.369 131.92 169.723 132 169.016 132H165.716ZM168.816 131.3C169.469 131.3 169.996 131.14 170.396 130.82C170.809 130.5 171.016 129.96 171.016 129.2C171.016 128.44 170.809 127.9 170.396 127.58C169.996 127.26 169.469 127.1 168.816 127.1C168.616 127.1 168.383 127.12 168.116 127.16C167.863 127.2 167.663 127.247 167.516 127.3V131.1C167.663 131.153 167.863 131.2 168.116 131.24C168.383 131.28 168.616 131.3 168.816 131.3ZM176.016 132C175.549 132 175.183 131.94 174.916 131.82C174.663 131.7 174.483 131.467 174.376 131.12C174.269 130.773 174.216 130.267 174.216 129.6V122.6H176.016V129.6C176.016 130.2 176.096 130.687 176.256 131.06C176.429 131.42 176.816 131.6 177.416 131.6H177.716V132H176.016ZM179.186 135.1L178.986 134.8C179.332 134.573 179.619 134.327 179.846 134.06C180.086 133.793 180.266 133.5 180.386 133.18C180.519 132.86 180.586 132.5 180.586 132.1C180.532 132.14 180.446 132.18 180.326 132.22C180.206 132.273 180.092 132.3 179.986 132.3C179.679 132.3 179.419 132.193 179.206 131.98C178.992 131.767 178.886 131.507 178.886 131.2C178.886 130.853 178.999 130.567 179.226 130.34C179.452 130.113 179.739 130 180.086 130C180.486 130 180.799 130.12 181.026 130.36C181.266 130.6 181.386 130.947 181.386 131.4C181.386 132.253 181.192 132.98 180.806 133.58C180.432 134.193 179.892 134.7 179.186 135.1ZM200.152 132.4C198.898 132.4 198.032 132.093 197.552 131.48C197.085 130.867 196.852 130.04 196.852 129V124.7L193.552 132H193.152L189.752 124.5V132H188.952V122.6H190.852L193.852 129.2L196.852 122.6H198.652V129C198.652 129.493 198.712 129.973 198.832 130.44C198.965 130.893 199.145 131.267 199.372 131.56C199.598 131.853 199.858 132 200.152 132V132.4ZM205.6 132.2C204.667 132.2 203.887 131.98 203.26 131.54C202.647 131.1 202.18 130.507 201.86 129.76C201.553 129.013 201.4 128.193 201.4 127.3C201.4 126.393 201.56 125.573 201.88 124.84C202.2 124.093 202.66 123.5 203.26 123.06C203.86 122.62 204.573 122.4 205.4 122.4C206.307 122.4 207.053 122.573 207.64 122.92C208.24 123.253 208.68 123.747 208.96 124.4C209.253 125.053 209.4 125.853 209.4 126.8L209.36 127.6H203.3C203.3 128.693 203.533 129.6 204 130.32C204.48 131.04 205.147 131.4 206 131.4C206.653 131.4 207.193 131.26 207.62 130.98C208.06 130.7 208.453 130.307 208.8 129.8L209.2 130.1C208.907 130.607 208.573 131.013 208.2 131.32C207.84 131.627 207.44 131.853 207 132C206.573 132.133 206.107 132.2 205.6 132.2ZM203.3 126.8H207.5C207.5 125.64 207.327 124.753 206.98 124.14C206.633 123.513 206.107 123.2 205.4 123.2C205 123.2 204.64 123.36 204.32 123.68C204.013 123.987 203.767 124.413 203.58 124.96C203.393 125.493 203.3 126.107 203.3 126.8ZM214.346 132V123.4H213.346C212.746 123.4 212.246 123.573 211.846 123.92C211.446 124.253 211.246 124.747 211.246 125.4H210.846V124.2C210.846 123.8 210.946 123.433 211.146 123.1C211.346 122.767 211.746 122.6 212.346 122.6H219.446V123.4H216.146V132H214.346ZM228.518 132.2C228.012 132.2 227.512 132.073 227.018 131.82C226.538 131.567 226.072 131.16 225.618 130.6L223.318 127.7V132H221.518V125C221.518 124.4 221.432 123.92 221.258 123.56C221.098 123.187 220.718 123 220.118 123H219.718V122.6H221.518C221.985 122.6 222.345 122.66 222.598 122.78C222.865 122.9 223.052 123.133 223.158 123.48C223.265 123.827 223.318 124.333 223.318 125V127.4L225.818 123.9C226.112 123.5 226.452 123.187 226.838 122.96C227.238 122.72 227.765 122.6 228.418 122.6H228.918V123.1C228.612 123.1 228.298 123.167 227.978 123.3C227.658 123.42 227.372 123.653 227.118 124L224.918 127.1L227.218 130C227.565 130.453 227.918 130.82 228.278 131.1C228.652 131.38 229.065 131.553 229.518 131.62V132C229.412 132.053 229.265 132.1 229.078 132.14C228.905 132.18 228.718 132.2 228.518 132.2ZM231.4 132V125C231.4 124.4 231.313 123.92 231.14 123.56C230.98 123.187 230.6 123 230 123H229.7V122.6H231.4C231.866 122.6 232.226 122.66 232.48 122.78C232.746 122.9 232.933 123.133 233.04 123.48C233.146 123.827 233.2 124.333 233.2 125V130.2L237.4 122.6H239.2V132H237.4V124.4L233.2 132H231.4ZM242.057 135.1L241.857 134.8C242.203 134.573 242.49 134.327 242.717 134.06C242.957 133.793 243.137 133.5 243.257 133.18C243.39 132.86 243.457 132.5 243.457 132.1C243.403 132.14 243.317 132.18 243.197 132.22C243.077 132.273 242.963 132.3 242.857 132.3C242.55 132.3 242.29 132.193 242.077 131.98C241.863 131.767 241.757 131.507 241.757 131.2C241.757 130.853 241.87 130.567 242.097 130.34C242.323 130.113 242.61 130 242.957 130C243.357 130 243.67 130.12 243.897 130.36C244.137 130.6 244.257 130.947 244.257 131.4C244.257 132.253 244.063 132.98 243.677 133.58C243.303 134.193 242.763 134.7 242.057 135.1ZM255.783 132.2C254.983 132.2 254.263 132.04 253.623 131.72C252.996 131.387 252.496 130.867 252.123 130.16C251.763 129.453 251.583 128.533 251.583 127.4V126.6C251.583 125.373 251.636 124.36 251.743 123.56C251.849 122.76 252.016 122.12 252.243 121.64C252.469 121.16 252.769 120.8 253.143 120.56C253.516 120.307 253.963 120.12 254.483 120L257.483 119.3C257.936 119.193 258.283 119.08 258.523 118.96C258.776 118.84 258.929 118.653 258.983 118.4H259.383V119.7C259.383 119.953 259.329 120.153 259.223 120.3C259.129 120.447 258.983 120.547 258.783 120.6L255.283 121.4C254.709 121.547 254.229 121.767 253.843 122.06C253.456 122.353 253.149 122.807 252.923 123.42C252.709 124.033 252.563 124.893 252.483 126H252.583C252.836 125 253.249 124.287 253.823 123.86C254.396 123.42 255.183 123.2 256.183 123.2C256.849 123.2 257.469 123.36 258.043 123.68C258.629 124 259.096 124.493 259.443 125.16C259.803 125.813 259.983 126.66 259.983 127.7C259.983 128.727 259.796 129.573 259.423 130.24C259.063 130.907 258.563 131.4 257.923 131.72C257.296 132.04 256.583 132.2 255.783 132.2ZM255.783 131.4C256.183 131.4 256.556 131.293 256.903 131.08C257.249 130.867 257.529 130.493 257.743 129.96C257.969 129.413 258.083 128.66 258.083 127.7C258.083 126.767 257.969 126.033 257.743 125.5C257.529 124.953 257.249 124.567 256.903 124.34C256.556 124.113 256.183 124 255.783 124C255.383 124 255.009 124.113 254.663 124.34C254.316 124.567 254.029 124.953 253.803 125.5C253.589 126.033 253.483 126.767 253.483 127.7C253.483 128.66 253.589 129.413 253.803 129.96C254.029 130.493 254.316 130.867 254.663 131.08C255.009 131.293 255.383 131.4 255.783 131.4ZM261.719 132.2C261.612 132.2 261.445 132.18 261.219 132.14C261.005 132.1 260.845 132.06 260.739 132.02V131.52C261.059 131.52 261.372 131.44 261.679 131.28C261.999 131.107 262.279 130.793 262.519 130.34C262.772 129.873 262.972 129.213 263.119 128.36C263.265 127.493 263.339 126.373 263.339 125C263.339 124.4 263.252 123.92 263.079 123.56C262.919 123.187 262.532 123 261.919 123V122.6H270.039V132H268.239V123.4H264.719V125C264.719 126.493 264.632 127.713 264.459 128.66C264.299 129.607 264.072 130.34 263.779 130.86C263.499 131.367 263.179 131.72 262.819 131.92C262.459 132.107 262.092 132.2 261.719 132.2ZM276.777 132.2C275.843 132.2 275.05 131.98 274.397 131.54C273.743 131.1 273.243 130.507 272.897 129.76C272.55 129.013 272.377 128.193 272.377 127.3C272.377 126.393 272.55 125.573 272.897 124.84C273.243 124.093 273.743 123.5 274.397 123.06C275.05 122.62 275.843 122.4 276.777 122.4C277.71 122.4 278.503 122.62 279.157 123.06C279.81 123.5 280.31 124.093 280.657 124.84C281.003 125.573 281.177 126.393 281.177 127.3C281.177 128.193 281.003 129.013 280.657 129.76C280.31 130.507 279.81 131.1 279.157 131.54C278.503 131.98 277.71 132.2 276.777 132.2ZM276.777 131.4C277.283 131.4 277.723 131.22 278.097 130.86C278.47 130.487 278.757 129.993 278.957 129.38C279.17 128.753 279.277 128.06 279.277 127.3C279.277 126.527 279.17 125.833 278.957 125.22C278.757 124.607 278.47 124.12 278.097 123.76C277.723 123.387 277.283 123.2 276.777 123.2C276.283 123.2 275.843 123.387 275.457 123.76C275.083 124.12 274.79 124.607 274.577 125.22C274.377 125.833 274.277 126.527 274.277 127.3C274.277 128.06 274.377 128.753 274.577 129.38C274.79 129.993 275.083 130.487 275.457 130.86C275.843 131.22 276.283 131.4 276.777 131.4ZM290.862 132.2C290.355 132.2 289.855 132.073 289.362 131.82C288.882 131.567 288.415 131.16 287.962 130.6L285.662 127.7V132H283.862V125C283.862 124.4 283.775 123.92 283.602 123.56C283.442 123.187 283.062 123 282.462 123H282.062V122.6H283.862C284.329 122.6 284.689 122.66 284.942 122.78C285.209 122.9 285.395 123.133 285.502 123.48C285.609 123.827 285.662 124.333 285.662 125V127.4L288.162 123.9C288.455 123.5 288.795 123.187 289.182 122.96C289.582 122.72 290.109 122.6 290.762 122.6H291.262V123.1C290.955 123.1 290.642 123.167 290.322 123.3C290.002 123.42 289.715 123.653 289.462 124L287.262 127.1L289.562 130C289.909 130.453 290.262 130.82 290.622 131.1C290.995 131.38 291.409 131.553 291.862 131.62V132C291.755 132.053 291.609 132.1 291.422 132.14C291.249 132.18 291.062 132.2 290.862 132.2ZM293.743 132V125C293.743 124.4 293.657 123.92 293.483 123.56C293.323 123.187 292.943 123 292.343 123H292.043V122.6H293.743C294.21 122.6 294.57 122.66 294.823 122.78C295.09 122.9 295.277 123.133 295.383 123.48C295.49 123.827 295.543 124.333 295.543 125V130.2L299.743 122.6H301.543V132H299.743V124.4L295.543 132H293.743ZM8.3 151.2C7.31333 151.2 6.49333 150.98 5.84 150.54C5.18667 150.1 4.7 149.507 4.38 148.76C4.06 148.013 3.9 147.193 3.9 146.3C3.9 145.393 4.06 144.573 4.38 143.84C4.7 143.093 5.18667 142.5 5.84 142.06C6.49333 141.62 7.31333 141.4 8.3 141.4C9.00667 141.4 9.6 141.453 10.08 141.56C10.5733 141.667 10.9467 141.847 11.2 142.1C11.4533 142.353 11.6 142.667 11.64 143.04C11.68 143.4 11.7 143.953 11.7 144.7H11.3C11.2467 143.847 10.9733 143.22 10.48 142.82C10 142.407 9.40667 142.2 8.7 142.2C8.03333 142.2 7.48667 142.387 7.06 142.76C6.63333 143.12 6.31333 143.607 6.1 144.22C5.9 144.833 5.8 145.527 5.8 146.3C5.8 147.06 5.9 147.753 6.1 148.38C6.31333 148.993 6.63333 149.487 7.06 149.86C7.48667 150.22 8.03333 150.4 8.7 150.4C9.40667 150.4 9.98 150.26 10.42 149.98C10.86 149.7 11.2533 149.307 11.6 148.8L12 149.1C11.7067 149.607 11.3733 150.013 11 150.32C10.6267 150.627 10.2133 150.853 9.76 151C9.32 151.133 8.83333 151.2 8.3 151.2ZM14.388 151V144C14.388 143.4 14.3013 142.92 14.128 142.56C13.968 142.187 13.588 142 12.988 142H12.688V141.6H14.388C14.8546 141.6 15.2146 141.66 15.468 141.78C15.7346 141.9 15.9213 142.133 16.028 142.48C16.1346 142.827 16.188 143.333 16.188 144V149.2L20.388 141.6H22.188V151H20.388V143.4L16.188 151H14.388ZM28.925 151.2C27.9383 151.2 27.1183 150.98 26.465 150.54C25.8117 150.1 25.325 149.507 25.005 148.76C24.685 148.013 24.525 147.193 24.525 146.3C24.525 145.393 24.685 144.573 25.005 143.84C25.325 143.093 25.8117 142.5 26.465 142.06C27.1183 141.62 27.9383 141.4 28.925 141.4C29.6317 141.4 30.225 141.453 30.705 141.56C31.1983 141.667 31.5717 141.847 31.825 142.1C32.0783 142.353 32.225 142.667 32.265 143.04C32.305 143.4 32.325 143.953 32.325 144.7H31.925C31.8717 143.847 31.5983 143.22 31.105 142.82C30.625 142.407 30.0317 142.2 29.325 142.2C28.6583 142.2 28.1117 142.387 27.685 142.76C27.2583 143.12 26.9383 143.607 26.725 144.22C26.525 144.833 26.425 145.527 26.425 146.3C26.425 147.06 26.525 147.753 26.725 148.38C26.9383 148.993 27.2583 149.487 27.685 149.86C28.1117 150.22 28.6583 150.4 29.325 150.4C30.0317 150.4 30.605 150.26 31.045 149.98C31.485 149.7 31.8783 149.307 32.225 148.8L32.625 149.1C32.3317 149.607 31.9983 150.013 31.625 150.32C31.2517 150.627 30.8383 150.853 30.385 151C29.945 151.133 29.4583 151.2 28.925 151.2ZM37.373 151V142.4H36.373C35.773 142.4 35.273 142.573 34.873 142.92C34.473 143.253 34.273 143.747 34.273 144.4H33.873V143.2C33.873 142.8 33.973 142.433 34.173 142.1C34.373 141.767 34.773 141.6 35.373 141.6H42.473V142.4H39.173V151H37.373ZM47.5922 151.2C46.6589 151.2 45.8789 150.98 45.2522 150.54C44.6389 150.1 44.1722 149.507 43.8522 148.76C43.5455 148.013 43.3922 147.193 43.3922 146.3C43.3922 145.393 43.5522 144.573 43.8722 143.84C44.1922 143.093 44.6522 142.5 45.2522 142.06C45.8522 141.62 46.5655 141.4 47.3922 141.4C48.2989 141.4 49.0455 141.573 49.6322 141.92C50.2322 142.253 50.6722 142.747 50.9522 143.4C51.2455 144.053 51.3922 144.853 51.3922 145.8L51.3522 146.6H45.2922C45.2922 147.693 45.5255 148.6 45.9922 149.32C46.4722 150.04 47.1389 150.4 47.9922 150.4C48.6455 150.4 49.1855 150.26 49.6122 149.98C50.0522 149.7 50.4455 149.307 50.7922 148.8L51.1922 149.1C50.8989 149.607 50.5655 150.013 50.1922 150.32C49.8322 150.627 49.4322 150.853 48.9922 151C48.5655 151.133 48.0989 151.2 47.5922 151.2ZM45.2922 145.8H49.4922C49.4922 144.64 49.3189 143.753 48.9722 143.14C48.6255 142.513 48.0989 142.2 47.3922 142.2C46.9922 142.2 46.6322 142.36 46.3122 142.68C46.0055 142.987 45.7589 143.413 45.5722 143.96C45.3855 144.493 45.2922 145.107 45.2922 145.8ZM64.8978 151.4C63.6445 151.4 62.7778 151.093 62.2978 150.48C61.8311 149.867 61.5978 149.04 61.5978 148V143.7L58.2978 151H57.8978L54.4978 143.5V151H53.6978V141.6H55.5978L58.5978 148.2L61.5978 141.6H63.3978V148C63.3978 148.493 63.4578 148.973 63.5778 149.44C63.7111 149.893 63.8911 150.267 64.1178 150.56C64.3445 150.853 64.6045 151 64.8978 151V151.4ZM66.9661 151V144C66.9661 143.4 66.8794 142.92 66.7061 142.56C66.5461 142.187 66.1661 142 65.5661 142H65.2661V141.6H66.9661C67.4328 141.6 67.7928 141.66 68.0461 141.78C68.3128 141.9 68.4994 142.133 68.6061 142.48C68.7128 142.827 68.7661 143.333 68.7661 144V145.4H70.2661C70.9728 145.4 71.6194 145.487 72.2061 145.66C72.7928 145.82 73.2661 146.1 73.6261 146.5C73.9861 146.9 74.1661 147.467 74.1661 148.2C74.1661 148.92 73.9861 149.487 73.6261 149.9C73.2661 150.3 72.7928 150.587 72.2061 150.76C71.6194 150.92 70.9728 151 70.2661 151H66.9661ZM70.0661 150.3C70.7194 150.3 71.2461 150.14 71.6461 149.82C72.0594 149.5 72.2661 148.96 72.2661 148.2C72.2661 147.44 72.0594 146.9 71.6461 146.58C71.2461 146.26 70.7194 146.1 70.0661 146.1C69.8661 146.1 69.6328 146.12 69.3661 146.16C69.1128 146.2 68.9128 146.247 68.7661 146.3V150.1C68.9128 150.153 69.1128 150.2 69.3661 150.24C69.6328 150.28 69.8661 150.3 70.0661 150.3ZM77.2661 151C76.7994 151 76.4328 150.94 76.1661 150.82C75.9128 150.7 75.7328 150.467 75.6261 150.12C75.5194 149.773 75.4661 149.267 75.4661 148.6V141.6H77.2661V148.6C77.2661 149.2 77.3461 149.687 77.5061 150.06C77.6794 150.42 78.0661 150.6 78.6661 150.6H78.9661V151H77.2661ZM84.3356 154.1V150.9C84.3356 150.7 84.4023 150.533 84.5356 150.4C84.669 150.267 84.8356 150.2 85.0356 150.2H85.6356C85.9423 149.533 86.1823 148.84 86.3556 148.12C86.529 147.387 86.649 146.667 86.7156 145.96C86.7956 145.253 86.8356 144.6 86.8356 144C86.8356 143.4 86.749 142.92 86.5756 142.56C86.4156 142.187 86.0356 142 85.4356 142V141.6H93.4356V150.2H94.2356C94.4356 150.2 94.6023 150.267 94.7356 150.4C94.869 150.533 94.9356 150.7 94.9356 150.9V154.1H94.1356C94.069 153.353 93.949 152.753 93.7756 152.3C93.6156 151.847 93.3956 151.513 93.1156 151.3C92.8356 151.1 92.4756 151 92.0356 151H87.2356C86.809 151 86.449 151.1 86.1556 151.3C85.8756 151.513 85.6556 151.847 85.4956 152.3C85.3356 152.753 85.2156 153.353 85.1356 154.1H84.3356ZM87.0356 150.2H91.6356V142.4H88.1356C88.1356 144.107 88.049 145.587 87.8756 146.84C87.7156 148.08 87.4356 149.2 87.0356 150.2ZM100.605 151.2C99.6714 151.2 98.878 150.98 98.2247 150.54C97.5714 150.1 97.0714 149.507 96.7247 148.76C96.378 148.013 96.2047 147.193 96.2047 146.3C96.2047 145.393 96.378 144.573 96.7247 143.84C97.0714 143.093 97.5714 142.5 98.2247 142.06C98.878 141.62 99.6714 141.4 100.605 141.4C101.538 141.4 102.331 141.62 102.985 142.06C103.638 142.5 104.138 143.093 104.485 143.84C104.831 144.573 105.005 145.393 105.005 146.3C105.005 147.193 104.831 148.013 104.485 148.76C104.138 149.507 103.638 150.1 102.985 150.54C102.331 150.98 101.538 151.2 100.605 151.2ZM100.605 150.4C101.111 150.4 101.551 150.22 101.925 149.86C102.298 149.487 102.585 148.993 102.785 148.38C102.998 147.753 103.105 147.06 103.105 146.3C103.105 145.527 102.998 144.833 102.785 144.22C102.585 143.607 102.298 143.12 101.925 142.76C101.551 142.387 101.111 142.2 100.605 142.2C100.111 142.2 99.6714 142.387 99.2847 142.76C98.9114 143.12 98.618 143.607 98.4047 144.22C98.2047 144.833 98.1047 145.527 98.1047 146.3C98.1047 147.06 98.2047 147.753 98.4047 148.38C98.618 148.993 98.9114 149.487 99.2847 149.86C99.6714 150.22 100.111 150.4 100.605 150.4ZM106.367 151.2C106.167 151.2 105.974 151.18 105.787 151.14C105.614 151.1 105.474 151.053 105.367 151V150.62C105.82 150.553 106.227 150.393 106.587 150.14C106.96 149.873 107.32 149.493 107.667 149L109.767 146.1L107.867 143C107.68 142.693 107.414 142.467 107.067 142.32C106.734 142.173 106.367 142.1 105.967 142.1V141.6H106.467C107.12 141.6 107.654 141.713 108.067 141.94C108.48 142.167 108.814 142.487 109.067 142.9L111.167 146.4V141.6H112.967V146.4L115.067 142.9C115.32 142.487 115.654 142.167 116.067 141.94C116.48 141.713 117.014 141.6 117.667 141.6H118.167V142.1C117.767 142.1 117.394 142.173 117.047 142.32C116.714 142.467 116.454 142.693 116.267 143L114.367 146.1L116.467 149C116.814 149.493 117.167 149.873 117.527 150.14C117.9 150.393 118.314 150.553 118.767 150.62V151C118.66 151.053 118.514 151.1 118.327 151.14C118.154 151.18 117.967 151.2 117.767 151.2C117.26 151.2 116.78 151.073 116.327 150.82C115.887 150.567 115.467 150.16 115.067 149.6L112.967 146.7V151H111.167V146.7L109.067 149.6C108.667 150.16 108.24 150.567 107.787 150.82C107.347 151.073 106.874 151.2 106.367 151.2ZM120.638 151V144C120.638 143.4 120.551 142.92 120.378 142.56C120.218 142.187 119.838 142 119.238 142H118.938V141.6H120.638C121.105 141.6 121.465 141.66 121.718 141.78C121.985 141.9 122.171 142.133 122.278 142.48C122.385 142.827 122.438 143.333 122.438 144V149.2L126.638 141.6H128.438V151H126.638V143.4L122.438 151H120.638ZM142.515 151.4C141.262 151.4 140.395 151.093 139.915 150.48C139.448 149.867 139.215 149.04 139.215 148V143.7L135.915 151H135.515L132.115 143.5V151H131.315V141.6H133.215L136.215 148.2L139.215 141.6H141.015V148C141.015 148.493 141.075 148.973 141.195 149.44C141.328 149.893 141.508 150.267 141.735 150.56C141.962 150.853 142.222 151 142.515 151V151.4ZM146.543 151.2C146.263 151.2 145.957 151.153 145.623 151.06C145.303 150.98 144.99 150.833 144.683 150.62C144.377 150.407 144.123 150.12 143.923 149.76C143.737 149.4 143.643 148.947 143.643 148.4C143.643 147.667 143.877 147.1 144.343 146.7C144.823 146.3 145.45 146.02 146.223 145.86C147.01 145.687 147.85 145.6 148.743 145.6H149.343C149.343 144.667 149.25 143.96 149.063 143.48C148.877 142.987 148.623 142.653 148.303 142.48C147.997 142.293 147.643 142.2 147.243 142.2C146.683 142.2 146.21 142.32 145.823 142.56C145.45 142.8 145.19 143.247 145.043 143.9H144.143C144.143 143.553 144.163 143.233 144.203 142.94C144.243 142.633 144.39 142.353 144.643 142.1C144.897 141.847 145.31 141.667 145.883 141.56C146.457 141.453 147.043 141.4 147.643 141.4C148.097 141.4 148.53 141.453 148.943 141.56C149.37 141.667 149.743 141.867 150.063 142.16C150.397 142.44 150.657 142.86 150.843 143.42C151.043 143.967 151.143 144.693 151.143 145.6V151H150.143L149.443 150.1H149.343C149.143 150.353 148.817 150.6 148.363 150.84C147.91 151.08 147.303 151.2 146.543 151.2ZM147.443 150.3C147.937 150.3 148.323 150.18 148.603 149.94C148.897 149.687 149.143 149.407 149.343 149.1V146.4H148.743C147.743 146.4 146.957 146.587 146.383 146.96C145.823 147.32 145.543 147.8 145.543 148.4C145.543 149.053 145.737 149.533 146.123 149.84C146.51 150.147 146.95 150.3 147.443 150.3ZM153.912 154.1L153.712 153.8C154.059 153.573 154.346 153.327 154.572 153.06C154.812 152.793 154.992 152.5 155.112 152.18C155.246 151.86 155.312 151.5 155.312 151.1C155.259 151.14 155.172 151.18 155.052 151.22C154.932 151.273 154.819 151.3 154.712 151.3C154.406 151.3 154.146 151.193 153.932 150.98C153.719 150.767 153.612 150.507 153.612 150.2C153.612 149.853 153.726 149.567 153.952 149.34C154.179 149.113 154.466 149 154.812 149C155.212 149 155.526 149.12 155.752 149.36C155.992 149.6 156.112 149.947 156.112 150.4C156.112 151.253 155.919 151.98 155.532 152.58C155.159 153.193 154.619 153.7 153.912 154.1ZM167.538 151.2C166.605 151.2 165.812 150.98 165.158 150.54C164.505 150.1 164.005 149.507 163.658 148.76C163.312 148.013 163.138 147.193 163.138 146.3C163.138 145.393 163.312 144.573 163.658 143.84C164.005 143.093 164.505 142.5 165.158 142.06C165.812 141.62 166.605 141.4 167.538 141.4C168.472 141.4 169.265 141.62 169.918 142.06C170.572 142.5 171.072 143.093 171.418 143.84C171.765 144.573 171.938 145.393 171.938 146.3C171.938 147.193 171.765 148.013 171.418 148.76C171.072 149.507 170.572 150.1 169.918 150.54C169.265 150.98 168.472 151.2 167.538 151.2ZM167.538 150.4C168.045 150.4 168.485 150.22 168.858 149.86C169.232 149.487 169.518 148.993 169.718 148.38C169.932 147.753 170.038 147.06 170.038 146.3C170.038 145.527 169.932 144.833 169.718 144.22C169.518 143.607 169.232 143.12 168.858 142.76C168.485 142.387 168.045 142.2 167.538 142.2C167.045 142.2 166.605 142.387 166.218 142.76C165.845 143.12 165.552 143.607 165.338 144.22C165.138 144.833 165.038 145.527 165.038 146.3C165.038 147.06 165.138 147.753 165.338 148.38C165.552 148.993 165.845 149.487 166.218 149.86C166.605 150.22 167.045 150.4 167.538 150.4ZM178.244 151.2C177.444 151.2 176.724 151.04 176.084 150.72C175.457 150.387 174.957 149.867 174.584 149.16C174.224 148.453 174.044 147.533 174.044 146.4V145.6C174.044 144.373 174.097 143.36 174.204 142.56C174.31 141.76 174.477 141.12 174.704 140.64C174.93 140.16 175.23 139.8 175.604 139.56C175.977 139.307 176.424 139.12 176.944 139L179.944 138.3C180.397 138.193 180.744 138.08 180.984 137.96C181.237 137.84 181.39 137.653 181.444 137.4H181.844V138.7C181.844 138.953 181.79 139.153 181.684 139.3C181.59 139.447 181.444 139.547 181.244 139.6L177.744 140.4C177.17 140.547 176.69 140.767 176.304 141.06C175.917 141.353 175.61 141.807 175.384 142.42C175.17 143.033 175.024 143.893 174.944 145H175.044C175.297 144 175.71 143.287 176.284 142.86C176.857 142.42 177.644 142.2 178.644 142.2C179.31 142.2 179.93 142.36 180.504 142.68C181.09 143 181.557 143.493 181.904 144.16C182.264 144.813 182.444 145.66 182.444 146.7C182.444 147.727 182.257 148.573 181.884 149.24C181.524 149.907 181.024 150.4 180.384 150.72C179.757 151.04 179.044 151.2 178.244 151.2ZM178.244 150.4C178.644 150.4 179.017 150.293 179.364 150.08C179.71 149.867 179.99 149.493 180.204 148.96C180.43 148.413 180.544 147.66 180.544 146.7C180.544 145.767 180.43 145.033 180.204 144.5C179.99 143.953 179.71 143.567 179.364 143.34C179.017 143.113 178.644 143 178.244 143C177.844 143 177.47 143.113 177.124 143.34C176.777 143.567 176.49 143.953 176.264 144.5C176.05 145.033 175.944 145.767 175.944 146.7C175.944 147.66 176.05 148.413 176.264 148.96C176.49 149.493 176.777 149.867 177.124 150.08C177.47 150.293 177.844 150.4 178.244 150.4ZM188.51 151.2C187.577 151.2 186.797 150.98 186.17 150.54C185.557 150.1 185.09 149.507 184.77 148.76C184.463 148.013 184.31 147.193 184.31 146.3C184.31 145.393 184.47 144.573 184.79 143.84C185.11 143.093 185.57 142.5 186.17 142.06C186.77 141.62 187.483 141.4 188.31 141.4C189.217 141.4 189.963 141.573 190.55 141.92C191.15 142.253 191.59 142.747 191.87 143.4C192.163 144.053 192.31 144.853 192.31 145.8L192.27 146.6H186.21C186.21 147.693 186.443 148.6 186.91 149.32C187.39 150.04 188.057 150.4 188.91 150.4C189.563 150.4 190.103 150.26 190.53 149.98C190.97 149.7 191.363 149.307 191.71 148.8L192.11 149.1C191.817 149.607 191.483 150.013 191.11 150.32C190.75 150.627 190.35 150.853 189.91 151C189.483 151.133 189.017 151.2 188.51 151.2ZM186.21 145.8H190.41C190.41 144.64 190.237 143.753 189.89 143.14C189.543 142.513 189.017 142.2 188.31 142.2C187.91 142.2 187.55 142.36 187.23 142.68C186.923 142.987 186.677 143.413 186.49 143.96C186.303 144.493 186.21 145.107 186.21 145.8ZM198.476 151.2C197.489 151.2 196.669 150.98 196.016 150.54C195.362 150.1 194.876 149.507 194.556 148.76C194.236 148.013 194.076 147.193 194.076 146.3C194.076 145.393 194.236 144.573 194.556 143.84C194.876 143.093 195.362 142.5 196.016 142.06C196.669 141.62 197.489 141.4 198.476 141.4C199.182 141.4 199.776 141.453 200.256 141.56C200.749 141.667 201.122 141.847 201.376 142.1C201.629 142.353 201.776 142.667 201.816 143.04C201.856 143.4 201.876 143.953 201.876 144.7H201.476C201.422 143.847 201.149 143.22 200.656 142.82C200.176 142.407 199.582 142.2 198.876 142.2C198.209 142.2 197.662 142.387 197.236 142.76C196.809 143.12 196.489 143.607 196.276 144.22C196.076 144.833 195.976 145.527 195.976 146.3C195.976 147.06 196.076 147.753 196.276 148.38C196.489 148.993 196.809 149.487 197.236 149.86C197.662 150.22 198.209 150.4 198.876 150.4C199.582 150.4 200.156 150.26 200.596 149.98C201.036 149.7 201.429 149.307 201.776 148.8L202.176 149.1C201.882 149.607 201.549 150.013 201.176 150.32C200.802 150.627 200.389 150.853 199.936 151C199.496 151.133 199.009 151.2 198.476 151.2ZM204.484 151V144C204.484 143.4 204.397 142.92 204.224 142.56C204.064 142.187 203.684 142 203.084 142H202.884V141.6H212.084V151H210.284V142.4H206.284V151H204.484ZM218.627 151.2C217.694 151.2 216.914 150.98 216.287 150.54C215.674 150.1 215.207 149.507 214.887 148.76C214.581 148.013 214.427 147.193 214.427 146.3C214.427 145.393 214.587 144.573 214.907 143.84C215.227 143.093 215.687 142.5 216.287 142.06C216.887 141.62 217.601 141.4 218.427 141.4C219.334 141.4 220.081 141.573 220.667 141.92C221.267 142.253 221.707 142.747 221.987 143.4C222.281 144.053 222.427 144.853 222.427 145.8L222.387 146.6H216.327C216.327 147.693 216.561 148.6 217.027 149.32C217.507 150.04 218.174 150.4 219.027 150.4C219.681 150.4 220.221 150.26 220.647 149.98C221.087 149.7 221.481 149.307 221.827 148.8L222.227 149.1C221.934 149.607 221.601 150.013 221.227 150.32C220.867 150.627 220.467 150.853 220.027 151C219.601 151.133 219.134 151.2 218.627 151.2ZM216.327 145.8H220.527C220.527 144.64 220.354 143.753 220.007 143.14C219.661 142.513 219.134 142.2 218.427 142.2C218.027 142.2 217.667 142.36 217.347 142.68C217.041 142.987 216.794 143.413 216.607 143.96C216.421 144.493 216.327 145.107 216.327 145.8ZM230.615 151V147.14C230.415 147.22 230.142 147.3 229.795 147.38C229.462 147.46 229.069 147.5 228.615 147.5C228.055 147.5 227.495 147.427 226.935 147.28C226.389 147.133 225.929 146.853 225.555 146.44C225.195 146.013 225.015 145.4 225.015 144.6V144C225.015 143.4 224.929 142.92 224.755 142.56C224.595 142.187 224.215 142 223.615 142H223.415V141.6H225.115C225.582 141.6 225.942 141.66 226.195 141.78C226.462 141.9 226.649 142.133 226.755 142.48C226.862 142.827 226.915 143.333 226.915 144V144.8C226.915 145.493 227.102 145.987 227.475 146.28C227.849 146.56 228.262 146.7 228.715 146.7C229.115 146.7 229.482 146.66 229.815 146.58C230.149 146.5 230.415 146.42 230.615 146.34V141.6H232.415V151H230.615ZM235.579 151V144C235.579 143.4 235.493 142.92 235.319 142.56C235.159 142.187 234.779 142 234.179 142H233.879V141.6H235.579C236.046 141.6 236.406 141.66 236.659 141.78C236.926 141.9 237.113 142.133 237.219 142.48C237.326 142.827 237.379 143.333 237.379 144V149.2L241.579 141.6H243.379V151H241.579V143.4L237.379 151H235.579ZM246.456 151V144C246.456 143.4 246.37 142.92 246.196 142.56C246.036 142.187 245.656 142 245.056 142H244.856V141.6H249.756C250.423 141.6 251.043 141.673 251.616 141.82C252.203 141.967 252.67 142.213 253.016 142.56C253.376 142.907 253.556 143.387 253.556 144C253.556 144.56 253.396 145.013 253.076 145.36C252.77 145.707 252.263 145.953 251.556 146.1C252.316 146.247 252.903 146.52 253.316 146.92C253.743 147.307 253.956 147.8 253.956 148.4C253.956 149.067 253.77 149.593 253.396 149.98C253.036 150.353 252.536 150.62 251.896 150.78C251.27 150.927 250.556 151 249.756 151H246.456ZM249.556 150.3C250.356 150.3 250.97 150.147 251.396 149.84C251.836 149.533 252.056 149.053 252.056 148.4C252.056 147.773 251.83 147.3 251.376 146.98C250.936 146.66 250.263 146.5 249.356 146.5H248.256V150.1C248.403 150.153 248.603 150.2 248.856 150.24C249.123 150.28 249.356 150.3 249.556 150.3ZM248.256 145.7H249.356C250.063 145.7 250.623 145.56 251.036 145.28C251.45 144.987 251.656 144.56 251.656 144C251.656 143.44 251.456 143.02 251.056 142.74C250.656 142.447 250.156 142.3 249.556 142.3C249.356 142.3 249.123 142.32 248.856 142.36C248.603 142.4 248.403 142.447 248.256 142.5V145.7ZM258.516 151.2C258.236 151.2 257.929 151.153 257.596 151.06C257.276 150.98 256.963 150.833 256.656 150.62C256.349 150.407 256.096 150.12 255.896 149.76C255.709 149.4 255.616 148.947 255.616 148.4C255.616 147.667 255.849 147.1 256.316 146.7C256.796 146.3 257.423 146.02 258.196 145.86C258.983 145.687 259.823 145.6 260.716 145.6H261.316C261.316 144.667 261.223 143.96 261.036 143.48C260.849 142.987 260.596 142.653 260.276 142.48C259.969 142.293 259.616 142.2 259.216 142.2C258.656 142.2 258.183 142.32 257.796 142.56C257.423 142.8 257.163 143.247 257.016 143.9H256.116C256.116 143.553 256.136 143.233 256.176 142.94C256.216 142.633 256.363 142.353 256.616 142.1C256.869 141.847 257.283 141.667 257.856 141.56C258.429 141.453 259.016 141.4 259.616 141.4C260.069 141.4 260.503 141.453 260.916 141.56C261.343 141.667 261.716 141.867 262.036 142.16C262.369 142.44 262.629 142.86 262.816 143.42C263.016 143.967 263.116 144.693 263.116 145.6V151H262.116L261.416 150.1H261.316C261.116 150.353 260.789 150.6 260.336 150.84C259.883 151.08 259.276 151.2 258.516 151.2ZM259.416 150.3C259.909 150.3 260.296 150.18 260.576 149.94C260.869 149.687 261.116 149.407 261.316 149.1V146.4H260.716C259.716 146.4 258.929 146.587 258.356 146.96C257.796 147.32 257.516 147.8 257.516 148.4C257.516 149.053 257.709 149.533 258.096 149.84C258.483 150.147 258.923 150.3 259.416 150.3ZM269.565 151.2C268.632 151.2 267.852 150.98 267.225 150.54C266.612 150.1 266.145 149.507 265.825 148.76C265.518 148.013 265.365 147.193 265.365 146.3C265.365 145.393 265.525 144.573 265.845 143.84C266.165 143.093 266.625 142.5 267.225 142.06C267.825 141.62 268.538 141.4 269.365 141.4C270.272 141.4 271.018 141.573 271.605 141.92C272.205 142.253 272.645 142.747 272.925 143.4C273.218 144.053 273.365 144.853 273.365 145.8L273.325 146.6H267.265C267.265 147.693 267.498 148.6 267.965 149.32C268.445 150.04 269.112 150.4 269.965 150.4C270.618 150.4 271.158 150.26 271.585 149.98C272.025 149.7 272.418 149.307 272.765 148.8L273.165 149.1C272.872 149.607 272.538 150.013 272.165 150.32C271.805 150.627 271.405 150.853 270.965 151C270.538 151.133 270.072 151.2 269.565 151.2ZM267.265 145.8H271.465C271.465 144.64 271.292 143.753 270.945 143.14C270.598 142.513 270.072 142.2 269.365 142.2C268.965 142.2 268.605 142.36 268.285 142.68C267.978 142.987 267.732 143.413 267.545 143.96C267.358 144.493 267.265 145.107 267.265 145.8ZM286.87 151.4C285.617 151.4 284.75 151.093 284.27 150.48C283.804 149.867 283.57 149.04 283.57 148V143.7L280.27 151H279.87L276.47 143.5V151H275.67V141.6H277.57L280.57 148.2L283.57 141.6H285.37V148C285.37 148.493 285.43 148.973 285.55 149.44C285.684 149.893 285.864 150.267 286.09 150.56C286.317 150.853 286.577 151 286.87 151V151.4ZM8.3 170.2C7.31333 170.2 6.49333 169.98 5.84 169.54C5.18667 169.1 4.7 168.507 4.38 167.76C4.06 167.013 3.9 166.193 3.9 165.3C3.9 164.393 4.06 163.573 4.38 162.84C4.7 162.093 5.18667 161.5 5.84 161.06C6.49333 160.62 7.31333 160.4 8.3 160.4C9.00667 160.4 9.6 160.453 10.08 160.56C10.5733 160.667 10.9467 160.847 11.2 161.1C11.4533 161.353 11.6 161.667 11.64 162.04C11.68 162.4 11.7 162.953 11.7 163.7H11.3C11.2467 162.847 10.9733 162.22 10.48 161.82C10 161.407 9.40667 161.2 8.7 161.2C8.03333 161.2 7.48667 161.387 7.06 161.76C6.63333 162.12 6.31333 162.607 6.1 163.22C5.9 163.833 5.8 164.527 5.8 165.3C5.8 166.06 5.9 166.753 6.1 167.38C6.31333 167.993 6.63333 168.487 7.06 168.86C7.48667 169.22 8.03333 169.4 8.7 169.4C9.40667 169.4 9.98 169.26 10.42 168.98C10.86 168.7 11.2533 168.307 11.6 167.8L12 168.1C11.7067 168.607 11.3733 169.013 11 169.32C10.6267 169.627 10.2133 169.853 9.76 170C9.32 170.133 8.83333 170.2 8.3 170.2ZM16.748 170V161.4H15.748C15.148 161.4 14.648 161.573 14.248 161.92C13.848 162.253 13.648 162.747 13.648 163.4H13.248V162.2C13.248 161.8 13.348 161.433 13.548 161.1C13.748 160.767 14.148 160.6 14.748 160.6H21.848V161.4H18.548V170H16.748ZM23.8806 173.8V163C23.8806 162.4 23.794 161.92 23.6206 161.56C23.4606 161.187 23.0806 161 22.4806 161H22.0806V160.6H23.8806C24.3873 160.6 24.7673 160.673 25.0206 160.82C25.2873 160.967 25.474 161.193 25.5806 161.5C25.8473 161.233 26.2073 160.987 26.6606 160.76C27.114 160.52 27.6873 160.4 28.3806 160.4C29.1806 160.4 29.8473 160.62 30.3806 161.06C30.914 161.5 31.314 162.093 31.5806 162.84C31.8473 163.573 31.9806 164.393 31.9806 165.3C31.9806 166.193 31.8406 167.013 31.5606 167.76C31.294 168.507 30.8806 169.1 30.3206 169.54C29.7606 169.98 29.0473 170.2 28.1806 170.2C27.6206 170.2 27.1406 170.133 26.7406 170C26.3406 169.88 25.9873 169.747 25.6806 169.6V173.8H23.8806ZM27.5806 169.4C28.1806 169.4 28.6606 169.22 29.0206 168.86C29.394 168.487 29.6606 167.993 29.8206 167.38C29.994 166.753 30.0806 166.06 30.0806 165.3C30.0806 164.527 30.0006 163.833 29.8406 163.22C29.6806 162.607 29.4273 162.12 29.0806 161.76C28.7473 161.387 28.314 161.2 27.7806 161.2C27.234 161.2 26.794 161.327 26.4606 161.58C26.1273 161.82 25.8673 162.093 25.6806 162.4V168.8C25.9873 168.947 26.3006 169.087 26.6206 169.22C26.954 169.34 27.274 169.4 27.5806 169.4ZM34.807 174V173.4C35.4204 173.4 35.9404 173.26 36.367 172.98C36.807 172.713 37.187 172.153 37.507 171.3L37.907 170.2L34.707 162.4C34.507 161.893 34.2137 161.513 33.827 161.26C33.4537 161.007 33.0137 160.853 32.507 160.8V160.4H34.207C34.807 160.4 35.3004 160.54 35.687 160.82C36.087 161.1 36.3937 161.493 36.607 162L38.887 167.54L41.407 160.6H42.407L38.507 171.3C38.2404 172.033 37.9537 172.593 37.647 172.98C37.3537 173.367 37.0204 173.633 36.647 173.78C36.287 173.927 35.8737 174 35.407 174H34.807ZM51.7605 170.2C51.2538 170.2 50.7538 170.073 50.2605 169.82C49.7805 169.567 49.3138 169.16 48.8605 168.6L46.5605 165.7V170H44.7605V163C44.7605 162.4 44.6738 161.92 44.5005 161.56C44.3405 161.187 43.9605 161 43.3605 161H42.9605V160.6H44.7605C45.2271 160.6 45.5871 160.66 45.8405 160.78C46.1071 160.9 46.2938 161.133 46.4005 161.48C46.5071 161.827 46.5605 162.333 46.5605 163V165.4L49.0605 161.9C49.3538 161.5 49.6938 161.187 50.0805 160.96C50.4805 160.72 51.0071 160.6 51.6605 160.6H52.1605V161.1C51.8538 161.1 51.5405 161.167 51.2205 161.3C50.9005 161.42 50.6138 161.653 50.3605 162L48.1605 165.1L50.4605 168C50.8071 168.453 51.1605 168.82 51.5205 169.1C51.8938 169.38 52.3071 169.553 52.7605 169.62V170C52.6538 170.053 52.5071 170.1 52.3205 170.14C52.1471 170.18 51.9605 170.2 51.7605 170.2ZM57.0019 170V161.4H56.0019C55.4019 161.4 54.9019 161.573 54.5019 161.92C54.1019 162.253 53.9019 162.747 53.9019 163.4H53.5019V162.2C53.5019 161.8 53.6019 161.433 53.8019 161.1C54.0019 160.767 54.4019 160.6 55.0019 160.6H62.1019V161.4H58.8019V170H57.0019ZM64.6898 174V173.4C65.3032 173.4 65.8232 173.26 66.2498 172.98C66.6898 172.713 67.0698 172.153 67.3898 171.3L67.7898 170.2L64.5898 162.4C64.3898 161.893 64.0965 161.513 63.7098 161.26C63.3365 161.007 62.8965 160.853 62.3898 160.8V160.4H64.0898C64.6898 160.4 65.1832 160.54 65.5698 160.82C65.9698 161.1 66.2765 161.493 66.4898 162L68.7698 167.54L71.2898 160.6H72.2898L68.3898 171.3C68.1232 172.033 67.8365 172.593 67.5298 172.98C67.2365 173.367 66.9032 173.633 66.5298 173.78C66.1698 173.927 65.7565 174 65.2898 174H64.6898ZM74.6033 173.8V163C74.6033 162.4 74.5166 161.92 74.3433 161.56C74.1833 161.187 73.8033 161 73.2033 161H72.8033V160.6H74.6033C75.1099 160.6 75.4899 160.673 75.7433 160.82C76.0099 160.967 76.1966 161.193 76.3033 161.5C76.5699 161.233 76.9299 160.987 77.3833 160.76C77.8366 160.52 78.4099 160.4 79.1033 160.4C79.9033 160.4 80.5699 160.62 81.1033 161.06C81.6366 161.5 82.0366 162.093 82.3033 162.84C82.5699 163.573 82.7033 164.393 82.7033 165.3C82.7033 166.193 82.5633 167.013 82.2833 167.76C82.0166 168.507 81.6033 169.1 81.0433 169.54C80.4833 169.98 79.7699 170.2 78.9033 170.2C78.3433 170.2 77.8633 170.133 77.4633 170C77.0633 169.88 76.7099 169.747 76.4033 169.6V173.8H74.6033ZM78.3033 169.4C78.9033 169.4 79.3833 169.22 79.7433 168.86C80.1166 168.487 80.3833 167.993 80.5433 167.38C80.7166 166.753 80.8033 166.06 80.8033 165.3C80.8033 164.527 80.7233 163.833 80.5633 163.22C80.4033 162.607 80.1499 162.12 79.8033 161.76C79.4699 161.387 79.0366 161.2 78.5033 161.2C77.9566 161.2 77.5166 161.327 77.1833 161.58C76.8499 161.82 76.5899 162.093 76.4033 162.4V168.8C76.7099 168.947 77.0233 169.087 77.3433 169.22C77.6766 169.34 77.9966 169.4 78.3033 169.4ZM85.345 170V163C85.345 162.4 85.2583 161.92 85.085 161.56C84.925 161.187 84.545 161 83.945 161H83.645V160.6H85.345C85.8117 160.6 86.1717 160.66 86.425 160.78C86.6917 160.9 86.8783 161.133 86.985 161.48C87.0917 161.827 87.145 162.333 87.145 163V168.2L91.345 160.6H93.145V170H91.345V162.4L87.145 170H85.345ZM96.322 173.8V163C96.322 162.4 96.2354 161.92 96.062 161.56C95.902 161.187 95.522 161 94.922 161H94.522V160.6H96.322C96.8287 160.6 97.2087 160.673 97.462 160.82C97.7287 160.967 97.9154 161.193 98.022 161.5C98.2887 161.233 98.6487 160.987 99.102 160.76C99.5554 160.52 100.129 160.4 100.822 160.4C101.622 160.4 102.289 160.62 102.822 161.06C103.355 161.5 103.755 162.093 104.022 162.84C104.289 163.573 104.422 164.393 104.422 165.3C104.422 166.193 104.282 167.013 104.002 167.76C103.735 168.507 103.322 169.1 102.762 169.54C102.202 169.98 101.489 170.2 100.622 170.2C100.062 170.2 99.582 170.133 99.182 170C98.782 169.88 98.4287 169.747 98.122 169.6V173.8H96.322ZM100.022 169.4C100.622 169.4 101.102 169.22 101.462 168.86C101.835 168.487 102.102 167.993 102.262 167.38C102.435 166.753 102.522 166.06 102.522 165.3C102.522 164.527 102.442 163.833 102.282 163.22C102.122 162.607 101.869 162.12 101.522 161.76C101.189 161.387 100.755 161.2 100.222 161.2C99.6754 161.2 99.2354 161.327 98.902 161.58C98.5687 161.82 98.3087 162.093 98.122 162.4V168.8C98.4287 168.947 98.742 169.087 99.062 169.22C99.3954 169.34 99.7154 169.4 100.022 169.4ZM110.644 170.2C109.71 170.2 108.917 169.98 108.264 169.54C107.61 169.1 107.11 168.507 106.764 167.76C106.417 167.013 106.244 166.193 106.244 165.3C106.244 164.393 106.417 163.573 106.764 162.84C107.11 162.093 107.61 161.5 108.264 161.06C108.917 160.62 109.71 160.4 110.644 160.4C111.577 160.4 112.37 160.62 113.024 161.06C113.677 161.5 114.177 162.093 114.524 162.84C114.87 163.573 115.044 164.393 115.044 165.3C115.044 166.193 114.87 167.013 114.524 167.76C114.177 168.507 113.677 169.1 113.024 169.54C112.37 169.98 111.577 170.2 110.644 170.2ZM110.644 169.4C111.15 169.4 111.59 169.22 111.964 168.86C112.337 168.487 112.624 167.993 112.824 167.38C113.037 166.753 113.144 166.06 113.144 165.3C113.144 164.527 113.037 163.833 112.824 163.22C112.624 162.607 112.337 162.12 111.964 161.76C111.59 161.387 111.15 161.2 110.644 161.2C110.15 161.2 109.71 161.387 109.324 161.76C108.95 162.12 108.657 162.607 108.444 163.22C108.244 163.833 108.144 164.527 108.144 165.3C108.144 166.06 108.244 166.753 108.444 167.38C108.657 167.993 108.95 168.487 109.324 168.86C109.71 169.22 110.15 169.4 110.644 169.4ZM117.589 170V163C117.589 162.4 117.503 161.92 117.329 161.56C117.169 161.187 116.789 161 116.189 161H115.989V160.6H120.889C121.556 160.6 122.176 160.673 122.749 160.82C123.336 160.967 123.803 161.213 124.149 161.56C124.509 161.907 124.689 162.387 124.689 163C124.689 163.56 124.529 164.013 124.209 164.36C123.903 164.707 123.396 164.953 122.689 165.1C123.449 165.247 124.036 165.52 124.449 165.92C124.876 166.307 125.089 166.8 125.089 167.4C125.089 168.067 124.903 168.593 124.529 168.98C124.169 169.353 123.669 169.62 123.029 169.78C122.403 169.927 121.689 170 120.889 170H117.589ZM120.689 169.3C121.489 169.3 122.103 169.147 122.529 168.84C122.969 168.533 123.189 168.053 123.189 167.4C123.189 166.773 122.963 166.3 122.509 165.98C122.069 165.66 121.396 165.5 120.489 165.5H119.389V169.1C119.536 169.153 119.736 169.2 119.989 169.24C120.256 169.28 120.489 169.3 120.689 169.3ZM119.389 164.7H120.489C121.196 164.7 121.756 164.56 122.169 164.28C122.583 163.987 122.789 163.56 122.789 163C122.789 162.44 122.589 162.02 122.189 161.74C121.789 161.447 121.289 161.3 120.689 161.3C120.489 161.3 120.256 161.32 119.989 161.36C119.736 161.4 119.536 161.447 119.389 161.5V164.7ZM129.649 170.2C129.369 170.2 129.062 170.153 128.729 170.06C128.409 169.98 128.095 169.833 127.789 169.62C127.482 169.407 127.229 169.12 127.029 168.76C126.842 168.4 126.749 167.947 126.749 167.4C126.749 166.667 126.982 166.1 127.449 165.7C127.929 165.3 128.555 165.02 129.329 164.86C130.115 164.687 130.955 164.6 131.849 164.6H132.449C132.449 163.667 132.355 162.96 132.169 162.48C131.982 161.987 131.729 161.653 131.409 161.48C131.102 161.293 130.749 161.2 130.349 161.2C129.789 161.2 129.315 161.32 128.929 161.56C128.555 161.8 128.295 162.247 128.149 162.9H127.249C127.249 162.553 127.269 162.233 127.309 161.94C127.349 161.633 127.495 161.353 127.749 161.1C128.002 160.847 128.415 160.667 128.989 160.56C129.562 160.453 130.149 160.4 130.749 160.4C131.202 160.4 131.635 160.453 132.049 160.56C132.475 160.667 132.849 160.867 133.169 161.16C133.502 161.44 133.762 161.86 133.949 162.42C134.149 162.967 134.249 163.693 134.249 164.6V170H133.249L132.549 169.1H132.449C132.249 169.353 131.922 169.6 131.469 169.84C131.015 170.08 130.409 170.2 129.649 170.2ZM130.549 169.3C131.042 169.3 131.429 169.18 131.709 168.94C132.002 168.687 132.249 168.407 132.449 168.1V165.4H131.849C130.849 165.4 130.062 165.587 129.489 165.96C128.929 166.32 128.649 166.8 128.649 167.4C128.649 168.053 128.842 168.533 129.229 168.84C129.615 169.147 130.055 169.3 130.549 169.3ZM137.318 170V163C137.318 162.4 137.231 161.92 137.058 161.56C136.898 161.187 136.518 161 135.918 161H135.618V160.6H137.318C137.784 160.6 138.144 160.66 138.398 160.78C138.664 160.9 138.851 161.133 138.958 161.48C139.064 161.827 139.118 162.333 139.118 163V164.9H143.118V160.6H144.918V167.6C144.918 168.2 144.998 168.687 145.158 169.06C145.331 169.42 145.718 169.6 146.318 169.6H146.618V170H144.918C144.451 170 144.084 169.94 143.818 169.82C143.564 169.7 143.384 169.467 143.278 169.12C143.171 168.773 143.118 168.267 143.118 167.6V165.7H139.118V170H137.318ZM148.372 170V163C148.372 162.4 148.286 161.92 148.112 161.56C147.952 161.187 147.572 161 146.972 161H146.672V160.6H148.372C148.839 160.6 149.199 160.66 149.452 160.78C149.719 160.9 149.906 161.133 150.012 161.48C150.119 161.827 150.172 162.333 150.172 163V164.9H154.172V160.6H155.972V167.6C155.972 168.2 156.052 168.687 156.212 169.06C156.386 169.42 156.772 169.6 157.372 169.6H157.672V170H155.972C155.506 170 155.139 169.94 154.872 169.82C154.619 169.7 154.439 169.467 154.332 169.12C154.226 168.773 154.172 168.267 154.172 167.6V165.7H150.172V170H148.372ZM159.807 174V173.4C160.42 173.4 160.94 173.26 161.367 172.98C161.807 172.713 162.187 172.153 162.507 171.3L162.907 170.2L159.707 162.4C159.507 161.893 159.214 161.513 158.827 161.26C158.454 161.007 158.014 160.853 157.507 160.8V160.4H159.207C159.807 160.4 160.3 160.54 160.687 160.82C161.087 161.1 161.394 161.493 161.607 162L163.887 167.54L166.407 160.6H167.407L163.507 171.3C163.24 172.033 162.954 172.593 162.647 172.98C162.354 173.367 162.02 173.633 161.647 173.78C161.287 173.927 160.874 174 160.407 174H159.807ZM176.8 170.2C176.014 170.2 175.314 170.013 174.7 169.64C174.1 169.267 173.627 168.747 173.28 168.08C172.934 167.4 172.74 166.607 172.7 165.7H171.5V170H169.7V163C169.7 162.4 169.614 161.92 169.44 161.56C169.28 161.187 168.9 161 168.3 161H168V160.6H169.7C170.167 160.6 170.527 160.66 170.78 160.78C171.047 160.9 171.234 161.133 171.34 161.48C171.447 161.827 171.5 162.333 171.5 163V164.9H172.7C172.74 163.993 172.934 163.207 173.28 162.54C173.627 161.86 174.1 161.333 174.7 160.96C175.314 160.587 176.014 160.4 176.8 160.4C177.64 160.4 178.367 160.607 178.98 161.02C179.594 161.433 180.067 162.007 180.4 162.74C180.734 163.473 180.9 164.327 180.9 165.3C180.9 166.26 180.734 167.113 180.4 167.86C180.067 168.593 179.594 169.167 178.98 169.58C178.367 169.993 177.64 170.2 176.8 170.2ZM176.8 169.4C177.24 169.4 177.62 169.247 177.94 168.94C178.274 168.633 178.534 168.18 178.72 167.58C178.907 166.967 179 166.207 179 165.3C179 164.393 178.907 163.64 178.72 163.04C178.534 162.427 178.274 161.967 177.94 161.66C177.62 161.353 177.24 161.2 176.8 161.2C176.374 161.2 175.994 161.353 175.66 161.66C175.327 161.967 175.067 162.427 174.88 163.04C174.694 163.64 174.6 164.393 174.6 165.3C174.6 166.207 174.694 166.967 174.88 167.58C175.067 168.18 175.327 168.633 175.66 168.94C175.994 169.247 176.374 169.4 176.8 169.4ZM188.549 173.8V163C188.549 162.4 188.462 161.92 188.289 161.56C188.129 161.187 187.749 161 187.149 161H186.749V160.6H188.549C189.055 160.6 189.435 160.673 189.689 160.82C189.955 160.967 190.142 161.193 190.249 161.5C190.515 161.233 190.875 160.987 191.329 160.76C191.782 160.52 192.355 160.4 193.049 160.4C193.849 160.4 194.515 160.62 195.049 161.06C195.582 161.5 195.982 162.093 196.249 162.84C196.515 163.573 196.649 164.393 196.649 165.3C196.649 166.193 196.509 167.013 196.229 167.76C195.962 168.507 195.549 169.1 194.989 169.54C194.429 169.98 193.715 170.2 192.849 170.2C192.289 170.2 191.809 170.133 191.409 170C191.009 169.88 190.655 169.747 190.349 169.6V173.8H188.549ZM192.249 169.4C192.849 169.4 193.329 169.22 193.689 168.86C194.062 168.487 194.329 167.993 194.489 167.38C194.662 166.753 194.749 166.06 194.749 165.3C194.749 164.527 194.669 163.833 194.509 163.22C194.349 162.607 194.095 162.12 193.749 161.76C193.415 161.387 192.982 161.2 192.449 161.2C191.902 161.2 191.462 161.327 191.129 161.58C190.795 161.82 190.535 162.093 190.349 162.4V168.8C190.655 168.947 190.969 169.087 191.289 169.22C191.622 169.34 191.942 169.4 192.249 169.4ZM201.25 170.2C200.97 170.2 200.664 170.153 200.33 170.06C200.01 169.98 199.697 169.833 199.39 169.62C199.084 169.407 198.83 169.12 198.63 168.76C198.444 168.4 198.35 167.947 198.35 167.4C198.35 166.667 198.584 166.1 199.05 165.7C199.53 165.3 200.157 165.02 200.93 164.86C201.717 164.687 202.557 164.6 203.45 164.6H204.05C204.05 163.667 203.957 162.96 203.77 162.48C203.584 161.987 203.33 161.653 203.01 161.48C202.704 161.293 202.35 161.2 201.95 161.2C201.39 161.2 200.917 161.32 200.53 161.56C200.157 161.8 199.897 162.247 199.75 162.9H198.85C198.85 162.553 198.87 162.233 198.91 161.94C198.95 161.633 199.097 161.353 199.35 161.1C199.604 160.847 200.017 160.667 200.59 160.56C201.164 160.453 201.75 160.4 202.35 160.4C202.804 160.4 203.237 160.453 203.65 160.56C204.077 160.667 204.45 160.867 204.77 161.16C205.104 161.44 205.364 161.86 205.55 162.42C205.75 162.967 205.85 163.693 205.85 164.6V170H204.85L204.15 169.1H204.05C203.85 169.353 203.524 169.6 203.07 169.84C202.617 170.08 202.01 170.2 201.25 170.2ZM202.15 169.3C202.644 169.3 203.03 169.18 203.31 168.94C203.604 168.687 203.85 168.407 204.05 168.1V165.4H203.45C202.45 165.4 201.664 165.587 201.09 165.96C200.53 166.32 200.25 166.8 200.25 167.4C200.25 168.053 200.444 168.533 200.83 168.84C201.217 169.147 201.657 169.3 202.15 169.3ZM212.599 170.2C211.799 170.2 211.079 170.04 210.439 169.72C209.813 169.387 209.313 168.867 208.939 168.16C208.579 167.453 208.399 166.533 208.399 165.4V164.6C208.399 163.373 208.453 162.36 208.559 161.56C208.666 160.76 208.833 160.12 209.059 159.64C209.286 159.16 209.586 158.8 209.959 158.56C210.333 158.307 210.779 158.12 211.299 158L214.299 157.3C214.753 157.193 215.099 157.08 215.339 156.96C215.593 156.84 215.746 156.653 215.799 156.4H216.199V157.7C216.199 157.953 216.146 158.153 216.039 158.3C215.946 158.447 215.799 158.547 215.599 158.6L212.099 159.4C211.526 159.547 211.046 159.767 210.659 160.06C210.273 160.353 209.966 160.807 209.739 161.42C209.526 162.033 209.379 162.893 209.299 164H209.399C209.653 163 210.066 162.287 210.639 161.86C211.213 161.42 211.999 161.2 212.999 161.2C213.666 161.2 214.286 161.36 214.859 161.68C215.446 162 215.913 162.493 216.259 163.16C216.619 163.813 216.799 164.66 216.799 165.7C216.799 166.727 216.613 167.573 216.239 168.24C215.879 168.907 215.379 169.4 214.739 169.72C214.113 170.04 213.399 170.2 212.599 170.2ZM212.599 169.4C212.999 169.4 213.373 169.293 213.719 169.08C214.066 168.867 214.346 168.493 214.559 167.96C214.786 167.413 214.899 166.66 214.899 165.7C214.899 164.767 214.786 164.033 214.559 163.5C214.346 162.953 214.066 162.567 213.719 162.34C213.373 162.113 212.999 162 212.599 162C212.199 162 211.826 162.113 211.479 162.34C211.133 162.567 210.846 162.953 210.619 163.5C210.406 164.033 210.299 164.767 210.299 165.7C210.299 166.66 210.406 167.413 210.619 167.96C210.846 168.493 211.133 168.867 211.479 169.08C211.826 169.293 212.199 169.4 212.599 169.4ZM223.066 170.2C222.132 170.2 221.339 169.98 220.686 169.54C220.032 169.1 219.532 168.507 219.186 167.76C218.839 167.013 218.666 166.193 218.666 165.3C218.666 164.393 218.839 163.573 219.186 162.84C219.532 162.093 220.032 161.5 220.686 161.06C221.339 160.62 222.132 160.4 223.066 160.4C223.999 160.4 224.792 160.62 225.446 161.06C226.099 161.5 226.599 162.093 226.946 162.84C227.292 163.573 227.466 164.393 227.466 165.3C227.466 166.193 227.292 167.013 226.946 167.76C226.599 168.507 226.099 169.1 225.446 169.54C224.792 169.98 223.999 170.2 223.066 170.2ZM223.066 169.4C223.572 169.4 224.012 169.22 224.386 168.86C224.759 168.487 225.046 167.993 225.246 167.38C225.459 166.753 225.566 166.06 225.566 165.3C225.566 164.527 225.459 163.833 225.246 163.22C225.046 162.607 224.759 162.12 224.386 161.76C224.012 161.387 223.572 161.2 223.066 161.2C222.572 161.2 222.132 161.387 221.746 161.76C221.372 162.12 221.079 162.607 220.866 163.22C220.666 163.833 220.566 164.527 220.566 165.3C220.566 166.06 220.666 166.753 220.866 167.38C221.079 167.993 221.372 168.487 221.746 168.86C222.132 169.22 222.572 169.4 223.066 169.4ZM232.451 170V161.4H231.451C230.851 161.4 230.351 161.573 229.951 161.92C229.551 162.253 229.351 162.747 229.351 163.4H228.951V162.2C228.951 161.8 229.051 161.433 229.251 161.1C229.451 160.767 229.851 160.6 230.451 160.6H237.551V161.4H234.251V170H232.451ZM240.139 174V173.4C240.752 173.4 241.272 173.26 241.699 172.98C242.139 172.713 242.519 172.153 242.839 171.3L243.239 170.2L240.039 162.4C239.839 161.893 239.546 161.513 239.159 161.26C238.786 161.007 238.346 160.853 237.839 160.8V160.4H239.539C240.139 160.4 240.632 160.54 241.019 160.82C241.419 161.1 241.726 161.493 241.939 162L244.219 167.54L246.739 160.6H247.739L243.839 171.3C243.572 172.033 243.286 172.593 242.979 172.98C242.686 173.367 242.352 173.633 241.979 173.78C241.619 173.927 241.206 174 240.739 174H240.139ZM258.613 170.2C257.679 170.2 256.886 169.98 256.233 169.54C255.579 169.1 255.079 168.507 254.733 167.76C254.386 167.013 254.213 166.193 254.213 165.3C254.213 164.393 254.386 163.573 254.733 162.84C255.079 162.093 255.579 161.5 256.233 161.06C256.886 160.62 257.679 160.4 258.613 160.4C259.546 160.4 260.339 160.62 260.993 161.06C261.646 161.5 262.146 162.093 262.493 162.84C262.839 163.573 263.013 164.393 263.013 165.3C263.013 166.193 262.839 167.013 262.493 167.76C262.146 168.507 261.646 169.1 260.993 169.54C260.339 169.98 259.546 170.2 258.613 170.2ZM258.613 169.4C259.119 169.4 259.559 169.22 259.933 168.86C260.306 168.487 260.593 167.993 260.793 167.38C261.006 166.753 261.113 166.06 261.113 165.3C261.113 164.527 261.006 163.833 260.793 163.22C260.593 162.607 260.306 162.12 259.933 161.76C259.559 161.387 259.119 161.2 258.613 161.2C258.119 161.2 257.679 161.387 257.293 161.76C256.919 162.12 256.626 162.607 256.413 163.22C256.213 163.833 256.113 164.527 256.113 165.3C256.113 166.06 256.213 166.753 256.413 167.38C256.626 167.993 256.919 168.487 257.293 168.86C257.679 169.22 258.119 169.4 258.613 169.4ZM267.998 170V161.4H266.998C266.398 161.4 265.898 161.573 265.498 161.92C265.098 162.253 264.898 162.747 264.898 163.4H264.498V162.2C264.498 161.8 264.598 161.433 264.798 161.1C264.998 160.767 265.398 160.6 265.998 160.6H273.098V161.4H269.798V170H267.998ZM273.711 173.1V169.9C273.711 169.7 273.777 169.533 273.911 169.4C274.044 169.267 274.211 169.2 274.411 169.2H275.011C275.317 168.533 275.557 167.84 275.731 167.12C275.904 166.387 276.024 165.667 276.091 164.96C276.171 164.253 276.211 163.6 276.211 163C276.211 162.4 276.124 161.92 275.951 161.56C275.791 161.187 275.411 161 274.811 161V160.6H282.811V169.2H283.611C283.811 169.2 283.977 169.267 284.111 169.4C284.244 169.533 284.311 169.7 284.311 169.9V173.1H283.511C283.444 172.353 283.324 171.753 283.151 171.3C282.991 170.847 282.771 170.513 282.491 170.3C282.211 170.1 281.851 170 281.411 170H276.611C276.184 170 275.824 170.1 275.531 170.3C275.251 170.513 275.031 170.847 274.871 171.3C274.711 171.753 274.591 172.353 274.511 173.1H273.711ZM276.411 169.2H281.011V161.4H277.511C277.511 163.107 277.424 164.587 277.251 165.84C277.091 167.08 276.811 168.2 276.411 169.2ZM289.78 170.2C288.846 170.2 288.066 169.98 287.44 169.54C286.826 169.1 286.36 168.507 286.04 167.76C285.733 167.013 285.58 166.193 285.58 165.3C285.58 164.393 285.74 163.573 286.06 162.84C286.38 162.093 286.84 161.5 287.44 161.06C288.04 160.62 288.753 160.4 289.58 160.4C290.486 160.4 291.233 160.573 291.82 160.92C292.42 161.253 292.86 161.747 293.14 162.4C293.433 163.053 293.58 163.853 293.58 164.8L293.54 165.6H287.48C287.48 166.693 287.713 167.6 288.18 168.32C288.66 169.04 289.326 169.4 290.18 169.4C290.833 169.4 291.373 169.26 291.8 168.98C292.24 168.7 292.633 168.307 292.98 167.8L293.38 168.1C293.086 168.607 292.753 169.013 292.38 169.32C292.02 169.627 291.62 169.853 291.18 170C290.753 170.133 290.286 170.2 289.78 170.2ZM287.48 164.8H291.68C291.68 163.64 291.506 162.753 291.16 162.14C290.813 161.513 290.286 161.2 289.58 161.2C289.18 161.2 288.82 161.36 288.5 161.68C288.193 161.987 287.946 162.413 287.76 162.96C287.573 163.493 287.48 164.107 287.48 164.8ZM295.39 170.2C295.284 170.2 295.117 170.18 294.89 170.14C294.677 170.1 294.517 170.06 294.41 170.02V169.52C294.73 169.52 295.044 169.44 295.35 169.28C295.67 169.107 295.95 168.793 296.19 168.34C296.444 167.873 296.644 167.213 296.79 166.36C296.937 165.493 297.01 164.373 297.01 163C297.01 162.4 296.924 161.92 296.75 161.56C296.59 161.187 296.204 161 295.59 161V160.6H303.71V170H301.91V161.4H298.39V163C298.39 164.493 298.304 165.713 298.13 166.66C297.97 167.607 297.744 168.34 297.45 168.86C297.17 169.367 296.85 169.72 296.49 169.92C296.13 170.107 295.764 170.2 295.39 170.2ZM308.828 170.2C308.548 170.2 308.242 170.153 307.908 170.06C307.588 169.98 307.275 169.833 306.968 169.62C306.662 169.407 306.408 169.12 306.208 168.76C306.022 168.4 305.928 167.947 305.928 167.4C305.928 166.667 306.162 166.1 306.628 165.7C307.108 165.3 307.735 165.02 308.508 164.86C309.295 164.687 310.135 164.6 311.028 164.6H311.628C311.628 163.667 311.535 162.96 311.348 162.48C311.162 161.987 310.908 161.653 310.588 161.48C310.282 161.293 309.928 161.2 309.528 161.2C308.968 161.2 308.495 161.32 308.108 161.56C307.735 161.8 307.475 162.247 307.328 162.9H306.428C306.428 162.553 306.448 162.233 306.488 161.94C306.528 161.633 306.675 161.353 306.928 161.1C307.182 160.847 307.595 160.667 308.168 160.56C308.742 160.453 309.328 160.4 309.928 160.4C310.382 160.4 310.815 160.453 311.228 160.56C311.655 160.667 312.028 160.867 312.348 161.16C312.682 161.44 312.942 161.86 313.128 162.42C313.328 162.967 313.428 163.693 313.428 164.6V170H312.428L311.728 169.1H311.628C311.428 169.353 311.102 169.6 310.648 169.84C310.195 170.08 309.588 170.2 308.828 170.2ZM309.728 169.3C310.222 169.3 310.608 169.18 310.888 168.94C311.182 168.687 311.428 168.407 311.628 168.1V165.4H311.028C310.028 165.4 309.242 165.587 308.668 165.96C308.108 166.32 307.828 166.8 307.828 167.4C307.828 168.053 308.022 168.533 308.408 168.84C308.795 169.147 309.235 169.3 309.728 169.3ZM316.977 170.28C316.684 170.28 316.431 170.173 316.217 169.96C316.004 169.747 315.897 169.487 315.897 169.18C315.897 168.887 316.004 168.633 316.217 168.42C316.431 168.207 316.684 168.1 316.977 168.1C317.284 168.1 317.537 168.207 317.737 168.42C317.951 168.633 318.057 168.887 318.057 169.18C318.057 169.487 317.951 169.747 317.737 169.96C317.524 170.173 317.271 170.28 316.977 170.28Z" fill="#C0C0C0"/>
<defs>
<filter id="filter1_f_93_108" x="-89" y="19" width="203" height="203" filterUnits="userSpaceOnUse" color-interpolation-filters="sRGB">
<feFlood flood-opacity="0" result="BackgroundImageFix"/>
<feBlend mode="normal" in="SourceGraphic" in2="BackgroundImageFix" result="shape"/>
<feGaussianBlur stdDeviation="30" result="effect1_foregroundBlur_93_108"/>
</filter>
<filter id="filter2_d_93_108" x="125.404" y="7.27979" width="170.628" height="77.3203" filterUnits="userSpaceOnUse" color-interpolation-filters="sRGB">
<feFlood flood-opacity="0" result="BackgroundImageFix"/>
<feColorMatrix in="SourceAlpha" type="matrix" values="0 0 0 0 0 0 0 0 0 0 0 0 0 0 0 0 0 0 127 0" result="hardAlpha"/>
<feOffset/>
<feGaussianBlur stdDeviation="2"/>
<feComposite in2="hardAlpha" operator="out"/>
<feColorMatrix type="matrix" values="0 0 0 0 0 0 0 0 0 0 0 0 0 0 0 0 0 0 0.7 0"/>
<feBlend mode="normal" in2="BackgroundImageFix" result="effect1_dropShadow_93_108"/>
<feBlend mode="normal" in="SourceGraphic" in2="effect1_dropShadow_93_108" result="shape"/>
</filter>
<linearGradient id="paint0_linear_93_108" x1="54.3891" y1="61.1699" x2="51.9201" y2="65.9109" gradientUnits="userSpaceOnUse">
<stop stop-color="#FF7929"/>
<stop offset="1" stop-color="#FBB03B"/>
</linearGradient>
<linearGradient id="paint1_linear_93_108" x1="38.3764" y1="46.3081" x2="35.9074" y2="51.0491" gradientUnits="userSpaceOnUse">
<stop stop-color="#FF7929"/>
<stop offset="1" stop-color="#FBB03B"/>
</linearGradient>
<linearGradient id="paint2_linear_93_108" x1="54.145" y1="31.4457" x2="51.6763" y2="36.1864" gradientUnits="userSpaceOnUse">
<stop stop-color="#FF7929"/>
<stop offset="1" stop-color="#FBB03B"/>
</linearGradient>
<linearGradient id="paint3_linear_93_108" x1="62.5199" y1="29.3156" x2="36.0195" y2="83.9368" gradientUnits="userSpaceOnUse">
<stop stop-color="#FF7929"/>
<stop offset="1" stop-color="#FBB03B"/>
</linearGradient>
<clipPath id="clip0_93_108">
<rect width="96" height="96" rx="18" fill="white"/>
</clipPath>
</defs>
</svg>
