<svg width="360" height="241" viewBox="0 0 360 241" fill="none" xmlns="http://www.w3.org/2000/svg">
<g clip-path="url(#clip0_93_118)">
<rect width="96" height="96" rx="18" fill="white" fill-opacity="0.15"/>
<g filter="url(#filter1_f_93_118)">
<circle cx="12.5" cy="120.5" r="41.5" fill="#FBB03B"/>
</g>
<g clip-path="url(#clip1_93_118)">
<path fill-rule="evenodd" clip-rule="evenodd" d="M77.9067 38.5386L68.6284 43.0034C68.7668 43.7753 68.8737 44.5582 68.9476 45.3504L78.7415 40.6376L78.4694 41.2012C78.199 41.7616 78.434 42.4352 78.9944 42.7056C79.5548 42.9761 80.2284 42.741 80.4989 42.1806L82.1726 38.7143C82.443 38.1538 82.208 37.4802 81.6476 37.2098C81.5646 37.1697 81.479 37.1408 81.3926 37.1224L77.716 36.1619C77.1141 36.006 76.4998 36.3673 76.3438 36.9692C76.188 37.571 76.5495 38.1853 77.1512 38.3413L77.9067 38.5386ZM77.12 46.1174H82.2941C82.683 46.1174 83 46.4345 83 46.8233V75.3288C83 75.7176 82.683 76.0346 82.2941 76.0346H77.12C76.7312 76.0346 76.4141 75.7176 76.4141 75.3288V46.8233C76.4141 46.4345 76.7312 46.1174 77.12 46.1174ZM44.9226 59.4297H50.0967C50.4855 59.4297 50.8026 59.7468 50.8026 60.1356V75.3288C50.8026 75.7176 50.4855 76.0346 50.0967 76.0346H44.9226C44.5338 76.0346 44.2167 75.7176 44.2167 75.3288V60.1355C44.2167 59.7468 44.5338 59.4297 44.9226 59.4297ZM66.3874 50.5549H71.5616C71.9504 50.5549 72.2674 50.872 72.2674 51.2608V75.3288C72.2674 75.7176 71.9504 76.0346 71.5616 76.0346C69.8369 76.0346 68.1121 76.0346 66.3874 76.0346C65.9986 76.0346 65.6816 75.7176 65.6816 75.3288C65.6816 67.3061 65.6816 59.2835 65.6816 51.2608C65.6817 50.872 65.9987 50.5549 66.3874 50.5549ZM55.655 54.9923H60.8291C61.218 54.9923 61.535 55.3093 61.535 55.6981V75.3288C61.535 75.7176 61.218 76.0346 60.8291 76.0346C59.1044 76.0346 57.3797 76.0346 55.655 76.0346C55.2662 76.0346 54.9491 75.7176 54.9491 75.3288C54.9491 68.7853 54.9491 62.2418 54.9491 55.6981C54.9491 55.3093 55.2662 54.9923 55.655 54.9923ZM39.8937 19.9653C25.2974 20.5438 13.5707 32.2752 13 46.8735L39.8935 46.8631L39.8937 19.9653ZM13.0008 49.1235C13.3772 58.5691 18.4232 66.8134 25.8948 71.6089L39.0605 49.1135L13.0008 49.1235ZM27.8366 72.7459L41.9439 48.6415C42.0752 48.457 42.1524 48.2312 42.1524 47.9876V19.9653C55.4337 20.4916 66.3399 30.2521 68.627 43.0038L65.964 44.2853C65.2836 43.2336 64.6064 42.1788 63.9221 41.1297C63.6332 40.684 63.0593 40.4926 62.55 40.7017L46.1297 47.5045C45.5546 47.7408 45.2801 48.3986 45.5165 48.9735C45.7528 49.5485 46.4106 49.8231 46.9855 49.5868L62.5422 43.1419L64.6142 46.344C64.9267 46.8251 65.5444 46.9883 66.0477 46.7447L66.0481 46.7454L68.946 45.3509C69.0269 46.219 69.0699 47.0983 69.0699 47.9876C69.0699 48.0907 69.0671 48.1931 69.0659 48.2959H64.5521C63.9301 48.2959 63.4227 48.8033 63.4227 49.4254V52.7334C60.2217 52.7334 57.0207 52.7334 53.8197 52.7334C53.1976 52.7334 52.6903 53.2408 52.6903 53.8628V57.1709H43.0871C42.4651 57.1709 41.9577 57.6782 41.9577 58.3003V76.0177C41.6472 76.0278 41.3358 76.0349 41.0228 76.0349C36.256 76.0348 31.7672 74.844 27.8366 72.7459Z" fill="url(#paint0_linear_93_118)"/>
</g>
</g>
<g filter="url(#filter2_d_93_118)">
<path d="M138.816 33.68C139.596 33.68 140.237 33.5847 140.74 33.394C141.26 33.186 141.52 32.7613 141.52 32.12C141.52 31.4787 141.26 31.0627 140.74 30.872C140.237 30.664 139.596 30.56 138.816 30.56H133.85V33.68H138.816ZM138.816 39.608C139.908 39.608 140.688 39.4433 141.156 39.114C141.641 38.7673 141.884 38.3167 141.884 37.762C141.884 37.2073 141.641 36.7653 141.156 36.436C140.688 36.0893 139.908 35.916 138.816 35.916H133.85V39.608H138.816ZM138.296 28.324C139.093 28.324 139.865 28.3933 140.61 28.532C141.355 28.6533 142.014 28.8613 142.586 29.156C143.158 29.4333 143.617 29.806 143.964 30.274C144.311 30.7247 144.484 31.288 144.484 31.964C144.484 32.7787 144.233 33.4113 143.73 33.862C143.227 34.2953 142.629 34.6333 141.936 34.876V34.928C142.751 35.1707 143.435 35.5607 143.99 36.098C144.562 36.618 144.848 37.372 144.848 38.36C144.848 38.88 144.735 39.3653 144.51 39.816C144.285 40.2493 143.947 40.6307 143.496 40.96C143.063 41.2893 142.525 41.5493 141.884 41.74C141.243 41.9133 140.515 42 139.7 42H130.158V41.532C130.643 41.532 130.886 41.376 130.886 41.064V29.26C130.886 28.948 130.643 28.792 130.158 28.792V28.324H138.296ZM161.064 29.26C161.064 28.948 160.873 28.792 160.492 28.792V28.324H164.496V28.792C164.374 28.792 164.262 28.8353 164.158 28.922C164.071 28.9913 164.028 29.104 164.028 29.26V41.064C164.028 41.22 164.071 41.3413 164.158 41.428C164.262 41.4973 164.374 41.532 164.496 41.532V42H160.492V41.532C160.873 41.532 161.064 41.376 161.064 41.064V36.176H152.692V41.064C152.692 41.22 152.735 41.3413 152.822 41.428C152.926 41.4973 153.038 41.532 153.16 41.532V42H149.234V41.532C149.563 41.532 149.728 41.376 149.728 41.064V29.26C149.728 28.948 149.563 28.792 149.234 28.792V28.324H153.16V28.792C153.038 28.792 152.926 28.8353 152.822 28.922C152.735 28.9913 152.692 29.104 152.692 29.26V33.68H161.064V29.26ZM182.08 31.132C182.08 30.9413 182.002 30.8027 181.846 30.716C181.707 30.612 181.456 30.56 181.092 30.56H172.668V33.784H177.764C178.111 33.784 178.379 33.7407 178.57 33.654C178.761 33.55 178.856 33.2987 178.856 32.9H179.324V36.956H178.856C178.856 36.5573 178.761 36.306 178.57 36.202C178.379 36.0807 178.111 36.02 177.764 36.02H172.668V39.608H181.352C181.612 39.608 181.82 39.5473 181.976 39.426C182.149 39.3047 182.236 39.14 182.236 38.932H182.704V42.494H182.236C182.236 42.234 182.149 42.0867 181.976 42.052C181.82 42.0173 181.612 42 181.352 42H169.236V41.532C169.357 41.532 169.461 41.4973 169.548 41.428C169.652 41.3413 169.704 41.22 169.704 41.064V29.26C169.704 29.104 169.652 28.9913 169.548 28.922C169.461 28.8353 169.357 28.792 169.236 28.792V28.324H181.092C181.456 28.324 181.707 28.272 181.846 28.168C182.002 28.0467 182.08 27.8907 182.08 27.7H182.548V31.132H182.08ZM203.426 43.43C203.426 43.9153 203.616 44.1493 203.998 44.132V44.6H200.41V44.132C200.739 44.132 200.904 43.8893 200.904 43.404V42H187.826V43.404C187.826 43.8893 187.99 44.132 188.32 44.132V44.6H184.732V44.132C185.113 44.1493 185.304 43.9153 185.304 43.43V39.764H187.41L191.986 30.43C192.09 30.2047 192.185 29.9967 192.272 29.806C192.358 29.6153 192.402 29.4507 192.402 29.312C192.402 29.1387 192.341 29.0173 192.22 28.948C192.098 28.8787 191.968 28.8267 191.83 28.792V28.324H196.536V28.792C196.414 28.8267 196.293 28.8787 196.172 28.948C196.05 29 195.99 29.1213 195.99 29.312C195.99 29.4507 196.016 29.5893 196.068 29.728C196.137 29.8667 196.232 30.0487 196.354 30.274L201.32 39.764H203.426V43.43ZM190.218 39.764H197.992L194.014 31.496L190.218 39.764ZM215.84 34.044C216.412 34.044 216.898 33.9313 217.296 33.706C217.712 33.4807 217.92 33.0387 217.92 32.38C217.92 31.7213 217.712 31.2793 217.296 31.054C216.898 30.8287 216.412 30.716 215.84 30.716H210.302V34.044H215.84ZM206.376 42V41.532C207.018 41.532 207.338 41.376 207.338 41.064V29.26C207.338 28.948 207.018 28.792 206.376 28.792V28.324H215.528C217.192 28.324 218.501 28.636 219.454 29.26C220.408 29.8667 220.884 30.9067 220.884 32.38C220.884 33.8533 220.408 34.902 219.454 35.526C218.501 36.1327 217.192 36.436 215.528 36.436H210.302V41.064C210.302 41.376 210.58 41.532 211.134 41.532V42H206.376ZM236.822 31.132C236.822 30.9413 236.744 30.8027 236.588 30.716C236.45 30.612 236.198 30.56 235.834 30.56H227.41V33.784H232.506C232.853 33.784 233.122 33.7407 233.312 33.654C233.503 33.55 233.598 33.2987 233.598 32.9H234.066V36.956H233.598C233.598 36.5573 233.503 36.306 233.312 36.202C233.122 36.0807 232.853 36.02 232.506 36.02H227.41V39.608H236.094C236.354 39.608 236.562 39.5473 236.718 39.426C236.892 39.3047 236.978 39.14 236.978 38.932H237.446V42.494H236.978C236.978 42.234 236.892 42.0867 236.718 42.052C236.562 42.0173 236.354 42 236.094 42H223.978V41.532C224.1 41.532 224.204 41.4973 224.29 41.428C224.394 41.3413 224.446 41.22 224.446 41.064V29.26C224.446 29.104 224.394 28.9913 224.29 28.922C224.204 28.8353 224.1 28.792 223.978 28.792V28.324H235.834C236.198 28.324 236.45 28.272 236.588 28.168C236.744 28.0467 236.822 27.8907 236.822 27.7H237.29V31.132H236.822ZM253.384 29.26C253.384 28.948 253.193 28.792 252.812 28.792V28.324H256.816V28.792C256.695 28.792 256.582 28.8353 256.478 28.922C256.391 28.9913 256.348 29.104 256.348 29.26V41.064C256.348 41.22 256.391 41.3413 256.478 41.428C256.582 41.4973 256.695 41.532 256.816 41.532V42H252.812V41.532C253.193 41.532 253.384 41.376 253.384 41.064V36.176H245.012V41.064C245.012 41.22 245.055 41.3413 245.142 41.428C245.246 41.4973 245.359 41.532 245.48 41.532V42H241.554V41.532C241.883 41.532 242.048 41.376 242.048 41.064V29.26C242.048 28.948 241.883 28.792 241.554 28.792V28.324H245.48V28.792C245.359 28.792 245.246 28.8353 245.142 28.922C245.055 28.9913 245.012 29.104 245.012 29.26V33.68H253.384V29.26ZM277.156 42H273.308V41.532C273.707 41.532 273.906 41.376 273.906 41.064V32.172L265.976 40.7C265.699 40.9773 265.56 41.1767 265.56 41.298C265.56 41.454 265.673 41.532 265.898 41.532V42H261.686V41.532C262.016 41.532 262.18 41.376 262.18 41.064V29.26C262.18 28.948 262.016 28.792 261.686 28.792V28.324H265.612V28.792C265.162 28.792 264.936 28.948 264.936 29.26V37.788L272.398 29.78C272.745 29.4333 272.918 29.1907 272.918 29.052C272.918 28.8787 272.849 28.792 272.71 28.792V28.324H277.156V28.792C276.827 28.792 276.662 28.948 276.662 29.26V41.064C276.662 41.376 276.827 41.532 277.156 41.532V42ZM294.637 31.132C294.637 30.9413 294.559 30.8027 294.403 30.716C294.264 30.612 294.013 30.56 293.649 30.56H285.225V33.784H290.321C290.667 33.784 290.936 33.7407 291.127 33.654C291.317 33.55 291.413 33.2987 291.413 32.9H291.881V36.956H291.413C291.413 36.5573 291.317 36.306 291.127 36.202C290.936 36.0807 290.667 36.02 290.321 36.02H285.225V39.608H293.909C294.169 39.608 294.377 39.5473 294.533 39.426C294.706 39.3047 294.793 39.14 294.793 38.932H295.261V42.494H294.793C294.793 42.234 294.706 42.0867 294.533 42.052C294.377 42.0173 294.169 42 293.909 42H281.793V41.532C281.914 41.532 282.018 41.4973 282.105 41.428C282.209 41.3413 282.261 41.22 282.261 41.064V29.26C282.261 29.104 282.209 28.9913 282.105 28.922C282.018 28.8353 281.914 28.792 281.793 28.792V28.324H293.649C294.013 28.324 294.264 28.272 294.403 28.168C294.559 28.0467 294.637 27.8907 294.637 27.7H295.105V31.132H294.637ZM138.348 60.696L136.164 55.86L133.72 60.696H138.348ZM128.546 65.532C128.771 65.4973 128.945 65.3847 129.066 65.194C129.205 65.0033 129.335 64.7867 129.456 64.544L134.266 54.43C134.387 54.2047 134.491 53.9967 134.578 53.806C134.682 53.6153 134.734 53.4507 134.734 53.312C134.734 53.1387 134.673 53.0173 134.552 52.948C134.431 52.8787 134.301 52.8267 134.162 52.792V52.324H138.556V52.792C138.435 52.8267 138.313 52.8787 138.192 52.948C138.071 53 138.01 53.1213 138.01 53.312C138.01 53.4507 138.036 53.5893 138.088 53.728C138.157 53.8667 138.253 54.0487 138.374 54.274L143.782 64.856C143.869 65.0467 143.981 65.1853 144.12 65.272C144.276 65.3587 144.449 65.4453 144.64 65.532V66H140.064V65.532C140.133 65.532 140.22 65.506 140.324 65.454C140.428 65.402 140.48 65.324 140.48 65.22C140.48 65.0467 140.411 64.8213 140.272 64.544L139.284 62.62H132.94L132.004 64.466C131.831 64.83 131.744 65.09 131.744 65.246C131.744 65.4367 131.909 65.532 132.238 65.532V66H128.546V65.532ZM159.642 53.26C159.642 52.948 159.451 52.792 159.07 52.792V52.324H163.074V52.792C162.952 52.792 162.84 52.8353 162.736 52.922C162.649 52.9913 162.606 53.104 162.606 53.26V65.064C162.606 65.22 162.649 65.3413 162.736 65.428C162.84 65.4973 162.952 65.532 163.074 65.532V66H159.07V65.532C159.451 65.532 159.642 65.376 159.642 65.064V60.176H151.27V65.064C151.27 65.22 151.313 65.3413 151.4 65.428C151.504 65.4973 151.616 65.532 151.738 65.532V66H147.812V65.532C148.141 65.532 148.306 65.376 148.306 65.064V53.26C148.306 52.948 148.141 52.792 147.812 52.792V52.324H151.738V52.792C151.616 52.792 151.504 52.8353 151.4 52.922C151.313 52.9913 151.27 53.104 151.27 53.26V57.68H159.642V53.26ZM175.926 60.696L173.742 55.86L171.298 60.696H175.926ZM166.124 65.532C166.349 65.4973 166.523 65.3847 166.644 65.194C166.783 65.0033 166.913 64.7867 167.034 64.544L171.844 54.43C171.965 54.2047 172.069 53.9967 172.156 53.806C172.26 53.6153 172.312 53.4507 172.312 53.312C172.312 53.1387 172.251 53.0173 172.13 52.948C172.009 52.8787 171.879 52.8267 171.74 52.792V52.324H176.134V52.792C176.013 52.8267 175.891 52.8787 175.77 52.948C175.649 53 175.588 53.1213 175.588 53.312C175.588 53.4507 175.614 53.5893 175.666 53.728C175.735 53.8667 175.831 54.0487 175.952 54.274L181.36 64.856C181.447 65.0467 181.559 65.1853 181.698 65.272C181.854 65.3587 182.027 65.4453 182.218 65.532V66H177.642V65.532C177.711 65.532 177.798 65.506 177.902 65.454C178.006 65.402 178.058 65.324 178.058 65.22C178.058 65.0467 177.989 64.8213 177.85 64.544L176.862 62.62H170.518L169.582 64.466C169.409 64.83 169.322 65.09 169.322 65.246C169.322 65.4367 169.487 65.532 169.816 65.532V66H166.124V65.532ZM191.084 55.86L187.236 64.466C187.063 64.8127 186.976 65.0727 186.976 65.246C186.976 65.4367 187.141 65.532 187.47 65.532V66H183.466V65.532C183.691 65.4973 183.865 65.3847 183.986 65.194C184.125 65.0033 184.255 64.7867 184.376 64.544L189.186 54.43C189.29 54.2047 189.394 53.9967 189.498 53.806C189.602 53.6153 189.654 53.4507 189.654 53.312C189.654 53.1387 189.593 53.0173 189.472 52.948C189.351 52.8787 189.221 52.8267 189.082 52.792V52.324H193.476V52.792C193.355 52.8267 193.233 52.8787 193.112 52.948C192.991 53 192.93 53.1213 192.93 53.312C192.93 53.4507 192.956 53.5893 193.008 53.728C193.077 53.8667 193.173 54.0487 193.294 54.274L198.702 64.856C198.789 65.0467 198.901 65.1853 199.04 65.272C199.196 65.3587 199.369 65.4453 199.56 65.532V66H194.984V65.532C195.053 65.532 195.14 65.506 195.244 65.454C195.348 65.402 195.4 65.324 195.4 65.22C195.4 65.0813 195.331 64.856 195.192 64.544L191.084 55.86ZM218.098 66H214.25V65.532C214.648 65.532 214.848 65.376 214.848 65.064V56.172L206.918 64.7C206.64 64.9773 206.502 65.1767 206.502 65.298C206.502 65.454 206.614 65.532 206.84 65.532V66H202.628V65.532C202.957 65.532 203.122 65.376 203.122 65.064V53.26C203.122 52.948 202.957 52.792 202.628 52.792V52.324H206.554V52.792C206.103 52.792 205.878 52.948 205.878 53.26V61.788L213.34 53.78C213.686 53.4333 213.86 53.1907 213.86 53.052C213.86 52.8787 213.79 52.792 213.652 52.792V52.324H218.098V52.792C217.768 52.792 217.604 52.948 217.604 53.26V65.064C217.604 65.376 217.768 65.532 218.098 65.532V66ZM229.91 65.064C229.91 65.376 230.101 65.532 230.482 65.532V66H226.478V65.532C226.599 65.532 226.703 65.4973 226.79 65.428C226.894 65.3413 226.946 65.22 226.946 65.064V54.716H222.656C222.5 54.716 222.344 54.7593 222.188 54.846C222.049 54.9327 221.98 55.0973 221.98 55.34H221.512V51.7H221.98C221.98 51.9427 222.049 52.1073 222.188 52.194C222.344 52.2807 222.5 52.324 222.656 52.324H234.2C234.356 52.324 234.503 52.2807 234.642 52.194C234.798 52.1073 234.876 51.9427 234.876 51.7H235.344V55.34H234.876C234.876 55.0973 234.798 54.9327 234.642 54.846C234.503 54.7593 234.356 54.716 234.2 54.716H229.91V65.064ZM254.229 66H250.381V65.532C250.779 65.532 250.979 65.376 250.979 65.064V56.172L243.049 64.7C242.771 64.9773 242.633 65.1767 242.633 65.298C242.633 65.454 242.745 65.532 242.971 65.532V66H238.759V65.532C239.088 65.532 239.253 65.376 239.253 65.064V53.26C239.253 52.948 239.088 52.792 238.759 52.792V52.324H242.685V52.792C242.234 52.792 242.009 52.948 242.009 53.26V61.788L249.471 53.78C249.817 53.4333 249.991 53.1907 249.991 53.052C249.991 52.8787 249.921 52.792 249.783 52.792V52.324H254.229V52.792C253.899 52.792 253.735 52.948 253.735 53.26V65.064C253.735 65.376 253.899 65.532 254.229 65.532V66ZM262.063 65.064C262.063 65.22 262.115 65.3413 262.219 65.428C262.323 65.4973 262.444 65.532 262.583 65.532V66H258.527V65.532C258.908 65.532 259.099 65.376 259.099 65.064V53.26C259.099 52.948 258.908 52.792 258.527 52.792V52.324H262.583V52.792C262.444 52.792 262.323 52.8353 262.219 52.922C262.115 52.9913 262.063 53.104 262.063 53.26V58.2L267.445 53.962C267.688 53.754 267.878 53.5893 268.017 53.468C268.156 53.3293 268.225 53.2167 268.225 53.13C268.225 53.0087 268.182 52.922 268.095 52.87C268.026 52.818 267.939 52.792 267.835 52.792V52.324H273.295V52.792C272.983 52.792 272.671 52.922 272.359 53.182L266.379 57.94L271.839 64.258C272.064 64.518 272.324 64.778 272.619 65.038C272.931 65.2807 273.234 65.4453 273.529 65.532V66H268.719V65.532C268.944 65.532 269.057 65.4713 269.057 65.35C269.057 65.2633 268.936 65.0727 268.693 64.778L264.247 59.656L262.063 61.346V65.064ZM291.807 66H287.959V65.532C288.357 65.532 288.557 65.376 288.557 65.064V56.172L280.627 64.7C280.349 64.9773 280.211 65.1767 280.211 65.298C280.211 65.454 280.323 65.532 280.549 65.532V66H276.337V65.532C276.666 65.532 276.831 65.376 276.831 65.064V53.26C276.831 52.948 276.666 52.792 276.337 52.792V52.324H280.263V52.792C279.812 52.792 279.587 52.948 279.587 53.26V61.788L287.049 53.78C287.395 53.4333 287.569 53.1907 287.569 53.052C287.569 52.8787 287.499 52.792 287.361 52.792V52.324H291.807V52.792C291.477 52.792 291.313 52.948 291.313 53.26V65.064C291.313 65.376 291.477 65.532 291.807 65.532V66Z" fill="white"/>
</g>
<path d="M8.3 132.2C7.31333 132.2 6.49333 131.98 5.84 131.54C5.18667 131.1 4.7 130.507 4.38 129.76C4.06 129.013 3.9 128.193 3.9 127.3C3.9 126.393 4.06 125.573 4.38 124.84C4.7 124.093 5.18667 123.5 5.84 123.06C6.49333 122.62 7.31333 122.4 8.3 122.4C9.00667 122.4 9.6 122.453 10.08 122.56C10.5733 122.667 10.9467 122.847 11.2 123.1C11.4533 123.353 11.6 123.667 11.64 124.04C11.68 124.4 11.7 124.953 11.7 125.7H11.3C11.2467 124.847 10.9733 124.22 10.48 123.82C10 123.407 9.40667 123.2 8.7 123.2C8.03333 123.2 7.48667 123.387 7.06 123.76C6.63333 124.12 6.31333 124.607 6.1 125.22C5.9 125.833 5.8 126.527 5.8 127.3C5.8 128.06 5.9 128.753 6.1 129.38C6.31333 129.993 6.63333 130.487 7.06 130.86C7.48667 131.22 8.03333 131.4 8.7 131.4C9.40667 131.4 9.98 131.26 10.42 130.98C10.86 130.7 11.2533 130.307 11.6 129.8L12 130.1C11.7067 130.607 11.3733 131.013 11 131.32C10.6267 131.627 10.2133 131.853 9.76 132C9.32 132.133 8.83333 132.2 8.3 132.2ZM17.968 132.2C17.0346 132.2 16.2413 131.98 15.588 131.54C14.9346 131.1 14.4346 130.507 14.088 129.76C13.7413 129.013 13.568 128.193 13.568 127.3C13.568 126.393 13.7413 125.573 14.088 124.84C14.4346 124.093 14.9346 123.5 15.588 123.06C16.2413 122.62 17.0346 122.4 17.968 122.4C18.9013 122.4 19.6946 122.62 20.348 123.06C21.0013 123.5 21.5013 124.093 21.848 124.84C22.1946 125.573 22.368 126.393 22.368 127.3C22.368 128.193 22.1946 129.013 21.848 129.76C21.5013 130.507 21.0013 131.1 20.348 131.54C19.6946 131.98 18.9013 132.2 17.968 132.2ZM17.968 131.4C18.4746 131.4 18.9146 131.22 19.288 130.86C19.6613 130.487 19.948 129.993 20.148 129.38C20.3613 128.753 20.468 128.06 20.468 127.3C20.468 126.527 20.3613 125.833 20.148 125.22C19.948 124.607 19.6613 124.12 19.288 123.76C18.9146 123.387 18.4746 123.2 17.968 123.2C17.4746 123.2 17.0346 123.387 16.648 123.76C16.2746 124.12 15.9813 124.607 15.768 125.22C15.568 125.833 15.468 126.527 15.468 127.3C15.468 128.06 15.568 128.753 15.768 129.38C15.9813 129.993 16.2746 130.487 16.648 130.86C17.0346 131.22 17.4746 131.4 17.968 131.4ZM27.4934 132.2C26.6001 132.2 25.8801 132.047 25.3334 131.74C24.7868 131.433 24.3401 131.053 23.9934 130.6L24.3934 130.3C24.6468 130.553 24.9734 130.8 25.3734 131.04C25.7868 131.28 26.3601 131.4 27.0934 131.4C27.8934 131.4 28.5068 131.247 28.9334 130.94C29.3734 130.633 29.5934 130.153 29.5934 129.5C29.5934 128.873 29.3601 128.4 28.8934 128.08C28.4268 127.76 27.7268 127.6 26.7934 127.6H25.8934V126.8H26.7934C27.5934 126.8 28.2068 126.653 28.6334 126.36C29.0734 126.053 29.2934 125.6 29.2934 125C29.2934 124.4 29.1001 123.953 28.7134 123.66C28.3268 123.353 27.8534 123.2 27.2934 123.2C26.5734 123.2 25.9668 123.387 25.4734 123.76C24.9934 124.133 24.7334 124.647 24.6934 125.3H24.2934C24.2934 124.74 24.3134 124.3 24.3534 123.98C24.3934 123.647 24.5401 123.353 24.7934 123.1C25.0468 122.847 25.4134 122.667 25.8934 122.56C26.3734 122.453 26.9401 122.4 27.5934 122.4C28.1934 122.4 28.7668 122.48 29.3134 122.64C29.8601 122.8 30.3068 123.067 30.6534 123.44C31.0134 123.813 31.1934 124.333 31.1934 125C31.1934 125.6 31.0068 126.08 30.6334 126.44C30.2734 126.8 29.7934 127.053 29.1934 127.2C29.9134 127.347 30.4734 127.62 30.8734 128.02C31.2868 128.407 31.4934 128.9 31.4934 129.5C31.4934 130.193 31.3068 130.74 30.9334 131.14C30.5734 131.527 30.0934 131.8 29.4934 131.96C28.8934 132.12 28.2268 132.2 27.4934 132.2ZM32.5388 135.1V131.9C32.5388 131.7 32.6054 131.533 32.7388 131.4C32.8721 131.267 33.0388 131.2 33.2388 131.2H33.8388C34.1454 130.533 34.3854 129.84 34.5588 129.12C34.7321 128.387 34.8521 127.667 34.9188 126.96C34.9988 126.253 35.0388 125.6 35.0388 125C35.0388 124.4 34.9521 123.92 34.7788 123.56C34.6188 123.187 34.2388 123 33.6388 123V122.6H41.6388V131.2H42.4388C42.6388 131.2 42.8054 131.267 42.9388 131.4C43.0721 131.533 43.1388 131.7 43.1388 131.9V135.1H42.3388C42.2721 134.353 42.1521 133.753 41.9788 133.3C41.8188 132.847 41.5988 132.513 41.3188 132.3C41.0388 132.1 40.6788 132 40.2388 132H35.4388C35.0121 132 34.6521 132.1 34.3588 132.3C34.0788 132.513 33.8588 132.847 33.6988 133.3C33.5388 133.753 33.4188 134.353 33.3388 135.1H32.5388ZM35.2388 131.2H39.8388V123.4H36.3388C36.3388 125.107 36.2521 126.587 36.0788 127.84C35.9188 129.08 35.6388 130.2 35.2388 131.2ZM47.305 132.2C47.025 132.2 46.7183 132.153 46.385 132.06C46.065 131.98 45.7517 131.833 45.445 131.62C45.1383 131.407 44.885 131.12 44.685 130.76C44.4983 130.4 44.405 129.947 44.405 129.4C44.405 128.667 44.6383 128.1 45.105 127.7C45.585 127.3 46.2117 127.02 46.985 126.86C47.7717 126.687 48.6117 126.6 49.505 126.6H50.105C50.105 125.667 50.0117 124.96 49.825 124.48C49.6383 123.987 49.385 123.653 49.065 123.48C48.7583 123.293 48.405 123.2 48.005 123.2C47.445 123.2 46.9717 123.32 46.585 123.56C46.2117 123.8 45.9517 124.247 45.805 124.9H44.905C44.905 124.553 44.925 124.233 44.965 123.94C45.005 123.633 45.1517 123.353 45.405 123.1C45.6583 122.847 46.0717 122.667 46.645 122.56C47.2183 122.453 47.805 122.4 48.405 122.4C48.8583 122.4 49.2917 122.453 49.705 122.56C50.1317 122.667 50.505 122.867 50.825 123.16C51.1583 123.44 51.4183 123.86 51.605 124.42C51.805 124.967 51.905 125.693 51.905 126.6V132H50.905L50.205 131.1H50.105C49.905 131.353 49.5783 131.6 49.125 131.84C48.6717 132.08 48.065 132.2 47.305 132.2ZM48.205 131.3C48.6983 131.3 49.085 131.18 49.365 130.94C49.6583 130.687 49.905 130.407 50.105 130.1V127.4H49.505C48.505 127.4 47.7183 127.587 47.145 127.96C46.585 128.32 46.305 128.8 46.305 129.4C46.305 130.053 46.4983 130.533 46.885 130.84C47.2717 131.147 47.7117 131.3 48.205 131.3ZM58.3539 132.2C57.4206 132.2 56.6406 131.98 56.0139 131.54C55.4006 131.1 54.9339 130.507 54.6139 129.76C54.3072 129.013 54.1539 128.193 54.1539 127.3C54.1539 126.393 54.3139 125.573 54.6339 124.84C54.9539 124.093 55.4139 123.5 56.0139 123.06C56.6139 122.62 57.3272 122.4 58.1539 122.4C59.0606 122.4 59.8072 122.573 60.3939 122.92C60.9939 123.253 61.4339 123.747 61.7139 124.4C62.0072 125.053 62.1539 125.853 62.1539 126.8L62.1139 127.6H56.0539C56.0539 128.693 56.2872 129.6 56.7539 130.32C57.2339 131.04 57.9006 131.4 58.7539 131.4C59.4072 131.4 59.9472 131.26 60.3739 130.98C60.8139 130.7 61.2072 130.307 61.5539 129.8L61.9539 130.1C61.6606 130.607 61.3272 131.013 60.9539 131.32C60.5939 131.627 60.1939 131.853 59.7539 132C59.3272 132.133 58.8606 132.2 58.3539 132.2ZM56.0539 126.8H60.2539C60.2539 125.64 60.0806 124.753 59.7339 124.14C59.3872 123.513 58.8606 123.2 58.1539 123.2C57.7539 123.2 57.3939 123.36 57.0739 123.68C56.7672 123.987 56.5206 124.413 56.3339 124.96C56.1472 125.493 56.0539 126.107 56.0539 126.8ZM75.6595 132.4C74.4062 132.4 73.5395 132.093 73.0595 131.48C72.5929 130.867 72.3595 130.04 72.3595 129V124.7L69.0595 132H68.6595L65.2595 124.5V132H64.4595V122.6H66.3595L69.3595 129.2L72.3595 122.6H74.1595V129C74.1595 129.493 74.2195 129.973 74.3395 130.44C74.4729 130.893 74.6529 131.267 74.8795 131.56C75.1062 131.853 75.3662 132 75.6595 132V132.4ZM86.3078 132.2C85.3211 132.2 84.5011 131.98 83.8478 131.54C83.1945 131.1 82.7078 130.507 82.3878 129.76C82.0678 129.013 81.9078 128.193 81.9078 127.3C81.9078 126.393 82.0678 125.573 82.3878 124.84C82.7078 124.093 83.1945 123.5 83.8478 123.06C84.5011 122.62 85.3211 122.4 86.3078 122.4C87.0145 122.4 87.6078 122.453 88.0878 122.56C88.5811 122.667 88.9545 122.847 89.2078 123.1C89.4611 123.353 89.6078 123.667 89.6478 124.04C89.6878 124.4 89.7078 124.953 89.7078 125.7H89.3078C89.2545 124.847 88.9811 124.22 88.4878 123.82C88.0078 123.407 87.4145 123.2 86.7078 123.2C86.0411 123.2 85.4945 123.387 85.0678 123.76C84.6411 124.12 84.3211 124.607 84.1078 125.22C83.9078 125.833 83.8078 126.527 83.8078 127.3C83.8078 128.06 83.9078 128.753 84.1078 129.38C84.3211 129.993 84.6411 130.487 85.0678 130.86C85.4945 131.22 86.0411 131.4 86.7078 131.4C87.4145 131.4 87.9878 131.26 88.4278 130.98C88.8678 130.7 89.2611 130.307 89.6078 129.8L90.0078 130.1C89.7145 130.607 89.3811 131.013 89.0078 131.32C88.6345 131.627 88.2211 131.853 87.7678 132C87.3278 132.133 86.8411 132.2 86.3078 132.2ZM92.3958 132V125C92.3958 124.4 92.3091 123.92 92.1358 123.56C91.9758 123.187 91.5958 123 90.9958 123H90.6958V122.6H92.3958C92.8624 122.6 93.2224 122.66 93.4758 122.78C93.7424 122.9 93.9291 123.133 94.0358 123.48C94.1424 123.827 94.1958 124.333 94.1958 125V130.2L98.3958 122.6H100.196V132H98.3958V124.4L94.1958 132H92.3958ZM106.933 132.2C105.946 132.2 105.126 131.98 104.473 131.54C103.819 131.1 103.333 130.507 103.013 129.76C102.693 129.013 102.533 128.193 102.533 127.3C102.533 126.393 102.693 125.573 103.013 124.84C103.333 124.093 103.819 123.5 104.473 123.06C105.126 122.62 105.946 122.4 106.933 122.4C107.639 122.4 108.233 122.453 108.713 122.56C109.206 122.667 109.579 122.847 109.833 123.1C110.086 123.353 110.233 123.667 110.273 124.04C110.313 124.4 110.333 124.953 110.333 125.7H109.933C109.879 124.847 109.606 124.22 109.113 123.82C108.633 123.407 108.039 123.2 107.333 123.2C106.666 123.2 106.119 123.387 105.693 123.76C105.266 124.12 104.946 124.607 104.733 125.22C104.533 125.833 104.433 126.527 104.433 127.3C104.433 128.06 104.533 128.753 104.733 129.38C104.946 129.993 105.266 130.487 105.693 130.86C106.119 131.22 106.666 131.4 107.333 131.4C108.039 131.4 108.613 131.26 109.053 130.98C109.493 130.7 109.886 130.307 110.233 129.8L110.633 130.1C110.339 130.607 110.006 131.013 109.633 131.32C109.259 131.627 108.846 131.853 108.393 132C107.953 132.133 107.466 132.2 106.933 132.2ZM115.381 132V123.4H114.381C113.781 123.4 113.281 123.573 112.881 123.92C112.481 124.253 112.281 124.747 112.281 125.4H111.881V124.2C111.881 123.8 111.981 123.433 112.181 123.1C112.381 122.767 112.781 122.6 113.381 122.6H120.481V123.4H117.181V132H115.381ZM125.6 132.2C124.667 132.2 123.887 131.98 123.26 131.54C122.647 131.1 122.18 130.507 121.86 129.76C121.553 129.013 121.4 128.193 121.4 127.3C121.4 126.393 121.56 125.573 121.88 124.84C122.2 124.093 122.66 123.5 123.26 123.06C123.86 122.62 124.573 122.4 125.4 122.4C126.307 122.4 127.053 122.573 127.64 122.92C128.24 123.253 128.68 123.747 128.96 124.4C129.253 125.053 129.4 125.853 129.4 126.8L129.36 127.6H123.3C123.3 128.693 123.533 129.6 124 130.32C124.48 131.04 125.147 131.4 126 131.4C126.653 131.4 127.193 131.26 127.62 130.98C128.06 130.7 128.453 130.307 128.8 129.8L129.2 130.1C128.907 130.607 128.573 131.013 128.2 131.32C127.84 131.627 127.44 131.853 127 132C126.573 132.133 126.107 132.2 125.6 132.2ZM123.3 126.8H127.5C127.5 125.64 127.327 124.753 126.98 124.14C126.633 123.513 126.107 123.2 125.4 123.2C125 123.2 124.64 123.36 124.32 123.68C124.013 123.987 123.767 124.413 123.58 124.96C123.393 125.493 123.3 126.107 123.3 126.8ZM142.906 132.4C141.652 132.4 140.786 132.093 140.306 131.48C139.839 130.867 139.606 130.04 139.606 129V124.7L136.306 132H135.906L132.506 124.5V132H131.706V122.6H133.606L136.606 129.2L139.606 122.6H141.406V129C141.406 129.493 141.466 129.973 141.586 130.44C141.719 130.893 141.899 131.267 142.126 131.56C142.352 131.853 142.612 132 142.906 132V132.4ZM145.354 136V135.4C145.967 135.4 146.487 135.26 146.914 134.98C147.354 134.713 147.734 134.153 148.054 133.3L148.454 132.2L145.254 124.4C145.054 123.893 144.761 123.513 144.374 123.26C144.001 123.007 143.561 122.853 143.054 122.8V122.4H144.754C145.354 122.4 145.847 122.54 146.234 122.82C146.634 123.1 146.941 123.493 147.154 124L149.434 129.54L151.954 122.6H152.954L149.054 133.3C148.787 134.033 148.501 134.593 148.194 134.98C147.901 135.367 147.567 135.633 147.194 135.78C146.834 135.927 146.421 136 145.954 136H145.354ZM162.607 132V123.4H161.607C161.007 123.4 160.507 123.573 160.107 123.92C159.707 124.253 159.507 124.747 159.507 125.4H159.107V124.2C159.107 123.8 159.207 123.433 159.407 123.1C159.607 122.767 160.007 122.6 160.607 122.6H167.707V123.4H164.407V132H162.607ZM173.027 132.2C172.093 132.2 171.3 131.98 170.647 131.54C169.993 131.1 169.493 130.507 169.147 129.76C168.8 129.013 168.627 128.193 168.627 127.3C168.627 126.393 168.8 125.573 169.147 124.84C169.493 124.093 169.993 123.5 170.647 123.06C171.3 122.62 172.093 122.4 173.027 122.4C173.96 122.4 174.753 122.62 175.407 123.06C176.06 123.5 176.56 124.093 176.907 124.84C177.253 125.573 177.427 126.393 177.427 127.3C177.427 128.193 177.253 129.013 176.907 129.76C176.56 130.507 176.06 131.1 175.407 131.54C174.753 131.98 173.96 132.2 173.027 132.2ZM173.027 131.4C173.533 131.4 173.973 131.22 174.347 130.86C174.72 130.487 175.007 129.993 175.207 129.38C175.42 128.753 175.527 128.06 175.527 127.3C175.527 126.527 175.42 125.833 175.207 125.22C175.007 124.607 174.72 124.12 174.347 123.76C173.973 123.387 173.533 123.2 173.027 123.2C172.533 123.2 172.093 123.387 171.707 123.76C171.333 124.12 171.04 124.607 170.827 125.22C170.627 125.833 170.527 126.527 170.527 127.3C170.527 128.06 170.627 128.753 170.827 129.38C171.04 129.993 171.333 130.487 171.707 130.86C172.093 131.22 172.533 131.4 173.027 131.4ZM185.557 132V128.14C185.357 128.22 185.083 128.3 184.737 128.38C184.403 128.46 184.01 128.5 183.557 128.5C182.997 128.5 182.437 128.427 181.877 128.28C181.33 128.133 180.87 127.853 180.497 127.44C180.137 127.013 179.957 126.4 179.957 125.6V125C179.957 124.4 179.87 123.92 179.697 123.56C179.537 123.187 179.157 123 178.557 123H178.357V122.6H180.057C180.523 122.6 180.883 122.66 181.137 122.78C181.403 122.9 181.59 123.133 181.697 123.48C181.803 123.827 181.857 124.333 181.857 125V125.8C181.857 126.493 182.043 126.987 182.417 127.28C182.79 127.56 183.203 127.7 183.657 127.7C184.057 127.7 184.423 127.66 184.757 127.58C185.09 127.5 185.357 127.42 185.557 127.34V122.6H187.357V132H185.557ZM190.521 132V125C190.521 124.4 190.434 123.92 190.261 123.56C190.101 123.187 189.721 123 189.121 123H188.821V122.6H190.521C190.987 122.6 191.347 122.66 191.601 122.78C191.867 122.9 192.054 123.133 192.161 123.48C192.267 123.827 192.321 124.333 192.321 125V126.9H196.321V122.6H198.121V129.6C198.121 130.2 198.201 130.687 198.361 131.06C198.534 131.42 198.921 131.6 199.521 131.6H199.821V132H198.121C197.654 132 197.287 131.94 197.021 131.82C196.767 131.7 196.587 131.467 196.481 131.12C196.374 130.773 196.321 130.267 196.321 129.6V127.7H192.321V132H190.521ZM201.575 132V125C201.575 124.4 201.489 123.92 201.315 123.56C201.155 123.187 200.775 123 200.175 123H199.875V122.6H201.575C202.042 122.6 202.402 122.66 202.655 122.78C202.922 122.9 203.109 123.133 203.215 123.48C203.322 123.827 203.375 124.333 203.375 125V126.4H204.875C205.582 126.4 206.229 126.487 206.815 126.66C207.402 126.82 207.875 127.1 208.235 127.5C208.595 127.9 208.775 128.467 208.775 129.2C208.775 129.92 208.595 130.487 208.235 130.9C207.875 131.3 207.402 131.587 206.815 131.76C206.229 131.92 205.582 132 204.875 132H201.575ZM204.675 131.3C205.329 131.3 205.855 131.14 206.255 130.82C206.669 130.5 206.875 129.96 206.875 129.2C206.875 128.44 206.669 127.9 206.255 127.58C205.855 127.26 205.329 127.1 204.675 127.1C204.475 127.1 204.242 127.12 203.975 127.16C203.722 127.2 203.522 127.247 203.375 127.3V131.1C203.522 131.153 203.722 131.2 203.975 131.24C204.242 131.28 204.475 131.3 204.675 131.3ZM211.875 132C211.409 132 211.042 131.94 210.775 131.82C210.522 131.7 210.342 131.467 210.235 131.12C210.129 130.773 210.075 130.267 210.075 129.6V122.6H211.875V129.6C211.875 130.2 211.955 130.687 212.115 131.06C212.289 131.42 212.675 131.6 213.275 131.6H213.575V132H211.875ZM214.385 132L217.585 127.5L215.845 124.6C215.565 124.12 215.252 123.747 214.905 123.48C214.572 123.213 214.198 123.053 213.785 123V122.6H215.485C215.938 122.6 216.352 122.747 216.725 123.04C217.112 123.32 217.452 123.707 217.745 124.2L218.985 126.3L221.585 122.6H222.585L219.385 127.1L221.125 130C221.405 130.493 221.725 130.873 222.085 131.14C222.445 131.393 222.845 131.547 223.285 131.6V132H221.485C221.032 132 220.612 131.86 220.225 131.58C219.852 131.287 219.518 130.893 219.225 130.4L217.985 128.3L215.385 132H214.385ZM238.411 135.1C238.344 134.353 238.224 133.753 238.051 133.3C237.891 132.847 237.671 132.513 237.391 132.3C237.111 132.1 236.751 132 236.311 132H230.111V125C230.111 124.4 230.024 123.92 229.851 123.56C229.691 123.187 229.311 123 228.711 123H228.411V122.6H230.111C230.577 122.6 230.937 122.66 231.191 122.78C231.457 122.9 231.644 123.133 231.751 123.48C231.857 123.827 231.911 124.333 231.911 125V131.2H235.911V122.6H237.711V131.2H238.511C238.711 131.2 238.877 131.267 239.011 131.4C239.144 131.533 239.211 131.7 239.211 131.9V135.1H238.411ZM241.419 132V125C241.419 124.4 241.333 123.92 241.159 123.56C240.999 123.187 240.619 123 240.019 123H239.719V122.6H241.419C241.886 122.6 242.246 122.66 242.499 122.78C242.766 122.9 242.953 123.133 243.059 123.48C243.166 123.827 243.219 124.333 243.219 125V130.2L247.419 122.6H249.219V132H247.419V124.4L243.219 132H241.419ZM256.376 135.8V132.2C255.31 132.173 254.416 131.94 253.696 131.5C252.99 131.06 252.456 130.473 252.096 129.74C251.75 129.007 251.576 128.193 251.576 127.3C251.576 126.393 251.75 125.58 252.096 124.86C252.456 124.127 252.99 123.54 253.696 123.1C254.416 122.66 255.31 122.427 256.376 122.4V121.2C256.376 120.6 256.29 120.12 256.116 119.76C255.956 119.387 255.576 119.2 254.976 119.2H254.676V118.8H256.376C256.843 118.8 257.203 118.86 257.456 118.98C257.723 119.1 257.91 119.333 258.016 119.68C258.123 120.027 258.176 120.533 258.176 121.2V122.4C259.243 122.427 260.13 122.66 260.836 123.1C261.556 123.54 262.09 124.127 262.436 124.86C262.796 125.58 262.976 126.393 262.976 127.3C262.976 128.193 262.796 129.007 262.436 129.74C262.09 130.473 261.556 131.06 260.836 131.5C260.13 131.94 259.243 132.173 258.176 132.2V135.8H256.376ZM256.396 131.5V123.1C255.73 123.167 255.176 123.38 254.736 123.74C254.31 124.1 253.99 124.58 253.776 125.18C253.576 125.78 253.476 126.487 253.476 127.3C253.476 128.1 253.576 128.807 253.776 129.42C253.99 130.02 254.31 130.5 254.736 130.86C255.176 131.207 255.73 131.42 256.396 131.5ZM258.156 131.5C258.836 131.42 259.39 131.207 259.816 130.86C260.243 130.5 260.556 130.02 260.756 129.42C260.97 128.807 261.076 128.1 261.076 127.3C261.076 126.487 260.97 125.78 260.756 125.18C260.556 124.58 260.243 124.1 259.816 123.74C259.39 123.38 258.836 123.167 258.156 123.1V131.5ZM265.638 135.8V125C265.638 124.4 265.552 123.92 265.378 123.56C265.218 123.187 264.838 123 264.238 123H263.838V122.6H265.638C266.145 122.6 266.525 122.673 266.778 122.82C267.045 122.967 267.232 123.193 267.338 123.5C267.605 123.233 267.965 122.987 268.418 122.76C268.872 122.52 269.445 122.4 270.138 122.4C270.938 122.4 271.605 122.62 272.138 123.06C272.672 123.5 273.072 124.093 273.338 124.84C273.605 125.573 273.738 126.393 273.738 127.3C273.738 128.193 273.598 129.013 273.318 129.76C273.052 130.507 272.638 131.1 272.078 131.54C271.518 131.98 270.805 132.2 269.938 132.2C269.378 132.2 268.898 132.133 268.498 132C268.098 131.88 267.745 131.747 267.438 131.6V135.8H265.638ZM269.338 131.4C269.938 131.4 270.418 131.22 270.778 130.86C271.152 130.487 271.418 129.993 271.578 129.38C271.752 128.753 271.838 128.06 271.838 127.3C271.838 126.527 271.758 125.833 271.598 125.22C271.438 124.607 271.185 124.12 270.838 123.76C270.505 123.387 270.072 123.2 269.538 123.2C268.992 123.2 268.552 123.327 268.218 123.58C267.885 123.82 267.625 124.093 267.438 124.4V130.8C267.745 130.947 268.058 131.087 268.378 131.22C268.712 131.34 269.032 131.4 269.338 131.4ZM279.98 135.1V131.9C279.98 131.7 280.047 131.533 280.18 131.4C280.313 131.267 280.48 131.2 280.68 131.2H281.28C281.587 130.533 281.827 129.84 282 129.12C282.173 128.387 282.293 127.667 282.36 126.96C282.44 126.253 282.48 125.6 282.48 125C282.48 124.4 282.393 123.92 282.22 123.56C282.06 123.187 281.68 123 281.08 123V122.6H289.08V131.2H289.88C290.08 131.2 290.247 131.267 290.38 131.4C290.513 131.533 290.58 131.7 290.58 131.9V135.1H289.78C289.713 134.353 289.593 133.753 289.42 133.3C289.26 132.847 289.04 132.513 288.76 132.3C288.48 132.1 288.12 132 287.68 132H282.88C282.453 132 282.093 132.1 281.8 132.3C281.52 132.513 281.3 132.847 281.14 133.3C280.98 133.753 280.86 134.353 280.78 135.1H279.98ZM282.68 131.2H287.28V123.4H283.78C283.78 125.107 283.693 126.587 283.52 127.84C283.36 129.08 283.08 130.2 282.68 131.2ZM292.226 132.2C292.12 132.2 291.953 132.18 291.726 132.14C291.513 132.1 291.353 132.06 291.246 132.02V131.52C291.566 131.52 291.88 131.44 292.186 131.28C292.506 131.107 292.786 130.793 293.026 130.34C293.28 129.873 293.48 129.213 293.626 128.36C293.773 127.493 293.846 126.373 293.846 125C293.846 124.4 293.76 123.92 293.586 123.56C293.426 123.187 293.04 123 292.426 123V122.6H300.546V132H298.746V123.4H295.226V125C295.226 126.493 295.14 127.713 294.966 128.66C294.806 129.607 294.58 130.34 294.286 130.86C294.006 131.367 293.686 131.72 293.326 131.92C292.966 132.107 292.6 132.2 292.226 132.2ZM303.424 132.2C303.224 132.2 303.024 132.18 302.824 132.14C302.638 132.1 302.471 132.053 302.324 132V131.6C302.791 131.547 303.171 131.353 303.464 131.02C303.758 130.687 304.011 130.347 304.224 130L305.424 127.9C304.824 127.793 304.291 127.52 303.824 127.08C303.358 126.64 303.124 126.047 303.124 125.3C303.124 124.607 303.304 124.067 303.664 123.68C304.038 123.28 304.524 123 305.124 122.84C305.738 122.68 306.404 122.6 307.124 122.6H311.824V123H311.744C311.184 123.013 310.824 123.207 310.664 123.58C310.504 123.94 310.424 124.413 310.424 125V132H308.624V128H307.064L305.864 130.4C305.558 131 305.218 131.453 304.844 131.76C304.471 132.053 303.998 132.2 303.424 132.2ZM307.324 127.3C307.524 127.3 307.751 127.28 308.004 127.24C308.271 127.2 308.478 127.153 308.624 127.1V123.5C308.478 123.447 308.271 123.4 308.004 123.36C307.751 123.32 307.524 123.3 307.324 123.3C306.618 123.3 306.058 123.46 305.644 123.78C305.231 124.087 305.024 124.593 305.024 125.3C305.024 126.007 305.231 126.52 305.644 126.84C306.058 127.147 306.618 127.3 307.324 127.3ZM11.78 151.2C11.2733 151.2 10.7733 151.073 10.28 150.82C9.8 150.567 9.33333 150.16 8.88 149.6L6.58 146.7V151H4.78V144C4.78 143.4 4.69333 142.92 4.52 142.56C4.36 142.187 3.98 142 3.38 142H2.98V141.6H4.78C5.24667 141.6 5.60667 141.66 5.86 141.78C6.12667 141.9 6.31333 142.133 6.42 142.48C6.52667 142.827 6.58 143.333 6.58 144V146.4L9.08 142.9C9.37333 142.5 9.71333 142.187 10.1 141.96C10.5 141.72 11.0267 141.6 11.68 141.6H12.18V142.1C11.8733 142.1 11.56 142.167 11.24 142.3C10.92 142.42 10.6333 142.653 10.38 143L8.18 146.1L10.48 149C10.8267 149.453 11.18 149.82 11.54 150.1C11.9133 150.38 12.3267 150.553 12.78 150.62V151C12.6733 151.053 12.5267 151.1 12.34 151.14C12.1667 151.18 11.98 151.2 11.78 151.2ZM17.5188 151.2C16.5854 151.2 15.7921 150.98 15.1388 150.54C14.4854 150.1 13.9854 149.507 13.6388 148.76C13.2921 148.013 13.1188 147.193 13.1188 146.3C13.1188 145.393 13.2921 144.573 13.6388 143.84C13.9854 143.093 14.4854 142.5 15.1388 142.06C15.7921 141.62 16.5854 141.4 17.5188 141.4C18.4521 141.4 19.2454 141.62 19.8988 142.06C20.5521 142.5 21.0521 143.093 21.3988 143.84C21.7454 144.573 21.9188 145.393 21.9188 146.3C21.9188 147.193 21.7454 148.013 21.3988 148.76C21.0521 149.507 20.5521 150.1 19.8988 150.54C19.2454 150.98 18.4521 151.2 17.5188 151.2ZM17.5188 150.4C18.0254 150.4 18.4654 150.22 18.8388 149.86C19.2121 149.487 19.4988 148.993 19.6988 148.38C19.9121 147.753 20.0188 147.06 20.0188 146.3C20.0188 145.527 19.9121 144.833 19.6988 144.22C19.4988 143.607 19.2121 143.12 18.8388 142.76C18.4654 142.387 18.0254 142.2 17.5188 142.2C17.0254 142.2 16.5854 142.387 16.1988 142.76C15.8254 143.12 15.5321 143.607 15.3188 144.22C15.1188 144.833 15.0188 145.527 15.0188 146.3C15.0188 147.06 15.1188 147.753 15.3188 148.38C15.5321 148.993 15.8254 149.487 16.1988 149.86C16.5854 150.22 17.0254 150.4 17.5188 150.4ZM24.5442 151V144C24.5442 143.4 24.4576 142.92 24.2842 142.56C24.1242 142.187 23.7442 142 23.1442 142H22.8442V141.6H24.5442C25.0109 141.6 25.3709 141.66 25.6242 141.78C25.8909 141.9 26.0776 142.133 26.1842 142.48C26.2909 142.827 26.3442 143.333 26.3442 144V145.9H30.3442V141.6H32.1442V148.6C32.1442 149.2 32.2242 149.687 32.3842 150.06C32.5576 150.42 32.9442 150.6 33.5442 150.6H33.8442V151H32.1442C31.6776 151 31.3109 150.94 31.0442 150.82C30.7909 150.7 30.6109 150.467 30.5042 150.12C30.3976 149.773 30.3442 149.267 30.3442 148.6V146.7H26.3442V151H24.5442ZM37.9589 151V142.4H36.9589C36.3589 142.4 35.8589 142.573 35.4589 142.92C35.0589 143.253 34.8589 143.747 34.8589 144.4H34.4589V143.2C34.4589 142.8 34.5589 142.433 34.7589 142.1C34.9589 141.767 35.3589 141.6 35.9589 141.6H43.0589V142.4H39.7589V151H37.9589ZM45.0916 154.8V144C45.0916 143.4 45.0049 142.92 44.8316 142.56C44.6716 142.187 44.2916 142 43.6916 142H43.2916V141.6H45.0916C45.5982 141.6 45.9782 141.673 46.2316 141.82C46.4982 141.967 46.6849 142.193 46.7916 142.5C47.0582 142.233 47.4182 141.987 47.8716 141.76C48.3249 141.52 48.8982 141.4 49.5916 141.4C50.3916 141.4 51.0582 141.62 51.5916 142.06C52.1249 142.5 52.5249 143.093 52.7916 143.84C53.0582 144.573 53.1916 145.393 53.1916 146.3C53.1916 147.193 53.0516 148.013 52.7716 148.76C52.5049 149.507 52.0916 150.1 51.5316 150.54C50.9716 150.98 50.2582 151.2 49.3916 151.2C48.8316 151.2 48.3516 151.133 47.9516 151C47.5516 150.88 47.1982 150.747 46.8916 150.6V154.8H45.0916ZM48.7916 150.4C49.3916 150.4 49.8716 150.22 50.2316 149.86C50.6049 149.487 50.8716 148.993 51.0316 148.38C51.2049 147.753 51.2916 147.06 51.2916 146.3C51.2916 145.527 51.2116 144.833 51.0516 144.22C50.8916 143.607 50.6382 143.12 50.2916 142.76C49.9582 142.387 49.5249 142.2 48.9916 142.2C48.4449 142.2 48.0049 142.327 47.6716 142.58C47.3382 142.82 47.0782 143.093 46.8916 143.4V149.8C47.1982 149.947 47.5116 150.087 47.8316 150.22C48.1649 150.34 48.4849 150.4 48.7916 150.4ZM59.4133 151.2C58.4799 151.2 57.6866 150.98 57.0333 150.54C56.3799 150.1 55.8799 149.507 55.5333 148.76C55.1866 148.013 55.0133 147.193 55.0133 146.3C55.0133 145.393 55.1866 144.573 55.5333 143.84C55.8799 143.093 56.3799 142.5 57.0333 142.06C57.6866 141.62 58.4799 141.4 59.4133 141.4C60.3466 141.4 61.1399 141.62 61.7933 142.06C62.4466 142.5 62.9466 143.093 63.2933 143.84C63.6399 144.573 63.8133 145.393 63.8133 146.3C63.8133 147.193 63.6399 148.013 63.2933 148.76C62.9466 149.507 62.4466 150.1 61.7933 150.54C61.1399 150.98 60.3466 151.2 59.4133 151.2ZM59.4133 150.4C59.9199 150.4 60.3599 150.22 60.7333 149.86C61.1066 149.487 61.3933 148.993 61.5933 148.38C61.8066 147.753 61.9133 147.06 61.9133 146.3C61.9133 145.527 61.8066 144.833 61.5933 144.22C61.3933 143.607 61.1066 143.12 60.7333 142.76C60.3599 142.387 59.9199 142.2 59.4133 142.2C58.9199 142.2 58.4799 142.387 58.0933 142.76C57.7199 143.12 57.4266 143.607 57.2133 144.22C57.0133 144.833 56.9133 145.527 56.9133 146.3C56.9133 147.06 57.0133 147.753 57.2133 148.38C57.4266 148.993 57.7199 149.487 58.0933 149.86C58.4799 150.22 58.9199 150.4 59.4133 150.4ZM65.4491 151.2C65.3424 151.2 65.1757 151.18 64.9491 151.14C64.7357 151.1 64.5757 151.06 64.4691 151.02V150.52C64.7891 150.52 65.1024 150.44 65.4091 150.28C65.7291 150.107 66.0091 149.793 66.2491 149.34C66.5024 148.873 66.7024 148.213 66.8491 147.36C66.9957 146.493 67.0691 145.373 67.0691 144C67.0691 143.4 66.9824 142.92 66.8091 142.56C66.6491 142.187 66.2624 142 65.6491 142V141.6H73.7691V151H71.9691V142.4H68.4491V144C68.4491 145.493 68.3624 146.713 68.1891 147.66C68.0291 148.607 67.8024 149.34 67.5091 149.86C67.2291 150.367 66.9091 150.72 66.5491 150.92C66.1891 151.107 65.8224 151.2 65.4491 151.2ZM76.647 151.2C76.447 151.2 76.247 151.18 76.047 151.14C75.8604 151.1 75.6937 151.053 75.547 151V150.6C76.0137 150.547 76.3937 150.353 76.687 150.02C76.9804 149.687 77.2337 149.347 77.447 149L78.647 146.9C78.047 146.793 77.5137 146.52 77.047 146.08C76.5804 145.64 76.347 145.047 76.347 144.3C76.347 143.607 76.527 143.067 76.887 142.68C77.2604 142.28 77.747 142 78.347 141.84C78.9604 141.68 79.627 141.6 80.347 141.6H85.047V142H84.967C84.407 142.013 84.047 142.207 83.887 142.58C83.727 142.94 83.647 143.413 83.647 144V151H81.847V147H80.287L79.087 149.4C78.7804 150 78.4404 150.453 78.067 150.76C77.6937 151.053 77.2204 151.2 76.647 151.2ZM80.547 146.3C80.747 146.3 80.9737 146.28 81.227 146.24C81.4937 146.2 81.7004 146.153 81.847 146.1V142.5C81.7004 142.447 81.4937 142.4 81.227 142.36C80.9737 142.32 80.747 142.3 80.547 142.3C79.8404 142.3 79.2804 142.46 78.867 142.78C78.4537 143.087 78.247 143.593 78.247 144.3C78.247 145.007 78.4537 145.52 78.867 145.84C79.2804 146.147 79.8404 146.3 80.547 146.3ZM94.8823 151.2C94.349 151.2 93.8557 151.133 93.4023 151C92.9623 150.853 92.5557 150.627 92.1823 150.32C91.8223 150.013 91.489 149.607 91.1823 149.1L91.5823 148.8C91.929 149.307 92.3223 149.7 92.7623 149.98C93.2023 150.26 93.7757 150.4 94.4823 150.4C95.4023 150.4 96.1023 150.06 96.5823 149.38C97.0623 148.7 97.329 147.84 97.3823 146.8H93.1823V146H97.3823C97.3557 145.293 97.229 144.653 97.0023 144.08C96.789 143.507 96.4757 143.053 96.0623 142.72C95.649 142.373 95.1223 142.2 94.4823 142.2C93.7757 142.2 93.1757 142.407 92.6823 142.82C92.2023 143.22 91.9357 143.847 91.8823 144.7H91.4823C91.4823 143.953 91.5023 143.4 91.5423 143.04C91.5823 142.667 91.729 142.353 91.9823 142.1C92.2357 141.847 92.6023 141.667 93.0823 141.56C93.5757 141.453 94.1757 141.4 94.8823 141.4C95.8823 141.4 96.7023 141.62 97.3423 142.06C97.9957 142.5 98.4823 143.093 98.8023 143.84C99.1223 144.573 99.2823 145.393 99.2823 146.3C99.2823 147.193 99.1223 148.013 98.8023 148.76C98.4823 149.507 97.9957 150.1 97.3423 150.54C96.7023 150.98 95.8823 151.2 94.8823 151.2ZM105.908 154.8V151.2C104.841 151.173 103.948 150.94 103.228 150.5C102.521 150.06 101.988 149.473 101.628 148.74C101.281 148.007 101.108 147.193 101.108 146.3C101.108 145.393 101.281 144.58 101.628 143.86C101.988 143.127 102.521 142.54 103.228 142.1C103.948 141.66 104.841 141.427 105.908 141.4V140.2C105.908 139.6 105.821 139.12 105.648 138.76C105.488 138.387 105.108 138.2 104.508 138.2H104.208V137.8H105.908C106.374 137.8 106.734 137.86 106.988 137.98C107.254 138.1 107.441 138.333 107.548 138.68C107.654 139.027 107.708 139.533 107.708 140.2V141.4C108.774 141.427 109.661 141.66 110.368 142.1C111.088 142.54 111.621 143.127 111.968 143.86C112.328 144.58 112.508 145.393 112.508 146.3C112.508 147.193 112.328 148.007 111.968 148.74C111.621 149.473 111.088 150.06 110.368 150.5C109.661 150.94 108.774 151.173 107.708 151.2V154.8H105.908ZM105.928 150.5V142.1C105.261 142.167 104.708 142.38 104.268 142.74C103.841 143.1 103.521 143.58 103.308 144.18C103.108 144.78 103.008 145.487 103.008 146.3C103.008 147.1 103.108 147.807 103.308 148.42C103.521 149.02 103.841 149.5 104.268 149.86C104.708 150.207 105.261 150.42 105.928 150.5ZM107.688 150.5C108.368 150.42 108.921 150.207 109.348 149.86C109.774 149.5 110.088 149.02 110.287 148.42C110.501 147.807 110.608 147.1 110.608 146.3C110.608 145.487 110.501 144.78 110.287 144.18C110.088 143.58 109.774 143.1 109.348 142.74C108.921 142.38 108.368 142.167 107.688 142.1V150.5ZM119.15 154.8V151.2C118.083 151.173 117.19 150.94 116.47 150.5C115.763 150.06 115.23 149.473 114.87 148.74C114.523 148.007 114.35 147.193 114.35 146.3C114.35 145.393 114.523 144.58 114.87 143.86C115.23 143.127 115.763 142.54 116.47 142.1C117.19 141.66 118.083 141.427 119.15 141.4V140.2C119.15 139.6 119.063 139.12 118.89 138.76C118.73 138.387 118.35 138.2 117.75 138.2H117.45V137.8H119.15C119.616 137.8 119.976 137.86 120.23 137.98C120.496 138.1 120.683 138.333 120.79 138.68C120.896 139.027 120.95 139.533 120.95 140.2V141.4C122.016 141.427 122.903 141.66 123.61 142.1C124.33 142.54 124.863 143.127 125.21 143.86C125.57 144.58 125.75 145.393 125.75 146.3C125.75 147.193 125.57 148.007 125.21 148.74C124.863 149.473 124.33 150.06 123.61 150.5C122.903 150.94 122.016 151.173 120.95 151.2V154.8H119.15ZM119.17 150.5V142.1C118.503 142.167 117.95 142.38 117.51 142.74C117.083 143.1 116.763 143.58 116.55 144.18C116.35 144.78 116.25 145.487 116.25 146.3C116.25 147.1 116.35 147.807 116.55 148.42C116.763 149.02 117.083 149.5 117.51 149.86C117.95 150.207 118.503 150.42 119.17 150.5ZM120.93 150.5C121.61 150.42 122.163 150.207 122.59 149.86C123.016 149.5 123.33 149.02 123.53 148.42C123.743 147.807 123.85 147.1 123.85 146.3C123.85 145.487 123.743 144.78 123.53 144.18C123.33 143.58 123.016 143.1 122.59 142.74C122.163 142.38 121.61 142.167 120.93 142.1V150.5ZM131.772 151.2C130.839 151.2 130.059 150.98 129.432 150.54C128.819 150.1 128.352 149.507 128.032 148.76C127.725 148.013 127.572 147.193 127.572 146.3C127.572 145.393 127.732 144.573 128.052 143.84C128.372 143.093 128.832 142.5 129.432 142.06C130.032 141.62 130.745 141.4 131.572 141.4C132.479 141.4 133.225 141.573 133.812 141.92C134.412 142.253 134.852 142.747 135.132 143.4C135.425 144.053 135.572 144.853 135.572 145.8L135.532 146.6H129.472C129.472 147.693 129.705 148.6 130.172 149.32C130.652 150.04 131.319 150.4 132.172 150.4C132.825 150.4 133.365 150.26 133.792 149.98C134.232 149.7 134.625 149.307 134.972 148.8L135.372 149.1C135.079 149.607 134.745 150.013 134.372 150.32C134.012 150.627 133.612 150.853 133.172 151C132.745 151.133 132.279 151.2 131.772 151.2ZM129.472 145.8H133.672C133.672 144.64 133.499 143.753 133.152 143.14C132.805 142.513 132.279 142.2 131.572 142.2C131.172 142.2 130.812 142.36 130.492 142.68C130.185 142.987 129.939 143.413 129.752 143.96C129.565 144.493 129.472 145.107 129.472 145.8ZM145.218 151.2C144.711 151.2 144.211 151.073 143.718 150.82C143.238 150.567 142.771 150.16 142.317 149.6L140.018 146.7V151H138.218V144C138.218 143.4 138.131 142.92 137.958 142.56C137.798 142.187 137.418 142 136.818 142H136.417V141.6H138.218C138.684 141.6 139.044 141.66 139.298 141.78C139.564 141.9 139.751 142.133 139.858 142.48C139.964 142.827 140.018 143.333 140.018 144V146.4L142.518 142.9C142.811 142.5 143.151 142.187 143.538 141.96C143.938 141.72 144.464 141.6 145.118 141.6H145.618V142.1C145.311 142.1 144.998 142.167 144.678 142.3C144.358 142.42 144.071 142.653 143.818 143L141.618 146.1L143.918 149C144.264 149.453 144.618 149.82 144.978 150.1C145.351 150.38 145.764 150.553 146.218 150.62V151C146.111 151.053 145.964 151.1 145.778 151.14C145.604 151.18 145.418 151.2 145.218 151.2ZM150.459 151V142.4H149.459C148.859 142.4 148.359 142.573 147.959 142.92C147.559 143.253 147.359 143.747 147.359 144.4H146.959V143.2C146.959 142.8 147.059 142.433 147.259 142.1C147.459 141.767 147.859 141.6 148.459 141.6H155.559V142.4H152.259V151H150.459ZM157.572 151V144C157.572 143.4 157.485 142.92 157.312 142.56C157.152 142.187 156.772 142 156.172 142H155.872V141.6H157.572C158.038 141.6 158.398 141.66 158.652 141.78C158.918 141.9 159.105 142.133 159.212 142.48C159.318 142.827 159.372 143.333 159.372 144V149.2L163.572 141.6H165.372V151H163.572V143.4L159.372 151H157.572ZM168.449 151V144C168.449 143.4 168.362 142.92 168.189 142.56C168.029 142.187 167.649 142 167.049 142H166.849V141.6H171.749C172.415 141.6 173.035 141.673 173.609 141.82C174.195 141.967 174.662 142.213 175.009 142.56C175.369 142.907 175.549 143.387 175.549 144C175.549 144.56 175.389 145.013 175.069 145.36C174.762 145.707 174.255 145.953 173.549 146.1C174.309 146.247 174.895 146.52 175.309 146.92C175.735 147.307 175.949 147.8 175.949 148.4C175.949 149.067 175.762 149.593 175.389 149.98C175.029 150.353 174.529 150.62 173.889 150.78C173.262 150.927 172.549 151 171.749 151H168.449ZM171.549 150.3C172.349 150.3 172.962 150.147 173.389 149.84C173.829 149.533 174.049 149.053 174.049 148.4C174.049 147.773 173.822 147.3 173.369 146.98C172.929 146.66 172.255 146.5 171.349 146.5H170.249V150.1C170.395 150.153 170.595 150.2 170.849 150.24C171.115 150.28 171.349 150.3 171.549 150.3ZM170.249 145.7H171.349C172.055 145.7 172.615 145.56 173.029 145.28C173.442 144.987 173.649 144.56 173.649 144C173.649 143.44 173.449 143.02 173.049 142.74C172.649 142.447 172.149 142.3 171.549 142.3C171.349 142.3 171.115 142.32 170.849 142.36C170.595 142.4 170.395 142.447 170.249 142.5V145.7ZM178.548 151V144C178.548 143.4 178.461 142.92 178.288 142.56C178.128 142.187 177.748 142 177.148 142H176.848V141.6H178.548C179.015 141.6 179.375 141.66 179.628 141.78C179.895 141.9 180.081 142.133 180.188 142.48C180.295 142.827 180.348 143.333 180.348 144V145.9H184.348V141.6H186.148V148.6C186.148 149.2 186.228 149.687 186.388 150.06C186.561 150.42 186.948 150.6 187.548 150.6H187.848V151H186.148C185.681 151 185.315 150.94 185.048 150.82C184.795 150.7 184.615 150.467 184.508 150.12C184.401 149.773 184.348 149.267 184.348 148.6V146.7H180.348V151H178.548ZM193.183 151.2C192.249 151.2 191.456 150.98 190.803 150.54C190.149 150.1 189.649 149.507 189.303 148.76C188.956 148.013 188.783 147.193 188.783 146.3C188.783 145.393 188.956 144.573 189.303 143.84C189.649 143.093 190.149 142.5 190.803 142.06C191.456 141.62 192.249 141.4 193.183 141.4C194.116 141.4 194.909 141.62 195.563 142.06C196.216 142.5 196.716 143.093 197.063 143.84C197.409 144.573 197.583 145.393 197.583 146.3C197.583 147.193 197.409 148.013 197.063 148.76C196.716 149.507 196.216 150.1 195.563 150.54C194.909 150.98 194.116 151.2 193.183 151.2ZM193.183 150.4C193.689 150.4 194.129 150.22 194.503 149.86C194.876 149.487 195.163 148.993 195.363 148.38C195.576 147.753 195.683 147.06 195.683 146.3C195.683 145.527 195.576 144.833 195.363 144.22C195.163 143.607 194.876 143.12 194.503 142.76C194.129 142.387 193.689 142.2 193.183 142.2C192.689 142.2 192.249 142.387 191.863 142.76C191.489 143.12 191.196 143.607 190.983 144.22C190.783 144.833 190.683 145.527 190.683 146.3C190.683 147.06 190.783 147.753 190.983 148.38C191.196 148.993 191.489 149.487 191.863 149.86C192.249 150.22 192.689 150.4 193.183 150.4ZM203.788 151.2C202.802 151.2 201.982 150.98 201.328 150.54C200.675 150.1 200.188 149.507 199.868 148.76C199.548 148.013 199.388 147.193 199.388 146.3C199.388 145.393 199.548 144.573 199.868 143.84C200.188 143.093 200.675 142.5 201.328 142.06C201.982 141.62 202.802 141.4 203.788 141.4C204.495 141.4 205.088 141.453 205.568 141.56C206.062 141.667 206.435 141.847 206.688 142.1C206.942 142.353 207.088 142.667 207.128 143.04C207.168 143.4 207.188 143.953 207.188 144.7H206.788C206.735 143.847 206.462 143.22 205.968 142.82C205.488 142.407 204.895 142.2 204.188 142.2C203.522 142.2 202.975 142.387 202.548 142.76C202.122 143.12 201.802 143.607 201.588 144.22C201.388 144.833 201.288 145.527 201.288 146.3C201.288 147.06 201.388 147.753 201.588 148.38C201.802 148.993 202.122 149.487 202.548 149.86C202.975 150.22 203.522 150.4 204.188 150.4C204.895 150.4 205.468 150.26 205.908 149.98C206.348 149.7 206.742 149.307 207.088 148.8L207.488 149.1C207.195 149.607 206.862 150.013 206.488 150.32C206.115 150.627 205.702 150.853 205.248 151C204.808 151.133 204.322 151.2 203.788 151.2ZM212.236 151V142.4H211.236C210.636 142.4 210.136 142.573 209.736 142.92C209.336 143.253 209.136 143.747 209.136 144.4H208.736V143.2C208.736 142.8 208.836 142.433 209.036 142.1C209.236 141.767 209.636 141.6 210.236 141.6H217.336V142.4H214.036V151H212.236ZM219.349 151V144C219.349 143.4 219.262 142.92 219.089 142.56C218.929 142.187 218.549 142 217.949 142H217.649V141.6H219.349C219.816 141.6 220.176 141.66 220.429 141.78C220.696 141.9 220.882 142.133 220.989 142.48C221.096 142.827 221.149 143.333 221.149 144V149.2L225.349 141.6H227.149V151H225.349V143.4L221.149 151H219.349ZM235.306 151V144C235.306 143.4 235.219 142.92 235.046 142.56C234.886 142.187 234.506 142 233.906 142H233.606V141.6H235.306C235.773 141.6 236.133 141.66 236.386 141.78C236.653 141.9 236.839 142.133 236.946 142.48C237.053 142.827 237.106 143.333 237.106 144V149.2L241.306 141.6H243.106V151H241.306V143.4L237.106 151H235.306ZM4.64 170V163C4.64 162.4 4.55333 161.92 4.38 161.56C4.22 161.187 3.84 161 3.24 161H3.04V160.6H12.24V170H10.44V161.4H6.44V170H4.64ZM15.4236 173.8V163C15.4236 162.4 15.3369 161.92 15.1636 161.56C15.0036 161.187 14.6236 161 14.0236 161H13.6236V160.6H15.4236C15.9303 160.6 16.3103 160.673 16.5636 160.82C16.8303 160.967 17.0169 161.193 17.1236 161.5C17.3903 161.233 17.7503 160.987 18.2036 160.76C18.6569 160.52 19.2303 160.4 19.9236 160.4C20.7236 160.4 21.3903 160.62 21.9236 161.06C22.4569 161.5 22.8569 162.093 23.1236 162.84C23.3903 163.573 23.5236 164.393 23.5236 165.3C23.5236 166.193 23.3836 167.013 23.1036 167.76C22.8369 168.507 22.4236 169.1 21.8636 169.54C21.3036 169.98 20.5903 170.2 19.7236 170.2C19.1636 170.2 18.6836 170.133 18.2836 170C17.8836 169.88 17.5303 169.747 17.2236 169.6V173.8H15.4236ZM19.1236 169.4C19.7236 169.4 20.2036 169.22 20.5636 168.86C20.9369 168.487 21.2036 167.993 21.3636 167.38C21.5369 166.753 21.6236 166.06 21.6236 165.3C21.6236 164.527 21.5436 163.833 21.3836 163.22C21.2236 162.607 20.9703 162.12 20.6236 161.76C20.2903 161.387 19.8569 161.2 19.3236 161.2C18.7769 161.2 18.3369 161.327 18.0036 161.58C17.6703 161.82 17.4103 162.093 17.2236 162.4V168.8C17.5303 168.947 17.8436 169.087 18.1636 169.22C18.4969 169.34 18.8169 169.4 19.1236 169.4ZM29.7453 170.2C28.812 170.2 28.0186 169.98 27.3653 169.54C26.712 169.1 26.212 168.507 25.8653 167.76C25.5186 167.013 25.3453 166.193 25.3453 165.3C25.3453 164.393 25.5186 163.573 25.8653 162.84C26.212 162.093 26.712 161.5 27.3653 161.06C28.0186 160.62 28.812 160.4 29.7453 160.4C30.6786 160.4 31.472 160.62 32.1253 161.06C32.7786 161.5 33.2786 162.093 33.6253 162.84C33.972 163.573 34.1453 164.393 34.1453 165.3C34.1453 166.193 33.972 167.013 33.6253 167.76C33.2786 168.507 32.7786 169.1 32.1253 169.54C31.472 169.98 30.6786 170.2 29.7453 170.2ZM29.7453 169.4C30.252 169.4 30.692 169.22 31.0653 168.86C31.4386 168.487 31.7253 167.993 31.9253 167.38C32.1386 166.753 32.2453 166.06 32.2453 165.3C32.2453 164.527 32.1386 163.833 31.9253 163.22C31.7253 162.607 31.4386 162.12 31.0653 161.76C30.692 161.387 30.252 161.2 29.7453 161.2C29.252 161.2 28.812 161.387 28.4253 161.76C28.052 162.12 27.7586 162.607 27.5453 163.22C27.3453 163.833 27.2453 164.527 27.2453 165.3C27.2453 166.06 27.3453 166.753 27.5453 167.38C27.7586 167.993 28.052 168.487 28.4253 168.86C28.812 169.22 29.252 169.4 29.7453 169.4ZM36.6908 170V163C36.6908 162.4 36.6041 161.92 36.4308 161.56C36.2708 161.187 35.8908 161 35.2908 161H35.0908V160.6H41.6908C42.2908 160.6 42.6908 160.767 42.8908 161.1C43.0908 161.433 43.1908 161.8 43.1908 162.2V163.4H42.7908C42.7908 162.747 42.5908 162.253 42.1908 161.92C41.7908 161.573 41.2908 161.4 40.6908 161.4H38.4908V170H36.6908ZM45.4622 170V163C45.4622 162.4 45.3755 161.92 45.2022 161.56C45.0422 161.187 44.6622 161 44.0622 161H43.7622V160.6H45.4622C45.9289 160.6 46.2889 160.66 46.5422 160.78C46.8089 160.9 46.9955 161.133 47.1022 161.48C47.2089 161.827 47.2622 162.333 47.2622 163V164.9H51.2622V160.6H53.0622V167.6C53.0622 168.2 53.1422 168.687 53.3022 169.06C53.4755 169.42 53.8622 169.6 54.4622 169.6H54.7622V170H53.0622C52.5955 170 52.2289 169.94 51.9622 169.82C51.7089 169.7 51.5289 169.467 51.4222 169.12C51.3155 168.773 51.2622 168.267 51.2622 167.6V165.7H47.2622V170H45.4622ZM60.0969 170.2C59.1635 170.2 58.3702 169.98 57.7169 169.54C57.0635 169.1 56.5635 168.507 56.2169 167.76C55.8702 167.013 55.6969 166.193 55.6969 165.3C55.6969 164.393 55.8702 163.573 56.2169 162.84C56.5635 162.093 57.0635 161.5 57.7169 161.06C58.3702 160.62 59.1635 160.4 60.0969 160.4C61.0302 160.4 61.8235 160.62 62.4769 161.06C63.1302 161.5 63.6302 162.093 63.9769 162.84C64.3235 163.573 64.4969 164.393 64.4969 165.3C64.4969 166.193 64.3235 167.013 63.9769 167.76C63.6302 168.507 63.1302 169.1 62.4769 169.54C61.8235 169.98 61.0302 170.2 60.0969 170.2ZM60.0969 169.4C60.6035 169.4 61.0435 169.22 61.4169 168.86C61.7902 168.487 62.0769 167.993 62.2769 167.38C62.4902 166.753 62.5969 166.06 62.5969 165.3C62.5969 164.527 62.4902 163.833 62.2769 163.22C62.0769 162.607 61.7902 162.12 61.4169 161.76C61.0435 161.387 60.6035 161.2 60.0969 161.2C59.6035 161.2 59.1635 161.387 58.7769 161.76C58.4035 162.12 58.1102 162.607 57.8969 163.22C57.6969 163.833 57.5969 164.527 57.5969 165.3C57.5969 166.06 57.6969 166.753 57.8969 167.38C58.1102 167.993 58.4035 168.487 58.7769 168.86C59.1635 169.22 59.6035 169.4 60.0969 169.4ZM69.6223 170.2C68.729 170.2 68.009 170.047 67.4623 169.74C66.9157 169.433 66.469 169.053 66.1223 168.6L66.5223 168.3C66.7757 168.553 67.1023 168.8 67.5023 169.04C67.9157 169.28 68.489 169.4 69.2223 169.4C70.0223 169.4 70.6357 169.247 71.0623 168.94C71.5023 168.633 71.7223 168.153 71.7223 167.5C71.7223 166.873 71.489 166.4 71.0223 166.08C70.5557 165.76 69.8557 165.6 68.9223 165.6H68.0223V164.8H68.9223C69.7223 164.8 70.3357 164.653 70.7623 164.36C71.2023 164.053 71.4223 163.6 71.4223 163C71.4223 162.4 71.229 161.953 70.8423 161.66C70.4557 161.353 69.9823 161.2 69.4223 161.2C68.7023 161.2 68.0957 161.387 67.6023 161.76C67.1223 162.133 66.8623 162.647 66.8223 163.3H66.4223C66.4223 162.74 66.4423 162.3 66.4823 161.98C66.5223 161.647 66.669 161.353 66.9223 161.1C67.1757 160.847 67.5423 160.667 68.0223 160.56C68.5023 160.453 69.069 160.4 69.7223 160.4C70.3223 160.4 70.8957 160.48 71.4423 160.64C71.989 160.8 72.4357 161.067 72.7823 161.44C73.1423 161.813 73.3223 162.333 73.3223 163C73.3223 163.6 73.1357 164.08 72.7623 164.44C72.4023 164.8 71.9223 165.053 71.3223 165.2C72.0423 165.347 72.6023 165.62 73.0023 166.02C73.4157 166.407 73.6223 166.9 73.6223 167.5C73.6223 168.193 73.4357 168.74 73.0623 169.14C72.7023 169.527 72.2223 169.8 71.6223 169.96C71.0223 170.12 70.3557 170.2 69.6223 170.2ZM76.2239 170V163C76.2239 162.4 76.1372 161.92 75.9639 161.56C75.8039 161.187 75.4239 161 74.8239 161H74.5239V160.6H76.2239C76.6906 160.6 77.0506 160.66 77.3039 160.78C77.5706 160.9 77.7572 161.133 77.8639 161.48C77.9706 161.827 78.0239 162.333 78.0239 163V168.2L82.2239 160.6H84.0239V170H82.2239V162.4L78.0239 170H76.2239ZM87.2009 173.8V163C87.2009 162.4 87.1143 161.92 86.9409 161.56C86.7809 161.187 86.4009 161 85.8009 161H85.4009V160.6H87.2009C87.7076 160.6 88.0876 160.673 88.3409 160.82C88.6076 160.967 88.7943 161.193 88.9009 161.5C89.1676 161.233 89.5276 160.987 89.9809 160.76C90.4343 160.52 91.0076 160.4 91.7009 160.4C92.5009 160.4 93.1676 160.62 93.7009 161.06C94.2343 161.5 94.6343 162.093 94.9009 162.84C95.1676 163.573 95.3009 164.393 95.3009 165.3C95.3009 166.193 95.1609 167.013 94.8809 167.76C94.6143 168.507 94.2009 169.1 93.6409 169.54C93.0809 169.98 92.3676 170.2 91.5009 170.2C90.9409 170.2 90.4609 170.133 90.0609 170C89.6609 169.88 89.3076 169.747 89.0009 169.6V173.8H87.2009ZM90.9009 169.4C91.5009 169.4 91.9809 169.22 92.3409 168.86C92.7143 168.487 92.9809 167.993 93.1409 167.38C93.3143 166.753 93.4009 166.06 93.4009 165.3C93.4009 164.527 93.3209 163.833 93.1609 163.22C93.0009 162.607 92.7476 162.12 92.4009 161.76C92.0676 161.387 91.6343 161.2 91.1009 161.2C90.5543 161.2 90.1143 161.327 89.7809 161.58C89.4476 161.82 89.1876 162.093 89.0009 162.4V168.8C89.3076 168.947 89.6209 169.087 89.9409 169.22C90.2743 169.34 90.5943 169.4 90.9009 169.4ZM101.523 170.2C100.589 170.2 99.796 169.98 99.1427 169.54C98.4893 169.1 97.9893 168.507 97.6427 167.76C97.296 167.013 97.1227 166.193 97.1227 165.3C97.1227 164.393 97.296 163.573 97.6427 162.84C97.9893 162.093 98.4893 161.5 99.1427 161.06C99.796 160.62 100.589 160.4 101.523 160.4C102.456 160.4 103.249 160.62 103.903 161.06C104.556 161.5 105.056 162.093 105.403 162.84C105.749 163.573 105.923 164.393 105.923 165.3C105.923 166.193 105.749 167.013 105.403 167.76C105.056 168.507 104.556 169.1 103.903 169.54C103.249 169.98 102.456 170.2 101.523 170.2ZM101.523 169.4C102.029 169.4 102.469 169.22 102.843 168.86C103.216 168.487 103.503 167.993 103.703 167.38C103.916 166.753 104.023 166.06 104.023 165.3C104.023 164.527 103.916 163.833 103.703 163.22C103.503 162.607 103.216 162.12 102.843 161.76C102.469 161.387 102.029 161.2 101.523 161.2C101.029 161.2 100.589 161.387 100.203 161.76C99.8293 162.12 99.536 162.607 99.3227 163.22C99.1227 163.833 99.0227 164.527 99.0227 165.3C99.0227 166.06 99.1227 166.753 99.3227 167.38C99.536 167.993 99.8293 168.487 100.203 168.86C100.589 169.22 101.029 169.4 101.523 169.4ZM108.468 170V163C108.468 162.4 108.381 161.92 108.208 161.56C108.048 161.187 107.668 161 107.068 161H106.868V160.6H111.768C112.435 160.6 113.055 160.673 113.628 160.82C114.215 160.967 114.681 161.213 115.028 161.56C115.388 161.907 115.568 162.387 115.568 163C115.568 163.56 115.408 164.013 115.088 164.36C114.781 164.707 114.275 164.953 113.568 165.1C114.328 165.247 114.915 165.52 115.328 165.92C115.755 166.307 115.968 166.8 115.968 167.4C115.968 168.067 115.781 168.593 115.408 168.98C115.048 169.353 114.548 169.62 113.908 169.78C113.281 169.927 112.568 170 111.768 170H108.468ZM111.568 169.3C112.368 169.3 112.981 169.147 113.408 168.84C113.848 168.533 114.068 168.053 114.068 167.4C114.068 166.773 113.841 166.3 113.388 165.98C112.948 165.66 112.275 165.5 111.368 165.5H110.268V169.1C110.415 169.153 110.615 169.2 110.868 169.24C111.135 169.28 111.368 169.3 111.568 169.3ZM110.268 164.7H111.368C112.075 164.7 112.635 164.56 113.048 164.28C113.461 163.987 113.668 163.56 113.668 163C113.668 162.44 113.468 162.02 113.068 161.74C112.668 161.447 112.168 161.3 111.568 161.3C111.368 161.3 111.135 161.32 110.868 161.36C110.615 161.4 110.415 161.447 110.268 161.5V164.7ZM120.528 170.2C120.248 170.2 119.941 170.153 119.608 170.06C119.288 169.98 118.974 169.833 118.668 169.62C118.361 169.407 118.108 169.12 117.908 168.76C117.721 168.4 117.628 167.947 117.628 167.4C117.628 166.667 117.861 166.1 118.328 165.7C118.808 165.3 119.434 165.02 120.208 164.86C120.994 164.687 121.834 164.6 122.728 164.6H123.328C123.328 163.667 123.234 162.96 123.048 162.48C122.861 161.987 122.608 161.653 122.288 161.48C121.981 161.293 121.628 161.2 121.228 161.2C120.668 161.2 120.194 161.32 119.808 161.56C119.434 161.8 119.174 162.247 119.028 162.9H118.128C118.128 162.553 118.148 162.233 118.188 161.94C118.228 161.633 118.374 161.353 118.628 161.1C118.881 160.847 119.294 160.667 119.868 160.56C120.441 160.453 121.028 160.4 121.628 160.4C122.081 160.4 122.514 160.453 122.928 160.56C123.354 160.667 123.728 160.867 124.048 161.16C124.381 161.44 124.641 161.86 124.828 162.42C125.028 162.967 125.128 163.693 125.128 164.6V170H124.128L123.428 169.1H123.328C123.128 169.353 122.801 169.6 122.348 169.84C121.894 170.08 121.288 170.2 120.528 170.2ZM121.428 169.3C121.921 169.3 122.308 169.18 122.588 168.94C122.881 168.687 123.128 168.407 123.328 168.1V165.4H122.728C121.728 165.4 120.941 165.587 120.368 165.96C119.808 166.32 119.528 166.8 119.528 167.4C119.528 168.053 119.721 168.533 120.108 168.84C120.494 169.147 120.934 169.3 121.428 169.3ZM128.197 170V163C128.197 162.4 128.11 161.92 127.937 161.56C127.777 161.187 127.397 161 126.797 161H126.497V160.6H128.197C128.663 160.6 129.023 160.66 129.277 160.78C129.543 160.9 129.73 161.133 129.837 161.48C129.943 161.827 129.997 162.333 129.997 163V164.9H133.997V160.6H135.797V167.6C135.797 168.2 135.877 168.687 136.037 169.06C136.21 169.42 136.597 169.6 137.197 169.6H137.497V170H135.797C135.33 170 134.963 169.94 134.697 169.82C134.443 169.7 134.263 169.467 134.157 169.12C134.05 168.773 133.997 168.267 133.997 167.6V165.7H129.997V170H128.197ZM139.251 170V163C139.251 162.4 139.165 161.92 138.991 161.56C138.831 161.187 138.451 161 137.851 161H137.551V160.6H139.251C139.718 160.6 140.078 160.66 140.331 160.78C140.598 160.9 140.785 161.133 140.891 161.48C140.998 161.827 141.051 162.333 141.051 163V168.2L145.251 160.6H147.051V170H145.251V162.4L141.051 170H139.251ZM149.928 170.2C149.728 170.2 149.528 170.18 149.328 170.14C149.142 170.1 148.975 170.053 148.828 170V169.6C149.295 169.547 149.675 169.353 149.968 169.02C150.262 168.687 150.515 168.347 150.728 168L151.928 165.9C151.328 165.793 150.795 165.52 150.328 165.08C149.862 164.64 149.628 164.047 149.628 163.3C149.628 162.607 149.808 162.067 150.168 161.68C150.542 161.28 151.028 161 151.628 160.84C152.242 160.68 152.908 160.6 153.628 160.6H158.328V161H158.248C157.688 161.013 157.328 161.207 157.168 161.58C157.008 161.94 156.928 162.413 156.928 163V170H155.128V166H153.568L152.368 168.4C152.062 169 151.722 169.453 151.348 169.76C150.975 170.053 150.502 170.2 149.928 170.2ZM153.828 165.3C154.028 165.3 154.255 165.28 154.508 165.24C154.775 165.2 154.982 165.153 155.128 165.1V161.5C154.982 161.447 154.775 161.4 154.508 161.36C154.255 161.32 154.028 161.3 153.828 161.3C153.122 161.3 152.562 161.46 152.148 161.78C151.735 162.087 151.528 162.593 151.528 163.3C151.528 164.007 151.735 164.52 152.148 164.84C152.562 165.147 153.122 165.3 153.828 165.3ZM165.424 173.8V163C165.424 162.4 165.337 161.92 165.164 161.56C165.004 161.187 164.624 161 164.024 161H163.624V160.6H165.424C165.93 160.6 166.31 160.673 166.564 160.82C166.83 160.967 167.017 161.193 167.124 161.5C167.39 161.233 167.75 160.987 168.204 160.76C168.657 160.52 169.23 160.4 169.924 160.4C170.724 160.4 171.39 160.62 171.924 161.06C172.457 161.5 172.857 162.093 173.124 162.84C173.39 163.573 173.524 164.393 173.524 165.3C173.524 166.193 173.384 167.013 173.104 167.76C172.837 168.507 172.424 169.1 171.864 169.54C171.304 169.98 170.59 170.2 169.724 170.2C169.164 170.2 168.684 170.133 168.284 170C167.884 169.88 167.53 169.747 167.224 169.6V173.8H165.424ZM169.124 169.4C169.724 169.4 170.204 169.22 170.564 168.86C170.937 168.487 171.204 167.993 171.364 167.38C171.537 166.753 171.624 166.06 171.624 165.3C171.624 164.527 171.544 163.833 171.384 163.22C171.224 162.607 170.97 162.12 170.624 161.76C170.29 161.387 169.857 161.2 169.324 161.2C168.777 161.2 168.337 161.327 168.004 161.58C167.67 161.82 167.41 162.093 167.224 162.4V168.8C167.53 168.947 167.844 169.087 168.164 169.22C168.497 169.34 168.817 169.4 169.124 169.4ZM179.745 170.2C178.812 170.2 178.019 169.98 177.365 169.54C176.712 169.1 176.212 168.507 175.865 167.76C175.519 167.013 175.345 166.193 175.345 165.3C175.345 164.393 175.519 163.573 175.865 162.84C176.212 162.093 176.712 161.5 177.365 161.06C178.019 160.62 178.812 160.4 179.745 160.4C180.679 160.4 181.472 160.62 182.125 161.06C182.779 161.5 183.279 162.093 183.625 162.84C183.972 163.573 184.145 164.393 184.145 165.3C184.145 166.193 183.972 167.013 183.625 167.76C183.279 168.507 182.779 169.1 182.125 169.54C181.472 169.98 180.679 170.2 179.745 170.2ZM179.745 169.4C180.252 169.4 180.692 169.22 181.065 168.86C181.439 168.487 181.725 167.993 181.925 167.38C182.139 166.753 182.245 166.06 182.245 165.3C182.245 164.527 182.139 163.833 181.925 163.22C181.725 162.607 181.439 162.12 181.065 161.76C180.692 161.387 180.252 161.2 179.745 161.2C179.252 161.2 178.812 161.387 178.425 161.76C178.052 162.12 177.759 162.607 177.545 163.22C177.345 163.833 177.245 164.527 177.245 165.3C177.245 166.06 177.345 166.753 177.545 167.38C177.759 167.993 178.052 168.487 178.425 168.86C178.812 169.22 179.252 169.4 179.745 169.4ZM190.351 170.2C189.364 170.2 188.544 169.98 187.891 169.54C187.237 169.1 186.751 168.507 186.431 167.76C186.111 167.013 185.951 166.193 185.951 165.3C185.951 164.393 186.111 163.573 186.431 162.84C186.751 162.093 187.237 161.5 187.891 161.06C188.544 160.62 189.364 160.4 190.351 160.4C191.057 160.4 191.651 160.453 192.131 160.56C192.624 160.667 192.997 160.847 193.251 161.1C193.504 161.353 193.651 161.667 193.691 162.04C193.731 162.4 193.751 162.953 193.751 163.7H193.351C193.297 162.847 193.024 162.22 192.531 161.82C192.051 161.407 191.457 161.2 190.751 161.2C190.084 161.2 189.537 161.387 189.111 161.76C188.684 162.12 188.364 162.607 188.151 163.22C187.951 163.833 187.851 164.527 187.851 165.3C187.851 166.06 187.951 166.753 188.151 167.38C188.364 167.993 188.684 168.487 189.111 168.86C189.537 169.22 190.084 169.4 190.751 169.4C191.457 169.4 192.031 169.26 192.471 168.98C192.911 168.7 193.304 168.307 193.651 167.8L194.051 168.1C193.757 168.607 193.424 169.013 193.051 169.32C192.677 169.627 192.264 169.853 191.811 170C191.371 170.133 190.884 170.2 190.351 170.2ZM198.799 170V161.4H197.799C197.199 161.4 196.699 161.573 196.299 161.92C195.899 162.253 195.699 162.747 195.699 163.4H195.299V162.2C195.299 161.8 195.399 161.433 195.599 161.1C195.799 160.767 196.199 160.6 196.799 160.6H203.899V161.4H200.599V170H198.799ZM207.871 170.2C207.591 170.2 207.285 170.153 206.951 170.06C206.631 169.98 206.318 169.833 206.011 169.62C205.705 169.407 205.451 169.12 205.251 168.76C205.065 168.4 204.971 167.947 204.971 167.4C204.971 166.667 205.205 166.1 205.671 165.7C206.151 165.3 206.778 165.02 207.551 164.86C208.338 164.687 209.178 164.6 210.071 164.6H210.671C210.671 163.667 210.578 162.96 210.391 162.48C210.205 161.987 209.951 161.653 209.631 161.48C209.325 161.293 208.971 161.2 208.571 161.2C208.011 161.2 207.538 161.32 207.151 161.56C206.778 161.8 206.518 162.247 206.371 162.9H205.471C205.471 162.553 205.491 162.233 205.531 161.94C205.571 161.633 205.718 161.353 205.971 161.1C206.225 160.847 206.638 160.667 207.211 160.56C207.785 160.453 208.371 160.4 208.971 160.4C209.425 160.4 209.858 160.453 210.271 160.56C210.698 160.667 211.071 160.867 211.391 161.16C211.725 161.44 211.985 161.86 212.171 162.42C212.371 162.967 212.471 163.693 212.471 164.6V170H211.471L210.771 169.1H210.671C210.471 169.353 210.145 169.6 209.691 169.84C209.238 170.08 208.631 170.2 207.871 170.2ZM208.771 169.3C209.265 169.3 209.651 169.18 209.931 168.94C210.225 168.687 210.471 168.407 210.671 168.1V165.4H210.071C209.071 165.4 208.285 165.587 207.711 165.96C207.151 166.32 206.871 166.8 206.871 167.4C206.871 168.053 207.065 168.533 207.451 168.84C207.838 169.147 208.278 169.3 208.771 169.3ZM216.02 170.28C215.727 170.28 215.474 170.173 215.26 169.96C215.047 169.747 214.94 169.487 214.94 169.18C214.94 168.887 215.047 168.633 215.26 168.42C215.474 168.207 215.727 168.1 216.02 168.1C216.327 168.1 216.58 168.207 216.78 168.42C216.994 168.633 217.1 168.887 217.1 169.18C217.1 169.487 216.994 169.747 216.78 169.96C216.567 170.173 216.314 170.28 216.02 170.28Z" fill="#C0C0C0"/>
<defs>
<filter id="filter1_f_93_118" x="-89" y="19" width="203" height="203" filterUnits="userSpaceOnUse" color-interpolation-filters="sRGB">
<feFlood flood-opacity="0" result="BackgroundImageFix"/>
<feBlend mode="normal" in="SourceGraphic" in2="BackgroundImageFix" result="shape"/>
<feGaussianBlur stdDeviation="30" result="effect1_foregroundBlur_93_118"/>
</filter>
<filter id="filter2_d_93_118" x="124.546" y="23.7002" width="174.715" height="46.2998" filterUnits="userSpaceOnUse" color-interpolation-filters="sRGB">
<feFlood flood-opacity="0" result="BackgroundImageFix"/>
<feColorMatrix in="SourceAlpha" type="matrix" values="0 0 0 0 0 0 0 0 0 0 0 0 0 0 0 0 0 0 127 0" result="hardAlpha"/>
<feOffset/>
<feGaussianBlur stdDeviation="2"/>
<feComposite in2="hardAlpha" operator="out"/>
<feColorMatrix type="matrix" values="0 0 0 0 0 0 0 0 0 0 0 0 0 0 0 0 0 0 0.7 0"/>
<feBlend mode="normal" in2="BackgroundImageFix" result="effect1_dropShadow_93_118"/>
<feBlend mode="normal" in="SourceGraphic" in2="effect1_dropShadow_93_118" result="shape"/>
</filter>
<linearGradient id="paint0_linear_93_118" x1="64.3934" y1="29.8045" x2="41.1193" y2="85.5991" gradientUnits="userSpaceOnUse">
<stop stop-color="#FF7929"/>
<stop offset="1" stop-color="#FBB03B"/>
</linearGradient>
<clipPath id="clip0_93_118">
<rect width="96" height="96" rx="18" fill="white"/>
</clipPath>
<clipPath id="clip1_93_118">
<rect width="70" height="70" fill="white" transform="translate(13 13)"/>
</clipPath>
</defs>
</svg>
