<svg width="360" height="241" viewBox="0 0 360 241" fill="none" xmlns="http://www.w3.org/2000/svg">
<g clip-path="url(#clip0_93_128)">
<rect width="96" height="96" rx="18" fill="white" fill-opacity="0.15"/>
<g filter="url(#filter1_f_93_128)">
<circle cx="12.5" cy="120.5" r="41.5" fill="#FBB03B"/>
</g>
<path d="M68.8906 25.25H50.0059H46.4906V33.8469C46.4906 38.6112 42.6166 42.4875 37.8522 42.4875C33.0878 42.4875 29.2116 38.6112 29.2116 33.8469V31.7906C29.2116 28.8966 31.5653 26.5428 34.4594 26.5428C34.9909 26.5428 35.5072 26.6216 35.9906 26.7703V25.25H33.9059H33.475V22.2312C33.475 20.6344 34.7875 19.3438 36.3844 19.3438C37.9812 19.3438 39.2719 20.6344 39.2719 22.2312V33.8469C39.2719 34.6344 38.6375 35.2687 37.85 35.2687C37.0625 35.2687 36.4281 34.6344 36.4281 33.8469V31.7906C36.4281 30.6969 35.5313 29.8219 34.4594 29.8219C33.3656 29.8219 32.4906 30.6969 32.4906 31.7906V33.8469C32.4906 36.8 34.8969 39.2062 37.85 39.2062C40.8031 39.2062 43.2094 36.8 43.2094 33.8469V22.2312C43.2094 18.4687 40.1469 15.4062 36.3844 15.4062C32.6 15.4062 29.5375 18.4687 29.5375 22.2312V25.25H27.1094C23.8937 25.25 21.3125 27.8312 21.3125 31.025V72.8281C21.3125 76.0219 23.8937 78.625 27.1094 78.625H68.8906C72.1063 78.625 74.6875 76.0219 74.6875 72.8281V31.025C74.6875 27.8312 72.1063 25.25 68.8906 25.25ZM48.1094 69.0787H33.1534C32.0662 69.0787 31.1847 68.1972 31.1847 67.11C31.1847 66.0228 32.0662 65.1413 33.1534 65.1413H48.1094C49.1966 65.1413 50.0781 66.0228 50.0781 67.11C50.0781 68.1972 49.1966 69.0787 48.1094 69.0787ZM62.8466 59.9H33.1556C32.0684 59.9 31.1869 59.0184 31.1869 57.9313C31.1869 56.8441 32.0684 55.9625 33.1556 55.9625H62.8466C63.9338 55.9625 64.8153 56.8441 64.8153 57.9313C64.8153 59.0184 63.9338 59.9 62.8466 59.9ZM62.8466 50.7212H33.1556C32.0684 50.7212 31.1869 49.8397 31.1869 48.7525C31.1869 47.6653 32.0684 46.7838 33.1556 46.7838H62.8466C63.9338 46.7838 64.8153 47.6653 64.8153 48.7525C64.8153 49.8397 63.9338 50.7212 62.8466 50.7212Z" fill="url(#paint0_linear_93_128)"/>
</g>
<g filter="url(#filter2_d_93_128)">
<path d="M137.412 31.064C137.412 31.376 137.603 31.532 137.984 31.532V32H133.98V31.532C134.101 31.532 134.205 31.4973 134.292 31.428C134.396 31.3413 134.448 31.22 134.448 31.064V20.716H130.158C130.002 20.716 129.846 20.7593 129.69 20.846C129.551 20.9327 129.482 21.0973 129.482 21.34H129.014V17.7H129.482C129.482 17.9427 129.551 18.1073 129.69 18.194C129.846 18.2807 130.002 18.324 130.158 18.324H141.702C141.858 18.324 142.005 18.2807 142.144 18.194C142.3 18.1073 142.378 17.9427 142.378 17.7H142.846V21.34H142.378C142.378 21.0973 142.3 20.9327 142.144 20.846C142.005 20.7593 141.858 20.716 141.702 20.716H137.412V31.064ZM158.975 21.132C158.975 20.9413 158.897 20.8027 158.741 20.716C158.602 20.612 158.351 20.56 157.987 20.56H149.563V23.784H154.659C155.005 23.784 155.274 23.7407 155.465 23.654C155.655 23.55 155.751 23.2987 155.751 22.9H156.219V26.956H155.751C155.751 26.5573 155.655 26.306 155.465 26.202C155.274 26.0807 155.005 26.02 154.659 26.02H149.563V29.608H158.247C158.507 29.608 158.715 29.5473 158.871 29.426C159.044 29.3047 159.131 29.14 159.131 28.932H159.599V32.494H159.131C159.131 32.234 159.044 32.0867 158.871 32.052C158.715 32.0173 158.507 32 158.247 32H146.131V31.532C146.252 31.532 146.356 31.4973 146.443 31.428C146.547 31.3413 146.599 31.22 146.599 31.064V19.26C146.599 19.104 146.547 18.9913 146.443 18.922C146.356 18.8353 146.252 18.792 146.131 18.792V18.324H157.987C158.351 18.324 158.602 18.272 158.741 18.168C158.897 18.0467 158.975 17.8907 158.975 17.7H159.443V21.132H158.975ZM167.996 18.792C167.858 18.792 167.719 18.8267 167.58 18.896C167.459 18.9653 167.398 19.0693 167.398 19.208C167.398 19.3293 167.442 19.4767 167.528 19.65C167.632 19.8233 167.762 20.0053 167.918 20.196L170.05 22.874L172.208 20.144C172.399 19.9013 172.564 19.6933 172.702 19.52C172.841 19.3467 172.91 19.2167 172.91 19.13C172.91 18.9047 172.676 18.792 172.208 18.792V18.324H177.486V18.792C177.07 18.792 176.758 18.818 176.55 18.87C176.36 18.922 176.195 19.0347 176.056 19.208L171.558 24.772L175.874 30.284C175.944 30.388 176.022 30.5093 176.108 30.648C176.212 30.7867 176.334 30.9253 176.472 31.064C176.611 31.1853 176.758 31.298 176.914 31.402C177.088 31.4887 177.278 31.532 177.486 31.532V32H172.26V31.532C172.538 31.532 172.676 31.3933 172.676 31.116C172.676 30.9947 172.616 30.856 172.494 30.7C172.39 30.544 172.26 30.3707 172.104 30.18L169.712 27.06L167.138 30.284C167.052 30.4053 166.939 30.5527 166.8 30.726C166.679 30.882 166.618 31.0293 166.618 31.168C166.618 31.4107 166.783 31.532 167.112 31.532V32H162.328V31.532C162.658 31.532 162.909 31.4973 163.082 31.428C163.273 31.3587 163.464 31.2027 163.654 30.96L168.204 25.162L163.992 19.806C163.698 19.4247 163.429 19.1647 163.186 19.026C162.944 18.87 162.658 18.792 162.328 18.792V18.324H167.996V18.792ZM192.878 19.26C192.878 18.948 192.687 18.792 192.306 18.792V18.324H196.31V18.792C196.189 18.792 196.076 18.8353 195.972 18.922C195.885 18.9913 195.842 19.104 195.842 19.26V31.064C195.842 31.22 195.885 31.3413 195.972 31.428C196.076 31.4973 196.189 31.532 196.31 31.532V32H192.306V31.532C192.687 31.532 192.878 31.376 192.878 31.064V26.176H184.506V31.064C184.506 31.22 184.549 31.3413 184.636 31.428C184.74 31.4973 184.853 31.532 184.974 31.532V32H181.048V31.532C181.377 31.532 181.542 31.376 181.542 31.064V19.26C181.542 18.948 181.377 18.792 181.048 18.792V18.324H184.974V18.792C184.853 18.792 184.74 18.8353 184.636 18.922C184.549 18.9913 184.506 19.104 184.506 19.26V23.68H192.878V19.26ZM216.65 32H212.802V31.532C213.201 31.532 213.4 31.376 213.4 31.064V22.172L205.47 30.7C205.193 30.9773 205.054 31.1767 205.054 31.298C205.054 31.454 205.167 31.532 205.392 31.532V32H201.18V31.532C201.51 31.532 201.674 31.376 201.674 31.064V19.26C201.674 18.948 201.51 18.792 201.18 18.792V18.324H205.106V18.792C204.656 18.792 204.43 18.948 204.43 19.26V27.788L211.892 19.78C212.239 19.4333 212.412 19.1907 212.412 19.052C212.412 18.8787 212.343 18.792 212.204 18.792V18.324H216.65V18.792C216.321 18.792 216.156 18.948 216.156 19.26V31.064C216.156 31.376 216.321 31.532 216.65 31.532V32ZM233.949 31.064C233.949 31.376 234.191 31.532 234.677 31.532V32H230.257V31.532C230.742 31.532 230.985 31.376 230.985 31.064V26.228H226.435C224.58 26.228 223.167 25.8727 222.197 25.162C221.243 24.434 220.767 23.264 220.767 21.652V19.26C220.767 19.104 220.715 18.9913 220.611 18.922C220.524 18.8353 220.42 18.792 220.299 18.792V18.324H224.303V18.792C223.921 18.792 223.731 18.948 223.731 19.26V21.678C223.731 22.4407 223.991 23.0213 224.511 23.42C225.031 23.8013 225.967 23.992 227.319 23.992H230.985V19.26C230.985 18.948 230.742 18.792 230.257 18.792V18.324H234.677V18.792C234.191 18.792 233.949 18.948 233.949 19.26V31.064ZM252.26 21.132C252.26 20.9413 252.182 20.8027 252.026 20.716C251.887 20.612 251.636 20.56 251.272 20.56H242.848V23.784H247.944C248.29 23.784 248.559 23.7407 248.75 23.654C248.94 23.55 249.036 23.2987 249.036 22.9H249.504V26.956H249.036C249.036 26.5573 248.94 26.306 248.75 26.202C248.559 26.0807 248.29 26.02 247.944 26.02H242.848V29.608H251.532C251.792 29.608 252 29.5473 252.156 29.426C252.329 29.3047 252.416 29.14 252.416 28.932H252.884V32.494H252.416C252.416 32.234 252.329 32.0867 252.156 32.052C252 32.0173 251.792 32 251.532 32H239.416V31.532C239.537 31.532 239.641 31.4973 239.728 31.428C239.832 31.3413 239.884 31.22 239.884 31.064V19.26C239.884 19.104 239.832 18.9913 239.728 18.922C239.641 18.8353 239.537 18.792 239.416 18.792V18.324H251.272C251.636 18.324 251.887 18.272 252.026 18.168C252.182 18.0467 252.26 17.8907 252.26 17.7H252.728V21.132H252.26ZM271.187 30.128C271.135 30.128 271.083 30.128 271.031 30.128C270.997 30.1107 270.953 30.102 270.901 30.102C270.797 30.102 270.546 30.206 270.147 30.414C269.766 30.622 269.272 30.856 268.665 31.116C268.076 31.376 267.4 31.6013 266.637 31.792C265.875 31.9827 265.077 32.078 264.245 32.078C263.153 32.078 262.105 31.9393 261.099 31.662C260.094 31.3847 259.201 30.96 258.421 30.388C257.659 29.7987 257.052 29.0707 256.601 28.204C256.151 27.3373 255.925 26.3233 255.925 25.162C255.925 24.018 256.151 23.0127 256.601 22.146C257.052 21.262 257.659 20.5253 258.421 19.936C259.201 19.3467 260.094 18.9047 261.099 18.61C262.105 18.3153 263.153 18.168 264.245 18.168C265.129 18.168 265.927 18.2373 266.637 18.376C267.365 18.5147 267.998 18.662 268.535 18.818C269.073 18.974 269.497 19.1213 269.809 19.26C270.121 19.3987 270.312 19.468 270.381 19.468C270.468 19.468 270.537 19.4247 270.589 19.338C270.659 19.2513 270.711 19.182 270.745 19.13L271.135 19.442L269.107 22.588L268.847 22.406C268.847 22.354 268.839 22.302 268.821 22.25C268.821 22.198 268.813 22.1373 268.795 22.068C268.761 21.8773 268.587 21.6867 268.275 21.496C267.963 21.288 267.573 21.106 267.105 20.95C266.655 20.794 266.169 20.664 265.649 20.56C265.147 20.456 264.679 20.404 264.245 20.404C263.517 20.404 262.815 20.508 262.139 20.716C261.481 20.924 260.9 21.2273 260.397 21.626C259.912 22.0247 259.522 22.5187 259.227 23.108C258.933 23.68 258.785 24.3387 258.785 25.084C258.785 25.8293 258.933 26.4967 259.227 27.086C259.522 27.658 259.912 28.1433 260.397 28.542C260.9 28.9407 261.481 29.244 262.139 29.452C262.815 29.66 263.517 29.764 264.245 29.764C264.8 29.764 265.381 29.7033 265.987 29.582C266.594 29.4433 267.149 29.2787 267.651 29.088C268.154 28.88 268.57 28.6547 268.899 28.412C269.246 28.152 269.419 27.9093 269.419 27.684C269.419 27.5627 269.385 27.4587 269.315 27.372L269.679 27.164L271.395 29.92L271.187 30.128ZM278.719 31.064C278.719 31.22 278.771 31.3413 278.875 31.428C278.979 31.4973 279.1 31.532 279.239 31.532V32H275.183V31.532C275.564 31.532 275.755 31.376 275.755 31.064V19.26C275.755 18.948 275.564 18.792 275.183 18.792V18.324H279.239V18.792C279.1 18.792 278.979 18.8353 278.875 18.922C278.771 18.9913 278.719 19.104 278.719 19.26V24.2L284.101 19.962C284.344 19.754 284.534 19.5893 284.673 19.468C284.812 19.3293 284.881 19.2167 284.881 19.13C284.881 19.0087 284.838 18.922 284.751 18.87C284.682 18.818 284.595 18.792 284.491 18.792V18.324H289.951V18.792C289.639 18.792 289.327 18.922 289.015 19.182L283.035 23.94L288.495 30.258C288.72 30.518 288.98 30.778 289.275 31.038C289.587 31.2807 289.89 31.4453 290.185 31.532V32H285.375V31.532C285.6 31.532 285.713 31.4713 285.713 31.35C285.713 31.2633 285.592 31.0727 285.349 30.778L280.903 25.656L278.719 27.346V31.064ZM300.741 20.56C300.082 20.56 299.424 20.664 298.765 20.872C298.106 21.08 297.508 21.3833 296.971 21.782C296.451 22.1633 296.026 22.64 295.697 23.212C295.368 23.784 295.203 24.434 295.203 25.162C295.203 25.89 295.368 26.54 295.697 27.112C296.026 27.684 296.451 28.1693 296.971 28.568C297.508 28.9493 298.106 29.244 298.765 29.452C299.424 29.66 300.082 29.764 300.741 29.764C301.4 29.764 302.058 29.66 302.717 29.452C303.376 29.244 303.965 28.9493 304.485 28.568C305.022 28.1693 305.456 27.684 305.785 27.112C306.114 26.54 306.279 25.89 306.279 25.162C306.279 24.434 306.114 23.784 305.785 23.212C305.456 22.64 305.022 22.1633 304.485 21.782C303.965 21.3833 303.376 21.08 302.717 20.872C302.058 20.664 301.4 20.56 300.741 20.56ZM300.741 18.168C301.694 18.168 302.665 18.3153 303.653 18.61C304.641 18.8873 305.542 19.312 306.357 19.884C307.172 20.456 307.839 21.184 308.359 22.068C308.879 22.9347 309.139 23.966 309.139 25.162C309.139 26.358 308.879 27.398 308.359 28.282C307.839 29.1487 307.172 29.868 306.357 30.44C305.542 31.012 304.641 31.428 303.653 31.688C302.665 31.948 301.694 32.078 300.741 32.078C299.788 32.078 298.817 31.948 297.829 31.688C296.841 31.428 295.94 31.012 295.125 30.44C294.31 29.868 293.643 29.1487 293.123 28.282C292.603 27.398 292.343 26.358 292.343 25.162C292.343 23.966 292.603 22.9347 293.123 22.068C293.643 21.184 294.31 20.456 295.125 19.884C295.94 19.312 296.841 18.8873 297.829 18.61C298.817 18.3153 299.788 18.168 300.741 18.168ZM325.943 21.132C325.943 20.9413 325.865 20.8027 325.709 20.716C325.571 20.612 325.319 20.56 324.955 20.56H316.531V23.784H321.627C321.974 23.784 322.243 23.7407 322.433 23.654C322.624 23.55 322.719 23.2987 322.719 22.9H323.187V26.956H322.719C322.719 26.5573 322.624 26.306 322.433 26.202C322.243 26.0807 321.974 26.02 321.627 26.02H316.531V29.608H325.215C325.475 29.608 325.683 29.5473 325.839 29.426C326.013 29.3047 326.099 29.14 326.099 28.932H326.567V32.494H326.099C326.099 32.234 326.013 32.0867 325.839 32.052C325.683 32.0173 325.475 32 325.215 32H313.099V31.532C313.221 31.532 313.325 31.4973 313.411 31.428C313.515 31.3413 313.567 31.22 313.567 31.064V19.26C313.567 19.104 313.515 18.9913 313.411 18.922C313.325 18.8353 313.221 18.792 313.099 18.792V18.324H324.955C325.319 18.324 325.571 18.272 325.709 18.168C325.865 18.0467 325.943 17.8907 325.943 17.7H326.411V21.132H325.943ZM136.788 56.078C135.921 56.078 135.115 56 134.37 55.844C133.642 55.688 132.992 55.5147 132.42 55.324C131.865 55.116 131.397 54.934 131.016 54.778C130.652 54.622 130.409 54.544 130.288 54.544C130.201 54.544 130.123 54.5613 130.054 54.596C130.002 54.6307 129.941 54.6653 129.872 54.7L129.638 54.622L131.146 50.878L131.432 51.034C131.415 51.0513 131.406 51.112 131.406 51.216V51.398C131.406 51.7967 131.579 52.152 131.926 52.464C132.273 52.776 132.715 53.0447 133.252 53.27C133.807 53.478 134.413 53.6427 135.072 53.764C135.731 53.868 136.372 53.92 136.996 53.92C137.447 53.92 137.906 53.894 138.374 53.842C138.859 53.7727 139.293 53.66 139.674 53.504C140.073 53.348 140.393 53.14 140.636 52.88C140.896 52.6027 141.026 52.2473 141.026 51.814C141.026 51.398 140.905 51.0687 140.662 50.826C140.419 50.566 140.107 50.3667 139.726 50.228C139.345 50.0893 138.92 50.0027 138.452 49.968C138.001 49.916 137.559 49.89 137.126 49.89C136.45 49.89 135.939 49.9333 135.592 50.02C135.245 50.0893 135.02 50.28 134.916 50.592H134.604V47.056H134.916C134.951 47.4027 135.159 47.6367 135.54 47.758C135.921 47.862 136.45 47.914 137.126 47.914C137.542 47.914 137.958 47.888 138.374 47.836C138.79 47.784 139.163 47.6887 139.492 47.55C139.839 47.4113 140.116 47.2207 140.324 46.978C140.549 46.7353 140.662 46.432 140.662 46.068C140.662 45.7213 140.567 45.444 140.376 45.236C140.185 45.0107 139.917 44.8373 139.57 44.716C139.241 44.5947 138.851 44.5167 138.4 44.482C137.949 44.43 137.464 44.404 136.944 44.404C136.355 44.404 135.774 44.456 135.202 44.56C134.647 44.664 134.153 44.8027 133.72 44.976C133.287 45.1493 132.94 45.34 132.68 45.548C132.42 45.756 132.29 45.964 132.29 46.172C132.29 46.2413 132.299 46.328 132.316 46.432C132.333 46.5187 132.359 46.6053 132.394 46.692L132.16 46.848L130.08 44.196L130.392 43.962C130.531 44.0487 130.678 44.092 130.834 44.092C130.921 44.092 131.111 43.9967 131.406 43.806C131.701 43.598 132.108 43.3727 132.628 43.13C133.148 42.8873 133.781 42.6707 134.526 42.48C135.271 42.272 136.147 42.168 137.152 42.168C137.949 42.168 138.729 42.2373 139.492 42.376C140.255 42.5147 140.931 42.74 141.52 43.052C142.109 43.3467 142.586 43.7367 142.95 44.222C143.314 44.69 143.496 45.262 143.496 45.938C143.496 46.562 143.314 47.1427 142.95 47.68C142.586 48.2 142.092 48.5293 141.468 48.668V48.72C142.213 48.8933 142.82 49.24 143.288 49.76C143.773 50.2627 144.016 50.904 144.016 51.684C144.016 52.5853 143.791 53.322 143.34 53.894C142.907 54.466 142.335 54.9167 141.624 55.246C140.931 55.558 140.159 55.7747 139.31 55.896C138.461 56.0173 137.62 56.078 136.788 56.078ZM156.299 50.696L154.115 45.86L151.671 50.696H156.299ZM146.497 55.532C146.723 55.4973 146.896 55.3847 147.017 55.194C147.156 55.0033 147.286 54.7867 147.407 54.544L152.217 44.43C152.339 44.2047 152.443 43.9967 152.529 43.806C152.633 43.6153 152.685 43.4507 152.685 43.312C152.685 43.1387 152.625 43.0173 152.503 42.948C152.382 42.8787 152.252 42.8267 152.113 42.792V42.324H156.507V42.792C156.386 42.8267 156.265 42.8787 156.143 42.948C156.022 43 155.961 43.1213 155.961 43.312C155.961 43.4507 155.987 43.5893 156.039 43.728C156.109 43.8667 156.204 44.0487 156.325 44.274L161.733 54.856C161.82 55.0467 161.933 55.1853 162.071 55.272C162.227 55.3587 162.401 55.4453 162.591 55.532V56H158.015V55.532C158.085 55.532 158.171 55.506 158.275 55.454C158.379 55.402 158.431 55.324 158.431 55.22C158.431 55.0467 158.362 54.8213 158.223 54.544L157.235 52.62H150.891L149.955 54.466C149.782 54.83 149.695 55.09 149.695 55.246C149.695 55.4367 149.86 55.532 150.189 55.532V56H146.497V55.532ZM182.377 57.43C182.377 57.9153 182.568 58.1493 182.949 58.132V58.6H179.361V58.132C179.69 58.132 179.855 57.8893 179.855 57.404V56H166.777V57.404C166.777 57.8893 166.942 58.132 167.271 58.132V58.6H163.683V58.132C164.064 58.1493 164.255 57.9153 164.255 57.43V53.764H166.361L170.937 44.43C171.041 44.2047 171.136 43.9967 171.223 43.806C171.31 43.6153 171.353 43.4507 171.353 43.312C171.353 43.1387 171.292 43.0173 171.171 42.948C171.05 42.8787 170.92 42.8267 170.781 42.792V42.324H175.487V42.792C175.366 42.8267 175.244 42.8787 175.123 42.948C175.002 43 174.941 43.1213 174.941 43.312C174.941 43.4507 174.967 43.5893 175.019 43.728C175.088 43.8667 175.184 44.0487 175.305 44.274L180.271 53.764H182.377V57.43ZM169.169 53.764H176.943L172.965 45.496L169.169 53.764ZM193.7 50.696L191.516 45.86L189.072 50.696H193.7ZM183.898 55.532C184.123 55.4973 184.296 55.3847 184.418 55.194C184.556 55.0033 184.686 54.7867 184.808 54.544L189.618 44.43C189.739 44.2047 189.843 43.9967 189.93 43.806C190.034 43.6153 190.086 43.4507 190.086 43.312C190.086 43.1387 190.025 43.0173 189.904 42.948C189.782 42.8787 189.652 42.8267 189.514 42.792V42.324H193.908V42.792C193.786 42.8267 193.665 42.8787 193.544 42.948C193.422 43 193.362 43.1213 193.362 43.312C193.362 43.4507 193.388 43.5893 193.44 43.728C193.509 43.8667 193.604 44.0487 193.726 44.274L199.134 54.856C199.22 55.0467 199.333 55.1853 199.472 55.272C199.628 55.3587 199.801 55.4453 199.992 55.532V56H195.416V55.532C195.485 55.532 195.572 55.506 195.676 55.454C195.78 55.402 195.832 55.324 195.832 55.22C195.832 55.0467 195.762 54.8213 195.624 54.544L194.636 52.62H188.292L187.356 54.466C187.182 54.83 187.096 55.09 187.096 55.246C187.096 55.4367 187.26 55.532 187.59 55.532V56H183.898V55.532ZM214.993 43.26C214.993 42.948 214.803 42.792 214.421 42.792V42.324H218.425V42.792C218.304 42.792 218.191 42.8353 218.087 42.922C218.001 42.9913 217.957 43.104 217.957 43.26V55.064C217.957 55.22 218.001 55.3413 218.087 55.428C218.191 55.4973 218.304 55.532 218.425 55.532V56H214.421V55.532C214.803 55.532 214.993 55.376 214.993 55.064V50.176H206.621V55.064C206.621 55.22 206.665 55.3413 206.751 55.428C206.855 55.4973 206.968 55.532 207.089 55.532V56H203.163V55.532C203.493 55.532 203.657 55.376 203.657 55.064V43.26C203.657 42.948 203.493 42.792 203.163 42.792V42.324H207.089V42.792C206.968 42.792 206.855 42.8353 206.751 42.922C206.665 42.9913 206.621 43.104 206.621 43.26V47.68H214.993V43.26ZM238.766 56H234.918V55.532C235.316 55.532 235.516 55.376 235.516 55.064V46.172L227.586 54.7C227.308 54.9773 227.17 55.1767 227.17 55.298C227.17 55.454 227.282 55.532 227.508 55.532V56H223.296V55.532C223.625 55.532 223.79 55.376 223.79 55.064V43.26C223.79 42.948 223.625 42.792 223.296 42.792V42.324H227.222V42.792C226.771 42.792 226.546 42.948 226.546 43.26V51.788L234.008 43.78C234.354 43.4333 234.528 43.1907 234.528 43.052C234.528 42.8787 234.458 42.792 234.32 42.792V42.324H238.766V42.792C238.436 42.792 238.272 42.948 238.272 43.26V55.064C238.272 55.376 238.436 55.532 238.766 55.532V56ZM256.246 45.132C256.246 44.9413 256.168 44.8027 256.012 44.716C255.873 44.612 255.622 44.56 255.258 44.56H246.834V47.784H251.93C252.277 47.784 252.545 47.7407 252.736 47.654C252.927 47.55 253.022 47.2987 253.022 46.9H253.49V50.956H253.022C253.022 50.5573 252.927 50.306 252.736 50.202C252.545 50.0807 252.277 50.02 251.93 50.02H246.834V53.608H255.518C255.778 53.608 255.986 53.5473 256.142 53.426C256.315 53.3047 256.402 53.14 256.402 52.932H256.87V56.494H256.402C256.402 56.234 256.315 56.0867 256.142 56.052C255.986 56.0173 255.778 56 255.518 56H243.402V55.532C243.523 55.532 243.627 55.4973 243.714 55.428C243.818 55.3413 243.87 55.22 243.87 55.064V43.26C243.87 43.104 243.818 42.9913 243.714 42.922C243.627 42.8353 243.523 42.792 243.402 42.792V42.324H255.258C255.622 42.324 255.873 42.272 256.012 42.168C256.168 42.0467 256.246 41.8907 256.246 41.7H256.714V45.132H256.246ZM285.514 57.43C285.514 57.9153 285.704 58.1493 286.086 58.132V58.6H282.498V58.132C282.827 58.132 282.992 57.8893 282.992 57.404V56H269.914V57.404C269.914 57.8893 270.078 58.132 270.408 58.132V58.6H266.82V58.132C267.201 58.1493 267.392 57.9153 267.392 57.43V53.764H269.498L274.074 44.43C274.178 44.2047 274.273 43.9967 274.36 43.806C274.446 43.6153 274.49 43.4507 274.49 43.312C274.49 43.1387 274.429 43.0173 274.308 42.948C274.186 42.8787 274.056 42.8267 273.918 42.792V42.324H278.624V42.792C278.502 42.8267 278.381 42.8787 278.26 42.948C278.138 43 278.078 43.1213 278.078 43.312C278.078 43.4507 278.104 43.5893 278.156 43.728C278.225 43.8667 278.32 44.0487 278.442 44.274L283.408 53.764H285.514V57.43ZM272.306 53.764H280.08L276.102 45.496L272.306 53.764ZM294.652 45.86L290.804 54.466C290.631 54.8127 290.544 55.0727 290.544 55.246C290.544 55.4367 290.709 55.532 291.038 55.532V56H287.034V55.532C287.26 55.4973 287.433 55.3847 287.554 55.194C287.693 55.0033 287.823 54.7867 287.944 54.544L292.754 44.43C292.858 44.2047 292.962 43.9967 293.066 43.806C293.17 43.6153 293.222 43.4507 293.222 43.312C293.222 43.1387 293.162 43.0173 293.04 42.948C292.919 42.8787 292.789 42.8267 292.65 42.792V42.324H297.044V42.792C296.923 42.8267 296.802 42.8787 296.68 42.948C296.559 43 296.498 43.1213 296.498 43.312C296.498 43.4507 296.524 43.5893 296.576 43.728C296.646 43.8667 296.741 44.0487 296.862 44.274L302.27 54.856C302.357 55.0467 302.47 55.1853 302.608 55.272C302.764 55.3587 302.938 55.4453 303.128 55.532V56H298.552V55.532C298.622 55.532 298.708 55.506 298.812 55.454C298.916 55.402 298.968 55.324 298.968 55.22C298.968 55.0813 298.899 54.856 298.76 54.544L294.652 45.86ZM316.804 48.408V44.56H312.306C311.682 44.56 311.162 44.612 310.746 44.716C310.33 44.8027 310.001 44.9327 309.758 45.106C309.515 45.2793 309.342 45.4873 309.238 45.73C309.134 45.9553 309.082 46.2067 309.082 46.484C309.082 46.7613 309.134 47.0213 309.238 47.264C309.342 47.4893 309.515 47.6887 309.758 47.862C310.001 48.0353 310.33 48.174 310.746 48.278C311.162 48.3647 311.682 48.408 312.306 48.408H316.804ZM320.522 42.324V42.792C320.019 42.792 319.768 42.948 319.768 43.26V55.064C319.768 55.376 320.019 55.532 320.522 55.532V56H316.024V55.532C316.319 55.532 316.518 55.4973 316.622 55.428C316.743 55.3413 316.804 55.22 316.804 55.064V50.436H313.008L310.148 54.492C310.009 54.6827 309.905 54.8387 309.836 54.96C309.767 55.064 309.732 55.1593 309.732 55.246C309.732 55.3327 309.784 55.402 309.888 55.454C310.009 55.506 310.148 55.532 310.304 55.532V56H305.52V55.532C305.659 55.532 305.806 55.5147 305.962 55.48C306.135 55.4453 306.283 55.3413 306.404 55.168L309.862 50.228C308.718 50.02 307.808 49.6127 307.132 49.006C306.456 48.3993 306.118 47.524 306.118 46.38C306.118 45.6347 306.248 45.0107 306.508 44.508C306.768 43.988 307.141 43.572 307.626 43.26C308.111 42.9307 308.692 42.6967 309.368 42.558C310.044 42.402 310.798 42.324 311.63 42.324H320.522ZM130.288 79.532C130.427 79.532 130.548 79.4973 130.652 79.428C130.756 79.3413 130.808 79.22 130.808 79.064V67.208C130.808 67.052 130.756 66.948 130.652 66.896C130.548 66.8267 130.427 66.792 130.288 66.792V66.324H135.15V66.792C135.063 66.792 134.968 66.818 134.864 66.87C134.777 66.922 134.734 67 134.734 67.104C134.734 67.1907 134.769 67.3033 134.838 67.442C134.907 67.5807 134.985 67.728 135.072 67.884L138.79 74.644L142.534 67.962C142.655 67.7367 142.742 67.5633 142.794 67.442C142.863 67.3033 142.898 67.182 142.898 67.078C142.898 66.8873 142.785 66.792 142.56 66.792V66.324H147.37V66.792C147.231 66.792 147.11 66.8267 147.006 66.896C146.902 66.948 146.85 67.052 146.85 67.208V79.064C146.85 79.22 146.902 79.3413 147.006 79.428C147.11 79.4973 147.231 79.532 147.37 79.532V80H143.288V79.532C143.756 79.532 143.99 79.376 143.99 79.064V70.432H143.938L138.712 80H138.634L133.512 70.406H133.46V79.064C133.46 79.376 133.703 79.532 134.188 79.532V80H130.288V79.532ZM160.006 74.696L157.822 69.86L155.378 74.696H160.006ZM150.204 79.532C150.43 79.4973 150.603 79.3847 150.724 79.194C150.863 79.0033 150.993 78.7867 151.114 78.544L155.924 68.43C156.046 68.2047 156.15 67.9967 156.236 67.806C156.34 67.6153 156.392 67.4507 156.392 67.312C156.392 67.1387 156.332 67.0173 156.21 66.948C156.089 66.8787 155.959 66.8267 155.82 66.792V66.324H160.214V66.792C160.093 66.8267 159.972 66.8787 159.85 66.948C159.729 67 159.668 67.1213 159.668 67.312C159.668 67.4507 159.694 67.5893 159.746 67.728C159.816 67.8667 159.911 68.0487 160.032 68.274L165.44 78.856C165.527 79.0467 165.64 79.1853 165.778 79.272C165.934 79.3587 166.108 79.4453 166.298 79.532V80H161.722V79.532C161.792 79.532 161.878 79.506 161.982 79.454C162.086 79.402 162.138 79.324 162.138 79.22C162.138 79.0467 162.069 78.8213 161.93 78.544L160.942 76.62H154.598L153.662 78.466C153.489 78.83 153.402 79.09 153.402 79.246C153.402 79.4367 153.567 79.532 153.896 79.532V80H150.204V79.532ZM178.44 72.044C179.012 72.044 179.497 71.9313 179.896 71.706C180.312 71.4807 180.52 71.0387 180.52 70.38C180.52 69.7213 180.312 69.2793 179.896 69.054C179.497 68.8287 179.012 68.716 178.44 68.716H172.902V72.044H178.44ZM168.976 80V79.532C169.617 79.532 169.938 79.376 169.938 79.064V67.26C169.938 66.948 169.617 66.792 168.976 66.792V66.324H178.128C179.792 66.324 181.101 66.636 182.054 67.26C183.007 67.8667 183.484 68.9067 183.484 70.38C183.484 71.8533 183.007 72.902 182.054 73.526C181.101 74.1327 179.792 74.436 178.128 74.436H172.902V79.064C172.902 79.376 173.179 79.532 173.734 79.532V80H168.976ZM189.776 79.064C189.776 79.22 189.828 79.3413 189.932 79.428C190.036 79.4973 190.157 79.532 190.296 79.532V80H186.24V79.532C186.621 79.532 186.812 79.376 186.812 79.064V67.26C186.812 66.948 186.621 66.792 186.24 66.792V66.324H190.296V66.792C190.157 66.792 190.036 66.8353 189.932 66.922C189.828 66.9913 189.776 67.104 189.776 67.26V72.2L195.158 67.962C195.4 67.754 195.591 67.5893 195.73 67.468C195.868 67.3293 195.938 67.2167 195.938 67.13C195.938 67.0087 195.894 66.922 195.808 66.87C195.738 66.818 195.652 66.792 195.548 66.792V66.324H201.008V66.792C200.696 66.792 200.384 66.922 200.072 67.182L194.092 71.94L199.552 78.258C199.777 78.518 200.037 78.778 200.332 79.038C200.644 79.2807 200.947 79.4453 201.242 79.532V80H196.432V79.532C196.657 79.532 196.77 79.4713 196.77 79.35C196.77 79.2633 196.648 79.0727 196.406 78.778L191.96 73.656L189.776 75.346V79.064ZM216.764 69.132C216.764 68.9413 216.686 68.8027 216.53 68.716C216.391 68.612 216.14 68.56 215.776 68.56H207.352V71.784H212.448C212.794 71.784 213.063 71.7407 213.254 71.654C213.444 71.55 213.54 71.2987 213.54 70.9H214.008V74.956H213.54C213.54 74.5573 213.444 74.306 213.254 74.202C213.063 74.0807 212.794 74.02 212.448 74.02H207.352V77.608H216.036C216.296 77.608 216.504 77.5473 216.66 77.426C216.833 77.3047 216.92 77.14 216.92 76.932H217.388V80.494H216.92C216.92 80.234 216.833 80.0867 216.66 80.052C216.504 80.0173 216.296 80 216.036 80H203.92V79.532C204.041 79.532 204.145 79.4973 204.232 79.428C204.336 79.3413 204.388 79.22 204.388 79.064V67.26C204.388 67.104 204.336 66.9913 204.232 66.922C204.145 66.8353 204.041 66.792 203.92 66.792V66.324H215.776C216.14 66.324 216.391 66.272 216.53 66.168C216.686 66.0467 216.764 65.8907 216.764 65.7H217.232V69.132H216.764ZM228.437 79.064C228.437 79.376 228.628 79.532 229.009 79.532V80H225.005V79.532C225.127 79.532 225.231 79.4973 225.317 79.428C225.421 79.3413 225.473 79.22 225.473 79.064V68.716H221.183C221.027 68.716 220.871 68.7593 220.715 68.846C220.577 68.9327 220.507 69.0973 220.507 69.34H220.039V65.7H220.507C220.507 65.9427 220.577 66.1073 220.715 66.194C220.871 66.2807 221.027 66.324 221.183 66.324H232.727C232.883 66.324 233.031 66.2807 233.169 66.194C233.325 66.1073 233.403 65.9427 233.403 65.7H233.871V69.34H233.403C233.403 69.0973 233.325 68.9327 233.169 68.846C233.031 68.7593 232.883 68.716 232.727 68.716H228.437V79.064ZM252.756 80H248.908V79.532C249.307 79.532 249.506 79.376 249.506 79.064V70.172L241.576 78.7C241.299 78.9773 241.16 79.1767 241.16 79.298C241.16 79.454 241.273 79.532 241.498 79.532V80H237.286V79.532C237.615 79.532 237.78 79.376 237.78 79.064V67.26C237.78 66.948 237.615 66.792 237.286 66.792V66.324H241.212V66.792C240.761 66.792 240.536 66.948 240.536 67.26V75.788L247.998 67.78C248.345 67.4333 248.518 67.1907 248.518 67.052C248.518 66.8787 248.449 66.792 248.31 66.792V66.324H252.756V66.792C252.427 66.792 252.262 66.948 252.262 67.26V79.064C252.262 79.376 252.427 79.532 252.756 79.532V80ZM269.456 67.26C269.456 66.948 269.266 66.792 268.884 66.792V66.324H272.888V66.792C272.767 66.792 272.654 66.8353 272.55 66.922C272.464 66.9913 272.42 67.104 272.42 67.26V79.064C272.42 79.22 272.464 79.3413 272.55 79.428C272.654 79.4973 272.767 79.532 272.888 79.532V80H268.884V79.532C269.266 79.532 269.456 79.376 269.456 79.064V74.176H261.084V79.064C261.084 79.22 261.128 79.3413 261.214 79.428C261.318 79.4973 261.431 79.532 261.552 79.532V80H257.626V79.532C257.956 79.532 258.12 79.376 258.12 79.064V67.26C258.12 66.948 257.956 66.792 257.626 66.792V66.324H261.552V66.792C261.431 66.792 261.318 66.8353 261.214 66.922C261.128 66.9913 261.084 67.104 261.084 67.26V71.68H269.456V67.26ZM290.005 65.83V69.392H289.537C289.537 69.184 289.45 69.0193 289.277 68.898C289.121 68.7767 288.913 68.716 288.653 68.716H280.801V79.064C280.801 79.376 281.043 79.532 281.529 79.532V80H277.057V79.532C277.577 79.532 277.837 79.376 277.837 79.064V67.26C277.837 66.948 277.577 66.792 277.057 66.792V66.324H288.653C288.913 66.324 289.121 66.3067 289.277 66.272C289.45 66.2373 289.537 66.09 289.537 65.83H290.005ZM300.848 74.696L298.664 69.86L296.22 74.696H300.848ZM291.046 79.532C291.271 79.4973 291.445 79.3847 291.566 79.194C291.705 79.0033 291.835 78.7867 291.956 78.544L296.766 68.43C296.887 68.2047 296.991 67.9967 297.078 67.806C297.182 67.6153 297.234 67.4507 297.234 67.312C297.234 67.1387 297.173 67.0173 297.052 66.948C296.931 66.8787 296.801 66.8267 296.662 66.792V66.324H301.056V66.792C300.935 66.8267 300.813 66.8787 300.692 66.948C300.571 67 300.51 67.1213 300.51 67.312C300.51 67.4507 300.536 67.5893 300.588 67.728C300.657 67.8667 300.753 68.0487 300.874 68.274L306.282 78.856C306.369 79.0467 306.481 79.1853 306.62 79.272C306.776 79.3587 306.949 79.4453 307.14 79.532V80H302.564V79.532C302.633 79.532 302.72 79.506 302.824 79.454C302.928 79.402 302.98 79.324 302.98 79.22C302.98 79.0467 302.911 78.8213 302.772 78.544L301.784 76.62H295.44L294.504 78.466C294.331 78.83 294.244 79.09 294.244 79.246C294.244 79.4367 294.409 79.532 294.738 79.532V80H291.046V79.532Z" fill="white"/>
</g>
<path d="M8.72 135.8V132.2C7.65333 132.173 6.76 131.94 6.04 131.5C5.33333 131.06 4.8 130.473 4.44 129.74C4.09333 129.007 3.92 128.193 3.92 127.3C3.92 126.393 4.09333 125.58 4.44 124.86C4.8 124.127 5.33333 123.54 6.04 123.1C6.76 122.66 7.65333 122.427 8.72 122.4V121.2C8.72 120.6 8.63333 120.12 8.46 119.76C8.3 119.387 7.92 119.2 7.32 119.2H7.02V118.8H8.72C9.18667 118.8 9.54667 118.86 9.8 118.98C10.0667 119.1 10.2533 119.333 10.36 119.68C10.4667 120.027 10.52 120.533 10.52 121.2V122.4C11.5867 122.427 12.4733 122.66 13.18 123.1C13.9 123.54 14.4333 124.127 14.78 124.86C15.14 125.58 15.32 126.393 15.32 127.3C15.32 128.193 15.14 129.007 14.78 129.74C14.4333 130.473 13.9 131.06 13.18 131.5C12.4733 131.94 11.5867 132.173 10.52 132.2V135.8H8.72ZM8.74 131.5V123.1C8.07333 123.167 7.52 123.38 7.08 123.74C6.65333 124.1 6.33333 124.58 6.12 125.18C5.92 125.78 5.82 126.487 5.82 127.3C5.82 128.1 5.92 128.807 6.12 129.42C6.33333 130.02 6.65333 130.5 7.08 130.86C7.52 131.207 8.07333 131.42 8.74 131.5ZM10.5 131.5C11.18 131.42 11.7333 131.207 12.16 130.86C12.5867 130.5 12.9 130.02 13.1 129.42C13.3133 128.807 13.42 128.1 13.42 127.3C13.42 126.487 13.3133 125.78 13.1 125.18C12.9 124.58 12.5867 124.1 12.16 123.74C11.7333 123.38 11.18 123.167 10.5 123.1V131.5ZM21.5422 132.2C20.6089 132.2 19.8155 131.98 19.1622 131.54C18.5089 131.1 18.0089 130.507 17.6622 129.76C17.3155 129.013 17.1422 128.193 17.1422 127.3C17.1422 126.393 17.3155 125.573 17.6622 124.84C18.0089 124.093 18.5089 123.5 19.1622 123.06C19.8155 122.62 20.6089 122.4 21.5422 122.4C22.4755 122.4 23.2689 122.62 23.9222 123.06C24.5755 123.5 25.0755 124.093 25.4222 124.84C25.7689 125.573 25.9422 126.393 25.9422 127.3C25.9422 128.193 25.7689 129.013 25.4222 129.76C25.0755 130.507 24.5755 131.1 23.9222 131.54C23.2689 131.98 22.4755 132.2 21.5422 132.2ZM21.5422 131.4C22.0489 131.4 22.4889 131.22 22.8622 130.86C23.2355 130.487 23.5222 129.993 23.7222 129.38C23.9355 128.753 24.0422 128.06 24.0422 127.3C24.0422 126.527 23.9355 125.833 23.7222 125.22C23.5222 124.607 23.2355 124.12 22.8622 123.76C22.4889 123.387 22.0489 123.2 21.5422 123.2C21.0489 123.2 20.6089 123.387 20.2222 123.76C19.8489 124.12 19.5555 124.607 19.3422 125.22C19.1422 125.833 19.0422 126.527 19.0422 127.3C19.0422 128.06 19.1422 128.753 19.3422 129.38C19.5555 129.993 19.8489 130.487 20.2222 130.86C20.6089 131.22 21.0489 131.4 21.5422 131.4ZM28.5877 135.8V125C28.5877 124.4 28.501 123.92 28.3277 123.56C28.1677 123.187 27.7877 123 27.1877 123H26.7877V122.6H28.5877C29.0943 122.6 29.4743 122.673 29.7277 122.82C29.9943 122.967 30.181 123.193 30.2877 123.5C30.5543 123.233 30.9143 122.987 31.3677 122.76C31.821 122.52 32.3943 122.4 33.0877 122.4C33.8877 122.4 34.5543 122.62 35.0877 123.06C35.621 123.5 36.021 124.093 36.2877 124.84C36.5543 125.573 36.6877 126.393 36.6877 127.3C36.6877 128.193 36.5477 129.013 36.2677 129.76C36.001 130.507 35.5877 131.1 35.0277 131.54C34.4677 131.98 33.7543 132.2 32.8877 132.2C32.3277 132.2 31.8477 132.133 31.4477 132C31.0477 131.88 30.6943 131.747 30.3877 131.6V135.8H28.5877ZM32.2877 131.4C32.8877 131.4 33.3677 131.22 33.7277 130.86C34.101 130.487 34.3677 129.993 34.5277 129.38C34.701 128.753 34.7877 128.06 34.7877 127.3C34.7877 126.527 34.7077 125.833 34.5477 125.22C34.3877 124.607 34.1343 124.12 33.7877 123.76C33.4543 123.387 33.021 123.2 32.4877 123.2C31.941 123.2 31.501 123.327 31.1677 123.58C30.8343 123.82 30.5743 124.093 30.3877 124.4V130.8C30.6943 130.947 31.0077 131.087 31.3277 131.22C31.661 131.34 31.981 131.4 32.2877 131.4ZM50.2494 132.4C48.996 132.4 48.1294 132.093 47.6494 131.48C47.1827 130.867 46.9494 130.04 46.9494 129V124.7L43.6494 132H43.2494L39.8494 124.5V132H39.0494V122.6H40.9494L43.9494 129.2L46.9494 122.6H48.7494V129C48.7494 129.493 48.8094 129.973 48.9294 130.44C49.0627 130.893 49.2427 131.267 49.4694 131.56C49.696 131.853 49.956 132 50.2494 132V132.4ZM52.3177 132V125C52.3177 124.4 52.231 123.92 52.0577 123.56C51.8977 123.187 51.5177 123 50.9177 123H50.6177V122.6H52.3177C52.7843 122.6 53.1443 122.66 53.3977 122.78C53.6643 122.9 53.851 123.133 53.9577 123.48C54.0643 123.827 54.1177 124.333 54.1177 125V130.2L58.3177 122.6H60.1177V132H58.3177V124.4L54.1177 132H52.3177ZM63.2947 135.8V125C63.2947 124.4 63.208 123.92 63.0347 123.56C62.8747 123.187 62.4947 123 61.8947 123H61.4947V122.6H63.2947C63.8014 122.6 64.1814 122.673 64.4347 122.82C64.7014 122.967 64.888 123.193 64.9947 123.5C65.2614 123.233 65.6214 122.987 66.0747 122.76C66.528 122.52 67.1014 122.4 67.7947 122.4C68.5947 122.4 69.2614 122.62 69.7947 123.06C70.328 123.5 70.728 124.093 70.9947 124.84C71.2614 125.573 71.3947 126.393 71.3947 127.3C71.3947 128.193 71.2547 129.013 70.9747 129.76C70.708 130.507 70.2947 131.1 69.7347 131.54C69.1747 131.98 68.4614 132.2 67.5947 132.2C67.0347 132.2 66.5547 132.133 66.1547 132C65.7547 131.88 65.4014 131.747 65.0947 131.6V135.8H63.2947ZM66.9947 131.4C67.5947 131.4 68.0747 131.22 68.4347 130.86C68.808 130.487 69.0747 129.993 69.2347 129.38C69.408 128.753 69.4947 128.06 69.4947 127.3C69.4947 126.527 69.4147 125.833 69.2547 125.22C69.0947 124.607 68.8414 124.12 68.4947 123.76C68.1614 123.387 67.728 123.2 67.1947 123.2C66.648 123.2 66.208 123.327 65.8747 123.58C65.5414 123.82 65.2814 124.093 65.0947 124.4V130.8C65.4014 130.947 65.7147 131.087 66.0347 131.22C66.368 131.34 66.688 131.4 66.9947 131.4ZM74.2211 136V135.4C74.8344 135.4 75.3544 135.26 75.7811 134.98C76.2211 134.713 76.6011 134.153 76.9211 133.3L77.3211 132.2L74.1211 124.4C73.9211 123.893 73.6278 123.513 73.2411 123.26C72.8678 123.007 72.4278 122.853 71.9211 122.8V122.4H73.6211C74.2211 122.4 74.7144 122.54 75.1011 122.82C75.5011 123.1 75.8078 123.493 76.0211 124L78.3011 129.54L80.8211 122.6H81.8211L77.9211 133.3C77.6544 134.033 77.3678 134.593 77.0611 134.98C76.7678 135.367 76.4344 135.633 76.0611 135.78C75.7011 135.927 75.2878 136 74.8211 136H74.2211ZM87.3773 132.2C86.444 132.2 85.664 131.98 85.0373 131.54C84.424 131.1 83.9573 130.507 83.6373 129.76C83.3307 129.013 83.1773 128.193 83.1773 127.3C83.1773 126.393 83.3373 125.573 83.6573 124.84C83.9773 124.093 84.4373 123.5 85.0373 123.06C85.6373 122.62 86.3507 122.4 87.1773 122.4C88.084 122.4 88.8307 122.573 89.4173 122.92C90.0173 123.253 90.4573 123.747 90.7373 124.4C91.0307 125.053 91.1773 125.853 91.1773 126.8L91.1373 127.6H85.0773C85.0773 128.693 85.3107 129.6 85.7773 130.32C86.2573 131.04 86.924 131.4 87.7773 131.4C88.4307 131.4 88.9707 131.26 89.3973 130.98C89.8373 130.7 90.2307 130.307 90.5773 129.8L90.9773 130.1C90.684 130.607 90.3507 131.013 89.9773 131.32C89.6173 131.627 89.2173 131.853 88.7773 132C88.3507 132.133 87.884 132.2 87.3773 132.2ZM85.0773 126.8H89.2773C89.2773 125.64 89.104 124.753 88.7573 124.14C88.4107 123.513 87.884 123.2 87.1773 123.2C86.7773 123.2 86.4173 123.36 86.0973 123.68C85.7907 123.987 85.544 124.413 85.3573 124.96C85.1707 125.493 85.0773 126.107 85.0773 126.8ZM104.683 132.4C103.43 132.4 102.563 132.093 102.083 131.48C101.616 130.867 101.383 130.04 101.383 129V124.7L98.083 132H97.683L94.283 124.5V132H93.483V122.6H95.383L98.383 129.2L101.383 122.6H103.183V129C103.183 129.493 103.243 129.973 103.363 130.44C103.496 130.893 103.676 131.267 103.903 131.56C104.13 131.853 104.39 132 104.683 132V132.4ZM110.351 135.1V131.9C110.351 131.7 110.418 131.533 110.551 131.4C110.685 131.267 110.851 131.2 111.051 131.2H111.651C111.958 130.533 112.198 129.84 112.371 129.12C112.545 128.387 112.665 127.667 112.731 126.96C112.811 126.253 112.851 125.6 112.851 125C112.851 124.4 112.765 123.92 112.591 123.56C112.431 123.187 112.051 123 111.451 123V122.6H119.451V131.2H120.251C120.451 131.2 120.618 131.267 120.751 131.4C120.885 131.533 120.951 131.7 120.951 131.9V135.1H120.151C120.085 134.353 119.965 133.753 119.791 133.3C119.631 132.847 119.411 132.513 119.131 132.3C118.851 132.1 118.491 132 118.051 132H113.251C112.825 132 112.465 132.1 112.171 132.3C111.891 132.513 111.671 132.847 111.511 133.3C111.351 133.753 111.231 134.353 111.151 135.1H110.351ZM113.051 131.2H117.651V123.4H114.151C114.151 125.107 114.065 126.587 113.891 127.84C113.731 129.08 113.451 130.2 113.051 131.2ZM126.42 132.2C125.487 132.2 124.707 131.98 124.08 131.54C123.467 131.1 123 130.507 122.68 129.76C122.374 129.013 122.22 128.193 122.22 127.3C122.22 126.393 122.38 125.573 122.7 124.84C123.02 124.093 123.48 123.5 124.08 123.06C124.68 122.62 125.394 122.4 126.22 122.4C127.127 122.4 127.874 122.573 128.46 122.92C129.06 123.253 129.5 123.747 129.78 124.4C130.074 125.053 130.22 125.853 130.22 126.8L130.18 127.6H124.12C124.12 128.693 124.354 129.6 124.82 130.32C125.3 131.04 125.967 131.4 126.82 131.4C127.474 131.4 128.014 131.26 128.44 130.98C128.88 130.7 129.274 130.307 129.62 129.8L130.02 130.1C129.727 130.607 129.394 131.013 129.02 131.32C128.66 131.627 128.26 131.853 127.82 132C127.394 132.133 126.927 132.2 126.42 132.2ZM124.12 126.8H128.32C128.32 125.64 128.147 124.753 127.8 124.14C127.454 123.513 126.927 123.2 126.22 123.2C125.82 123.2 125.46 123.36 125.14 123.68C124.834 123.987 124.587 124.413 124.4 124.96C124.214 125.493 124.12 126.107 124.12 126.8ZM135.166 132V123.4H134.166C133.566 123.4 133.066 123.573 132.666 123.92C132.266 124.253 132.066 124.747 132.066 125.4H131.666V124.2C131.666 123.8 131.766 123.433 131.966 123.1C132.166 122.767 132.566 122.6 133.166 122.6H140.266V123.4H136.966V132H135.166ZM144.239 132.2C143.959 132.2 143.652 132.153 143.319 132.06C142.999 131.98 142.685 131.833 142.379 131.62C142.072 131.407 141.819 131.12 141.619 130.76C141.432 130.4 141.339 129.947 141.339 129.4C141.339 128.667 141.572 128.1 142.039 127.7C142.519 127.3 143.145 127.02 143.919 126.86C144.705 126.687 145.545 126.6 146.439 126.6H147.039C147.039 125.667 146.945 124.96 146.759 124.48C146.572 123.987 146.319 123.653 145.999 123.48C145.692 123.293 145.339 123.2 144.939 123.2C144.379 123.2 143.905 123.32 143.519 123.56C143.145 123.8 142.885 124.247 142.739 124.9H141.839C141.839 124.553 141.859 124.233 141.899 123.94C141.939 123.633 142.085 123.353 142.339 123.1C142.592 122.847 143.005 122.667 143.579 122.56C144.152 122.453 144.739 122.4 145.339 122.4C145.792 122.4 146.225 122.453 146.639 122.56C147.065 122.667 147.439 122.867 147.759 123.16C148.092 123.44 148.352 123.86 148.539 124.42C148.739 124.967 148.839 125.693 148.839 126.6V132H147.839L147.139 131.1H147.039C146.839 131.353 146.512 131.6 146.059 131.84C145.605 132.08 144.999 132.2 144.239 132.2ZM145.139 131.3C145.632 131.3 146.019 131.18 146.299 130.94C146.592 130.687 146.839 130.407 147.039 130.1V127.4H146.439C145.439 127.4 144.652 127.587 144.079 127.96C143.519 128.32 143.239 128.8 143.239 129.4C143.239 130.053 143.432 130.533 143.819 130.84C144.205 131.147 144.645 131.3 145.139 131.3ZM151.348 132.2C151.241 132.2 151.074 132.18 150.847 132.14C150.634 132.1 150.474 132.06 150.368 132.02V131.52C150.688 131.52 151.001 131.44 151.308 131.28C151.628 131.107 151.908 130.793 152.148 130.34C152.401 129.873 152.601 129.213 152.748 128.36C152.894 127.493 152.968 126.373 152.968 125C152.968 124.4 152.881 123.92 152.708 123.56C152.548 123.187 152.161 123 151.548 123V122.6H159.668V132H157.868V123.4H154.348V125C154.348 126.493 154.261 127.713 154.088 128.66C153.928 129.607 153.701 130.34 153.408 130.86C153.128 131.367 152.808 131.72 152.448 131.92C152.088 132.107 151.721 132.2 151.348 132.2ZM162.825 132V125C162.825 124.4 162.739 123.92 162.565 123.56C162.405 123.187 162.025 123 161.425 123H161.125V122.6H162.825C163.292 122.6 163.652 122.66 163.905 122.78C164.172 122.9 164.359 123.133 164.465 123.48C164.572 123.827 164.625 124.333 164.625 125V126.4H166.125C166.899 126.4 167.592 126.487 168.205 126.66C168.819 126.82 169.305 127.1 169.665 127.5C170.039 127.9 170.225 128.467 170.225 129.2C170.225 129.92 170.039 130.487 169.665 130.9C169.305 131.3 168.819 131.587 168.205 131.76C167.592 131.92 166.899 132 166.125 132H162.825ZM165.925 131.3C166.685 131.3 167.272 131.14 167.685 130.82C168.112 130.5 168.325 129.96 168.325 129.2C168.325 128.44 168.112 127.9 167.685 127.58C167.272 127.26 166.685 127.1 165.925 127.1C165.725 127.1 165.492 127.12 165.225 127.16C164.972 127.2 164.772 127.247 164.625 127.3V131.1C164.772 131.153 164.972 131.2 165.225 131.24C165.492 131.28 165.725 131.3 165.925 131.3ZM172.533 132V125C172.533 124.4 172.446 123.92 172.273 123.56C172.113 123.187 171.733 123 171.133 123H170.833V122.6H172.533C172.999 122.6 173.359 122.66 173.613 122.78C173.879 122.9 174.066 123.133 174.173 123.48C174.279 123.827 174.333 124.333 174.333 125V126.9H178.333V122.6H180.133V129.6C180.133 130.2 180.213 130.687 180.373 131.06C180.546 131.42 180.933 131.6 181.533 131.6H181.832V132H180.133C179.666 132 179.299 131.94 179.033 131.82C178.779 131.7 178.599 131.467 178.493 131.12C178.386 130.773 178.333 130.267 178.333 129.6V127.7H174.333V132H172.533ZM183.587 132V125C183.587 124.4 183.501 123.92 183.327 123.56C183.167 123.187 182.787 123 182.187 123H181.887V122.6H183.587C184.054 122.6 184.414 122.66 184.667 122.78C184.934 122.9 185.121 123.133 185.227 123.48C185.334 123.827 185.387 124.333 185.387 125V126.4H186.887C187.594 126.4 188.241 126.487 188.827 126.66C189.414 126.82 189.887 127.1 190.247 127.5C190.607 127.9 190.787 128.467 190.787 129.2C190.787 129.92 190.607 130.487 190.247 130.9C189.887 131.3 189.414 131.587 188.827 131.76C188.241 131.92 187.594 132 186.887 132H183.587ZM186.687 131.3C187.341 131.3 187.867 131.14 188.267 130.82C188.681 130.5 188.887 129.96 188.887 129.2C188.887 128.44 188.681 127.9 188.267 127.58C187.867 127.26 187.341 127.1 186.687 127.1C186.487 127.1 186.254 127.12 185.987 127.16C185.734 127.2 185.534 127.247 185.387 127.3V131.1C185.534 131.153 185.734 131.2 185.987 131.24C186.254 131.28 186.487 131.3 186.687 131.3ZM193.887 132C193.421 132 193.054 131.94 192.787 131.82C192.534 131.7 192.354 131.467 192.247 131.12C192.141 130.773 192.087 130.267 192.087 129.6V122.6H193.887V129.6C193.887 130.2 193.967 130.687 194.127 131.06C194.301 131.42 194.687 131.6 195.287 131.6H195.587V132H193.887ZM197.357 132V125C197.357 124.4 197.27 123.92 197.097 123.56C196.937 123.187 196.557 123 195.957 123H195.657V122.6H197.357C197.823 122.6 198.183 122.66 198.437 122.78C198.703 122.9 198.89 123.133 198.997 123.48C199.103 123.827 199.157 124.333 199.157 125V130.2L203.357 122.6H205.157V132H203.357V124.4L199.157 132H197.357ZM201.257 121.58C200.603 121.58 200.07 121.427 199.657 121.12C199.243 120.813 198.91 120.433 198.657 119.98L199.057 119.68C199.31 119.933 199.597 120.133 199.917 120.28C200.25 120.413 200.697 120.48 201.257 120.48C201.817 120.48 202.257 120.413 202.577 120.28C202.91 120.133 203.203 119.933 203.457 119.68L203.857 119.98C203.603 120.433 203.27 120.813 202.857 121.12C202.443 121.427 201.91 121.58 201.257 121.58ZM213.234 132V125C213.234 124.4 213.147 123.92 212.974 123.56C212.814 123.187 212.434 123 211.834 123H211.634V122.6H220.834V132H219.034V123.4H215.034V132H213.234ZM223.437 132.2C223.331 132.2 223.164 132.18 222.937 132.14C222.724 132.1 222.564 132.06 222.457 132.02V131.52C222.777 131.52 223.091 131.44 223.397 131.28C223.717 131.107 223.997 130.793 224.237 130.34C224.491 129.873 224.691 129.213 224.837 128.36C224.984 127.493 225.057 126.373 225.057 125C225.057 124.4 224.971 123.92 224.797 123.56C224.637 123.187 224.251 123 223.637 123V122.6H231.757V132H229.957V123.4H226.437V125C226.437 126.493 226.351 127.713 226.177 128.66C226.017 129.607 225.791 130.34 225.497 130.86C225.217 131.367 224.897 131.72 224.537 131.92C224.177 132.107 223.811 132.2 223.437 132.2ZM236.875 132.2C236.595 132.2 236.289 132.153 235.955 132.06C235.635 131.98 235.322 131.833 235.015 131.62C234.709 131.407 234.455 131.12 234.255 130.76C234.069 130.4 233.975 129.947 233.975 129.4C233.975 128.667 234.209 128.1 234.675 127.7C235.155 127.3 235.782 127.02 236.555 126.86C237.342 126.687 238.182 126.6 239.075 126.6H239.675C239.675 125.667 239.582 124.96 239.395 124.48C239.209 123.987 238.955 123.653 238.635 123.48C238.329 123.293 237.975 123.2 237.575 123.2C237.015 123.2 236.542 123.32 236.155 123.56C235.782 123.8 235.522 124.247 235.375 124.9H234.475C234.475 124.553 234.495 124.233 234.535 123.94C234.575 123.633 234.722 123.353 234.975 123.1C235.229 122.847 235.642 122.667 236.215 122.56C236.789 122.453 237.375 122.4 237.975 122.4C238.429 122.4 238.862 122.453 239.275 122.56C239.702 122.667 240.075 122.867 240.395 123.16C240.729 123.44 240.989 123.86 241.175 124.42C241.375 124.967 241.475 125.693 241.475 126.6V132H240.475L239.775 131.1H239.675C239.475 131.353 239.149 131.6 238.695 131.84C238.242 132.08 237.635 132.2 236.875 132.2ZM237.775 131.3C238.269 131.3 238.655 131.18 238.935 130.94C239.229 130.687 239.475 130.407 239.675 130.1V127.4H239.075C238.075 127.4 237.289 127.587 236.715 127.96C236.155 128.32 235.875 128.8 235.875 129.4C235.875 130.053 236.069 130.533 236.455 130.84C236.842 131.147 237.282 131.3 237.775 131.3ZM244.544 132V125C244.544 124.4 244.458 123.92 244.284 123.56C244.124 123.187 243.744 123 243.144 123H242.844V122.6H244.544C245.011 122.6 245.371 122.66 245.624 122.78C245.891 122.9 246.078 123.133 246.184 123.48C246.291 123.827 246.344 124.333 246.344 125V126.9H250.344V122.6H252.144V129.6C252.144 130.2 252.224 130.687 252.384 131.06C252.558 131.42 252.944 131.6 253.544 131.6H253.844V132H252.144C251.678 132 251.311 131.94 251.044 131.82C250.791 131.7 250.611 131.467 250.504 131.12C250.398 130.773 250.344 130.267 250.344 129.6V127.7H246.344V132H244.544ZM259.199 135.1V131.9C259.199 131.7 259.266 131.533 259.399 131.4C259.532 131.267 259.699 131.2 259.899 131.2H260.499C260.806 130.533 261.046 129.84 261.219 129.12C261.392 128.387 261.512 127.667 261.579 126.96C261.659 126.253 261.699 125.6 261.699 125C261.699 124.4 261.612 123.92 261.439 123.56C261.279 123.187 260.899 123 260.299 123V122.6H268.299V131.2H269.099C269.299 131.2 269.466 131.267 269.599 131.4C269.732 131.533 269.799 131.7 269.799 131.9V135.1H268.999C268.932 134.353 268.812 133.753 268.639 133.3C268.479 132.847 268.259 132.513 267.979 132.3C267.699 132.1 267.339 132 266.899 132H262.099C261.672 132 261.312 132.1 261.019 132.3C260.739 132.513 260.519 132.847 260.359 133.3C260.199 133.753 260.079 134.353 259.999 135.1H259.199ZM261.899 131.2H266.499V123.4H262.999C262.999 125.107 262.912 126.587 262.739 127.84C262.579 129.08 262.299 130.2 261.899 131.2ZM271.445 132.2C271.338 132.2 271.172 132.18 270.945 132.14C270.732 132.1 270.572 132.06 270.465 132.02V131.52C270.785 131.52 271.098 131.44 271.405 131.28C271.725 131.107 272.005 130.793 272.245 130.34C272.498 129.873 272.698 129.213 272.845 128.36C272.992 127.493 273.065 126.373 273.065 125C273.065 124.4 272.978 123.92 272.805 123.56C272.645 123.187 272.258 123 271.645 123V122.6H279.765V132H277.965V123.4H274.445V125C274.445 126.493 274.358 127.713 274.185 128.66C274.025 129.607 273.798 130.34 273.505 130.86C273.225 131.367 272.905 131.72 272.545 131.92C272.185 132.107 271.818 132.2 271.445 132.2ZM282.643 132.2C282.443 132.2 282.243 132.18 282.043 132.14C281.856 132.1 281.69 132.053 281.543 132V131.6C282.01 131.547 282.39 131.353 282.683 131.02C282.976 130.687 283.23 130.347 283.443 130L284.643 127.9C284.043 127.793 283.51 127.52 283.043 127.08C282.576 126.64 282.343 126.047 282.343 125.3C282.343 124.607 282.523 124.067 282.883 123.68C283.256 123.28 283.743 123 284.343 122.84C284.956 122.68 285.623 122.6 286.343 122.6H291.043V123H290.963C290.403 123.013 290.043 123.207 289.883 123.58C289.723 123.94 289.643 124.413 289.643 125V132H287.843V128H286.283L285.083 130.4C284.776 131 284.436 131.453 284.063 131.76C283.69 132.053 283.216 132.2 282.643 132.2ZM286.543 127.3C286.743 127.3 286.97 127.28 287.223 127.24C287.49 127.2 287.696 127.153 287.843 127.1V123.5C287.696 123.447 287.49 123.4 287.223 123.36C286.97 123.32 286.743 123.3 286.543 123.3C285.836 123.3 285.276 123.46 284.863 123.78C284.45 124.087 284.243 124.593 284.243 125.3C284.243 126.007 284.45 126.52 284.863 126.84C285.276 127.147 285.836 127.3 286.543 127.3ZM4.74 154.8V144C4.74 143.4 4.65333 142.92 4.48 142.56C4.32 142.187 3.94 142 3.34 142H2.94V141.6H4.74C5.24667 141.6 5.62667 141.673 5.88 141.82C6.14667 141.967 6.33333 142.193 6.44 142.5C6.70667 142.233 7.06667 141.987 7.52 141.76C7.97333 141.52 8.54667 141.4 9.24 141.4C10.04 141.4 10.7067 141.62 11.24 142.06C11.7733 142.5 12.1733 143.093 12.44 143.84C12.7067 144.573 12.84 145.393 12.84 146.3C12.84 147.193 12.7 148.013 12.42 148.76C12.1533 149.507 11.74 150.1 11.18 150.54C10.62 150.98 9.90667 151.2 9.04 151.2C8.48 151.2 8 151.133 7.6 151C7.2 150.88 6.84667 150.747 6.54 150.6V154.8H4.74ZM8.44 150.4C9.04 150.4 9.52 150.22 9.88 149.86C10.2533 149.487 10.52 148.993 10.68 148.38C10.8533 147.753 10.94 147.06 10.94 146.3C10.94 145.527 10.86 144.833 10.7 144.22C10.54 143.607 10.2867 143.12 9.94 142.76C9.60667 142.387 9.17333 142.2 8.64 142.2C8.09333 142.2 7.65333 142.327 7.32 142.58C6.98667 142.82 6.72667 143.093 6.54 143.4V149.8C6.84667 149.947 7.16 150.087 7.48 150.22C7.81333 150.34 8.13333 150.4 8.44 150.4ZM18.8617 151.2C17.9284 151.2 17.1484 150.98 16.5217 150.54C15.9084 150.1 15.4417 149.507 15.1217 148.76C14.8151 148.013 14.6617 147.193 14.6617 146.3C14.6617 145.393 14.8217 144.573 15.1417 143.84C15.4617 143.093 15.9217 142.5 16.5217 142.06C17.1217 141.62 17.8351 141.4 18.6617 141.4C19.5684 141.4 20.3151 141.573 20.9017 141.92C21.5017 142.253 21.9417 142.747 22.2217 143.4C22.5151 144.053 22.6617 144.853 22.6617 145.8L22.6217 146.6H16.5617C16.5617 147.693 16.7951 148.6 17.2617 149.32C17.7417 150.04 18.4084 150.4 19.2617 150.4C19.9151 150.4 20.4551 150.26 20.8817 149.98C21.3217 149.7 21.7151 149.307 22.0617 148.8L22.4617 149.1C22.1684 149.607 21.8351 150.013 21.4617 150.32C21.1017 150.627 20.7017 150.853 20.2617 151C19.8351 151.133 19.3684 151.2 18.8617 151.2ZM16.5617 145.8H20.7617C20.7617 144.64 20.5884 143.753 20.2417 143.14C19.8951 142.513 19.3684 142.2 18.6617 142.2C18.2617 142.2 17.9017 142.36 17.5817 142.68C17.2751 142.987 17.0284 143.413 16.8417 143.96C16.6551 144.493 16.5617 145.107 16.5617 145.8ZM32.3073 151.2C31.8007 151.2 31.3007 151.073 30.8073 150.82C30.3273 150.567 29.8607 150.16 29.4073 149.6L27.1073 146.7V151H25.3073V144C25.3073 143.4 25.2207 142.92 25.0473 142.56C24.8873 142.187 24.5073 142 23.9073 142H23.5073V141.6H25.3073C25.774 141.6 26.134 141.66 26.3873 141.78C26.654 141.9 26.8407 142.133 26.9473 142.48C27.054 142.827 27.1073 143.333 27.1073 144V146.4L29.6073 142.9C29.9007 142.5 30.2407 142.187 30.6273 141.96C31.0273 141.72 31.554 141.6 32.2073 141.6H32.7073V142.1C32.4007 142.1 32.0873 142.167 31.7673 142.3C31.4473 142.42 31.1607 142.653 30.9073 143L28.7073 146.1L31.0073 149C31.354 149.453 31.7073 149.82 32.0673 150.1C32.4407 150.38 32.854 150.553 33.3073 150.62V151C33.2007 151.053 33.054 151.1 32.8673 151.14C32.694 151.18 32.5073 151.2 32.3073 151.2ZM34.6288 151.2C34.5221 151.2 34.3554 151.18 34.1287 151.14C33.9154 151.1 33.7554 151.06 33.6488 151.02V150.52C33.9688 150.52 34.2821 150.44 34.5888 150.28C34.9088 150.107 35.1888 149.793 35.4288 149.34C35.6821 148.873 35.8821 148.213 36.0288 147.36C36.1754 146.493 36.2488 145.373 36.2488 144C36.2488 143.4 36.1621 142.92 35.9888 142.56C35.8288 142.187 35.4421 142 34.8288 142V141.6H42.9488V151H41.1488V142.4H37.6288V144C37.6288 145.493 37.5421 146.713 37.3688 147.66C37.2088 148.607 36.9821 149.34 36.6888 149.86C36.4088 150.367 36.0888 150.72 35.7288 150.92C35.3688 151.107 35.0021 151.2 34.6288 151.2ZM48.0667 151.2C47.7867 151.2 47.4801 151.153 47.1467 151.06C46.8267 150.98 46.5134 150.833 46.2067 150.62C45.9001 150.407 45.6467 150.12 45.4467 149.76C45.2601 149.4 45.1667 148.947 45.1667 148.4C45.1667 147.667 45.4001 147.1 45.8667 146.7C46.3467 146.3 46.9734 146.02 47.7467 145.86C48.5334 145.687 49.3734 145.6 50.2667 145.6H50.8667C50.8667 144.667 50.7734 143.96 50.5867 143.48C50.4001 142.987 50.1467 142.653 49.8267 142.48C49.5201 142.293 49.1667 142.2 48.7667 142.2C48.2067 142.2 47.7334 142.32 47.3467 142.56C46.9734 142.8 46.7134 143.247 46.5667 143.9H45.6667C45.6667 143.553 45.6867 143.233 45.7267 142.94C45.7667 142.633 45.9134 142.353 46.1667 142.1C46.4201 141.847 46.8334 141.667 47.4067 141.56C47.9801 141.453 48.5667 141.4 49.1667 141.4C49.6201 141.4 50.0534 141.453 50.4667 141.56C50.8934 141.667 51.2667 141.867 51.5867 142.16C51.9201 142.44 52.1801 142.86 52.3667 143.42C52.5667 143.967 52.6667 144.693 52.6667 145.6V151H51.6667L50.9667 150.1H50.8667C50.6667 150.353 50.3401 150.6 49.8867 150.84C49.4334 151.08 48.8267 151.2 48.0667 151.2ZM48.9667 150.3C49.4601 150.3 49.8467 150.18 50.1267 149.94C50.4201 149.687 50.6667 149.407 50.8667 149.1V146.4H50.2667C49.2667 146.4 48.4801 146.587 47.9067 146.96C47.3467 147.32 47.0667 147.8 47.0667 148.4C47.0667 149.053 47.2601 149.533 47.6467 149.84C48.0334 150.147 48.4734 150.3 48.9667 150.3ZM66.6556 151.4C65.4023 151.4 64.5356 151.093 64.0556 150.48C63.589 149.867 63.3556 149.04 63.3556 148V143.7L60.0556 151H59.6556L56.2556 143.5V151H55.4556V141.6H57.3556L60.3556 148.2L63.3556 141.6H65.1556V148C65.1556 148.493 65.2156 148.973 65.3356 149.44C65.469 149.893 65.649 150.267 65.8756 150.56C66.1023 150.853 66.3623 151 66.6556 151V151.4ZM68.7239 151V144C68.7239 143.4 68.6372 142.92 68.4639 142.56C68.3039 142.187 67.9239 142 67.3239 142H67.0239V141.6H68.7239C69.1906 141.6 69.5506 141.66 69.8039 141.78C70.0706 141.9 70.2572 142.133 70.3639 142.48C70.4706 142.827 70.5239 143.333 70.5239 144V145.9H74.5239V141.6H76.3239V148.6C76.3239 149.2 76.4039 149.687 76.5639 150.06C76.7372 150.42 77.1239 150.6 77.7239 150.6H78.0239V151H76.3239C75.8572 151 75.4906 150.94 75.2239 150.82C74.9706 150.7 74.7906 150.467 74.6839 150.12C74.5772 149.773 74.5239 149.267 74.5239 148.6V146.7H70.5239V151H68.7239ZM79.7786 151V144C79.7786 143.4 79.6919 142.92 79.5186 142.56C79.3586 142.187 78.9786 142 78.3786 142H78.0786V141.6H79.7786C80.2453 141.6 80.6053 141.66 80.8586 141.78C81.1253 141.9 81.3119 142.133 81.4186 142.48C81.5253 142.827 81.5786 143.333 81.5786 144V145.4H83.0786C83.7853 145.4 84.4319 145.487 85.0186 145.66C85.6053 145.82 86.0786 146.1 86.4386 146.5C86.7986 146.9 86.9786 147.467 86.9786 148.2C86.9786 148.92 86.7986 149.487 86.4386 149.9C86.0786 150.3 85.6053 150.587 85.0186 150.76C84.4319 150.92 83.7853 151 83.0786 151H79.7786ZM82.8786 150.3C83.5319 150.3 84.0586 150.14 84.4586 149.82C84.8719 149.5 85.0786 148.96 85.0786 148.2C85.0786 147.44 84.8719 146.9 84.4586 146.58C84.0586 146.26 83.5319 146.1 82.8786 146.1C82.6786 146.1 82.4453 146.12 82.1786 146.16C81.9253 146.2 81.7253 146.247 81.5786 146.3V150.1C81.7253 150.153 81.9253 150.2 82.1786 150.24C82.4453 150.28 82.6786 150.3 82.8786 150.3ZM90.0786 151C89.6119 151 89.2453 150.94 88.9786 150.82C88.7253 150.7 88.5453 150.467 88.4386 150.12C88.3319 149.773 88.2786 149.267 88.2786 148.6V141.6H90.0786V148.6C90.0786 149.2 90.1586 149.687 90.3186 150.06C90.4919 150.42 90.8786 150.6 91.4786 150.6H91.7786V151H90.0786ZM92.5881 151L95.7881 146.5L94.0481 143.6C93.7681 143.12 93.4548 142.747 93.1081 142.48C92.7748 142.213 92.4015 142.053 91.9881 142V141.6H93.6881C94.1415 141.6 94.5548 141.747 94.9281 142.04C95.3148 142.32 95.6548 142.707 95.9481 143.2L97.1881 145.3L99.7881 141.6H100.788L97.5881 146.1L99.3281 149C99.6081 149.493 99.9281 149.873 100.288 150.14C100.648 150.393 101.048 150.547 101.488 150.6V151H99.6881C99.2348 151 98.8148 150.86 98.4281 150.58C98.0548 150.287 97.7215 149.893 97.4281 149.4L96.1881 147.3L93.5881 151H92.5881ZM115.374 151.2C114.867 151.2 114.367 151.073 113.874 150.82C113.394 150.567 112.927 150.16 112.474 149.6L110.174 146.7V151H108.374V144C108.374 143.4 108.287 142.92 108.114 142.56C107.954 142.187 107.574 142 106.974 142H106.574V141.6H108.374C108.84 141.6 109.2 141.66 109.454 141.78C109.72 141.9 109.907 142.133 110.014 142.48C110.12 142.827 110.174 143.333 110.174 144V146.4L112.674 142.9C112.967 142.5 113.307 142.187 113.694 141.96C114.094 141.72 114.62 141.6 115.274 141.6H115.774V142.1C115.467 142.1 115.154 142.167 114.834 142.3C114.514 142.42 114.227 142.653 113.974 143L111.774 146.1L114.074 149C114.42 149.453 114.774 149.82 115.134 150.1C115.507 150.38 115.92 150.553 116.374 150.62V151C116.267 151.053 116.12 151.1 115.934 151.14C115.76 151.18 115.574 151.2 115.374 151.2ZM120.215 151.2C119.935 151.2 119.628 151.153 119.295 151.06C118.975 150.98 118.662 150.833 118.355 150.62C118.048 150.407 117.795 150.12 117.595 149.76C117.408 149.4 117.315 148.947 117.315 148.4C117.315 147.667 117.548 147.1 118.015 146.7C118.495 146.3 119.122 146.02 119.895 145.86C120.682 145.687 121.522 145.6 122.415 145.6H123.015C123.015 144.667 122.922 143.96 122.735 143.48C122.548 142.987 122.295 142.653 121.975 142.48C121.668 142.293 121.315 142.2 120.915 142.2C120.355 142.2 119.882 142.32 119.495 142.56C119.122 142.8 118.862 143.247 118.715 143.9H117.815C117.815 143.553 117.835 143.233 117.875 142.94C117.915 142.633 118.062 142.353 118.315 142.1C118.568 141.847 118.982 141.667 119.555 141.56C120.128 141.453 120.715 141.4 121.315 141.4C121.768 141.4 122.202 141.453 122.615 141.56C123.042 141.667 123.415 141.867 123.735 142.16C124.068 142.44 124.328 142.86 124.515 143.42C124.715 143.967 124.815 144.693 124.815 145.6V151H123.815L123.115 150.1H123.015C122.815 150.353 122.488 150.6 122.035 150.84C121.582 151.08 120.975 151.2 120.215 151.2ZM121.115 150.3C121.608 150.3 121.995 150.18 122.275 149.94C122.568 149.687 122.815 149.407 123.015 149.1V146.4H122.415C121.415 146.4 120.628 146.587 120.055 146.96C119.495 147.32 119.215 147.8 119.215 148.4C119.215 149.053 119.408 149.533 119.795 149.84C120.182 150.147 120.622 150.3 121.115 150.3ZM138.804 151.4C137.551 151.4 136.684 151.093 136.204 150.48C135.737 149.867 135.504 149.04 135.504 148V143.7L132.204 151H131.804L128.404 143.5V151H127.604V141.6H129.504L132.504 148.2L135.504 141.6H137.304V148C137.304 148.493 137.364 148.973 137.484 149.44C137.617 149.893 137.797 150.267 138.024 150.56C138.251 150.853 138.511 151 138.804 151V151.4ZM140.792 151V144C140.792 143.4 140.706 142.92 140.532 142.56C140.372 142.187 139.992 142 139.392 142H139.192V141.6H148.392V151H146.592V142.4H142.592V151H140.792ZM153.516 151.2C153.236 151.2 152.929 151.153 152.596 151.06C152.276 150.98 151.963 150.833 151.656 150.62C151.349 150.407 151.096 150.12 150.896 149.76C150.709 149.4 150.616 148.947 150.616 148.4C150.616 147.667 150.849 147.1 151.316 146.7C151.796 146.3 152.423 146.02 153.196 145.86C153.983 145.687 154.823 145.6 155.716 145.6H156.316C156.316 144.667 156.223 143.96 156.036 143.48C155.849 142.987 155.596 142.653 155.276 142.48C154.969 142.293 154.616 142.2 154.216 142.2C153.656 142.2 153.183 142.32 152.796 142.56C152.423 142.8 152.163 143.247 152.016 143.9H151.116C151.116 143.553 151.136 143.233 151.176 142.94C151.216 142.633 151.363 142.353 151.616 142.1C151.869 141.847 152.283 141.667 152.856 141.56C153.429 141.453 154.016 141.4 154.616 141.4C155.069 141.4 155.503 141.453 155.916 141.56C156.343 141.667 156.716 141.867 157.036 142.16C157.369 142.44 157.629 142.86 157.816 143.42C158.016 143.967 158.116 144.693 158.116 145.6V151H157.116L156.416 150.1H156.316C156.116 150.353 155.789 150.6 155.336 150.84C154.883 151.08 154.276 151.2 153.516 151.2ZM154.416 150.3C154.909 150.3 155.296 150.18 155.576 149.94C155.869 149.687 156.116 149.407 156.316 149.1V146.4H155.716C154.716 146.4 153.929 146.587 153.356 146.96C152.796 147.32 152.516 147.8 152.516 148.4C152.516 149.053 152.709 149.533 153.096 149.84C153.483 150.147 153.923 150.3 154.416 150.3ZM161.185 151V144C161.185 143.4 161.098 142.92 160.925 142.56C160.765 142.187 160.385 142 159.785 142H159.485V141.6H161.185C161.652 141.6 162.012 141.66 162.265 141.78C162.532 141.9 162.718 142.133 162.825 142.48C162.932 142.827 162.985 143.333 162.985 144V145.9H166.985V141.6H168.785V148.6C168.785 149.2 168.865 149.687 169.025 150.06C169.198 150.42 169.585 150.6 170.185 150.6H170.485V151H168.785C168.318 151 167.952 150.94 167.685 150.82C167.432 150.7 167.252 150.467 167.145 150.12C167.038 149.773 166.985 149.267 166.985 148.6V146.7H162.985V151H161.185ZM172.24 151V144C172.24 143.4 172.153 142.92 171.98 142.56C171.82 142.187 171.44 142 170.84 142H170.54V141.6H172.24C172.706 141.6 173.066 141.66 173.32 141.78C173.586 141.9 173.773 142.133 173.88 142.48C173.986 142.827 174.04 143.333 174.04 144V149.2L178.24 141.6H180.04V151H178.24V143.4L174.04 151H172.24ZM183.197 151V144C183.197 143.4 183.11 142.92 182.937 142.56C182.777 142.187 182.397 142 181.797 142H181.497V141.6H183.197C183.663 141.6 184.023 141.66 184.277 141.78C184.543 141.9 184.73 142.133 184.837 142.48C184.943 142.827 184.997 143.333 184.997 144V149.2L189.197 141.6H190.997V151H189.197V143.4L184.997 151H183.197ZM187.097 140.58C186.443 140.58 185.91 140.427 185.497 140.12C185.083 139.813 184.75 139.433 184.497 138.98L184.897 138.68C185.15 138.933 185.437 139.133 185.757 139.28C186.09 139.413 186.537 139.48 187.097 139.48C187.657 139.48 188.097 139.413 188.417 139.28C188.75 139.133 189.043 138.933 189.297 138.68L189.697 138.98C189.443 139.433 189.11 139.813 188.697 140.12C188.283 140.427 187.75 140.58 187.097 140.58ZM199.154 151V144C199.154 143.4 199.067 142.92 198.894 142.56C198.734 142.187 198.354 142 197.754 142H197.454V141.6H199.154C199.62 141.6 199.98 141.66 200.234 141.78C200.5 141.9 200.687 142.133 200.794 142.48C200.9 142.827 200.954 143.333 200.954 144V149.2L205.154 141.6H206.954V151H205.154V143.4L200.954 151H199.154ZM215.131 154.8V144C215.131 143.4 215.044 142.92 214.871 142.56C214.711 142.187 214.331 142 213.731 142H213.331V141.6H215.131C215.637 141.6 216.017 141.673 216.271 141.82C216.537 141.967 216.724 142.193 216.831 142.5C217.097 142.233 217.457 141.987 217.911 141.76C218.364 141.52 218.937 141.4 219.631 141.4C220.431 141.4 221.097 141.62 221.631 142.06C222.164 142.5 222.564 143.093 222.831 143.84C223.097 144.573 223.231 145.393 223.231 146.3C223.231 147.193 223.091 148.013 222.811 148.76C222.544 149.507 222.131 150.1 221.571 150.54C221.011 150.98 220.297 151.2 219.431 151.2C218.871 151.2 218.391 151.133 217.991 151C217.591 150.88 217.237 150.747 216.931 150.6V154.8H215.131ZM218.831 150.4C219.431 150.4 219.911 150.22 220.271 149.86C220.644 149.487 220.911 148.993 221.071 148.38C221.244 147.753 221.331 147.06 221.331 146.3C221.331 145.527 221.251 144.833 221.091 144.22C220.931 143.607 220.677 143.12 220.331 142.76C219.997 142.387 219.564 142.2 219.031 142.2C218.484 142.2 218.044 142.327 217.711 142.58C217.377 142.82 217.117 143.093 216.931 143.4V149.8C217.237 149.947 217.551 150.087 217.871 150.22C218.204 150.34 218.524 150.4 218.831 150.4ZM227.832 151.2C227.552 151.2 227.246 151.153 226.912 151.06C226.592 150.98 226.279 150.833 225.972 150.62C225.666 150.407 225.412 150.12 225.212 149.76C225.026 149.4 224.932 148.947 224.932 148.4C224.932 147.667 225.166 147.1 225.632 146.7C226.112 146.3 226.739 146.02 227.512 145.86C228.299 145.687 229.139 145.6 230.032 145.6H230.632C230.632 144.667 230.539 143.96 230.352 143.48C230.166 142.987 229.912 142.653 229.592 142.48C229.286 142.293 228.932 142.2 228.532 142.2C227.972 142.2 227.499 142.32 227.112 142.56C226.739 142.8 226.479 143.247 226.332 143.9H225.432C225.432 143.553 225.452 143.233 225.492 142.94C225.532 142.633 225.679 142.353 225.932 142.1C226.186 141.847 226.599 141.667 227.172 141.56C227.746 141.453 228.332 141.4 228.932 141.4C229.386 141.4 229.819 141.453 230.232 141.56C230.659 141.667 231.032 141.867 231.352 142.16C231.686 142.44 231.946 142.86 232.132 143.42C232.332 143.967 232.432 144.693 232.432 145.6V151H231.432L230.732 150.1H230.632C230.432 150.353 230.106 150.6 229.652 150.84C229.199 151.08 228.592 151.2 227.832 151.2ZM228.732 150.3C229.226 150.3 229.612 150.18 229.892 149.94C230.186 149.687 230.432 149.407 230.632 149.1V146.4H230.032C229.032 146.4 228.246 146.587 227.672 146.96C227.112 147.32 226.832 147.8 226.832 148.4C226.832 149.053 227.026 149.533 227.412 149.84C227.799 150.147 228.239 150.3 228.732 150.3ZM239.181 151.2C238.381 151.2 237.661 151.04 237.021 150.72C236.395 150.387 235.895 149.867 235.521 149.16C235.161 148.453 234.981 147.533 234.981 146.4V145.6C234.981 144.373 235.035 143.36 235.141 142.56C235.248 141.76 235.415 141.12 235.641 140.64C235.868 140.16 236.168 139.8 236.541 139.56C236.915 139.307 237.361 139.12 237.881 139L240.881 138.3C241.335 138.193 241.681 138.08 241.921 137.96C242.175 137.84 242.328 137.653 242.381 137.4H242.781V138.7C242.781 138.953 242.728 139.153 242.621 139.3C242.528 139.447 242.381 139.547 242.181 139.6L238.681 140.4C238.108 140.547 237.628 140.767 237.241 141.06C236.855 141.353 236.548 141.807 236.321 142.42C236.108 143.033 235.961 143.893 235.881 145H235.981C236.235 144 236.648 143.287 237.221 142.86C237.795 142.42 238.581 142.2 239.581 142.2C240.248 142.2 240.868 142.36 241.441 142.68C242.028 143 242.495 143.493 242.841 144.16C243.201 144.813 243.381 145.66 243.381 146.7C243.381 147.727 243.195 148.573 242.821 149.24C242.461 149.907 241.961 150.4 241.321 150.72C240.695 151.04 239.981 151.2 239.181 151.2ZM239.181 150.4C239.581 150.4 239.955 150.293 240.301 150.08C240.648 149.867 240.928 149.493 241.141 148.96C241.368 148.413 241.481 147.66 241.481 146.7C241.481 145.767 241.368 145.033 241.141 144.5C240.928 143.953 240.648 143.567 240.301 143.34C239.955 143.113 239.581 143 239.181 143C238.781 143 238.408 143.113 238.061 143.34C237.715 143.567 237.428 143.953 237.201 144.5C236.988 145.033 236.881 145.767 236.881 146.7C236.881 147.66 236.988 148.413 237.201 148.96C237.428 149.493 237.715 149.867 238.061 150.08C238.408 150.293 238.781 150.4 239.181 150.4ZM249.648 151.2C248.714 151.2 247.921 150.98 247.268 150.54C246.614 150.1 246.114 149.507 245.768 148.76C245.421 148.013 245.248 147.193 245.248 146.3C245.248 145.393 245.421 144.573 245.768 143.84C246.114 143.093 246.614 142.5 247.268 142.06C247.921 141.62 248.714 141.4 249.648 141.4C250.581 141.4 251.374 141.62 252.028 142.06C252.681 142.5 253.181 143.093 253.528 143.84C253.874 144.573 254.048 145.393 254.048 146.3C254.048 147.193 253.874 148.013 253.528 148.76C253.181 149.507 252.681 150.1 252.028 150.54C251.374 150.98 250.581 151.2 249.648 151.2ZM249.648 150.4C250.154 150.4 250.594 150.22 250.968 149.86C251.341 149.487 251.628 148.993 251.828 148.38C252.041 147.753 252.148 147.06 252.148 146.3C252.148 145.527 252.041 144.833 251.828 144.22C251.628 143.607 251.341 143.12 250.968 142.76C250.594 142.387 250.154 142.2 249.648 142.2C249.154 142.2 248.714 142.387 248.328 142.76C247.954 143.12 247.661 143.607 247.448 144.22C247.248 144.833 247.148 145.527 247.148 146.3C247.148 147.06 247.248 147.753 247.448 148.38C247.661 148.993 247.954 149.487 248.328 149.86C248.714 150.22 249.154 150.4 249.648 150.4ZM259.033 151V142.4H258.033C257.433 142.4 256.933 142.573 256.533 142.92C256.133 143.253 255.933 143.747 255.933 144.4H255.533V143.2C255.533 142.8 255.633 142.433 255.833 142.1C256.033 141.767 256.433 141.6 257.033 141.6H264.133V142.4H260.833V151H259.033ZM266.146 151V144C266.146 143.4 266.059 142.92 265.886 142.56C265.726 142.187 265.346 142 264.746 142H264.446V141.6H266.146C266.612 141.6 266.972 141.66 267.226 141.78C267.492 141.9 267.679 142.133 267.786 142.48C267.892 142.827 267.946 143.333 267.946 144V145.4H269.446C270.152 145.4 270.799 145.487 271.386 145.66C271.972 145.82 272.446 146.1 272.806 146.5C273.166 146.9 273.346 147.467 273.346 148.2C273.346 148.92 273.166 149.487 272.806 149.9C272.446 150.3 271.972 150.587 271.386 150.76C270.799 150.92 270.152 151 269.446 151H266.146ZM269.246 150.3C269.899 150.3 270.426 150.14 270.826 149.82C271.239 149.5 271.446 148.96 271.446 148.2C271.446 147.44 271.239 146.9 270.826 146.58C270.426 146.26 269.899 146.1 269.246 146.1C269.046 146.1 268.812 146.12 268.546 146.16C268.292 146.2 268.092 146.247 267.946 146.3V150.1C268.092 150.153 268.292 150.2 268.546 150.24C268.812 150.28 269.046 150.3 269.246 150.3ZM276.446 151C275.979 151 275.612 150.94 275.346 150.82C275.092 150.7 274.912 150.467 274.806 150.12C274.699 149.773 274.646 149.267 274.646 148.6V141.6H276.446V148.6C276.446 149.2 276.526 149.687 276.686 150.06C276.859 150.42 277.246 150.6 277.846 150.6H278.146V151H276.446ZM288.495 151.2C287.509 151.2 286.689 150.98 286.035 150.54C285.382 150.1 284.895 149.507 284.575 148.76C284.255 148.013 284.095 147.193 284.095 146.3C284.095 145.393 284.255 144.573 284.575 143.84C284.895 143.093 285.382 142.5 286.035 142.06C286.689 141.62 287.509 141.4 288.495 141.4C289.202 141.4 289.795 141.453 290.275 141.56C290.769 141.667 291.142 141.847 291.395 142.1C291.649 142.353 291.795 142.667 291.835 143.04C291.875 143.4 291.895 143.953 291.895 144.7H291.495C291.442 143.847 291.169 143.22 290.675 142.82C290.195 142.407 289.602 142.2 288.895 142.2C288.229 142.2 287.682 142.387 287.255 142.76C286.829 143.12 286.509 143.607 286.295 144.22C286.095 144.833 285.995 145.527 285.995 146.3C285.995 147.06 286.095 147.753 286.295 148.38C286.509 148.993 286.829 149.487 287.255 149.86C287.682 150.22 288.229 150.4 288.895 150.4C289.602 150.4 290.175 150.26 290.615 149.98C291.055 149.7 291.449 149.307 291.795 148.8L292.195 149.1C291.902 149.607 291.569 150.013 291.195 150.32C290.822 150.627 290.409 150.853 289.955 151C289.515 151.133 289.029 151.2 288.495 151.2ZM7.08 170V161.4H6.08C5.48 161.4 4.98 161.573 4.58 161.92C4.18 162.253 3.98 162.747 3.98 163.4H3.58V162.2C3.58 161.8 3.68 161.433 3.88 161.1C4.08 160.767 4.48 160.6 5.08 160.6H12.18V161.4H8.88V170H7.08ZM14.2127 173.8V163C14.2127 162.4 14.126 161.92 13.9527 161.56C13.7927 161.187 13.4127 161 12.8127 161H12.4127V160.6H14.2127C14.7193 160.6 15.0993 160.673 15.3527 160.82C15.6193 160.967 15.806 161.193 15.9127 161.5C16.1793 161.233 16.5393 160.987 16.9927 160.76C17.446 160.52 18.0193 160.4 18.7127 160.4C19.5127 160.4 20.1793 160.62 20.7127 161.06C21.246 161.5 21.646 162.093 21.9127 162.84C22.1793 163.573 22.3127 164.393 22.3127 165.3C22.3127 166.193 22.1727 167.013 21.8927 167.76C21.626 168.507 21.2127 169.1 20.6527 169.54C20.0927 169.98 19.3793 170.2 18.5127 170.2C17.9527 170.2 17.4727 170.133 17.0727 170C16.6727 169.88 16.3193 169.747 16.0127 169.6V173.8H14.2127ZM17.9127 169.4C18.5127 169.4 18.9927 169.22 19.3527 168.86C19.726 168.487 19.9927 167.993 20.1527 167.38C20.326 166.753 20.4127 166.06 20.4127 165.3C20.4127 164.527 20.3327 163.833 20.1727 163.22C20.0127 162.607 19.7593 162.12 19.4127 161.76C19.0793 161.387 18.646 161.2 18.1127 161.2C17.566 161.2 17.126 161.327 16.7927 161.58C16.4593 161.82 16.1993 162.093 16.0127 162.4V168.8C16.3193 168.947 16.6327 169.087 16.9527 169.22C17.286 169.34 17.606 169.4 17.9127 169.4ZM26.9144 170.2C26.6344 170.2 26.3277 170.153 25.9944 170.06C25.6744 169.98 25.361 169.833 25.0544 169.62C24.7477 169.407 24.4944 169.12 24.2944 168.76C24.1077 168.4 24.0144 167.947 24.0144 167.4C24.0144 166.667 24.2477 166.1 24.7144 165.7C25.1944 165.3 25.821 165.02 26.5944 164.86C27.381 164.687 28.221 164.6 29.1144 164.6H29.7144C29.7144 163.667 29.621 162.96 29.4344 162.48C29.2477 161.987 28.9944 161.653 28.6744 161.48C28.3677 161.293 28.0144 161.2 27.6144 161.2C27.0544 161.2 26.581 161.32 26.1944 161.56C25.821 161.8 25.561 162.247 25.4144 162.9H24.5144C24.5144 162.553 24.5344 162.233 24.5744 161.94C24.6144 161.633 24.761 161.353 25.0144 161.1C25.2677 160.847 25.681 160.667 26.2544 160.56C26.8277 160.453 27.4144 160.4 28.0144 160.4C28.4677 160.4 28.901 160.453 29.3144 160.56C29.741 160.667 30.1144 160.867 30.4344 161.16C30.7677 161.44 31.0277 161.86 31.2144 162.42C31.4144 162.967 31.5144 163.693 31.5144 164.6V170H30.5144L29.8144 169.1H29.7144C29.5144 169.353 29.1877 169.6 28.7344 169.84C28.281 170.08 27.6744 170.2 26.9144 170.2ZM27.8144 169.3C28.3077 169.3 28.6944 169.18 28.9744 168.94C29.2677 168.687 29.5144 168.407 29.7144 168.1V165.4H29.1144C28.1144 165.4 27.3277 165.587 26.7544 165.96C26.1944 166.32 25.9144 166.8 25.9144 167.4C25.9144 168.053 26.1077 168.533 26.4944 168.84C26.881 169.147 27.321 169.3 27.8144 169.3ZM38.5833 173.8V170.2C37.5166 170.173 36.6233 169.94 35.9033 169.5C35.1966 169.06 34.6633 168.473 34.3033 167.74C33.9566 167.007 33.7833 166.193 33.7833 165.3C33.7833 164.393 33.9566 163.58 34.3033 162.86C34.6633 162.127 35.1966 161.54 35.9033 161.1C36.6233 160.66 37.5166 160.427 38.5833 160.4V159.2C38.5833 158.6 38.4966 158.12 38.3233 157.76C38.1633 157.387 37.7833 157.2 37.1833 157.2H36.8833V156.8H38.5833C39.0499 156.8 39.4099 156.86 39.6633 156.98C39.9299 157.1 40.1166 157.333 40.2233 157.68C40.3299 158.027 40.3833 158.533 40.3833 159.2V160.4C41.4499 160.427 42.3366 160.66 43.0433 161.1C43.7633 161.54 44.2966 162.127 44.6433 162.86C45.0033 163.58 45.1833 164.393 45.1833 165.3C45.1833 166.193 45.0033 167.007 44.6433 167.74C44.2966 168.473 43.7633 169.06 43.0433 169.5C42.3366 169.94 41.4499 170.173 40.3833 170.2V173.8H38.5833ZM38.6033 169.5V161.1C37.9366 161.167 37.3833 161.38 36.9433 161.74C36.5166 162.1 36.1966 162.58 35.9833 163.18C35.7833 163.78 35.6833 164.487 35.6833 165.3C35.6833 166.1 35.7833 166.807 35.9833 167.42C36.1966 168.02 36.5166 168.5 36.9433 168.86C37.3833 169.207 37.9366 169.42 38.6033 169.5ZM40.3633 169.5C41.0433 169.42 41.5966 169.207 42.0233 168.86C42.4499 168.5 42.7633 168.02 42.9633 167.42C43.1766 166.807 43.2833 166.1 43.2833 165.3C43.2833 164.487 43.1766 163.78 42.9633 163.18C42.7633 162.58 42.4499 162.1 42.0233 161.74C41.5966 161.38 41.0433 161.167 40.3633 161.1V169.5ZM47.8255 170V163C47.8255 162.4 47.7388 161.92 47.5655 161.56C47.4055 161.187 47.0255 161 46.4255 161H46.1255V160.6H47.8255C48.2921 160.6 48.6521 160.66 48.9055 160.78C49.1721 160.9 49.3588 161.133 49.4655 161.48C49.5721 161.827 49.6255 162.333 49.6255 163V168.2L53.8255 160.6H55.6255V170H53.8255V162.4L49.6255 170H47.8255ZM65.8425 170.2C65.3358 170.2 64.8358 170.073 64.3425 169.82C63.8625 169.567 63.3958 169.16 62.9425 168.6L60.6425 165.7V170H58.8425V163C58.8425 162.4 58.7558 161.92 58.5825 161.56C58.4225 161.187 58.0425 161 57.4425 161H57.0425V160.6H58.8425C59.3092 160.6 59.6692 160.66 59.9225 160.78C60.1892 160.9 60.3758 161.133 60.4825 161.48C60.5892 161.827 60.6425 162.333 60.6425 163V165.4L63.1425 161.9C63.4358 161.5 63.7758 161.187 64.1625 160.96C64.5625 160.72 65.0892 160.6 65.7425 160.6H66.2425V161.1C65.9358 161.1 65.6225 161.167 65.3025 161.3C64.9825 161.42 64.6958 161.653 64.4425 162L62.2425 165.1L64.5425 168C64.8892 168.453 65.2425 168.82 65.6025 169.1C65.9758 169.38 66.3892 169.553 66.8425 169.62V170C66.7358 170.053 66.5892 170.1 66.4025 170.14C66.2292 170.18 66.0425 170.2 65.8425 170.2ZM71.5813 170.2C70.6479 170.2 69.8546 169.98 69.2013 169.54C68.5479 169.1 68.0479 168.507 67.7013 167.76C67.3546 167.013 67.1813 166.193 67.1813 165.3C67.1813 164.393 67.3546 163.573 67.7013 162.84C68.0479 162.093 68.5479 161.5 69.2013 161.06C69.8546 160.62 70.6479 160.4 71.5813 160.4C72.5146 160.4 73.3079 160.62 73.9613 161.06C74.6146 161.5 75.1146 162.093 75.4613 162.84C75.8079 163.573 75.9813 164.393 75.9813 165.3C75.9813 166.193 75.8079 167.013 75.4613 167.76C75.1146 168.507 74.6146 169.1 73.9613 169.54C73.3079 169.98 72.5146 170.2 71.5813 170.2ZM71.5813 169.4C72.0879 169.4 72.5279 169.22 72.9013 168.86C73.2746 168.487 73.5613 167.993 73.7613 167.38C73.9746 166.753 74.0813 166.06 74.0813 165.3C74.0813 164.527 73.9746 163.833 73.7613 163.22C73.5613 162.607 73.2746 162.12 72.9013 161.76C72.5279 161.387 72.0879 161.2 71.5813 161.2C71.0879 161.2 70.6479 161.387 70.2613 161.76C69.8879 162.12 69.5946 162.607 69.3813 163.22C69.1813 163.833 69.0813 164.527 69.0813 165.3C69.0813 166.06 69.1813 166.753 69.3813 167.38C69.5946 167.993 69.8879 168.487 70.2613 168.86C70.6479 169.22 71.0879 169.4 71.5813 169.4ZM89.5267 170.4C88.2734 170.4 87.4067 170.093 86.9267 169.48C86.4601 168.867 86.2267 168.04 86.2267 167V162.7L82.9267 170H82.5267L79.1267 162.5V170H78.3267V160.6H80.2267L83.2267 167.2L86.2267 160.6H88.0267V167C88.0267 167.493 88.0867 167.973 88.2067 168.44C88.3401 168.893 88.5201 169.267 88.7467 169.56C88.9734 169.853 89.2334 170 89.5267 170V170.4ZM92.075 170.28C91.7817 170.28 91.5283 170.173 91.315 169.96C91.1017 169.747 90.995 169.487 90.995 169.18C90.995 168.887 91.1017 168.633 91.315 168.42C91.5283 168.207 91.7817 168.1 92.075 168.1C92.3817 168.1 92.635 168.207 92.835 168.42C93.0483 168.633 93.155 168.887 93.155 169.18C93.155 169.487 93.0483 169.747 92.835 169.96C92.6217 170.173 92.3683 170.28 92.075 170.28Z" fill="#C0C0C0"/>
<defs>
<filter id="filter1_f_93_128" x="-89" y="19" width="203" height="203" filterUnits="userSpaceOnUse" color-interpolation-filters="sRGB">
<feFlood flood-opacity="0" result="BackgroundImageFix"/>
<feBlend mode="normal" in="SourceGraphic" in2="BackgroundImageFix" result="shape"/>
<feGaussianBlur stdDeviation="30" result="effect1_foregroundBlur_93_128"/>
</filter>
<filter id="filter2_d_93_128" x="125.014" y="13.7002" width="205.554" height="70.7939" filterUnits="userSpaceOnUse" color-interpolation-filters="sRGB">
<feFlood flood-opacity="0" result="BackgroundImageFix"/>
<feColorMatrix in="SourceAlpha" type="matrix" values="0 0 0 0 0 0 0 0 0 0 0 0 0 0 0 0 0 0 127 0" result="hardAlpha"/>
<feOffset/>
<feGaussianBlur stdDeviation="2"/>
<feComposite in2="hardAlpha" operator="out"/>
<feColorMatrix type="matrix" values="0 0 0 0 0 0 0 0 0 0 0 0 0 0 0 0 0 0 0.7 0"/>
<feBlend mode="normal" in2="BackgroundImageFix" result="effect1_dropShadow_93_128"/>
<feBlend mode="normal" in="SourceGraphic" in2="effect1_dropShadow_93_128" result="shape"/>
</filter>
<linearGradient id="paint0_linear_93_128" x1="60.5" y1="26.5" x2="27.5" y2="80" gradientUnits="userSpaceOnUse">
<stop stop-color="#FF7929"/>
<stop offset="1" stop-color="#FBB03B"/>
</linearGradient>
<clipPath id="clip0_93_128">
<rect width="96" height="96" rx="18" fill="white"/>
</clipPath>
</defs>
</svg>
