<svg width="360" height="241" viewBox="0 0 360 241" fill="none" xmlns="http://www.w3.org/2000/svg">
<g clip-path="url(#clip0_93_138)">
<rect width="96" height="96" rx="18" fill="white" fill-opacity="0.15"/>
<g filter="url(#filter1_f_93_138)">
<circle cx="12.5" cy="120.5" r="41.5" fill="#FBB03B"/>
</g>
<g clip-path="url(#clip1_93_138)">
<path d="M48 35C40.832 35 35 40.832 35 48C35 55.168 40.832 61 48 61C55.168 61 61 55.168 61 48C61 40.832 55.168 35 48 35ZM54.697 44.5915L46.5065 52.82C46.1275 53.2005 45.4915 53.207 45.1045 52.835L41.319 49.1925C40.921 48.8095 40.909 48.1765 41.2915 47.7785C41.674 47.3805 42.307 47.368 42.7055 47.751L45.7825 50.7115L53.2795 43.18C53.669 42.7885 54.302 42.787 54.694 43.177C55.085 43.5665 55.0865 44.1995 54.697 44.5915Z" fill="url(#paint0_linear_93_138)"/>
<path d="M73.532 41.932C73.0225 41.932 72.511 41.916 72.002 41.936C71.324 39.197 70.198 36.615 68.6465 34.2375L69.496 33.388C71.628 31.256 71.628 27.787 69.496 25.655C67.364 23.5235 63.8955 23.524 61.763 25.655L60.8505 26.568C58.3905 25.024 55.7125 23.93 52.8675 23.3065V22.4675C52.8675 19.453 50.415 17 47.4 17C44.385 17 41.932 19.453 41.932 22.468V23.307C38.9735 23.956 36.194 25.1165 33.649 26.7655L33.388 26.505C31.256 24.3725 27.7875 24.3735 25.655 26.505C23.5235 28.637 23.5235 32.106 25.655 34.238L25.9545 34.5375C24.2835 37.1795 23.135 40.064 22.533 43.133H22.4675C19.453 43.1325 17 45.585 17 48.6C17 51.615 19.453 54.068 22.468 54.068H22.77C23.509 57.115 24.7895 59.9545 26.586 62.53L26.504 62.612C24.372 64.744 24.372 68.213 26.504 70.345C28.636 72.4765 32.105 72.4765 34.237 70.345L34.629 69.953C37.2665 71.496 40.12 72.533 43.1325 73.042V73.5325C43.1325 76.5475 45.5855 79.0005 48.6005 79.0005C51.6155 79.0005 54.0685 76.5475 54.0685 73.5325V72.513C56.8995 71.745 59.5395 70.507 61.939 68.8225L62.6125 69.496C64.7445 71.629 68.2135 71.628 70.3455 69.496C72.477 67.364 72.477 63.895 70.3455 61.763L69.408 60.826C69.385 60.8025 69.3615 60.7795 69.3375 60.7565C70.768 58.295 71.7595 55.6485 72.293 52.8675H73.533C76.548 52.8675 79.001 50.4145 79.001 47.3995C79 44.385 76.547 41.932 73.532 41.932ZM48 63C39.729 63 33 56.271 33 48C33 39.729 39.729 33 48 33C56.271 33 63 39.729 63 48C63 56.271 56.271 63 48 63Z" fill="url(#paint1_linear_93_138)"/>
</g>
</g>
<g filter="url(#filter2_d_93_138)">
<path d="M137.412 42.064C137.412 42.376 137.603 42.532 137.984 42.532V43H133.98V42.532C134.101 42.532 134.205 42.4973 134.292 42.428C134.396 42.3413 134.448 42.22 134.448 42.064V31.716H130.158C130.002 31.716 129.846 31.7593 129.69 31.846C129.551 31.9327 129.482 32.0973 129.482 32.34H129.014V28.7H129.482C129.482 28.9427 129.551 29.1073 129.69 29.194C129.846 29.2807 130.002 29.324 130.158 29.324H141.702C141.858 29.324 142.005 29.2807 142.144 29.194C142.3 29.1073 142.378 28.9427 142.378 28.7H142.846V32.34H142.378C142.378 32.0973 142.3 31.9327 142.144 31.846C142.005 31.7593 141.858 31.716 141.702 31.716H137.412V42.064ZM158.975 32.132C158.975 31.9413 158.897 31.8027 158.741 31.716C158.602 31.612 158.351 31.56 157.987 31.56H149.563V34.784H154.659C155.005 34.784 155.274 34.7407 155.465 34.654C155.655 34.55 155.751 34.2987 155.751 33.9H156.219V37.956H155.751C155.751 37.5573 155.655 37.306 155.465 37.202C155.274 37.0807 155.005 37.02 154.659 37.02H149.563V40.608H158.247C158.507 40.608 158.715 40.5473 158.871 40.426C159.044 40.3047 159.131 40.14 159.131 39.932H159.599V43.494H159.131C159.131 43.234 159.044 43.0867 158.871 43.052C158.715 43.0173 158.507 43 158.247 43H146.131V42.532C146.252 42.532 146.356 42.4973 146.443 42.428C146.547 42.3413 146.599 42.22 146.599 42.064V30.26C146.599 30.104 146.547 29.9913 146.443 29.922C146.356 29.8353 146.252 29.792 146.131 29.792V29.324H157.987C158.351 29.324 158.602 29.272 158.741 29.168C158.897 29.0467 158.975 28.8907 158.975 28.7H159.443V32.132H158.975ZM177.902 41.128C177.85 41.128 177.798 41.128 177.746 41.128C177.712 41.1107 177.668 41.102 177.616 41.102C177.512 41.102 177.261 41.206 176.862 41.414C176.481 41.622 175.987 41.856 175.38 42.116C174.791 42.376 174.115 42.6013 173.352 42.792C172.59 42.9827 171.792 43.078 170.96 43.078C169.868 43.078 168.82 42.9393 167.814 42.662C166.809 42.3847 165.916 41.96 165.136 41.388C164.374 40.7987 163.767 40.0707 163.316 39.204C162.866 38.3373 162.64 37.3233 162.64 36.162C162.64 35.018 162.866 34.0127 163.316 33.146C163.767 32.262 164.374 31.5253 165.136 30.936C165.916 30.3467 166.809 29.9047 167.814 29.61C168.82 29.3153 169.868 29.168 170.96 29.168C171.844 29.168 172.642 29.2373 173.352 29.376C174.08 29.5147 174.713 29.662 175.25 29.818C175.788 29.974 176.212 30.1213 176.524 30.26C176.836 30.3987 177.027 30.468 177.096 30.468C177.183 30.468 177.252 30.4247 177.304 30.338C177.374 30.2513 177.426 30.182 177.46 30.13L177.85 30.442L175.822 33.588L175.562 33.406C175.562 33.354 175.554 33.302 175.536 33.25C175.536 33.198 175.528 33.1373 175.51 33.068C175.476 32.8773 175.302 32.6867 174.99 32.496C174.678 32.288 174.288 32.106 173.82 31.95C173.37 31.794 172.884 31.664 172.364 31.56C171.862 31.456 171.394 31.404 170.96 31.404C170.232 31.404 169.53 31.508 168.854 31.716C168.196 31.924 167.615 32.2273 167.112 32.626C166.627 33.0247 166.237 33.5187 165.942 34.108C165.648 34.68 165.5 35.3387 165.5 36.084C165.5 36.8293 165.648 37.4967 165.942 38.086C166.237 38.658 166.627 39.1433 167.112 39.542C167.615 39.9407 168.196 40.244 168.854 40.452C169.53 40.66 170.232 40.764 170.96 40.764C171.515 40.764 172.096 40.7033 172.702 40.582C173.309 40.4433 173.864 40.2787 174.366 40.088C174.869 39.88 175.285 39.6547 175.614 39.412C175.961 39.152 176.134 38.9093 176.134 38.684C176.134 38.5627 176.1 38.4587 176.03 38.372L176.394 38.164L178.11 40.92L177.902 41.128ZM189.412 42.064C189.412 42.376 189.603 42.532 189.984 42.532V43H185.98V42.532C186.101 42.532 186.205 42.4973 186.292 42.428C186.396 42.3413 186.448 42.22 186.448 42.064V31.716H182.158C182.002 31.716 181.846 31.7593 181.69 31.846C181.551 31.9327 181.482 32.0973 181.482 32.34H181.014V28.7H181.482C181.482 28.9427 181.551 29.1073 181.69 29.194C181.846 29.2807 182.002 29.324 182.158 29.324H193.702C193.858 29.324 194.005 29.2807 194.144 29.194C194.3 29.1073 194.378 28.9427 194.378 28.7H194.846V32.34H194.378C194.378 32.0973 194.3 31.9327 194.144 31.846C194.005 31.7593 193.858 31.716 193.702 31.716H189.412V42.064ZM213.731 43H209.883V42.532C210.281 42.532 210.481 42.376 210.481 42.064V33.172L202.551 41.7C202.273 41.9773 202.135 42.1767 202.135 42.298C202.135 42.454 202.247 42.532 202.473 42.532V43H198.261V42.532C198.59 42.532 198.755 42.376 198.755 42.064V30.26C198.755 29.948 198.59 29.792 198.261 29.792V29.324H202.187V29.792C201.736 29.792 201.511 29.948 201.511 30.26V38.788L208.973 30.78C209.319 30.4333 209.493 30.1907 209.493 30.052C209.493 29.8787 209.423 29.792 209.285 29.792V29.324H213.731V29.792C213.401 29.792 213.237 29.948 213.237 30.26V42.064C213.237 42.376 213.401 42.532 213.731 42.532V43ZM227.571 35.044C228.143 35.044 228.628 34.9313 229.027 34.706C229.443 34.4807 229.651 34.0387 229.651 33.38C229.651 32.7213 229.443 32.2793 229.027 32.054C228.628 31.8287 228.143 31.716 227.571 31.716H222.033V35.044H227.571ZM218.107 43V42.532C218.748 42.532 219.069 42.376 219.069 42.064V30.26C219.069 29.948 218.748 29.792 218.107 29.792V29.324H227.259C228.923 29.324 230.232 29.636 231.185 30.26C232.138 30.8667 232.615 31.9067 232.615 33.38C232.615 34.8533 232.138 35.902 231.185 36.526C230.232 37.1327 228.923 37.436 227.259 37.436H222.033V42.064C222.033 42.376 222.31 42.532 222.865 42.532V43H218.107ZM243.587 31.56C242.928 31.56 242.269 31.664 241.611 31.872C240.952 32.08 240.354 32.3833 239.817 32.782C239.297 33.1633 238.872 33.64 238.543 34.212C238.213 34.784 238.049 35.434 238.049 36.162C238.049 36.89 238.213 37.54 238.543 38.112C238.872 38.684 239.297 39.1693 239.817 39.568C240.354 39.9493 240.952 40.244 241.611 40.452C242.269 40.66 242.928 40.764 243.587 40.764C244.245 40.764 244.904 40.66 245.563 40.452C246.221 40.244 246.811 39.9493 247.331 39.568C247.868 39.1693 248.301 38.684 248.631 38.112C248.96 37.54 249.125 36.89 249.125 36.162C249.125 35.434 248.96 34.784 248.631 34.212C248.301 33.64 247.868 33.1633 247.331 32.782C246.811 32.3833 246.221 32.08 245.563 31.872C244.904 31.664 244.245 31.56 243.587 31.56ZM243.587 29.168C244.54 29.168 245.511 29.3153 246.499 29.61C247.487 29.8873 248.388 30.312 249.203 30.884C250.017 31.456 250.685 32.184 251.205 33.068C251.725 33.9347 251.985 34.966 251.985 36.162C251.985 37.358 251.725 38.398 251.205 39.282C250.685 40.1487 250.017 40.868 249.203 41.44C248.388 42.012 247.487 42.428 246.499 42.688C245.511 42.948 244.54 43.078 243.587 43.078C242.633 43.078 241.663 42.948 240.675 42.688C239.687 42.428 238.785 42.012 237.971 41.44C237.156 40.868 236.489 40.1487 235.969 39.282C235.449 38.398 235.189 37.358 235.189 36.162C235.189 34.966 235.449 33.9347 235.969 33.068C236.489 32.184 237.156 31.456 237.971 30.884C238.785 30.312 239.687 29.8873 240.675 29.61C241.663 29.3153 242.633 29.168 243.587 29.168ZM264.525 34.68C265.305 34.68 265.946 34.5847 266.449 34.394C266.969 34.186 267.229 33.7613 267.229 33.12C267.229 32.4787 266.969 32.0627 266.449 31.872C265.946 31.664 265.305 31.56 264.525 31.56H259.559V34.68H264.525ZM264.525 40.608C265.617 40.608 266.397 40.4433 266.865 40.114C267.35 39.7673 267.593 39.3167 267.593 38.762C267.593 38.2073 267.35 37.7653 266.865 37.436C266.397 37.0893 265.617 36.916 264.525 36.916H259.559V40.608H264.525ZM264.005 29.324C264.802 29.324 265.574 29.3933 266.319 29.532C267.064 29.6533 267.723 29.8613 268.295 30.156C268.867 30.4333 269.326 30.806 269.673 31.274C270.02 31.7247 270.193 32.288 270.193 32.964C270.193 33.7787 269.942 34.4113 269.439 34.862C268.936 35.2953 268.338 35.6333 267.645 35.876V35.928C268.46 36.1707 269.144 36.5607 269.699 37.098C270.271 37.618 270.557 38.372 270.557 39.36C270.557 39.88 270.444 40.3653 270.219 40.816C269.994 41.2493 269.656 41.6307 269.205 41.96C268.772 42.2893 268.234 42.5493 267.593 42.74C266.952 42.9133 266.224 43 265.409 43H255.867V42.532C256.352 42.532 256.595 42.376 256.595 42.064V30.26C256.595 29.948 256.352 29.792 255.867 29.792V29.324H264.005ZM282.821 37.696L280.637 32.86L278.193 37.696H282.821ZM273.019 42.532C273.244 42.4973 273.417 42.3847 273.539 42.194C273.677 42.0033 273.807 41.7867 273.929 41.544L278.739 31.43C278.86 31.2047 278.964 30.9967 279.051 30.806C279.155 30.6153 279.207 30.4507 279.207 30.312C279.207 30.1387 279.146 30.0173 279.025 29.948C278.903 29.8787 278.773 29.8267 278.635 29.792V29.324H283.029V29.792C282.907 29.8267 282.786 29.8787 282.665 29.948C282.543 30 282.483 30.1213 282.483 30.312C282.483 30.4507 282.509 30.5893 282.561 30.728C282.63 30.8667 282.725 31.0487 282.847 31.274L288.255 41.856C288.341 42.0467 288.454 42.1853 288.593 42.272C288.749 42.3587 288.922 42.4453 289.113 42.532V43H284.537V42.532C284.606 42.532 284.693 42.506 284.797 42.454C284.901 42.402 284.953 42.324 284.953 42.22C284.953 42.0467 284.883 41.8213 284.745 41.544L283.757 39.62H277.413L276.477 41.466C276.303 41.83 276.217 42.09 276.217 42.246C276.217 42.4367 276.381 42.532 276.711 42.532V43H273.019V42.532ZM304.114 30.26C304.114 29.948 303.924 29.792 303.542 29.792V29.324H307.546V29.792C307.425 29.792 307.312 29.8353 307.208 29.922C307.122 29.9913 307.078 30.104 307.078 30.26V42.064C307.078 42.22 307.122 42.3413 307.208 42.428C307.312 42.4973 307.425 42.532 307.546 42.532V43H303.542V42.532C303.924 42.532 304.114 42.376 304.114 42.064V37.176H295.742V42.064C295.742 42.22 295.786 42.3413 295.872 42.428C295.976 42.4973 296.089 42.532 296.21 42.532V43H292.284V42.532C292.614 42.532 292.778 42.376 292.778 42.064V30.26C292.778 29.948 292.614 29.792 292.284 29.792V29.324H296.21V29.792C296.089 29.792 295.976 29.8353 295.872 29.922C295.786 29.9913 295.742 30.104 295.742 30.26V34.68H304.114V30.26ZM327.887 43H324.039V42.532C324.437 42.532 324.637 42.376 324.637 42.064V33.172L316.707 41.7C316.429 41.9773 316.291 42.1767 316.291 42.298C316.291 42.454 316.403 42.532 316.629 42.532V43H312.417V42.532C312.746 42.532 312.911 42.376 312.911 42.064V30.26C312.911 29.948 312.746 29.792 312.417 29.792V29.324H316.343V29.792C315.892 29.792 315.667 29.948 315.667 30.26V38.788L323.129 30.78C323.475 30.4333 323.649 30.1907 323.649 30.052C323.649 29.8787 323.579 29.792 323.441 29.792V29.324H327.887V29.792C327.557 29.792 327.393 29.948 327.393 30.26V42.064C327.393 42.376 327.557 42.532 327.887 42.532V43ZM345.367 32.132C345.367 31.9413 345.289 31.8027 345.133 31.716C344.994 31.612 344.743 31.56 344.379 31.56H335.955V34.784H341.051C341.398 34.784 341.666 34.7407 341.857 34.654C342.048 34.55 342.143 34.2987 342.143 33.9H342.611V37.956H342.143C342.143 37.5573 342.048 37.306 341.857 37.202C341.666 37.0807 341.398 37.02 341.051 37.02H335.955V40.608H344.639C344.899 40.608 345.107 40.5473 345.263 40.426C345.436 40.3047 345.523 40.14 345.523 39.932H345.991V43.494H345.523C345.523 43.234 345.436 43.0867 345.263 43.052C345.107 43.0173 344.899 43 344.639 43H332.523V42.532C332.644 42.532 332.748 42.4973 332.835 42.428C332.939 42.3413 332.991 42.22 332.991 42.064V30.26C332.991 30.104 332.939 29.9913 332.835 29.922C332.748 29.8353 332.644 29.792 332.523 29.792V29.324H344.379C344.743 29.324 344.994 29.272 345.133 29.168C345.289 29.0467 345.367 28.8907 345.367 28.7H345.835V32.132H345.367ZM142.04 55.716H133.928V66.064C133.928 66.22 133.971 66.3413 134.058 66.428C134.162 66.4973 134.275 66.532 134.396 66.532V67H130.47V66.532C130.799 66.532 130.964 66.376 130.964 66.064V54.26C130.964 53.948 130.799 53.792 130.47 53.792V53.324H145.472V53.792C145.351 53.792 145.238 53.8353 145.134 53.922C145.047 53.9913 145.004 54.104 145.004 54.26V66.064C145.004 66.22 145.047 66.3413 145.134 66.428C145.238 66.4973 145.351 66.532 145.472 66.532V67H141.468V66.532C141.849 66.532 142.04 66.376 142.04 66.064V55.716ZM159.397 59.044C159.969 59.044 160.454 58.9313 160.853 58.706C161.269 58.4807 161.477 58.0387 161.477 57.38C161.477 56.7213 161.269 56.2793 160.853 56.054C160.454 55.8287 159.969 55.716 159.397 55.716H153.859V59.044H159.397ZM149.933 67V66.532C150.574 66.532 150.895 66.376 150.895 66.064V54.26C150.895 53.948 150.574 53.792 149.933 53.792V53.324H159.085C160.749 53.324 162.058 53.636 163.011 54.26C163.964 54.8667 164.441 55.9067 164.441 57.38C164.441 58.8533 163.964 59.902 163.011 60.526C162.058 61.1327 160.749 61.436 159.085 61.436H153.859V66.064C153.859 66.376 154.136 66.532 154.691 66.532V67H149.933ZM175.413 55.56C174.754 55.56 174.095 55.664 173.437 55.872C172.778 56.08 172.18 56.3833 171.643 56.782C171.123 57.1633 170.698 57.64 170.369 58.212C170.039 58.784 169.875 59.434 169.875 60.162C169.875 60.89 170.039 61.54 170.369 62.112C170.698 62.684 171.123 63.1693 171.643 63.568C172.18 63.9493 172.778 64.244 173.437 64.452C174.095 64.66 174.754 64.764 175.413 64.764C176.071 64.764 176.73 64.66 177.389 64.452C178.047 64.244 178.637 63.9493 179.157 63.568C179.694 63.1693 180.127 62.684 180.457 62.112C180.786 61.54 180.951 60.89 180.951 60.162C180.951 59.434 180.786 58.784 180.457 58.212C180.127 57.64 179.694 57.1633 179.157 56.782C178.637 56.3833 178.047 56.08 177.389 55.872C176.73 55.664 176.071 55.56 175.413 55.56ZM175.413 53.168C176.366 53.168 177.337 53.3153 178.325 53.61C179.313 53.8873 180.214 54.312 181.029 54.884C181.843 55.456 182.511 56.184 183.031 57.068C183.551 57.9347 183.811 58.966 183.811 60.162C183.811 61.358 183.551 62.398 183.031 63.282C182.511 64.1487 181.843 64.868 181.029 65.44C180.214 66.012 179.313 66.428 178.325 66.688C177.337 66.948 176.366 67.078 175.413 67.078C174.459 67.078 173.489 66.948 172.501 66.688C171.513 66.428 170.611 66.012 169.797 65.44C168.982 64.868 168.315 64.1487 167.795 63.282C167.275 62.398 167.015 61.358 167.015 60.162C167.015 58.966 167.275 57.9347 167.795 57.068C168.315 56.184 168.982 55.456 169.797 54.884C170.611 54.312 171.513 53.8873 172.501 53.61C173.489 53.3153 174.459 53.168 175.413 53.168ZM202.539 64.608H205.191V68.43C205.191 68.9153 205.382 69.1493 205.763 69.132V69.6H202.045V69.132C202.374 69.132 202.539 68.8893 202.539 68.404V67H188.005V66.532C188.334 66.532 188.499 66.376 188.499 66.064V54.26C188.499 53.948 188.334 53.792 188.005 53.792V53.324H191.931V53.792C191.81 53.792 191.697 53.8353 191.593 53.922C191.506 53.9913 191.463 54.104 191.463 54.26V64.608H199.575V54.26C199.575 53.948 199.384 53.792 199.003 53.792V53.324H203.007V53.792C202.886 53.792 202.773 53.8353 202.669 53.922C202.582 53.9913 202.539 54.104 202.539 54.26V64.608ZM221.182 56.132C221.182 55.9413 221.104 55.8027 220.948 55.716C220.809 55.612 220.558 55.56 220.194 55.56H211.77V58.784H216.866C217.212 58.784 217.481 58.7407 217.672 58.654C217.862 58.55 217.958 58.2987 217.958 57.9H218.426V61.956H217.958C217.958 61.5573 217.862 61.306 217.672 61.202C217.481 61.0807 217.212 61.02 216.866 61.02H211.77V64.608H220.454C220.714 64.608 220.922 64.5473 221.078 64.426C221.251 64.3047 221.338 64.14 221.338 63.932H221.806V67.494H221.338C221.338 67.234 221.251 67.0867 221.078 67.052C220.922 67.0173 220.714 67 220.454 67H208.338V66.532C208.459 66.532 208.563 66.4973 208.65 66.428C208.754 66.3413 208.806 66.22 208.806 66.064V54.26C208.806 54.104 208.754 53.9913 208.65 53.922C208.563 53.8353 208.459 53.792 208.338 53.792V53.324H220.194C220.558 53.324 220.809 53.272 220.948 53.168C221.104 53.0467 221.182 52.8907 221.182 52.7H221.65V56.132H221.182ZM240.109 65.128C240.057 65.128 240.005 65.128 239.953 65.128C239.919 65.1107 239.875 65.102 239.823 65.102C239.719 65.102 239.468 65.206 239.069 65.414C238.688 65.622 238.194 65.856 237.587 66.116C236.998 66.376 236.322 66.6013 235.559 66.792C234.797 66.9827 233.999 67.078 233.167 67.078C232.075 67.078 231.027 66.9393 230.021 66.662C229.016 66.3847 228.123 65.96 227.343 65.388C226.581 64.7987 225.974 64.0707 225.523 63.204C225.073 62.3373 224.847 61.3233 224.847 60.162C224.847 59.018 225.073 58.0127 225.523 57.146C225.974 56.262 226.581 55.5253 227.343 54.936C228.123 54.3467 229.016 53.9047 230.021 53.61C231.027 53.3153 232.075 53.168 233.167 53.168C234.051 53.168 234.849 53.2373 235.559 53.376C236.287 53.5147 236.92 53.662 237.457 53.818C237.995 53.974 238.419 54.1213 238.731 54.26C239.043 54.3987 239.234 54.468 239.303 54.468C239.39 54.468 239.459 54.4247 239.511 54.338C239.581 54.2513 239.633 54.182 239.667 54.13L240.057 54.442L238.029 57.588L237.769 57.406C237.769 57.354 237.761 57.302 237.743 57.25C237.743 57.198 237.735 57.1373 237.717 57.068C237.683 56.8773 237.509 56.6867 237.197 56.496C236.885 56.288 236.495 56.106 236.027 55.95C235.577 55.794 235.091 55.664 234.571 55.56C234.069 55.456 233.601 55.404 233.167 55.404C232.439 55.404 231.737 55.508 231.061 55.716C230.403 55.924 229.822 56.2273 229.319 56.626C228.834 57.0247 228.444 57.5187 228.149 58.108C227.855 58.68 227.707 59.3387 227.707 60.084C227.707 60.8293 227.855 61.4967 228.149 62.086C228.444 62.658 228.834 63.1433 229.319 63.542C229.822 63.9407 230.403 64.244 231.061 64.452C231.737 64.66 232.439 64.764 233.167 64.764C233.722 64.764 234.303 64.7033 234.909 64.582C235.516 64.4433 236.071 64.2787 236.573 64.088C237.076 63.88 237.492 63.6547 237.821 63.412C238.168 63.152 238.341 62.9093 238.341 62.684C238.341 62.5627 238.307 62.4587 238.237 62.372L238.601 62.164L240.317 64.92L240.109 65.128ZM258.873 65.128C258.821 65.128 258.769 65.128 258.717 65.128C258.682 65.1107 258.639 65.102 258.587 65.102C258.483 65.102 258.232 65.206 257.833 65.414C257.452 65.622 256.958 65.856 256.351 66.116C255.762 66.376 255.086 66.6013 254.323 66.792C253.56 66.9827 252.763 67.078 251.931 67.078C250.839 67.078 249.79 66.9393 248.785 66.662C247.78 66.3847 246.887 65.96 246.107 65.388C245.344 64.7987 244.738 64.0707 244.287 63.204C243.836 62.3373 243.611 61.3233 243.611 60.162C243.611 59.018 243.836 58.0127 244.287 57.146C244.738 56.262 245.344 55.5253 246.107 54.936C246.887 54.3467 247.78 53.9047 248.785 53.61C249.79 53.3153 250.839 53.168 251.931 53.168C252.815 53.168 253.612 53.2373 254.323 53.376C255.051 53.5147 255.684 53.662 256.221 53.818C256.758 53.974 257.183 54.1213 257.495 54.26C257.807 54.3987 257.998 54.468 258.067 54.468C258.154 54.468 258.223 54.4247 258.275 54.338C258.344 54.2513 258.396 54.182 258.431 54.13L258.821 54.442L256.793 57.588L256.533 57.406C256.533 57.354 256.524 57.302 256.507 57.25C256.507 57.198 256.498 57.1373 256.481 57.068C256.446 56.8773 256.273 56.6867 255.961 56.496C255.649 56.288 255.259 56.106 254.791 55.95C254.34 55.794 253.855 55.664 253.335 55.56C252.832 55.456 252.364 55.404 251.931 55.404C251.203 55.404 250.501 55.508 249.825 55.716C249.166 55.924 248.586 56.2273 248.083 56.626C247.598 57.0247 247.208 57.5187 246.913 58.108C246.618 58.68 246.471 59.3387 246.471 60.084C246.471 60.8293 246.618 61.4967 246.913 62.086C247.208 62.658 247.598 63.1433 248.083 63.542C248.586 63.9407 249.166 64.244 249.825 64.452C250.501 64.66 251.203 64.764 251.931 64.764C252.486 64.764 253.066 64.7033 253.673 64.582C254.28 64.4433 254.834 64.2787 255.337 64.088C255.84 63.88 256.256 63.6547 256.585 63.412C256.932 63.152 257.105 62.9093 257.105 62.684C257.105 62.5627 257.07 62.4587 257.001 62.372L257.365 62.164L259.081 64.92L258.873 65.128ZM271.319 61.696L269.135 56.86L266.691 61.696H271.319ZM261.517 66.532C261.742 66.4973 261.915 66.3847 262.037 66.194C262.175 66.0033 262.305 65.7867 262.427 65.544L267.237 55.43C267.358 55.2047 267.462 54.9967 267.549 54.806C267.653 54.6153 267.705 54.4507 267.705 54.312C267.705 54.1387 267.644 54.0173 267.523 53.948C267.401 53.8787 267.271 53.8267 267.133 53.792V53.324H271.527V53.792C271.405 53.8267 271.284 53.8787 271.163 53.948C271.041 54 270.981 54.1213 270.981 54.312C270.981 54.4507 271.007 54.5893 271.059 54.728C271.128 54.8667 271.223 55.0487 271.345 55.274L276.753 65.856C276.839 66.0467 276.952 66.1853 277.091 66.272C277.247 66.3587 277.42 66.4453 277.611 66.532V67H273.035V66.532C273.104 66.532 273.191 66.506 273.295 66.454C273.399 66.402 273.451 66.324 273.451 66.22C273.451 66.0467 273.381 65.8213 273.243 65.544L272.255 63.62H265.911L264.975 65.466C264.801 65.83 264.715 66.09 264.715 66.246C264.715 66.4367 264.879 66.532 265.209 66.532V67H261.517V66.532Z" fill="white"/>
</g>
<path d="M4.64 132V125C4.64 124.4 4.55333 123.92 4.38 123.56C4.22 123.187 3.84 123 3.24 123H3.04V122.6H12.24V132H10.44V123.4H6.44V132H4.64ZM15.4236 135.8V125C15.4236 124.4 15.3369 123.92 15.1636 123.56C15.0036 123.187 14.6236 123 14.0236 123H13.6236V122.6H15.4236C15.9303 122.6 16.3103 122.673 16.5636 122.82C16.8303 122.967 17.0169 123.193 17.1236 123.5C17.3903 123.233 17.7503 122.987 18.2036 122.76C18.6569 122.52 19.2303 122.4 19.9236 122.4C20.7236 122.4 21.3903 122.62 21.9236 123.06C22.4569 123.5 22.8569 124.093 23.1236 124.84C23.3903 125.573 23.5236 126.393 23.5236 127.3C23.5236 128.193 23.3836 129.013 23.1036 129.76C22.8369 130.507 22.4236 131.1 21.8636 131.54C21.3036 131.98 20.5903 132.2 19.7236 132.2C19.1636 132.2 18.6836 132.133 18.2836 132C17.8836 131.88 17.5303 131.747 17.2236 131.6V135.8H15.4236ZM19.1236 131.4C19.7236 131.4 20.2036 131.22 20.5636 130.86C20.9369 130.487 21.2036 129.993 21.3636 129.38C21.5369 128.753 21.6236 128.06 21.6236 127.3C21.6236 126.527 21.5436 125.833 21.3836 125.22C21.2236 124.607 20.9703 124.12 20.6236 123.76C20.2903 123.387 19.8569 123.2 19.3236 123.2C18.7769 123.2 18.3369 123.327 18.0036 123.58C17.6703 123.82 17.4103 124.093 17.2236 124.4V130.8C17.5303 130.947 17.8436 131.087 18.1636 131.22C18.4969 131.34 18.8169 131.4 19.1236 131.4ZM29.7453 132.2C28.812 132.2 28.0186 131.98 27.3653 131.54C26.712 131.1 26.212 130.507 25.8653 129.76C25.5186 129.013 25.3453 128.193 25.3453 127.3C25.3453 126.393 25.5186 125.573 25.8653 124.84C26.212 124.093 26.712 123.5 27.3653 123.06C28.0186 122.62 28.812 122.4 29.7453 122.4C30.6786 122.4 31.472 122.62 32.1253 123.06C32.7786 123.5 33.2786 124.093 33.6253 124.84C33.972 125.573 34.1453 126.393 34.1453 127.3C34.1453 128.193 33.972 129.013 33.6253 129.76C33.2786 130.507 32.7786 131.1 32.1253 131.54C31.472 131.98 30.6786 132.2 29.7453 132.2ZM29.7453 131.4C30.252 131.4 30.692 131.22 31.0653 130.86C31.4386 130.487 31.7253 129.993 31.9253 129.38C32.1386 128.753 32.2453 128.06 32.2453 127.3C32.2453 126.527 32.1386 125.833 31.9253 125.22C31.7253 124.607 31.4386 124.12 31.0653 123.76C30.692 123.387 30.252 123.2 29.7453 123.2C29.252 123.2 28.812 123.387 28.4253 123.76C28.052 124.12 27.7586 124.607 27.5453 125.22C27.3453 125.833 27.2453 126.527 27.2453 127.3C27.2453 128.06 27.3453 128.753 27.5453 129.38C27.7586 129.993 28.052 130.487 28.4253 130.86C28.812 131.22 29.252 131.4 29.7453 131.4ZM36.6908 132V125C36.6908 124.4 36.6041 123.92 36.4308 123.56C36.2708 123.187 35.8908 123 35.2908 123H35.0908V122.6H39.9908C40.6574 122.6 41.2774 122.673 41.8508 122.82C42.4374 122.967 42.9041 123.213 43.2508 123.56C43.6108 123.907 43.7908 124.387 43.7908 125C43.7908 125.56 43.6308 126.013 43.3108 126.36C43.0041 126.707 42.4974 126.953 41.7908 127.1C42.5508 127.247 43.1374 127.52 43.5508 127.92C43.9774 128.307 44.1908 128.8 44.1908 129.4C44.1908 130.067 44.0041 130.593 43.6308 130.98C43.2708 131.353 42.7708 131.62 42.1308 131.78C41.5041 131.927 40.7908 132 39.9908 132H36.6908ZM39.7908 131.3C40.5908 131.3 41.2041 131.147 41.6308 130.84C42.0708 130.533 42.2908 130.053 42.2908 129.4C42.2908 128.773 42.0641 128.3 41.6108 127.98C41.1708 127.66 40.4974 127.5 39.5908 127.5H38.4908V131.1C38.6374 131.153 38.8374 131.2 39.0908 131.24C39.3574 131.28 39.5908 131.3 39.7908 131.3ZM38.4908 126.7H39.5908C40.2974 126.7 40.8574 126.56 41.2708 126.28C41.6841 125.987 41.8908 125.56 41.8908 125C41.8908 124.44 41.6908 124.02 41.2908 123.74C40.8908 123.447 40.3908 123.3 39.7908 123.3C39.5908 123.3 39.3574 123.32 39.0908 123.36C38.8374 123.4 38.6374 123.447 38.4908 123.5V126.7ZM50.1703 132.2C49.237 132.2 48.457 131.98 47.8303 131.54C47.217 131.1 46.7503 130.507 46.4303 129.76C46.1236 129.013 45.9703 128.193 45.9703 127.3C45.9703 126.393 46.1303 125.573 46.4503 124.84C46.7703 124.093 47.2303 123.5 47.8303 123.06C48.4303 122.62 49.1436 122.4 49.9703 122.4C50.877 122.4 51.6236 122.573 52.2103 122.92C52.8103 123.253 53.2503 123.747 53.5303 124.4C53.8236 125.053 53.9703 125.853 53.9703 126.8L53.9303 127.6H47.8703C47.8703 128.693 48.1036 129.6 48.5703 130.32C49.0503 131.04 49.717 131.4 50.5703 131.4C51.2236 131.4 51.7636 131.26 52.1903 130.98C52.6303 130.7 53.0236 130.307 53.3703 129.8L53.7703 130.1C53.477 130.607 53.1436 131.013 52.7703 131.32C52.4103 131.627 52.0103 131.853 51.5703 132C51.1436 132.133 50.677 132.2 50.1703 132.2ZM47.8703 126.8H52.0703C52.0703 125.64 51.897 124.753 51.5503 124.14C51.2036 123.513 50.677 123.2 49.9703 123.2C49.5703 123.2 49.2103 123.36 48.8903 123.68C48.5836 123.987 48.337 124.413 48.1503 124.96C47.9636 125.493 47.8703 126.107 47.8703 126.8ZM56.5759 135.8V125C56.5759 124.4 56.4893 123.92 56.3159 123.56C56.1559 123.187 55.7759 123 55.1759 123H54.7759V122.6H56.5759C57.0826 122.6 57.4626 122.673 57.7159 122.82C57.9826 122.967 58.1693 123.193 58.2759 123.5C58.5426 123.233 58.9026 122.987 59.3559 122.76C59.8093 122.52 60.3826 122.4 61.0759 122.4C61.8759 122.4 62.5426 122.62 63.0759 123.06C63.6093 123.5 64.0093 124.093 64.2759 124.84C64.5426 125.573 64.6759 126.393 64.6759 127.3C64.6759 128.193 64.5359 129.013 64.2559 129.76C63.9893 130.507 63.5759 131.1 63.0159 131.54C62.4559 131.98 61.7426 132.2 60.8759 132.2C60.3159 132.2 59.8359 132.133 59.4359 132C59.0359 131.88 58.6826 131.747 58.3759 131.6V135.8H56.5759ZM60.2759 131.4C60.8759 131.4 61.3559 131.22 61.7159 130.86C62.0893 130.487 62.3559 129.993 62.5159 129.38C62.6893 128.753 62.7759 128.06 62.7759 127.3C62.7759 126.527 62.6959 125.833 62.5359 125.22C62.3759 124.607 62.1226 124.12 61.7759 123.76C61.4426 123.387 61.0093 123.2 60.4759 123.2C59.9293 123.2 59.4893 123.327 59.1559 123.58C58.8226 123.82 58.5626 124.093 58.3759 124.4V130.8C58.6826 130.947 58.9959 131.087 59.3159 131.22C59.6493 131.34 59.9693 131.4 60.2759 131.4ZM67.0377 132.2C66.8377 132.2 66.6377 132.18 66.4377 132.14C66.251 132.1 66.0843 132.053 65.9377 132V131.6C66.4043 131.547 66.7843 131.353 67.0777 131.02C67.371 130.687 67.6243 130.347 67.8377 130L69.0377 127.9C68.4377 127.793 67.9043 127.52 67.4377 127.08C66.971 126.64 66.7377 126.047 66.7377 125.3C66.7377 124.607 66.9177 124.067 67.2777 123.68C67.651 123.28 68.1377 123 68.7377 122.84C69.351 122.68 70.0177 122.6 70.7377 122.6H75.4377V123H75.3577C74.7977 123.013 74.4377 123.207 74.2777 123.58C74.1177 123.94 74.0377 124.413 74.0377 125V132H72.2377V128H70.6777L69.4777 130.4C69.171 131 68.831 131.453 68.4577 131.76C68.0843 132.053 67.611 132.2 67.0377 132.2ZM70.9377 127.3C71.1377 127.3 71.3643 127.28 71.6177 127.24C71.8843 127.2 72.091 127.153 72.2377 127.1V123.5C72.091 123.447 71.8843 123.4 71.6177 123.36C71.3643 123.32 71.1377 123.3 70.9377 123.3C70.231 123.3 69.671 123.46 69.2577 123.78C68.8443 124.087 68.6377 124.593 68.6377 125.3C68.6377 126.007 68.8443 126.52 69.2577 126.84C69.671 127.147 70.231 127.3 70.9377 127.3ZM80.893 132.2C79.9596 132.2 79.1796 131.98 78.553 131.54C77.9396 131.1 77.473 130.507 77.153 129.76C76.8463 129.013 76.693 128.193 76.693 127.3C76.693 126.393 76.853 125.573 77.173 124.84C77.493 124.093 77.953 123.5 78.553 123.06C79.153 122.62 79.8663 122.4 80.693 122.4C81.5996 122.4 82.3463 122.573 82.933 122.92C83.533 123.253 83.973 123.747 84.253 124.4C84.5463 125.053 84.693 125.853 84.693 126.8L84.653 127.6H78.593C78.593 128.693 78.8263 129.6 79.293 130.32C79.773 131.04 80.4396 131.4 81.293 131.4C81.9463 131.4 82.4863 131.26 82.913 130.98C83.353 130.7 83.7463 130.307 84.093 129.8L84.493 130.1C84.1996 130.607 83.8663 131.013 83.493 131.32C83.133 131.627 82.733 131.853 82.293 132C81.8663 132.133 81.3996 132.2 80.893 132.2ZM78.593 126.8H82.793C82.793 125.64 82.6196 124.753 82.273 124.14C81.9263 123.513 81.3996 123.2 80.693 123.2C80.293 123.2 79.933 123.36 79.613 123.68C79.3063 123.987 79.0596 124.413 78.873 124.96C78.6863 125.493 78.593 126.107 78.593 126.8ZM98.1986 132.4C96.9453 132.4 96.0786 132.093 95.5986 131.48C95.1319 130.867 94.8986 130.04 94.8986 129V124.7L91.5986 132H91.1986L87.7986 124.5V132H86.9986V122.6H88.8986L91.8986 129.2L94.8986 122.6H96.6986V129C96.6986 129.493 96.7586 129.973 96.8786 130.44C97.0119 130.893 97.1919 131.267 97.4186 131.56C97.6453 131.853 97.9053 132 98.1986 132V132.4ZM105.187 132V125C105.187 124.4 105.1 123.92 104.927 123.56C104.767 123.187 104.387 123 103.787 123H103.587V122.6H108.487C109.154 122.6 109.774 122.673 110.347 122.82C110.934 122.967 111.4 123.213 111.747 123.56C112.107 123.907 112.287 124.387 112.287 125C112.287 125.56 112.127 126.013 111.807 126.36C111.5 126.707 110.994 126.953 110.287 127.1C111.047 127.247 111.634 127.52 112.047 127.92C112.474 128.307 112.687 128.8 112.687 129.4C112.687 130.067 112.5 130.593 112.127 130.98C111.767 131.353 111.267 131.62 110.627 131.78C110 131.927 109.287 132 108.487 132H105.187ZM108.287 131.3C109.087 131.3 109.7 131.147 110.127 130.84C110.567 130.533 110.787 130.053 110.787 129.4C110.787 128.773 110.56 128.3 110.107 127.98C109.667 127.66 108.994 127.5 108.087 127.5H106.987V131.1C107.134 131.153 107.334 131.2 107.587 131.24C107.854 131.28 108.087 131.3 108.287 131.3ZM106.987 126.7H108.087C108.794 126.7 109.354 126.56 109.767 126.28C110.18 125.987 110.387 125.56 110.387 125C110.387 124.44 110.187 124.02 109.787 123.74C109.387 123.447 108.887 123.3 108.287 123.3C108.087 123.3 107.854 123.32 107.587 123.36C107.334 123.4 107.134 123.447 106.987 123.5V126.7ZM118.866 132.2C117.88 132.2 117.06 131.98 116.406 131.54C115.753 131.1 115.266 130.507 114.946 129.76C114.626 129.013 114.466 128.193 114.466 127.3C114.466 126.393 114.626 125.573 114.946 124.84C115.266 124.093 115.753 123.5 116.406 123.06C117.06 122.62 117.88 122.4 118.866 122.4C119.573 122.4 120.166 122.453 120.646 122.56C121.14 122.667 121.513 122.847 121.766 123.1C122.02 123.353 122.166 123.667 122.206 124.04C122.246 124.4 122.266 124.953 122.266 125.7H121.866C121.813 124.847 121.54 124.22 121.046 123.82C120.566 123.407 119.973 123.2 119.266 123.2C118.6 123.2 118.053 123.387 117.626 123.76C117.2 124.12 116.88 124.607 116.666 125.22C116.466 125.833 116.366 126.527 116.366 127.3C116.366 128.06 116.466 128.753 116.666 129.38C116.88 129.993 117.2 130.487 117.626 130.86C118.053 131.22 118.6 131.4 119.266 131.4C119.973 131.4 120.546 131.26 120.986 130.98C121.426 130.7 121.82 130.307 122.166 129.8L122.566 130.1C122.273 130.607 121.94 131.013 121.566 131.32C121.193 131.627 120.78 131.853 120.326 132C119.886 132.133 119.4 132.2 118.866 132.2ZM128.334 132.2C127.401 132.2 126.621 131.98 125.994 131.54C125.381 131.1 124.914 130.507 124.594 129.76C124.288 129.013 124.134 128.193 124.134 127.3C124.134 126.393 124.294 125.573 124.614 124.84C124.934 124.093 125.394 123.5 125.994 123.06C126.594 122.62 127.308 122.4 128.134 122.4C129.041 122.4 129.788 122.573 130.374 122.92C130.974 123.253 131.414 123.747 131.694 124.4C131.988 125.053 132.134 125.853 132.134 126.8L132.094 127.6H126.034C126.034 128.693 126.268 129.6 126.734 130.32C127.214 131.04 127.881 131.4 128.734 131.4C129.388 131.4 129.928 131.26 130.354 130.98C130.794 130.7 131.188 130.307 131.534 129.8L131.934 130.1C131.641 130.607 131.308 131.013 130.934 131.32C130.574 131.627 130.174 131.853 129.734 132C129.308 132.133 128.841 132.2 128.334 132.2ZM126.034 126.8H130.234C130.234 125.64 130.061 124.753 129.714 124.14C129.368 123.513 128.841 123.2 128.134 123.2C127.734 123.2 127.374 123.36 127.054 123.68C126.748 123.987 126.501 124.413 126.314 124.96C126.128 125.493 126.034 126.107 126.034 126.8ZM139.64 132V125C139.64 124.4 139.553 123.92 139.38 123.56C139.22 123.187 138.84 123 138.24 123H138.04V122.6H147.24V132H145.44V123.4H141.44V132H139.64ZM150.424 135.8V125C150.424 124.4 150.337 123.92 150.164 123.56C150.004 123.187 149.624 123 149.024 123H148.624V122.6H150.424C150.93 122.6 151.31 122.673 151.564 122.82C151.83 122.967 152.017 123.193 152.124 123.5C152.39 123.233 152.75 122.987 153.204 122.76C153.657 122.52 154.23 122.4 154.924 122.4C155.724 122.4 156.39 122.62 156.924 123.06C157.457 123.5 157.857 124.093 158.124 124.84C158.39 125.573 158.524 126.393 158.524 127.3C158.524 128.193 158.384 129.013 158.104 129.76C157.837 130.507 157.424 131.1 156.864 131.54C156.304 131.98 155.59 132.2 154.724 132.2C154.164 132.2 153.684 132.133 153.284 132C152.884 131.88 152.53 131.747 152.224 131.6V135.8H150.424ZM154.124 131.4C154.724 131.4 155.204 131.22 155.564 130.86C155.937 130.487 156.204 129.993 156.364 129.38C156.537 128.753 156.624 128.06 156.624 127.3C156.624 126.527 156.544 125.833 156.384 125.22C156.224 124.607 155.97 124.12 155.624 123.76C155.29 123.387 154.857 123.2 154.324 123.2C153.777 123.2 153.337 123.327 153.004 123.58C152.67 123.82 152.41 124.093 152.224 124.4V130.8C152.53 130.947 152.844 131.087 153.164 131.22C153.497 131.34 153.817 131.4 154.124 131.4ZM164.745 132.2C163.812 132.2 163.019 131.98 162.365 131.54C161.712 131.1 161.212 130.507 160.865 129.76C160.519 129.013 160.345 128.193 160.345 127.3C160.345 126.393 160.519 125.573 160.865 124.84C161.212 124.093 161.712 123.5 162.365 123.06C163.019 122.62 163.812 122.4 164.745 122.4C165.679 122.4 166.472 122.62 167.125 123.06C167.779 123.5 168.279 124.093 168.625 124.84C168.972 125.573 169.145 126.393 169.145 127.3C169.145 128.193 168.972 129.013 168.625 129.76C168.279 130.507 167.779 131.1 167.125 131.54C166.472 131.98 165.679 132.2 164.745 132.2ZM164.745 131.4C165.252 131.4 165.692 131.22 166.065 130.86C166.439 130.487 166.725 129.993 166.925 129.38C167.139 128.753 167.245 128.06 167.245 127.3C167.245 126.527 167.139 125.833 166.925 125.22C166.725 124.607 166.439 124.12 166.065 123.76C165.692 123.387 165.252 123.2 164.745 123.2C164.252 123.2 163.812 123.387 163.425 123.76C163.052 124.12 162.759 124.607 162.545 125.22C162.345 125.833 162.245 126.527 162.245 127.3C162.245 128.06 162.345 128.753 162.545 129.38C162.759 129.993 163.052 130.487 163.425 130.86C163.812 131.22 164.252 131.4 164.745 131.4ZM180.071 135.1C180.004 134.353 179.884 133.753 179.711 133.3C179.551 132.847 179.331 132.513 179.051 132.3C178.771 132.1 178.411 132 177.971 132H171.771V125C171.771 124.4 171.684 123.92 171.511 123.56C171.351 123.187 170.971 123 170.371 123H170.071V122.6H171.771C172.237 122.6 172.597 122.66 172.851 122.78C173.117 122.9 173.304 123.133 173.411 123.48C173.517 123.827 173.571 124.333 173.571 125V131.2H177.571V122.6H179.371V131.2H180.171C180.371 131.2 180.537 131.267 180.671 131.4C180.804 131.533 180.871 131.7 180.871 131.9V135.1H180.071ZM186.342 132.2C185.409 132.2 184.629 131.98 184.002 131.54C183.389 131.1 182.922 130.507 182.602 129.76C182.296 129.013 182.142 128.193 182.142 127.3C182.142 126.393 182.302 125.573 182.622 124.84C182.942 124.093 183.402 123.5 184.002 123.06C184.602 122.62 185.316 122.4 186.142 122.4C187.049 122.4 187.796 122.573 188.382 122.92C188.982 123.253 189.422 123.747 189.702 124.4C189.996 125.053 190.142 125.853 190.142 126.8L190.102 127.6H184.042C184.042 128.693 184.276 129.6 184.742 130.32C185.222 131.04 185.889 131.4 186.742 131.4C187.396 131.4 187.936 131.26 188.362 130.98C188.802 130.7 189.196 130.307 189.542 129.8L189.942 130.1C189.649 130.607 189.316 131.013 188.942 131.32C188.582 131.627 188.182 131.853 187.742 132C187.316 132.133 186.849 132.2 186.342 132.2ZM184.042 126.8H188.242C188.242 125.64 188.069 124.753 187.722 124.14C187.376 123.513 186.849 123.2 186.142 123.2C185.742 123.2 185.382 123.36 185.062 123.68C184.756 123.987 184.509 124.413 184.322 124.96C184.136 125.493 184.042 126.107 184.042 126.8ZM196.308 132.2C195.321 132.2 194.501 131.98 193.848 131.54C193.194 131.1 192.708 130.507 192.388 129.76C192.068 129.013 191.908 128.193 191.908 127.3C191.908 126.393 192.068 125.573 192.388 124.84C192.708 124.093 193.194 123.5 193.848 123.06C194.501 122.62 195.321 122.4 196.308 122.4C197.014 122.4 197.608 122.453 198.088 122.56C198.581 122.667 198.954 122.847 199.208 123.1C199.461 123.353 199.608 123.667 199.648 124.04C199.688 124.4 199.708 124.953 199.708 125.7H199.308C199.254 124.847 198.981 124.22 198.488 123.82C198.008 123.407 197.414 123.2 196.708 123.2C196.041 123.2 195.494 123.387 195.068 123.76C194.641 124.12 194.321 124.607 194.108 125.22C193.908 125.833 193.808 126.527 193.808 127.3C193.808 128.06 193.908 128.753 194.108 129.38C194.321 129.993 194.641 130.487 195.068 130.86C195.494 131.22 196.041 131.4 196.708 131.4C197.414 131.4 197.988 131.26 198.428 130.98C198.868 130.7 199.261 130.307 199.608 129.8L200.008 130.1C199.714 130.607 199.381 131.013 199.008 131.32C198.634 131.627 198.221 131.853 197.768 132C197.328 132.133 196.841 132.2 196.308 132.2ZM205.976 132.2C204.989 132.2 204.169 131.98 203.516 131.54C202.862 131.1 202.376 130.507 202.056 129.76C201.736 129.013 201.576 128.193 201.576 127.3C201.576 126.393 201.736 125.573 202.056 124.84C202.376 124.093 202.862 123.5 203.516 123.06C204.169 122.62 204.989 122.4 205.976 122.4C206.682 122.4 207.276 122.453 207.756 122.56C208.249 122.667 208.622 122.847 208.876 123.1C209.129 123.353 209.276 123.667 209.316 124.04C209.356 124.4 209.376 124.953 209.376 125.7H208.976C208.922 124.847 208.649 124.22 208.156 123.82C207.676 123.407 207.082 123.2 206.376 123.2C205.709 123.2 205.162 123.387 204.736 123.76C204.309 124.12 203.989 124.607 203.776 125.22C203.576 125.833 203.476 126.527 203.476 127.3C203.476 128.06 203.576 128.753 203.776 129.38C203.989 129.993 204.309 130.487 204.736 130.86C205.162 131.22 205.709 131.4 206.376 131.4C207.082 131.4 207.656 131.26 208.096 130.98C208.536 130.7 208.929 130.307 209.276 129.8L209.676 130.1C209.382 130.607 209.049 131.013 208.676 131.32C208.302 131.627 207.889 131.853 207.436 132C206.996 132.133 206.509 132.2 205.976 132.2ZM212.064 132V125C212.064 124.4 211.977 123.92 211.804 123.56C211.644 123.187 211.264 123 210.664 123H210.364V122.6H212.064C212.53 122.6 212.89 122.66 213.144 122.78C213.41 122.9 213.597 123.133 213.704 123.48C213.81 123.827 213.864 124.333 213.864 125V126.4H215.364C216.07 126.4 216.717 126.487 217.304 126.66C217.89 126.82 218.364 127.1 218.724 127.5C219.084 127.9 219.264 128.467 219.264 129.2C219.264 129.92 219.084 130.487 218.724 130.9C218.364 131.3 217.89 131.587 217.304 131.76C216.717 131.92 216.07 132 215.364 132H212.064ZM215.164 131.3C215.817 131.3 216.344 131.14 216.744 130.82C217.157 130.5 217.364 129.96 217.364 129.2C217.364 128.44 217.157 127.9 216.744 127.58C216.344 127.26 215.817 127.1 215.164 127.1C214.964 127.1 214.73 127.12 214.464 127.16C214.21 127.2 214.01 127.247 213.864 127.3V131.1C214.01 131.153 214.21 131.2 214.464 131.24C214.73 131.28 214.964 131.3 215.164 131.3ZM222.364 132C221.897 132 221.53 131.94 221.264 131.82C221.01 131.7 220.83 131.467 220.724 131.12C220.617 130.773 220.564 130.267 220.564 129.6V122.6H222.364V129.6C222.364 130.2 222.444 130.687 222.604 131.06C222.777 131.42 223.164 131.6 223.764 131.6H224.064V132H222.364ZM225.533 135.1L225.333 134.8C225.68 134.573 225.967 134.327 226.193 134.06C226.433 133.793 226.613 133.5 226.733 133.18C226.867 132.86 226.933 132.5 226.933 132.1C226.88 132.14 226.793 132.18 226.673 132.22C226.553 132.273 226.44 132.3 226.333 132.3C226.027 132.3 225.767 132.193 225.553 131.98C225.34 131.767 225.233 131.507 225.233 131.2C225.233 130.853 225.347 130.567 225.573 130.34C225.8 130.113 226.087 130 226.433 130C226.833 130 227.147 130.12 227.373 130.36C227.613 130.6 227.733 130.947 227.733 131.4C227.733 132.253 227.54 132.98 227.153 133.58C226.78 134.193 226.24 134.7 225.533 135.1ZM8.3 151.2C7.36667 151.2 6.57333 150.98 5.92 150.54C5.26667 150.1 4.76667 149.507 4.42 148.76C4.07333 148.013 3.9 147.193 3.9 146.3C3.9 145.393 4.07333 144.573 4.42 143.84C4.76667 143.093 5.26667 142.5 5.92 142.06C6.57333 141.62 7.36667 141.4 8.3 141.4C9.23333 141.4 10.0267 141.62 10.68 142.06C11.3333 142.5 11.8333 143.093 12.18 143.84C12.5267 144.573 12.7 145.393 12.7 146.3C12.7 147.193 12.5267 148.013 12.18 148.76C11.8333 149.507 11.3333 150.1 10.68 150.54C10.0267 150.98 9.23333 151.2 8.3 151.2ZM8.3 150.4C8.80667 150.4 9.24667 150.22 9.62 149.86C9.99333 149.487 10.28 148.993 10.48 148.38C10.6933 147.753 10.8 147.06 10.8 146.3C10.8 145.527 10.6933 144.833 10.48 144.22C10.28 143.607 9.99333 143.12 9.62 142.76C9.24667 142.387 8.80667 142.2 8.3 142.2C7.80667 142.2 7.36667 142.387 6.98 142.76C6.60667 143.12 6.31333 143.607 6.1 144.22C5.9 144.833 5.8 145.527 5.8 146.3C5.8 147.06 5.9 147.753 6.1 148.38C6.31333 148.993 6.60667 149.487 6.98 149.86C7.36667 150.22 7.80667 150.4 8.3 150.4ZM15.2455 151V144C15.2455 143.4 15.1588 142.92 14.9855 142.56C14.8255 142.187 14.4455 142 13.8455 142H13.6455V141.6H22.8455V151H21.0455V142.4H17.0455V151H15.2455ZM28.3691 151V142.4H27.3691C26.7691 142.4 26.2691 142.573 25.8691 142.92C25.4691 143.253 25.2691 143.747 25.2691 144.4H24.8691V143.2C24.8691 142.8 24.9691 142.433 25.1691 142.1C25.3691 141.767 25.7691 141.6 26.3691 141.6H33.4691V142.4H30.1691V151H28.3691ZM35.4817 151V144C35.4817 143.4 35.3951 142.92 35.2217 142.56C35.0617 142.187 34.6817 142 34.0817 142H33.7817V141.6H35.4817C35.9484 141.6 36.3084 141.66 36.5617 141.78C36.8284 141.9 37.0151 142.133 37.1217 142.48C37.2284 142.827 37.2817 143.333 37.2817 144V149.2L41.4817 141.6H43.2817V151H41.4817V143.4L37.2817 151H35.4817ZM57.3588 151.4C56.1054 151.4 55.2388 151.093 54.7588 150.48C54.2921 149.867 54.0588 149.04 54.0588 148V143.7L50.7588 151H50.3588L46.9588 143.5V151H46.1588V141.6H48.0588L51.0588 148.2L54.0588 141.6H55.8588V148C55.8588 148.493 55.9188 148.973 56.0388 149.44C56.1721 149.893 56.3521 150.267 56.5788 150.56C56.8054 150.853 57.0654 151 57.3588 151V151.4ZM59.427 151V144C59.427 143.4 59.3404 142.92 59.167 142.56C59.007 142.187 58.627 142 58.027 142H57.727V141.6H59.427C59.8937 141.6 60.2537 141.66 60.507 141.78C60.7737 141.9 60.9604 142.133 61.067 142.48C61.1737 142.827 61.227 143.333 61.227 144V149.2L65.427 141.6H67.227V151H65.427V143.4L61.227 151H59.427ZM72.8841 151.2C71.9907 151.2 71.2707 151.047 70.7241 150.74C70.1774 150.433 69.7307 150.053 69.3841 149.6L69.7841 149.3C70.0374 149.553 70.3641 149.8 70.7641 150.04C71.1774 150.28 71.7507 150.4 72.4841 150.4C73.2841 150.4 73.8974 150.247 74.3241 149.94C74.7641 149.633 74.9841 149.153 74.9841 148.5C74.9841 147.873 74.7507 147.4 74.2841 147.08C73.8174 146.76 73.1174 146.6 72.1841 146.6H71.2841V145.8H72.1841C72.9841 145.8 73.5974 145.653 74.0241 145.36C74.4641 145.053 74.6841 144.6 74.6841 144C74.6841 143.4 74.4907 142.953 74.1041 142.66C73.7174 142.353 73.2441 142.2 72.6841 142.2C71.9641 142.2 71.3574 142.387 70.8641 142.76C70.3841 143.133 70.1241 143.647 70.0841 144.3H69.6841C69.6841 143.74 69.7041 143.3 69.7441 142.98C69.7841 142.647 69.9307 142.353 70.1841 142.1C70.4374 141.847 70.8041 141.667 71.2841 141.56C71.7641 141.453 72.3307 141.4 72.9841 141.4C73.5841 141.4 74.1574 141.48 74.7041 141.64C75.2507 141.8 75.6974 142.067 76.0441 142.44C76.4041 142.813 76.5841 143.333 76.5841 144C76.5841 144.6 76.3974 145.08 76.0241 145.44C75.6641 145.8 75.1841 146.053 74.5841 146.2C75.3041 146.347 75.8641 146.62 76.2641 147.02C76.6774 147.407 76.8841 147.9 76.8841 148.5C76.8841 149.193 76.6974 149.74 76.3241 150.14C75.9641 150.527 75.4841 150.8 74.8841 150.96C74.2841 151.12 73.6174 151.2 72.8841 151.2ZM79.4856 151V144C79.4856 143.4 79.399 142.92 79.2256 142.56C79.0656 142.187 78.6856 142 78.0856 142H77.7856V141.6H79.4856C79.9523 141.6 80.3123 141.66 80.5656 141.78C80.8323 141.9 81.019 142.133 81.1256 142.48C81.2323 142.827 81.2856 143.333 81.2856 144V149.2L85.4856 141.6H87.2856V151H85.4856V143.4L81.2856 151H79.4856ZM90.4627 154.8V144C90.4627 143.4 90.376 142.92 90.2027 142.56C90.0427 142.187 89.6627 142 89.0627 142H88.6627V141.6H90.4627C90.9693 141.6 91.3493 141.673 91.6027 141.82C91.8693 141.967 92.056 142.193 92.1627 142.5C92.4293 142.233 92.7893 141.987 93.2427 141.76C93.696 141.52 94.2693 141.4 94.9627 141.4C95.7627 141.4 96.4293 141.62 96.9627 142.06C97.496 142.5 97.896 143.093 98.1627 143.84C98.4293 144.573 98.5627 145.393 98.5627 146.3C98.5627 147.193 98.4227 148.013 98.1427 148.76C97.876 149.507 97.4627 150.1 96.9027 150.54C96.3427 150.98 95.6293 151.2 94.7627 151.2C94.2027 151.2 93.7227 151.133 93.3227 151C92.9227 150.88 92.5693 150.747 92.2627 150.6V154.8H90.4627ZM94.1627 150.4C94.7627 150.4 95.2427 150.22 95.6027 149.86C95.976 149.487 96.2427 148.993 96.4027 148.38C96.576 147.753 96.6627 147.06 96.6627 146.3C96.6627 145.527 96.5827 144.833 96.4227 144.22C96.2627 143.607 96.0093 143.12 95.6627 142.76C95.3293 142.387 94.896 142.2 94.3627 142.2C93.816 142.2 93.376 142.327 93.0427 142.58C92.7093 142.82 92.4493 143.093 92.2627 143.4V149.8C92.5693 149.947 92.8827 150.087 93.2027 150.22C93.536 150.34 93.856 150.4 94.1627 150.4ZM101.389 155V154.4C102.002 154.4 102.522 154.26 102.949 153.98C103.389 153.713 103.769 153.153 104.089 152.3L104.489 151.2L101.289 143.4C101.089 142.893 100.796 142.513 100.409 142.26C100.036 142.007 99.5957 141.853 99.0891 141.8V141.4H100.789C101.389 141.4 101.882 141.54 102.269 141.82C102.669 142.1 102.976 142.493 103.189 143L105.469 148.54L107.989 141.6H108.989L105.089 152.3C104.822 153.033 104.536 153.593 104.229 153.98C103.936 154.367 103.602 154.633 103.229 154.78C102.869 154.927 102.456 155 101.989 155H101.389ZM114.545 151.2C113.612 151.2 112.832 150.98 112.205 150.54C111.592 150.1 111.125 149.507 110.805 148.76C110.499 148.013 110.345 147.193 110.345 146.3C110.345 145.393 110.505 144.573 110.825 143.84C111.145 143.093 111.605 142.5 112.205 142.06C112.805 141.62 113.519 141.4 114.345 141.4C115.252 141.4 115.999 141.573 116.585 141.92C117.185 142.253 117.625 142.747 117.905 143.4C118.199 144.053 118.345 144.853 118.345 145.8L118.305 146.6H112.245C112.245 147.693 112.479 148.6 112.945 149.32C113.425 150.04 114.092 150.4 114.945 150.4C115.599 150.4 116.139 150.26 116.565 149.98C117.005 149.7 117.399 149.307 117.745 148.8L118.145 149.1C117.852 149.607 117.519 150.013 117.145 150.32C116.785 150.627 116.385 150.853 115.945 151C115.519 151.133 115.052 151.2 114.545 151.2ZM112.245 145.8H116.445C116.445 144.64 116.272 143.753 115.925 143.14C115.579 142.513 115.052 142.2 114.345 142.2C113.945 142.2 113.585 142.36 113.265 142.68C112.959 142.987 112.712 143.413 112.525 143.96C112.339 144.493 112.245 145.107 112.245 145.8ZM131.851 151.4C130.598 151.4 129.731 151.093 129.251 150.48C128.784 149.867 128.551 149.04 128.551 148V143.7L125.251 151H124.851L121.451 143.5V151H120.651V141.6H122.551L125.551 148.2L128.551 141.6H130.351V148C130.351 148.493 130.411 148.973 130.531 149.44C130.664 149.893 130.844 150.267 131.071 150.56C131.298 150.853 131.558 151 131.851 151V151.4ZM138.919 151V144C138.919 143.4 138.833 142.92 138.659 142.56C138.499 142.187 138.119 142 137.519 142H137.219V141.6H138.919C139.386 141.6 139.746 141.66 139.999 141.78C140.266 141.9 140.453 142.133 140.559 142.48C140.666 142.827 140.719 143.333 140.719 144V149.2L144.919 141.6H146.719V151H144.919V143.4L140.719 151H138.919ZM155.256 155V154.4C155.87 154.4 156.39 154.26 156.816 153.98C157.256 153.713 157.636 153.153 157.956 152.3L158.356 151.2L155.156 143.4C154.956 142.893 154.663 142.513 154.276 142.26C153.903 142.007 153.463 141.853 152.956 141.8V141.4H154.656C155.256 141.4 155.75 141.54 156.136 141.82C156.536 142.1 156.843 142.493 157.056 143L159.336 148.54L161.856 141.6H162.856L158.956 152.3C158.69 153.033 158.403 153.593 158.096 153.98C157.803 154.367 157.47 154.633 157.096 154.78C156.736 154.927 156.323 155 155.856 155H155.256ZM168.613 151.2C167.626 151.2 166.806 150.98 166.153 150.54C165.499 150.1 165.013 149.507 164.693 148.76C164.373 148.013 164.213 147.193 164.213 146.3C164.213 145.393 164.373 144.573 164.693 143.84C165.013 143.093 165.499 142.5 166.153 142.06C166.806 141.62 167.626 141.4 168.613 141.4C169.319 141.4 169.913 141.453 170.393 141.56C170.886 141.667 171.259 141.847 171.513 142.1C171.766 142.353 171.913 142.667 171.953 143.04C171.993 143.4 172.013 143.953 172.013 144.7H171.613C171.559 143.847 171.286 143.22 170.793 142.82C170.313 142.407 169.719 142.2 169.013 142.2C168.346 142.2 167.799 142.387 167.373 142.76C166.946 143.12 166.626 143.607 166.413 144.22C166.213 144.833 166.113 145.527 166.113 146.3C166.113 147.06 166.213 147.753 166.413 148.38C166.626 148.993 166.946 149.487 167.373 149.86C167.799 150.22 168.346 150.4 169.013 150.4C169.719 150.4 170.293 150.26 170.733 149.98C171.173 149.7 171.566 149.307 171.913 148.8L172.313 149.1C172.019 149.607 171.686 150.013 171.313 150.32C170.939 150.627 170.526 150.853 170.073 151C169.633 151.133 169.146 151.2 168.613 151.2ZM177.06 151V142.4H176.06C175.46 142.4 174.96 142.573 174.56 142.92C174.16 143.253 173.96 143.747 173.96 144.4H173.56V143.2C173.56 142.8 173.66 142.433 173.86 142.1C174.06 141.767 174.46 141.6 175.06 141.6H182.16V142.4H178.86V151H177.06ZM184.193 154.8V144C184.193 143.4 184.106 142.92 183.933 142.56C183.773 142.187 183.393 142 182.793 142H182.393V141.6H184.193C184.7 141.6 185.08 141.673 185.333 141.82C185.6 141.967 185.786 142.193 185.893 142.5C186.16 142.233 186.52 141.987 186.973 141.76C187.426 141.52 188 141.4 188.693 141.4C189.493 141.4 190.16 141.62 190.693 142.06C191.226 142.5 191.626 143.093 191.893 143.84C192.16 144.573 192.293 145.393 192.293 146.3C192.293 147.193 192.153 148.013 191.873 148.76C191.606 149.507 191.193 150.1 190.633 150.54C190.073 150.98 189.36 151.2 188.493 151.2C187.933 151.2 187.453 151.133 187.053 151C186.653 150.88 186.3 150.747 185.993 150.6V154.8H184.193ZM187.893 150.4C188.493 150.4 188.973 150.22 189.333 149.86C189.706 149.487 189.973 148.993 190.133 148.38C190.306 147.753 190.393 147.06 190.393 146.3C190.393 145.527 190.313 144.833 190.153 144.22C189.993 143.607 189.74 143.12 189.393 142.76C189.06 142.387 188.626 142.2 188.093 142.2C187.546 142.2 187.106 142.327 186.773 142.58C186.44 142.82 186.18 143.093 185.993 143.4V149.8C186.3 149.947 186.613 150.087 186.933 150.22C187.266 150.34 187.586 150.4 187.893 150.4ZM196.895 151.2C196.615 151.2 196.308 151.153 195.975 151.06C195.655 150.98 195.342 150.833 195.035 150.62C194.728 150.407 194.475 150.12 194.275 149.76C194.088 149.4 193.995 148.947 193.995 148.4C193.995 147.667 194.228 147.1 194.695 146.7C195.175 146.3 195.802 146.02 196.575 145.86C197.362 145.687 198.202 145.6 199.095 145.6H199.695C199.695 144.667 199.602 143.96 199.415 143.48C199.228 142.987 198.975 142.653 198.655 142.48C198.348 142.293 197.995 142.2 197.595 142.2C197.035 142.2 196.562 142.32 196.175 142.56C195.802 142.8 195.542 143.247 195.395 143.9H194.495C194.495 143.553 194.515 143.233 194.555 142.94C194.595 142.633 194.742 142.353 194.995 142.1C195.248 141.847 195.662 141.667 196.235 141.56C196.808 141.453 197.395 141.4 197.995 141.4C198.448 141.4 198.882 141.453 199.295 141.56C199.722 141.667 200.095 141.867 200.415 142.16C200.748 142.44 201.008 142.86 201.195 143.42C201.395 143.967 201.495 144.693 201.495 145.6V151H200.495L199.795 150.1H199.695C199.495 150.353 199.168 150.6 198.715 150.84C198.262 151.08 197.655 151.2 196.895 151.2ZM197.795 150.3C198.288 150.3 198.675 150.18 198.955 149.94C199.248 149.687 199.495 149.407 199.695 149.1V146.4H199.095C198.095 146.4 197.308 146.587 196.735 146.96C196.175 147.32 195.895 147.8 195.895 148.4C195.895 149.053 196.088 149.533 196.475 149.84C196.862 150.147 197.302 150.3 197.795 150.3ZM204.564 151V144C204.564 143.4 204.477 142.92 204.304 142.56C204.144 142.187 203.764 142 203.164 142H202.864V141.6H204.564C205.03 141.6 205.39 141.66 205.644 141.78C205.91 141.9 206.097 142.133 206.204 142.48C206.31 142.827 206.364 143.333 206.364 144V145.9H210.364V141.6H212.164V148.6C212.164 149.2 212.244 149.687 212.404 150.06C212.577 150.42 212.964 150.6 213.564 150.6H213.864V151H212.164C211.697 151 211.33 150.94 211.064 150.82C210.81 150.7 210.63 150.467 210.524 150.12C210.417 149.773 210.364 149.267 210.364 148.6V146.7H206.364V151H204.564ZM215.338 151.2C215.138 151.2 214.938 151.18 214.738 151.14C214.552 151.1 214.385 151.053 214.238 151V150.6C214.705 150.547 215.085 150.353 215.378 150.02C215.672 149.687 215.925 149.347 216.138 149L217.338 146.9C216.738 146.793 216.205 146.52 215.738 146.08C215.272 145.64 215.038 145.047 215.038 144.3C215.038 143.607 215.218 143.067 215.578 142.68C215.952 142.28 216.438 142 217.038 141.84C217.652 141.68 218.318 141.6 219.038 141.6H223.738V142H223.658C223.098 142.013 222.738 142.207 222.578 142.58C222.418 142.94 222.338 143.413 222.338 144V151H220.538V147H218.978L217.778 149.4C217.472 150 217.132 150.453 216.758 150.76C216.385 151.053 215.912 151.2 215.338 151.2ZM219.238 146.3C219.438 146.3 219.665 146.28 219.918 146.24C220.185 146.2 220.392 146.153 220.538 146.1V142.5C220.392 142.447 220.185 142.4 219.918 142.36C219.665 142.32 219.438 142.3 219.238 142.3C218.532 142.3 217.972 142.46 217.558 142.78C217.145 143.087 216.938 143.593 216.938 144.3C216.938 145.007 217.145 145.52 217.558 145.84C217.972 146.147 218.532 146.3 219.238 146.3ZM229.194 151.2C228.26 151.2 227.48 150.98 226.854 150.54C226.24 150.1 225.774 149.507 225.454 148.76C225.147 148.013 224.994 147.193 224.994 146.3C224.994 145.393 225.154 144.573 225.474 143.84C225.794 143.093 226.254 142.5 226.854 142.06C227.454 141.62 228.167 141.4 228.994 141.4C229.9 141.4 230.647 141.573 231.234 141.92C231.834 142.253 232.274 142.747 232.554 143.4C232.847 144.053 232.994 144.853 232.994 145.8L232.954 146.6H226.894C226.894 147.693 227.127 148.6 227.594 149.32C228.074 150.04 228.74 150.4 229.594 150.4C230.247 150.4 230.787 150.26 231.214 149.98C231.654 149.7 232.047 149.307 232.394 148.8L232.794 149.1C232.5 149.607 232.167 150.013 231.794 150.32C231.434 150.627 231.034 150.853 230.594 151C230.167 151.133 229.7 151.2 229.194 151.2ZM226.894 145.8H231.094C231.094 144.64 230.92 143.753 230.574 143.14C230.227 142.513 229.7 142.2 228.994 142.2C228.594 142.2 228.234 142.36 227.914 142.68C227.607 142.987 227.36 143.413 227.174 143.96C226.987 144.493 226.894 145.107 226.894 145.8ZM246.499 151.4C245.246 151.4 244.379 151.093 243.899 150.48C243.433 149.867 243.199 149.04 243.199 148V143.7L239.899 151H239.499L236.099 143.5V151H235.299V141.6H237.199L240.199 148.2L243.199 141.6H244.999V148C244.999 148.493 245.059 148.973 245.179 149.44C245.313 149.893 245.493 150.267 245.719 150.56C245.946 150.853 246.206 151 246.499 151V151.4ZM253.488 151V144C253.488 143.4 253.401 142.92 253.228 142.56C253.068 142.187 252.688 142 252.088 142H251.888V141.6H256.788C257.454 141.6 258.074 141.673 258.648 141.82C259.234 141.967 259.701 142.213 260.048 142.56C260.408 142.907 260.588 143.387 260.588 144C260.588 144.56 260.428 145.013 260.108 145.36C259.801 145.707 259.294 145.953 258.588 146.1C259.348 146.247 259.934 146.52 260.348 146.92C260.774 147.307 260.988 147.8 260.988 148.4C260.988 149.067 260.801 149.593 260.428 149.98C260.068 150.353 259.568 150.62 258.928 150.78C258.301 150.927 257.588 151 256.788 151H253.488ZM256.588 150.3C257.388 150.3 258.001 150.147 258.428 149.84C258.868 149.533 259.088 149.053 259.088 148.4C259.088 147.773 258.861 147.3 258.408 146.98C257.968 146.66 257.294 146.5 256.388 146.5H255.288V150.1C255.434 150.153 255.634 150.2 255.888 150.24C256.154 150.28 256.388 150.3 256.588 150.3ZM255.288 145.7H256.388C257.094 145.7 257.654 145.56 258.068 145.28C258.481 144.987 258.688 144.56 258.688 144C258.688 143.44 258.488 143.02 258.088 142.74C257.688 142.447 257.188 142.3 256.588 142.3C256.388 142.3 256.154 142.32 255.888 142.36C255.634 142.4 255.434 142.447 255.288 142.5V145.7ZM267.167 151.2C266.234 151.2 265.441 150.98 264.787 150.54C264.134 150.1 263.634 149.507 263.287 148.76C262.941 148.013 262.767 147.193 262.767 146.3C262.767 145.393 262.941 144.573 263.287 143.84C263.634 143.093 264.134 142.5 264.787 142.06C265.441 141.62 266.234 141.4 267.167 141.4C268.101 141.4 268.894 141.62 269.547 142.06C270.201 142.5 270.701 143.093 271.047 143.84C271.394 144.573 271.567 145.393 271.567 146.3C271.567 147.193 271.394 148.013 271.047 148.76C270.701 149.507 270.201 150.1 269.547 150.54C268.894 150.98 268.101 151.2 267.167 151.2ZM267.167 150.4C267.674 150.4 268.114 150.22 268.487 149.86C268.861 149.487 269.147 148.993 269.347 148.38C269.561 147.753 269.667 147.06 269.667 146.3C269.667 145.527 269.561 144.833 269.347 144.22C269.147 143.607 268.861 143.12 268.487 142.76C268.114 142.387 267.674 142.2 267.167 142.2C266.674 142.2 266.234 142.387 265.847 142.76C265.474 143.12 265.181 143.607 264.967 144.22C264.767 144.833 264.667 145.527 264.667 146.3C264.667 147.06 264.767 147.753 264.967 148.38C265.181 148.993 265.474 149.487 265.847 149.86C266.234 150.22 266.674 150.4 267.167 150.4ZM276.693 151.2C275.799 151.2 275.079 151.047 274.533 150.74C273.986 150.433 273.539 150.053 273.193 149.6L273.593 149.3C273.846 149.553 274.173 149.8 274.573 150.04C274.986 150.28 275.559 150.4 276.293 150.4C277.093 150.4 277.706 150.247 278.133 149.94C278.573 149.633 278.793 149.153 278.793 148.5C278.793 147.873 278.559 147.4 278.093 147.08C277.626 146.76 276.926 146.6 275.993 146.6H275.093V145.8H275.993C276.793 145.8 277.406 145.653 277.833 145.36C278.273 145.053 278.493 144.6 278.493 144C278.493 143.4 278.299 142.953 277.913 142.66C277.526 142.353 277.053 142.2 276.493 142.2C275.773 142.2 275.166 142.387 274.673 142.76C274.193 143.133 273.933 143.647 273.893 144.3H273.493C273.493 143.74 273.513 143.3 273.553 142.98C273.593 142.647 273.739 142.353 273.993 142.1C274.246 141.847 274.613 141.667 275.093 141.56C275.573 141.453 276.139 141.4 276.793 141.4C277.393 141.4 277.966 141.48 278.513 141.64C279.059 141.8 279.506 142.067 279.853 142.44C280.213 142.813 280.393 143.333 280.393 144C280.393 144.6 280.206 145.08 279.833 145.44C279.473 145.8 278.993 146.053 278.393 146.2C279.113 146.347 279.673 146.62 280.073 147.02C280.486 147.407 280.693 147.9 280.693 148.5C280.693 149.193 280.506 149.74 280.133 150.14C279.773 150.527 279.293 150.8 278.693 150.96C278.093 151.12 277.426 151.2 276.693 151.2ZM294.214 151.4C292.961 151.4 292.094 151.093 291.614 150.48C291.148 149.867 290.914 149.04 290.914 148V143.7L287.614 151H287.214L283.814 143.5V151H283.014V141.6H284.914L287.914 148.2L290.914 141.6H292.714V148C292.714 148.493 292.774 148.973 292.894 149.44C293.028 149.893 293.208 150.267 293.434 150.56C293.661 150.853 293.921 151 294.214 151V151.4ZM299.863 151.2C298.929 151.2 298.136 150.98 297.483 150.54C296.829 150.1 296.329 149.507 295.983 148.76C295.636 148.013 295.463 147.193 295.463 146.3C295.463 145.393 295.636 144.573 295.983 143.84C296.329 143.093 296.829 142.5 297.483 142.06C298.136 141.62 298.929 141.4 299.863 141.4C300.796 141.4 301.589 141.62 302.243 142.06C302.896 142.5 303.396 143.093 303.743 143.84C304.089 144.573 304.263 145.393 304.263 146.3C304.263 147.193 304.089 148.013 303.743 148.76C303.396 149.507 302.896 150.1 302.243 150.54C301.589 150.98 300.796 151.2 299.863 151.2ZM299.863 150.4C300.369 150.4 300.809 150.22 301.183 149.86C301.556 149.487 301.843 148.993 302.043 148.38C302.256 147.753 302.363 147.06 302.363 146.3C302.363 145.527 302.256 144.833 302.043 144.22C301.843 143.607 301.556 143.12 301.183 142.76C300.809 142.387 300.369 142.2 299.863 142.2C299.369 142.2 298.929 142.387 298.543 142.76C298.169 143.12 297.876 143.607 297.663 144.22C297.463 144.833 297.363 145.527 297.363 146.3C297.363 147.06 297.463 147.753 297.663 148.38C297.876 148.993 298.169 149.487 298.543 149.86C298.929 150.22 299.369 150.4 299.863 150.4ZM305.625 151.2C305.425 151.2 305.232 151.18 305.045 151.14C304.872 151.1 304.732 151.053 304.625 151V150.62C305.078 150.553 305.485 150.393 305.845 150.14C306.218 149.873 306.578 149.493 306.925 149L309.025 146.1L307.125 143C306.938 142.693 306.672 142.467 306.325 142.32C305.992 142.173 305.625 142.1 305.225 142.1V141.6H305.725C306.378 141.6 306.912 141.713 307.325 141.94C307.738 142.167 308.072 142.487 308.325 142.9L310.425 146.4V141.6H312.225V146.4L314.325 142.9C314.578 142.487 314.912 142.167 315.325 141.94C315.738 141.713 316.272 141.6 316.925 141.6H317.425V142.1C317.025 142.1 316.652 142.173 316.305 142.32C315.972 142.467 315.712 142.693 315.525 143L313.625 146.1L315.725 149C316.072 149.493 316.425 149.873 316.785 150.14C317.158 150.393 317.572 150.553 318.025 150.62V151C317.918 151.053 317.772 151.1 317.585 151.14C317.412 151.18 317.225 151.2 317.025 151.2C316.518 151.2 316.038 151.073 315.585 150.82C315.145 150.567 314.725 150.16 314.325 149.6L312.225 146.7V151H310.425V146.7L308.325 149.6C307.925 150.16 307.498 150.567 307.045 150.82C306.605 151.073 306.132 151.2 305.625 151.2ZM319.896 151V144C319.896 143.4 319.809 142.92 319.636 142.56C319.476 142.187 319.096 142 318.496 142H318.196V141.6H319.896C320.362 141.6 320.722 141.66 320.976 141.78C321.242 141.9 321.429 142.133 321.536 142.48C321.642 142.827 321.696 143.333 321.696 144V145.9H325.696V141.6H327.496V148.6C327.496 149.2 327.576 149.687 327.736 150.06C327.909 150.42 328.296 150.6 328.896 150.6H329.196V151H327.496C327.029 151 326.662 150.94 326.396 150.82C326.142 150.7 325.962 150.467 325.856 150.12C325.749 149.773 325.696 149.267 325.696 148.6V146.7H321.696V151H319.896ZM330.95 151V144C330.95 143.4 330.864 142.92 330.69 142.56C330.53 142.187 330.15 142 329.55 142H329.25V141.6H330.95C331.417 141.6 331.777 141.66 332.03 141.78C332.297 141.9 332.484 142.133 332.59 142.48C332.697 142.827 332.75 143.333 332.75 144V145.4H334.25C334.957 145.4 335.604 145.487 336.19 145.66C336.777 145.82 337.25 146.1 337.61 146.5C337.97 146.9 338.15 147.467 338.15 148.2C338.15 148.92 337.97 149.487 337.61 149.9C337.25 150.3 336.777 150.587 336.19 150.76C335.604 150.92 334.957 151 334.25 151H330.95ZM334.05 150.3C334.704 150.3 335.23 150.14 335.63 149.82C336.044 149.5 336.25 148.96 336.25 148.2C336.25 147.44 336.044 146.9 335.63 146.58C335.23 146.26 334.704 146.1 334.05 146.1C333.85 146.1 333.617 146.12 333.35 146.16C333.097 146.2 332.897 146.247 332.75 146.3V150.1C332.897 150.153 333.097 150.2 333.35 150.24C333.617 150.28 333.85 150.3 334.05 150.3ZM341.25 151C340.784 151 340.417 150.94 340.15 150.82C339.897 150.7 339.717 150.467 339.61 150.12C339.504 149.773 339.45 149.267 339.45 148.6V141.6H341.25V148.6C341.25 149.2 341.33 149.687 341.49 150.06C341.664 150.42 342.05 150.6 342.65 150.6H342.95V151H341.25ZM348.1 151.2C347.167 151.2 346.387 150.98 345.76 150.54C345.147 150.1 344.68 149.507 344.36 148.76C344.053 148.013 343.9 147.193 343.9 146.3C343.9 145.393 344.06 144.573 344.38 143.84C344.7 143.093 345.16 142.5 345.76 142.06C346.36 141.62 347.073 141.4 347.9 141.4C348.807 141.4 349.553 141.573 350.14 141.92C350.74 142.253 351.18 142.747 351.46 143.4C351.753 144.053 351.9 144.853 351.9 145.8L351.86 146.6H345.8C345.8 147.693 346.033 148.6 346.5 149.32C346.98 150.04 347.647 150.4 348.5 150.4C349.153 150.4 349.693 150.26 350.12 149.98C350.56 149.7 350.953 149.307 351.3 148.8L351.7 149.1C351.407 149.607 351.073 150.013 350.7 150.32C350.34 150.627 349.94 150.853 349.5 151C349.073 151.133 348.607 151.2 348.1 151.2ZM345.8 145.8H350C350 144.64 349.827 143.753 349.48 143.14C349.133 142.513 348.607 142.2 347.9 142.2C347.5 142.2 347.14 142.36 346.82 142.68C346.513 142.987 346.267 143.413 346.08 143.96C345.893 144.493 345.8 145.107 345.8 145.8ZM4.72 170V163C4.72 162.4 4.63333 161.92 4.46 161.56C4.3 161.187 3.92 161 3.32 161H3.02V160.6H4.72C5.18667 160.6 5.54667 160.66 5.8 160.78C6.06667 160.9 6.25333 161.133 6.36 161.48C6.46667 161.827 6.52 162.333 6.52 163V164.9H10.52V160.6H12.32V167.6C12.32 168.2 12.4 168.687 12.56 169.06C12.7333 169.42 13.12 169.6 13.72 169.6H14.02V170H12.32C11.8533 170 11.4867 169.94 11.22 169.82C10.9667 169.7 10.7867 169.467 10.68 169.12C10.5733 168.773 10.52 168.267 10.52 167.6V165.7H6.52V170H4.72ZM19.1547 170.2C18.2214 170.2 17.4414 169.98 16.8147 169.54C16.2014 169.1 15.7347 168.507 15.4147 167.76C15.108 167.013 14.9547 166.193 14.9547 165.3C14.9547 164.393 15.1147 163.573 15.4347 162.84C15.7547 162.093 16.2147 161.5 16.8147 161.06C17.4147 160.62 18.128 160.4 18.9547 160.4C19.8614 160.4 20.608 160.573 21.1947 160.92C21.7947 161.253 22.2347 161.747 22.5147 162.4C22.808 163.053 22.9547 163.853 22.9547 164.8L22.9147 165.6H16.8547C16.8547 166.693 17.088 167.6 17.5547 168.32C18.0347 169.04 18.7014 169.4 19.5547 169.4C20.208 169.4 20.748 169.26 21.1747 168.98C21.6147 168.7 22.008 168.307 22.3547 167.8L22.7547 168.1C22.4614 168.607 22.128 169.013 21.7547 169.32C21.3947 169.627 20.9947 169.853 20.5547 170C20.128 170.133 19.6614 170.2 19.1547 170.2ZM16.8547 164.8H21.0547C21.0547 163.64 20.8814 162.753 20.5347 162.14C20.188 161.513 19.6614 161.2 18.9547 161.2C18.5547 161.2 18.1947 161.36 17.8747 161.68C17.568 161.987 17.3214 162.413 17.1347 162.96C16.948 163.493 16.8547 164.107 16.8547 164.8ZM23.9645 173.1V169.9C23.9645 169.7 24.0312 169.533 24.1645 169.4C24.2979 169.267 24.4645 169.2 24.6645 169.2H25.2645C25.5712 168.533 25.8112 167.84 25.9845 167.12C26.1579 166.387 26.2779 165.667 26.3445 164.96C26.4245 164.253 26.4645 163.6 26.4645 163C26.4645 162.4 26.3779 161.92 26.2045 161.56C26.0445 161.187 25.6645 161 25.0645 161V160.6H33.0645V169.2H33.8645C34.0645 169.2 34.2312 169.267 34.3645 169.4C34.4979 169.533 34.5645 169.7 34.5645 169.9V173.1H33.7645C33.6979 172.353 33.5779 171.753 33.4045 171.3C33.2445 170.847 33.0245 170.513 32.7445 170.3C32.4645 170.1 32.1045 170 31.6645 170H26.8645C26.4379 170 26.0779 170.1 25.7845 170.3C25.5045 170.513 25.2845 170.847 25.1245 171.3C24.9645 171.753 24.8445 172.353 24.7645 173.1H23.9645ZM26.6645 169.2H31.2645V161.4H27.7645C27.7645 163.107 27.6779 164.587 27.5045 165.84C27.3445 167.08 27.0645 168.2 26.6645 169.2ZM40.2336 170.2C39.3003 170.2 38.5069 169.98 37.8536 169.54C37.2003 169.1 36.7003 168.507 36.3536 167.76C36.0069 167.013 35.8336 166.193 35.8336 165.3C35.8336 164.393 36.0069 163.573 36.3536 162.84C36.7003 162.093 37.2003 161.5 37.8536 161.06C38.5069 160.62 39.3003 160.4 40.2336 160.4C41.1669 160.4 41.9603 160.62 42.6136 161.06C43.2669 161.5 43.7669 162.093 44.1136 162.84C44.4603 163.573 44.6336 164.393 44.6336 165.3C44.6336 166.193 44.4603 167.013 44.1136 167.76C43.7669 168.507 43.2669 169.1 42.6136 169.54C41.9603 169.98 41.1669 170.2 40.2336 170.2ZM40.2336 169.4C40.7403 169.4 41.1803 169.22 41.5536 168.86C41.9269 168.487 42.2136 167.993 42.4136 167.38C42.6269 166.753 42.7336 166.06 42.7336 165.3C42.7336 164.527 42.6269 163.833 42.4136 163.22C42.2136 162.607 41.9269 162.12 41.5536 161.76C41.1803 161.387 40.7403 161.2 40.2336 161.2C39.7403 161.2 39.3003 161.387 38.9136 161.76C38.5403 162.12 38.2469 162.607 38.0336 163.22C37.8336 163.833 37.7336 164.527 37.7336 165.3C37.7336 166.06 37.8336 166.753 38.0336 167.38C38.2469 167.993 38.5403 168.487 38.9136 168.86C39.3003 169.22 39.7403 169.4 40.2336 169.4ZM52.7638 170V166.14C52.5638 166.22 52.2904 166.3 51.9438 166.38C51.6104 166.46 51.2171 166.5 50.7638 166.5C50.2038 166.5 49.6438 166.427 49.0838 166.28C48.5371 166.133 48.0771 165.853 47.7038 165.44C47.3438 165.013 47.1638 164.4 47.1638 163.6V163C47.1638 162.4 47.0771 161.92 46.9038 161.56C46.7438 161.187 46.3638 161 45.7638 161H45.5638V160.6H47.2638C47.7304 160.6 48.0904 160.66 48.3438 160.78C48.6104 160.9 48.7971 161.133 48.9038 161.48C49.0104 161.827 49.0638 162.333 49.0638 163V163.8C49.0638 164.493 49.2504 164.987 49.6238 165.28C49.9971 165.56 50.4104 165.7 50.8638 165.7C51.2638 165.7 51.6304 165.66 51.9638 165.58C52.2971 165.5 52.5638 165.42 52.7638 165.34V160.6H54.5638V170H52.7638ZM61.1078 170.2C60.1745 170.2 59.3945 169.98 58.7678 169.54C58.1545 169.1 57.6878 168.507 57.3678 167.76C57.0611 167.013 56.9078 166.193 56.9078 165.3C56.9078 164.393 57.0678 163.573 57.3878 162.84C57.7078 162.093 58.1678 161.5 58.7678 161.06C59.3678 160.62 60.0811 160.4 60.9078 160.4C61.8145 160.4 62.5611 160.573 63.1478 160.92C63.7478 161.253 64.1878 161.747 64.4678 162.4C64.7611 163.053 64.9078 163.853 64.9078 164.8L64.8678 165.6H58.8078C58.8078 166.693 59.0411 167.6 59.5078 168.32C59.9878 169.04 60.6545 169.4 61.5078 169.4C62.1611 169.4 62.7011 169.26 63.1278 168.98C63.5678 168.7 63.9611 168.307 64.3078 167.8L64.7078 168.1C64.4145 168.607 64.0811 169.013 63.7078 169.32C63.3478 169.627 62.9478 169.853 62.5078 170C62.0811 170.133 61.6145 170.2 61.1078 170.2ZM58.8078 164.8H63.0078C63.0078 163.64 62.8345 162.753 62.4878 162.14C62.1411 161.513 61.6145 161.2 60.9078 161.2C60.5078 161.2 60.1478 161.36 59.8278 161.68C59.5211 161.987 59.2745 162.413 59.0878 162.96C58.9011 163.493 58.8078 164.107 58.8078 164.8ZM69.8534 170V161.4H68.8534C68.2534 161.4 67.7534 161.573 67.3534 161.92C66.9534 162.253 66.7534 162.747 66.7534 163.4H66.3534V162.2C66.3534 161.8 66.4534 161.433 66.6534 161.1C66.8534 160.767 67.2534 160.6 67.8534 160.6H74.9534V161.4H71.6534V170H69.8534ZM76.9661 170V163C76.9661 162.4 76.8794 161.92 76.7061 161.56C76.5461 161.187 76.1661 161 75.5661 161H75.2661V160.6H76.9661C77.4328 160.6 77.7928 160.66 78.0461 160.78C78.3128 160.9 78.4994 161.133 78.6061 161.48C78.7128 161.827 78.7661 162.333 78.7661 163V164.4H80.2661C80.9728 164.4 81.6194 164.487 82.2061 164.66C82.7928 164.82 83.2661 165.1 83.6261 165.5C83.9861 165.9 84.1661 166.467 84.1661 167.2C84.1661 167.92 83.9861 168.487 83.6261 168.9C83.2661 169.3 82.7928 169.587 82.2061 169.76C81.6194 169.92 80.9728 170 80.2661 170H76.9661ZM80.0661 169.3C80.7194 169.3 81.2461 169.14 81.6461 168.82C82.0594 168.5 82.2661 167.96 82.2661 167.2C82.2661 166.44 82.0594 165.9 81.6461 165.58C81.2461 165.26 80.7194 165.1 80.0661 165.1C79.8661 165.1 79.6328 165.12 79.3661 165.16C79.1128 165.2 78.9128 165.247 78.7661 165.3V169.1C78.9128 169.153 79.1128 169.2 79.3661 169.24C79.6328 169.28 79.8661 169.3 80.0661 169.3ZM87.2661 170C86.7994 170 86.4328 169.94 86.1661 169.82C85.9128 169.7 85.7328 169.467 85.6261 169.12C85.5194 168.773 85.4661 168.267 85.4661 167.6V160.6H87.2661V167.6C87.2661 168.2 87.3461 168.687 87.5061 169.06C87.6794 169.42 88.0661 169.6 88.6661 169.6H88.9661V170H87.2661ZM91.2156 170.28C90.9223 170.28 90.669 170.173 90.4556 169.96C90.2423 169.747 90.1356 169.487 90.1356 169.18C90.1356 168.887 90.2423 168.633 90.4556 168.42C90.669 168.207 90.9223 168.1 91.2156 168.1C91.5223 168.1 91.7756 168.207 91.9756 168.42C92.189 168.633 92.2956 168.887 92.2956 169.18C92.2956 169.487 92.189 169.747 91.9756 169.96C91.7623 170.173 91.509 170.28 91.2156 170.28Z" fill="#C0C0C0"/>
<defs>
<filter id="filter1_f_93_138" x="-89" y="19" width="203" height="203" filterUnits="userSpaceOnUse" color-interpolation-filters="sRGB">
<feFlood flood-opacity="0" result="BackgroundImageFix"/>
<feBlend mode="normal" in="SourceGraphic" in2="BackgroundImageFix" result="shape"/>
<feGaussianBlur stdDeviation="30" result="effect1_foregroundBlur_93_138"/>
</filter>
<filter id="filter2_d_93_138" x="125.014" y="24.7002" width="224.978" height="48.8999" filterUnits="userSpaceOnUse" color-interpolation-filters="sRGB">
<feFlood flood-opacity="0" result="BackgroundImageFix"/>
<feColorMatrix in="SourceAlpha" type="matrix" values="0 0 0 0 0 0 0 0 0 0 0 0 0 0 0 0 0 0 127 0" result="hardAlpha"/>
<feOffset/>
<feGaussianBlur stdDeviation="2"/>
<feComposite in2="hardAlpha" operator="out"/>
<feColorMatrix type="matrix" values="0 0 0 0 0 0 0 0 0 0 0 0 0 0 0 0 0 0 0.7 0"/>
<feBlend mode="normal" in2="BackgroundImageFix" result="effect1_dropShadow_93_138"/>
<feBlend mode="normal" in="SourceGraphic" in2="effect1_dropShadow_93_138" result="shape"/>
</filter>
<linearGradient id="paint0_linear_93_138" x1="54.089" y1="39.5625" x2="41.6455" y2="63.4567" gradientUnits="userSpaceOnUse">
<stop stop-color="#FF7929"/>
<stop offset="1" stop-color="#FBB03B"/>
</linearGradient>
<linearGradient id="paint1_linear_93_138" x1="62.5206" y1="27.88" x2="32.8475" y2="84.8589" gradientUnits="userSpaceOnUse">
<stop stop-color="#FF7929"/>
<stop offset="1" stop-color="#FBB03B"/>
</linearGradient>
<clipPath id="clip0_93_138">
<rect width="96" height="96" rx="18" fill="white"/>
</clipPath>
<clipPath id="clip1_93_138">
<rect width="62" height="62" fill="white" transform="translate(17 17)"/>
</clipPath>
</defs>
</svg>
