<svg width="821" height="184" viewBox="0 0 821 184" fill="none" xmlns="http://www.w3.org/2000/svg">
<rect width="821" height="184" rx="15" fill="white" fill-opacity="0.05"/>
<g clip-path="url(#clip0_66_1594)">
<path d="M84.9211 94H48.0789C44.1653 94 41 90.8225 41 86.9211V50.0789C41 46.1653 44.1653 43 48.0789 43H84.9211C88.8347 43 92 46.1653 92 50.0789V86.9211C92 90.8225 88.8225 94 84.9211 94Z" fill="#F35D2E"/>
<path d="M79.3393 56.4215C80.1 56.6669 80.3208 57.6238 79.7565 58.1882C72.8003 65.083 67.7211 73.5974 64.2491 81.1793C64.0896 81.5228 63.7584 81.7681 63.3781 81.8049C62.2984 81.9154 61.1943 82.1362 60.1269 82.4429C59.5626 82.6024 58.9737 82.2834 58.8019 81.7191C57.5383 77.695 54.5448 74.4929 51.1955 71.8184C50.852 71.5485 50.7784 71.021 51.0851 70.702C51.7966 69.9536 52.545 69.3647 53.2689 68.8985C55.2195 67.6226 57.8205 68.0643 59.2559 69.9045C60.1637 71.0823 60.9612 72.346 61.6482 73.5115C67.2058 64.9358 73.5854 59.2187 78.0143 56.581C78.4315 56.3234 78.9099 56.2865 79.3393 56.4215Z" fill="white"/>
</g>
<path d="M144.276 69.62C142.548 69.62 141.192 69.344 140.208 68.792C139.248 68.264 138.576 67.436 138.192 66.308C137.808 65.156 137.616 63.68 137.616 61.88V48.02L128.616 68H127.896L118.536 47.66V68H117.096V44.24H120.516L129.156 62.96L137.616 44.24H140.856V61.88C140.856 64.064 141.132 65.78 141.684 67.028C142.236 68.276 143.1 68.9 144.276 68.9V69.62ZM147.893 68V55.4C147.893 54.32 147.737 53.456 147.425 52.808C147.137 52.136 146.453 51.8 145.373 51.8H144.833V51.08H147.893C148.733 51.08 149.381 51.188 149.837 51.404C150.317 51.62 150.653 52.04 150.845 52.664C151.037 53.288 151.133 54.2 151.133 55.4V57.92H153.833C155.105 57.92 156.269 58.076 157.325 58.388C158.381 58.676 159.233 59.18 159.881 59.9C160.529 60.62 160.853 61.64 160.853 62.96C160.853 64.256 160.529 65.276 159.881 66.02C159.233 66.74 158.381 67.256 157.325 67.568C156.269 67.856 155.105 68 153.833 68H147.893ZM153.473 66.74C154.649 66.74 155.597 66.452 156.317 65.876C157.061 65.3 157.433 64.328 157.433 62.96C157.433 61.592 157.061 60.62 156.317 60.044C155.597 59.468 154.649 59.18 153.473 59.18C153.113 59.18 152.693 59.216 152.213 59.288C151.757 59.36 151.397 59.444 151.133 59.54V66.38C151.397 66.476 151.757 66.56 152.213 66.632C152.693 66.704 153.113 66.74 153.473 66.74ZM166.433 68C165.593 68 164.933 67.892 164.453 67.676C163.997 67.46 163.673 67.04 163.481 66.416C163.289 65.792 163.193 64.88 163.193 63.68V51.08H166.433V63.68C166.433 64.76 166.577 65.636 166.865 66.308C167.177 66.956 167.873 67.28 168.953 67.28H169.493V68H166.433ZM181.714 74.84V55.4C181.714 54.32 181.558 53.456 181.246 52.808C180.958 52.136 180.274 51.8 179.194 51.8H178.474V51.08H181.714C182.626 51.08 183.31 51.212 183.766 51.476C184.246 51.74 184.582 52.148 184.774 52.7C185.254 52.22 185.902 51.776 186.718 51.368C187.534 50.936 188.566 50.72 189.814 50.72C191.254 50.72 192.454 51.116 193.414 51.908C194.374 52.7 195.094 53.768 195.574 55.112C196.054 56.432 196.294 57.908 196.294 59.54C196.294 61.148 196.042 62.624 195.538 63.968C195.058 65.312 194.314 66.38 193.306 67.172C192.298 67.964 191.014 68.36 189.454 68.36C188.446 68.36 187.582 68.24 186.862 68C186.142 67.784 185.506 67.544 184.954 67.28V74.84H181.714ZM188.374 66.92C189.454 66.92 190.318 66.596 190.966 65.948C191.638 65.276 192.118 64.388 192.406 63.284C192.718 62.156 192.874 60.908 192.874 59.54C192.874 58.148 192.73 56.9 192.442 55.796C192.154 54.692 191.698 53.816 191.074 53.168C190.474 52.496 189.694 52.16 188.734 52.16C187.75 52.16 186.958 52.388 186.358 52.844C185.758 53.276 185.29 53.768 184.954 54.32V65.84C185.506 66.104 186.07 66.356 186.646 66.596C187.246 66.812 187.822 66.92 188.374 66.92ZM204.577 68.36C204.073 68.36 203.521 68.276 202.921 68.108C202.345 67.964 201.781 67.7 201.229 67.316C200.677 66.932 200.221 66.416 199.861 65.768C199.525 65.12 199.357 64.304 199.357 63.32C199.357 62 199.777 60.98 200.617 60.26C201.481 59.54 202.609 59.036 204.001 58.748C205.417 58.436 206.929 58.28 208.537 58.28H209.617C209.617 56.6 209.449 55.328 209.113 54.464C208.777 53.576 208.321 52.976 207.745 52.664C207.193 52.328 206.557 52.16 205.837 52.16C204.829 52.16 203.977 52.376 203.281 52.808C202.609 53.24 202.141 54.044 201.877 55.22H200.257C200.257 54.596 200.293 54.02 200.365 53.492C200.437 52.94 200.701 52.436 201.157 51.98C201.613 51.524 202.357 51.2 203.389 51.008C204.421 50.816 205.477 50.72 206.557 50.72C207.373 50.72 208.153 50.816 208.897 51.008C209.665 51.2 210.337 51.56 210.913 52.088C211.513 52.592 211.981 53.348 212.317 54.356C212.677 55.34 212.857 56.648 212.857 58.28V68H211.057L209.797 66.38H209.617C209.257 66.836 208.669 67.28 207.853 67.712C207.037 68.144 205.945 68.36 204.577 68.36ZM206.197 66.74C207.085 66.74 207.781 66.524 208.285 66.092C208.813 65.636 209.257 65.132 209.617 64.58V59.72H208.537C206.737 59.72 205.321 60.056 204.289 60.728C203.281 61.376 202.777 62.24 202.777 63.32C202.777 64.496 203.125 65.36 203.821 65.912C204.517 66.464 205.309 66.74 206.197 66.74ZM225.005 68.36C223.565 68.36 222.269 68.072 221.117 67.496C219.989 66.896 219.089 65.96 218.417 64.688C217.769 63.416 217.445 61.76 217.445 59.72V58.28C217.445 56.072 217.541 54.248 217.733 52.808C217.925 51.368 218.225 50.216 218.633 49.352C219.041 48.488 219.581 47.84 220.253 47.408C220.925 46.952 221.729 46.616 222.665 46.4L228.065 45.14C228.881 44.948 229.505 44.744 229.937 44.528C230.393 44.312 230.669 43.976 230.765 43.52H231.485V45.86C231.485 46.316 231.389 46.676 231.197 46.94C231.029 47.204 230.765 47.384 230.405 47.48L224.105 48.92C223.073 49.184 222.209 49.58 221.513 50.108C220.817 50.636 220.265 51.452 219.857 52.556C219.473 53.66 219.209 55.208 219.065 57.2H219.245C219.701 55.4 220.445 54.116 221.477 53.348C222.509 52.556 223.925 52.16 225.725 52.16C226.925 52.16 228.041 52.448 229.073 53.024C230.129 53.6 230.969 54.488 231.593 55.688C232.241 56.864 232.565 58.388 232.565 60.26C232.565 62.108 232.229 63.632 231.557 64.832C230.909 66.032 230.009 66.92 228.857 67.496C227.729 68.072 226.445 68.36 225.005 68.36ZM225.005 66.92C225.725 66.92 226.397 66.728 227.021 66.344C227.645 65.96 228.149 65.288 228.533 64.328C228.941 63.344 229.145 61.988 229.145 60.26C229.145 58.58 228.941 57.26 228.533 56.3C228.149 55.316 227.645 54.62 227.021 54.212C226.397 53.804 225.725 53.6 225.005 53.6C224.285 53.6 223.613 53.804 222.989 54.212C222.365 54.62 221.849 55.316 221.441 56.3C221.057 57.26 220.865 58.58 220.865 60.26C220.865 61.988 221.057 63.344 221.441 64.328C221.849 65.288 222.365 65.96 222.989 66.344C223.613 66.728 224.285 66.92 225.005 66.92ZM243.845 68.36C242.165 68.36 240.737 67.964 239.561 67.172C238.385 66.38 237.485 65.312 236.861 63.968C236.237 62.624 235.925 61.148 235.925 59.54C235.925 57.908 236.237 56.432 236.861 55.112C237.485 53.768 238.385 52.7 239.561 51.908C240.737 51.116 242.165 50.72 243.845 50.72C245.525 50.72 246.953 51.116 248.129 51.908C249.305 52.7 250.205 53.768 250.829 55.112C251.453 56.432 251.765 57.908 251.765 59.54C251.765 61.148 251.453 62.624 250.829 63.968C250.205 65.312 249.305 66.38 248.129 67.172C246.953 67.964 245.525 68.36 243.845 68.36ZM243.845 66.92C244.757 66.92 245.549 66.596 246.221 65.948C246.893 65.276 247.409 64.388 247.769 63.284C248.153 62.156 248.345 60.908 248.345 59.54C248.345 58.148 248.153 56.9 247.769 55.796C247.409 54.692 246.893 53.816 246.221 53.168C245.549 52.496 244.757 52.16 243.845 52.16C242.957 52.16 242.165 52.496 241.469 53.168C240.797 53.816 240.269 54.692 239.885 55.796C239.525 56.9 239.345 58.148 239.345 59.54C239.345 60.908 239.525 62.156 239.885 63.284C240.269 64.388 240.797 65.276 241.469 65.948C242.165 66.596 242.957 66.92 243.845 66.92ZM260.739 68V52.52H258.939C257.859 52.52 256.959 52.832 256.239 53.456C255.519 54.056 255.159 54.944 255.159 56.12H254.439V53.96C254.439 53.24 254.619 52.58 254.979 51.98C255.339 51.38 256.059 51.08 257.139 51.08H269.919V52.52H263.979V68H260.739ZM277.069 68.36C276.565 68.36 276.013 68.276 275.413 68.108C274.837 67.964 274.273 67.7 273.721 67.316C273.169 66.932 272.713 66.416 272.353 65.768C272.017 65.12 271.849 64.304 271.849 63.32C271.849 62 272.269 60.98 273.109 60.26C273.973 59.54 275.101 59.036 276.493 58.748C277.909 58.436 279.421 58.28 281.029 58.28H282.109C282.109 56.6 281.941 55.328 281.605 54.464C281.269 53.576 280.813 52.976 280.237 52.664C279.685 52.328 279.049 52.16 278.329 52.16C277.321 52.16 276.469 52.376 275.773 52.808C275.101 53.24 274.633 54.044 274.369 55.22H272.749C272.749 54.596 272.785 54.02 272.857 53.492C272.929 52.94 273.193 52.436 273.649 51.98C274.105 51.524 274.849 51.2 275.881 51.008C276.913 50.816 277.969 50.72 279.049 50.72C279.865 50.72 280.645 50.816 281.389 51.008C282.157 51.2 282.829 51.56 283.405 52.088C284.005 52.592 284.473 53.348 284.809 54.356C285.169 55.34 285.349 56.648 285.349 58.28V68H283.549L282.289 66.38H282.109C281.749 66.836 281.161 67.28 280.345 67.712C279.529 68.144 278.437 68.36 277.069 68.36ZM278.689 66.74C279.577 66.74 280.273 66.524 280.777 66.092C281.305 65.636 281.749 65.132 282.109 64.58V59.72H281.029C279.229 59.72 277.813 60.056 276.781 60.728C275.773 61.376 275.269 62.24 275.269 63.32C275.269 64.496 275.617 65.36 276.313 65.912C277.009 66.464 277.801 66.74 278.689 66.74ZM296.957 68.36C295.277 68.36 293.873 67.964 292.745 67.172C291.641 66.38 290.801 65.312 290.225 63.968C289.673 62.624 289.397 61.148 289.397 59.54C289.397 57.908 289.685 56.432 290.261 55.112C290.837 53.768 291.665 52.7 292.745 51.908C293.825 51.116 295.109 50.72 296.597 50.72C298.229 50.72 299.573 51.032 300.629 51.656C301.709 52.256 302.501 53.144 303.005 54.32C303.533 55.496 303.797 56.936 303.797 58.64L303.725 60.08H292.817C292.817 62.048 293.237 63.68 294.077 64.976C294.941 66.272 296.141 66.92 297.677 66.92C298.853 66.92 299.825 66.668 300.593 66.164C301.385 65.66 302.093 64.952 302.717 64.04L303.437 64.58C302.909 65.492 302.309 66.224 301.637 66.776C300.989 67.328 300.269 67.736 299.477 68C298.709 68.24 297.869 68.36 296.957 68.36ZM292.817 58.64H300.377C300.377 56.552 300.065 54.956 299.441 53.852C298.817 52.724 297.869 52.16 296.597 52.16C295.877 52.16 295.229 52.448 294.653 53.024C294.101 53.576 293.657 54.344 293.321 55.328C292.985 56.288 292.817 57.392 292.817 58.64ZM328.107 68.72C325.851 68.72 324.291 68.168 323.427 67.064C322.587 65.96 322.167 64.472 322.167 62.6V54.86L316.227 68H315.507L309.387 54.5V68H307.947V51.08H311.367L316.767 62.96L322.167 51.08H325.407V62.6C325.407 63.488 325.515 64.352 325.731 65.192C325.971 66.008 326.295 66.68 326.703 67.208C327.111 67.736 327.579 68 328.107 68V68.72ZM347.274 68.36C345.594 68.36 344.166 67.964 342.99 67.172C341.814 66.38 340.914 65.312 340.29 63.968C339.666 62.624 339.354 61.148 339.354 59.54C339.354 57.908 339.666 56.432 340.29 55.112C340.914 53.768 341.814 52.7 342.99 51.908C344.166 51.116 345.594 50.72 347.274 50.72C348.954 50.72 350.382 51.116 351.558 51.908C352.734 52.7 353.634 53.768 354.258 55.112C354.882 56.432 355.194 57.908 355.194 59.54C355.194 61.148 354.882 62.624 354.258 63.968C353.634 65.312 352.734 66.38 351.558 67.172C350.382 67.964 348.954 68.36 347.274 68.36ZM347.274 66.92C348.186 66.92 348.978 66.596 349.65 65.948C350.322 65.276 350.838 64.388 351.198 63.284C351.582 62.156 351.774 60.908 351.774 59.54C351.774 58.148 351.582 56.9 351.198 55.796C350.838 54.692 350.322 53.816 349.65 53.168C348.978 52.496 348.186 52.16 347.274 52.16C346.386 52.16 345.594 52.496 344.898 53.168C344.226 53.816 343.698 54.692 343.314 55.796C342.954 56.9 342.774 58.148 342.774 59.54C342.774 60.908 342.954 62.156 343.314 63.284C343.698 64.388 344.226 65.276 344.898 65.948C345.594 66.596 346.386 66.92 347.274 66.92ZM367.12 74.84V68.36C365.2 68.312 363.592 67.892 362.296 67.1C361.024 66.308 360.064 65.252 359.416 63.932C358.792 62.612 358.48 61.148 358.48 59.54C358.48 57.908 358.792 56.444 359.416 55.148C360.064 53.828 361.024 52.772 362.296 51.98C363.592 51.188 365.2 50.768 367.12 50.72V48.56C367.12 47.48 366.964 46.616 366.652 45.968C366.364 45.296 365.68 44.96 364.6 44.96H364.06V44.24H367.12C367.96 44.24 368.608 44.348 369.064 44.564C369.544 44.78 369.88 45.2 370.072 45.824C370.264 46.448 370.36 47.36 370.36 48.56V50.72C372.28 50.768 373.876 51.188 375.148 51.98C376.444 52.772 377.404 53.828 378.028 55.148C378.676 56.444 379 57.908 379 59.54C379 61.148 378.676 62.612 378.028 63.932C377.404 65.252 376.444 66.308 375.148 67.1C373.876 67.892 372.28 68.312 370.36 68.36V74.84H367.12ZM367.156 67.1V51.98C365.956 52.1 364.96 52.484 364.168 53.132C363.4 53.78 362.824 54.644 362.44 55.724C362.08 56.804 361.9 58.076 361.9 59.54C361.9 60.98 362.08 62.252 362.44 63.356C362.824 64.436 363.4 65.3 364.168 65.948C364.96 66.572 365.956 66.956 367.156 67.1ZM370.324 67.1C371.548 66.956 372.544 66.572 373.312 65.948C374.08 65.3 374.644 64.436 375.004 63.356C375.388 62.252 375.58 60.98 375.58 59.54C375.58 58.076 375.388 56.804 375.004 55.724C374.644 54.644 374.08 53.78 373.312 53.132C372.544 52.484 371.548 52.1 370.324 51.98V67.1ZM383.756 68V55.4C383.756 54.32 383.6 53.456 383.288 52.808C383 52.136 382.316 51.8 381.236 51.8H380.696V51.08H383.756C384.596 51.08 385.244 51.188 385.7 51.404C386.18 51.62 386.516 52.04 386.708 52.664C386.9 53.288 386.996 54.2 386.996 55.4V64.76L394.556 51.08H397.796V68H394.556V54.32L386.996 68H383.756ZM418.419 73.58C418.299 72.236 418.083 71.156 417.771 70.34C417.483 69.524 417.087 68.924 416.583 68.54C416.079 68.18 415.431 68 414.639 68H403.479V55.4C403.479 54.32 403.323 53.456 403.011 52.808C402.723 52.136 402.039 51.8 400.959 51.8H400.419V51.08H403.479C404.319 51.08 404.967 51.188 405.423 51.404C405.903 51.62 406.239 52.04 406.431 52.664C406.623 53.288 406.719 54.2 406.719 55.4V66.56H413.919V51.08H417.159V66.56H418.599C418.959 66.56 419.259 66.68 419.499 66.92C419.739 67.16 419.859 67.46 419.859 67.82V73.58H418.419ZM423.834 68V55.4C423.834 54.32 423.678 53.456 423.366 52.808C423.078 52.136 422.394 51.8 421.314 51.8H420.774V51.08H423.834C424.674 51.08 425.322 51.188 425.778 51.404C426.258 51.62 426.594 52.04 426.786 52.664C426.978 53.288 427.074 54.2 427.074 55.4V64.76L434.634 51.08H437.874V68H434.634V54.32L427.074 68H423.834ZM447.085 68.36C446.581 68.36 446.029 68.276 445.429 68.108C444.853 67.964 444.289 67.7 443.737 67.316C443.185 66.932 442.729 66.416 442.369 65.768C442.033 65.12 441.865 64.304 441.865 63.32C441.865 62 442.285 60.98 443.125 60.26C443.989 59.54 445.117 59.036 446.509 58.748C447.925 58.436 449.437 58.28 451.045 58.28H452.125C452.125 56.6 451.957 55.328 451.621 54.464C451.285 53.576 450.829 52.976 450.253 52.664C449.701 52.328 449.065 52.16 448.345 52.16C447.337 52.16 446.485 52.376 445.789 52.808C445.117 53.24 444.649 54.044 444.385 55.22H442.765C442.765 54.596 442.801 54.02 442.873 53.492C442.945 52.94 443.209 52.436 443.665 51.98C444.121 51.524 444.865 51.2 445.897 51.008C446.929 50.816 447.985 50.72 449.065 50.72C449.881 50.72 450.661 50.816 451.405 51.008C452.173 51.2 452.845 51.56 453.421 52.088C454.021 52.592 454.489 53.348 454.825 54.356C455.185 55.34 455.365 56.648 455.365 58.28V68H453.565L452.305 66.38H452.125C451.765 66.836 451.177 67.28 450.361 67.712C449.545 68.144 448.453 68.36 447.085 68.36ZM448.705 66.74C449.593 66.74 450.289 66.524 450.793 66.092C451.321 65.636 451.765 65.132 452.125 64.58V59.72H451.045C449.245 59.72 447.829 60.056 446.797 60.728C445.789 61.376 445.285 62.24 445.285 63.32C445.285 64.496 445.633 65.36 446.329 65.912C447.025 66.464 447.817 66.74 448.705 66.74ZM459.881 68.36C459.689 68.36 459.389 68.324 458.981 68.252C458.597 68.18 458.309 68.108 458.117 68.036V67.136C458.693 67.136 459.257 66.992 459.809 66.704C460.385 66.392 460.889 65.828 461.321 65.012C461.777 64.172 462.137 62.984 462.401 61.448C462.665 59.888 462.797 57.872 462.797 55.4C462.797 54.32 462.641 53.456 462.329 52.808C462.041 52.136 461.345 51.8 460.241 51.8V51.08H474.857V68H471.617V52.52H465.281V55.4C465.281 58.088 465.125 60.284 464.813 61.988C464.525 63.692 464.117 65.012 463.589 65.948C463.085 66.86 462.509 67.496 461.861 67.856C461.213 68.192 460.553 68.36 459.881 68.36ZM480.541 68V55.4C480.541 54.32 480.385 53.456 480.073 52.808C479.785 52.136 479.101 51.8 478.021 51.8H477.481V51.08H480.541C481.381 51.08 482.029 51.188 482.485 51.404C482.965 51.62 483.301 52.04 483.493 52.664C483.685 53.288 483.781 54.2 483.781 55.4V57.92H486.481C487.873 57.92 489.121 58.076 490.225 58.388C491.329 58.676 492.205 59.18 492.853 59.9C493.525 60.62 493.861 61.64 493.861 62.96C493.861 64.256 493.525 65.276 492.853 66.02C492.205 66.74 491.329 67.256 490.225 67.568C489.121 67.856 487.873 68 486.481 68H480.541ZM486.121 66.74C487.489 66.74 488.545 66.452 489.289 65.876C490.057 65.3 490.441 64.328 490.441 62.96C490.441 61.592 490.057 60.62 489.289 60.044C488.545 59.468 487.489 59.18 486.121 59.18C485.761 59.18 485.341 59.216 484.861 59.288C484.405 59.36 484.045 59.444 483.781 59.54V66.38C484.045 66.476 484.405 66.56 484.861 66.632C485.341 66.704 485.761 66.74 486.121 66.74ZM498.014 68V55.4C498.014 54.32 497.858 53.456 497.546 52.808C497.258 52.136 496.574 51.8 495.494 51.8H494.954V51.08H498.014C498.854 51.08 499.502 51.188 499.958 51.404C500.438 51.62 500.774 52.04 500.966 52.664C501.158 53.288 501.254 54.2 501.254 55.4V58.82H508.454V51.08H511.694V63.68C511.694 64.76 511.838 65.636 512.126 66.308C512.438 66.956 513.134 67.28 514.214 67.28H514.754V68H511.694C510.854 68 510.194 67.892 509.714 67.676C509.258 67.46 508.934 67.04 508.742 66.416C508.55 65.792 508.454 64.88 508.454 63.68V60.26H501.254V68H498.014ZM524.356 68.36C522.676 68.36 521.248 67.964 520.072 67.172C518.896 66.38 517.996 65.312 517.372 63.968C516.748 62.624 516.436 61.148 516.436 59.54C516.436 57.908 516.748 56.432 517.372 55.112C517.996 53.768 518.896 52.7 520.072 51.908C521.248 51.116 522.676 50.72 524.356 50.72C526.036 50.72 527.464 51.116 528.64 51.908C529.816 52.7 530.716 53.768 531.34 55.112C531.964 56.432 532.276 57.908 532.276 59.54C532.276 61.148 531.964 62.624 531.34 63.968C530.716 65.312 529.816 66.38 528.64 67.172C527.464 67.964 526.036 68.36 524.356 68.36ZM524.356 66.92C525.268 66.92 526.06 66.596 526.732 65.948C527.404 65.276 527.92 64.388 528.28 63.284C528.664 62.156 528.856 60.908 528.856 59.54C528.856 58.148 528.664 56.9 528.28 55.796C527.92 54.692 527.404 53.816 526.732 53.168C526.06 52.496 525.268 52.16 524.356 52.16C523.468 52.16 522.676 52.496 521.98 53.168C521.308 53.816 520.78 54.692 520.396 55.796C520.036 56.9 519.856 58.148 519.856 59.54C519.856 60.908 520.036 62.156 520.396 63.284C520.78 64.388 521.308 65.276 521.98 65.948C522.676 66.596 523.468 66.92 524.356 66.92ZM537.074 62.42L536.426 44.24H539.81L539.162 62.42H537.074ZM538.118 68.504C537.59 68.504 537.134 68.312 536.75 67.928C536.366 67.544 536.174 67.076 536.174 66.524C536.174 65.996 536.366 65.552 536.75 65.192C537.134 64.808 537.59 64.616 538.118 64.616C538.646 64.616 539.102 64.808 539.486 65.192C539.87 65.552 540.062 65.996 540.062 66.524C540.062 67.076 539.87 67.544 539.486 67.928C539.102 68.312 538.646 68.504 538.118 68.504Z" fill="#FBB03B"/>
<path d="M118.752 101.36V100.28C119.472 100.28 120.192 100.208 120.912 100.064C121.632 99.896 122.28 99.62 122.856 99.236C123.432 98.852 123.864 98.3 124.152 97.58L124.512 96.68L117.852 81.92C117.564 81.248 117.252 80.624 116.916 80.048C116.58 79.472 116.112 78.992 115.512 78.608C114.912 78.224 114.072 78.008 112.992 77.96V77.24H117.312C118.08 77.24 118.728 77.432 119.256 77.816C119.808 78.2 120.264 78.692 120.624 79.292C121.008 79.892 121.344 80.528 121.632 81.2L126.492 92L132.972 77.24H135.132L126.276 97.58C125.772 98.756 125.052 99.68 124.116 100.352C123.18 101.024 121.992 101.36 120.552 101.36H118.752ZM147.963 101V88.4C147.963 87.32 147.807 86.456 147.495 85.808C147.207 85.136 146.523 84.8 145.443 84.8H144.903V84.08H147.963C148.803 84.08 149.451 84.188 149.907 84.404C150.387 84.62 150.723 85.04 150.915 85.664C151.107 86.288 151.203 87.2 151.203 88.4V91.82H158.403V84.08H161.643V96.68C161.643 97.76 161.787 98.636 162.075 99.308C162.387 99.956 163.083 100.28 164.163 100.28H164.703V101H161.643C160.803 101 160.143 100.892 159.663 100.676C159.207 100.46 158.883 100.04 158.691 99.416C158.499 98.792 158.403 97.88 158.403 96.68V93.26H151.203V101H147.963ZM171.39 101.36C170.886 101.36 170.334 101.276 169.734 101.108C169.158 100.964 168.594 100.7 168.042 100.316C167.49 99.932 167.034 99.416 166.674 98.768C166.338 98.12 166.17 97.304 166.17 96.32C166.17 95 166.59 93.98 167.43 93.26C168.294 92.54 169.422 92.036 170.814 91.748C172.23 91.436 173.742 91.28 175.35 91.28H176.43C176.43 89.6 176.262 88.328 175.926 87.464C175.59 86.576 175.134 85.976 174.558 85.664C174.006 85.328 173.37 85.16 172.65 85.16C171.642 85.16 170.79 85.376 170.094 85.808C169.422 86.24 168.954 87.044 168.69 88.22H167.07C167.07 87.596 167.106 87.02 167.178 86.492C167.25 85.94 167.514 85.436 167.97 84.98C168.426 84.524 169.17 84.2 170.202 84.008C171.234 83.816 172.29 83.72 173.37 83.72C174.186 83.72 174.966 83.816 175.71 84.008C176.478 84.2 177.15 84.56 177.726 85.088C178.326 85.592 178.794 86.348 179.13 87.356C179.49 88.34 179.67 89.648 179.67 91.28V101H177.87L176.61 99.38H176.43C176.07 99.836 175.482 100.28 174.666 100.712C173.85 101.144 172.758 101.36 171.39 101.36ZM173.01 99.74C173.898 99.74 174.594 99.524 175.098 99.092C175.626 98.636 176.07 98.132 176.43 97.58V92.72H175.35C173.55 92.72 172.134 93.056 171.102 93.728C170.094 94.376 169.59 95.24 169.59 96.32C169.59 97.496 169.938 98.36 170.634 98.912C171.33 99.464 172.122 99.74 173.01 99.74ZM191.638 101.36C189.862 101.36 188.386 100.964 187.21 100.172C186.034 99.38 185.158 98.312 184.582 96.968C184.006 95.624 183.718 94.148 183.718 92.54C183.718 90.908 184.006 89.432 184.582 88.112C185.158 86.768 186.034 85.7 187.21 84.908C188.386 84.116 189.862 83.72 191.638 83.72C192.91 83.72 193.978 83.816 194.842 84.008C195.73 84.2 196.402 84.524 196.858 84.98C197.314 85.436 197.578 86 197.65 86.672C197.722 87.32 197.758 88.316 197.758 89.66H197.038C196.942 88.124 196.45 86.996 195.562 86.276C194.698 85.532 193.63 85.16 192.358 85.16C191.158 85.16 190.174 85.496 189.406 86.168C188.638 86.816 188.062 87.692 187.678 88.796C187.318 89.9 187.138 91.148 187.138 92.54C187.138 93.908 187.318 95.156 187.678 96.284C188.062 97.388 188.638 98.276 189.406 98.948C190.174 99.596 191.158 99.92 192.358 99.92C193.63 99.92 194.662 99.668 195.454 99.164C196.246 98.66 196.954 97.952 197.578 97.04L198.298 97.58C197.77 98.492 197.17 99.224 196.498 99.776C195.826 100.328 195.082 100.736 194.266 101C193.474 101.24 192.598 101.36 191.638 101.36ZM217.68 101.36C216 101.36 214.596 100.964 213.468 100.172C212.364 99.38 211.524 98.312 210.948 96.968C210.396 95.624 210.12 94.148 210.12 92.54C210.12 90.908 210.408 89.432 210.984 88.112C211.56 86.768 212.388 85.7 213.468 84.908C214.548 84.116 215.832 83.72 217.32 83.72C218.952 83.72 220.296 84.032 221.352 84.656C222.432 85.256 223.224 86.144 223.728 87.32C224.256 88.496 224.52 89.936 224.52 91.64L224.448 93.08H213.54C213.54 95.048 213.96 96.68 214.8 97.976C215.664 99.272 216.864 99.92 218.4 99.92C219.576 99.92 220.548 99.668 221.316 99.164C222.108 98.66 222.816 97.952 223.44 97.04L224.16 97.58C223.632 98.492 223.032 99.224 222.36 99.776C221.712 100.328 220.992 100.736 220.2 101C219.432 101.24 218.592 101.36 217.68 101.36ZM213.54 91.64H221.1C221.1 89.552 220.788 87.956 220.164 86.852C219.54 85.724 218.592 85.16 217.32 85.16C216.6 85.16 215.952 85.448 215.376 86.024C214.824 86.576 214.38 87.344 214.044 88.328C213.708 89.288 213.54 90.392 213.54 91.64ZM235.618 101.36C233.842 101.36 232.366 100.964 231.19 100.172C230.014 99.38 229.138 98.312 228.562 96.968C227.986 95.624 227.698 94.148 227.698 92.54C227.698 90.908 227.986 89.432 228.562 88.112C229.138 86.768 230.014 85.7 231.19 84.908C232.366 84.116 233.842 83.72 235.618 83.72C236.89 83.72 237.958 83.816 238.822 84.008C239.71 84.2 240.382 84.524 240.838 84.98C241.294 85.436 241.558 86 241.63 86.672C241.702 87.32 241.738 88.316 241.738 89.66H241.018C240.922 88.124 240.43 86.996 239.542 86.276C238.678 85.532 237.61 85.16 236.338 85.16C235.138 85.16 234.154 85.496 233.386 86.168C232.618 86.816 232.042 87.692 231.658 88.796C231.298 89.9 231.118 91.148 231.118 92.54C231.118 93.908 231.298 95.156 231.658 96.284C232.042 97.388 232.618 98.276 233.386 98.948C234.154 99.596 235.138 99.92 236.338 99.92C237.61 99.92 238.642 99.668 239.434 99.164C240.226 98.66 240.934 97.952 241.558 97.04L242.278 97.58C241.75 98.492 241.15 99.224 240.478 99.776C239.806 100.328 239.062 100.736 238.246 101C237.454 101.24 236.578 101.36 235.618 101.36ZM250.824 101V85.52H249.024C247.944 85.52 247.044 85.832 246.324 86.456C245.604 87.056 245.244 87.944 245.244 89.12H244.524V86.96C244.524 86.24 244.704 85.58 245.064 84.98C245.424 84.38 246.144 84.08 247.224 84.08H260.004V85.52H254.064V101H250.824ZM263.627 101V88.4C263.627 87.32 263.471 86.456 263.159 85.808C262.871 85.136 262.187 84.8 261.107 84.8H260.567V84.08H263.627C264.467 84.08 265.115 84.188 265.571 84.404C266.051 84.62 266.387 85.04 266.579 85.664C266.771 86.288 266.867 87.2 266.867 88.4V90.92H269.567C270.959 90.92 272.207 91.076 273.311 91.388C274.415 91.676 275.291 92.18 275.939 92.9C276.611 93.62 276.947 94.64 276.947 95.96C276.947 97.256 276.611 98.276 275.939 99.02C275.291 99.74 274.415 100.256 273.311 100.568C272.207 100.856 270.959 101 269.567 101H263.627ZM269.207 99.74C270.575 99.74 271.631 99.452 272.375 98.876C273.143 98.3 273.527 97.328 273.527 95.96C273.527 94.592 273.143 93.62 272.375 93.044C271.631 92.468 270.575 92.18 269.207 92.18C268.847 92.18 268.427 92.216 267.947 92.288C267.491 92.36 267.131 92.444 266.867 92.54V99.38C267.131 99.476 267.491 99.56 267.947 99.632C268.427 99.704 268.847 99.74 269.207 99.74ZM296.544 101.36C294.768 101.36 293.292 100.964 292.116 100.172C290.94 99.38 290.064 98.312 289.488 96.968C288.912 95.624 288.624 94.148 288.624 92.54C288.624 90.908 288.912 89.432 289.488 88.112C290.064 86.768 290.94 85.7 292.116 84.908C293.292 84.116 294.768 83.72 296.544 83.72C297.816 83.72 298.884 83.816 299.748 84.008C300.636 84.2 301.308 84.524 301.764 84.98C302.22 85.436 302.484 86 302.556 86.672C302.628 87.32 302.664 88.316 302.664 89.66H301.944C301.848 88.124 301.356 86.996 300.468 86.276C299.604 85.532 298.536 85.16 297.264 85.16C296.064 85.16 295.08 85.496 294.312 86.168C293.544 86.816 292.968 87.692 292.584 88.796C292.224 89.9 292.044 91.148 292.044 92.54C292.044 93.908 292.224 95.156 292.584 96.284C292.968 97.388 293.544 98.276 294.312 98.948C295.08 99.596 296.064 99.92 297.264 99.92C298.536 99.92 299.568 99.668 300.36 99.164C301.152 98.66 301.86 97.952 302.484 97.04L303.204 97.58C302.676 98.492 302.076 99.224 301.404 99.776C300.732 100.328 299.988 100.736 299.172 101C298.38 101.24 297.504 101.36 296.544 101.36ZM307.358 101V88.4C307.358 87.32 307.202 86.456 306.89 85.808C306.602 85.136 305.918 84.8 304.838 84.8H304.478V84.08H313.298C314.498 84.08 315.614 84.212 316.646 84.476C317.702 84.74 318.542 85.184 319.166 85.808C319.814 86.432 320.138 87.296 320.138 88.4C320.138 89.408 319.85 90.224 319.274 90.848C318.722 91.472 317.81 91.916 316.538 92.18C317.906 92.444 318.962 92.936 319.706 93.656C320.474 94.352 320.858 95.24 320.858 96.32C320.858 97.52 320.522 98.468 319.85 99.164C319.202 99.836 318.302 100.316 317.15 100.604C316.022 100.868 314.738 101 313.298 101H307.358ZM312.938 99.74C314.378 99.74 315.482 99.464 316.25 98.912C317.042 98.36 317.438 97.496 317.438 96.32C317.438 95.192 317.03 94.34 316.214 93.764C315.422 93.188 314.21 92.9 312.578 92.9H310.598V99.38C310.862 99.476 311.222 99.56 311.678 99.632C312.158 99.704 312.578 99.74 312.938 99.74ZM310.598 91.46H312.578C313.85 91.46 314.858 91.208 315.602 90.704C316.346 90.176 316.718 89.408 316.718 88.4C316.718 87.392 316.358 86.636 315.638 86.132C314.918 85.604 314.018 85.34 312.938 85.34C312.578 85.34 312.158 85.376 311.678 85.448C311.222 85.52 310.862 85.604 310.598 85.7V91.46ZM331.981 101.36C330.301 101.36 328.873 100.964 327.697 100.172C326.521 99.38 325.621 98.312 324.997 96.968C324.373 95.624 324.061 94.148 324.061 92.54C324.061 90.908 324.373 89.432 324.997 88.112C325.621 86.768 326.521 85.7 327.697 84.908C328.873 84.116 330.301 83.72 331.981 83.72C333.661 83.72 335.089 84.116 336.265 84.908C337.441 85.7 338.341 86.768 338.965 88.112C339.589 89.432 339.901 90.908 339.901 92.54C339.901 94.148 339.589 95.624 338.965 96.968C338.341 98.312 337.441 99.38 336.265 100.172C335.089 100.964 333.661 101.36 331.981 101.36ZM331.981 99.92C332.893 99.92 333.685 99.596 334.357 98.948C335.029 98.276 335.545 97.388 335.905 96.284C336.289 95.156 336.481 93.908 336.481 92.54C336.481 91.148 336.289 89.9 335.905 88.796C335.545 87.692 335.029 86.816 334.357 86.168C333.685 85.496 332.893 85.16 331.981 85.16C331.093 85.16 330.301 85.496 329.605 86.168C328.933 86.816 328.405 87.692 328.021 88.796C327.661 89.9 327.481 91.148 327.481 92.54C327.481 93.908 327.661 95.156 328.021 96.284C328.405 97.388 328.933 98.276 329.605 98.948C330.301 99.596 331.093 99.92 331.981 99.92ZM350.711 101.36C349.031 101.36 347.627 100.964 346.499 100.172C345.395 99.38 344.555 98.312 343.979 96.968C343.427 95.624 343.151 94.148 343.151 92.54C343.151 90.908 343.439 89.432 344.015 88.112C344.591 86.768 345.419 85.7 346.499 84.908C347.579 84.116 348.863 83.72 350.351 83.72C351.983 83.72 353.327 84.032 354.383 84.656C355.463 85.256 356.255 86.144 356.759 87.32C357.287 88.496 357.551 89.936 357.551 91.64L357.479 93.08H346.571C346.571 95.048 346.991 96.68 347.831 97.976C348.695 99.272 349.895 99.92 351.431 99.92C352.607 99.92 353.579 99.668 354.347 99.164C355.139 98.66 355.847 97.952 356.471 97.04L357.191 97.58C356.663 98.492 356.063 99.224 355.391 99.776C354.743 100.328 354.023 100.736 353.231 101C352.463 101.24 351.623 101.36 350.711 101.36ZM346.571 91.64H354.131C354.131 89.552 353.819 87.956 353.195 86.852C352.571 85.724 351.623 85.16 350.351 85.16C349.631 85.16 348.983 85.448 348.407 86.024C347.855 86.576 347.411 87.344 347.075 88.328C346.739 89.288 346.571 90.392 346.571 91.64ZM353.591 81.74C353.135 81.74 352.751 81.584 352.439 81.272C352.127 80.96 351.971 80.576 351.971 80.12C351.971 79.664 352.127 79.28 352.439 78.968C352.751 78.656 353.135 78.5 353.591 78.5C354.047 78.5 354.431 78.656 354.743 78.968C355.055 79.28 355.211 79.664 355.211 80.12C355.211 80.576 355.055 80.96 354.743 81.272C354.431 81.584 354.047 81.74 353.591 81.74ZM347.471 81.74C347.015 81.74 346.631 81.584 346.319 81.272C346.007 80.96 345.851 80.576 345.851 80.12C345.851 79.664 346.007 79.28 346.319 78.968C346.631 78.656 347.015 78.5 347.471 78.5C347.927 78.5 348.311 78.656 348.623 78.968C348.935 79.28 349.091 79.664 349.091 80.12C349.091 80.576 348.935 80.96 348.623 81.272C348.311 81.584 347.927 81.74 347.471 81.74ZM375.705 101.36C374.097 101.36 372.801 101.084 371.817 100.532C370.833 99.98 370.029 99.296 369.405 98.48L370.125 97.94C370.581 98.396 371.169 98.84 371.889 99.272C372.633 99.704 373.665 99.92 374.985 99.92C376.425 99.92 377.529 99.644 378.297 99.092C379.089 98.54 379.485 97.676 379.485 96.5C379.485 95.372 379.065 94.52 378.225 93.944C377.385 93.368 376.125 93.08 374.445 93.08H372.825V91.64H374.445C375.885 91.64 376.989 91.376 377.757 90.848C378.549 90.296 378.945 89.48 378.945 88.4C378.945 87.32 378.597 86.516 377.901 85.988C377.205 85.436 376.353 85.16 375.345 85.16C374.049 85.16 372.957 85.496 372.069 86.168C371.205 86.84 370.737 87.764 370.665 88.94H369.945C369.945 87.932 369.981 87.14 370.053 86.564C370.125 85.964 370.389 85.436 370.845 84.98C371.301 84.524 371.961 84.2 372.825 84.008C373.689 83.816 374.709 83.72 375.885 83.72C376.965 83.72 377.997 83.864 378.981 84.152C379.965 84.44 380.769 84.92 381.393 85.592C382.041 86.264 382.365 87.2 382.365 88.4C382.365 89.48 382.029 90.344 381.357 90.992C380.709 91.64 379.845 92.096 378.765 92.36C380.061 92.624 381.069 93.116 381.789 93.836C382.533 94.532 382.905 95.42 382.905 96.5C382.905 97.748 382.569 98.732 381.897 99.452C381.249 100.148 380.385 100.64 379.305 100.928C378.225 101.216 377.025 101.36 375.705 101.36ZM391.116 101.36C390.612 101.36 390.06 101.276 389.46 101.108C388.884 100.964 388.32 100.7 387.768 100.316C387.216 99.932 386.76 99.416 386.4 98.768C386.064 98.12 385.896 97.304 385.896 96.32C385.896 95 386.316 93.98 387.156 93.26C388.02 92.54 389.148 92.036 390.54 91.748C391.956 91.436 393.468 91.28 395.076 91.28H396.156C396.156 89.6 395.988 88.328 395.652 87.464C395.316 86.576 394.86 85.976 394.284 85.664C393.732 85.328 393.096 85.16 392.376 85.16C391.368 85.16 390.516 85.376 389.82 85.808C389.148 86.24 388.68 87.044 388.416 88.22H386.796C386.796 87.596 386.832 87.02 386.904 86.492C386.976 85.94 387.24 85.436 387.696 84.98C388.152 84.524 388.896 84.2 389.928 84.008C390.96 83.816 392.016 83.72 393.096 83.72C393.912 83.72 394.692 83.816 395.436 84.008C396.204 84.2 396.876 84.56 397.452 85.088C398.052 85.592 398.52 86.348 398.856 87.356C399.216 88.34 399.396 89.648 399.396 91.28V101H397.596L396.336 99.38H396.156C395.796 99.836 395.208 100.28 394.392 100.712C393.576 101.144 392.484 101.36 391.116 101.36ZM392.736 99.74C393.624 99.74 394.32 99.524 394.824 99.092C395.352 98.636 395.796 98.132 396.156 97.58V92.72H395.076C393.276 92.72 391.86 93.056 390.828 93.728C389.82 94.376 389.316 95.24 389.316 96.32C389.316 97.496 389.664 98.36 390.36 98.912C391.056 99.464 391.848 99.74 392.736 99.74ZM404.956 107.84V88.4C404.956 87.32 404.8 86.456 404.488 85.808C404.2 85.136 403.516 84.8 402.436 84.8H401.716V84.08H404.956C405.868 84.08 406.552 84.212 407.008 84.476C407.488 84.74 407.824 85.148 408.016 85.7C408.496 85.22 409.144 84.776 409.96 84.368C410.776 83.936 411.808 83.72 413.056 83.72C414.496 83.72 415.696 84.116 416.656 84.908C417.616 85.7 418.336 86.768 418.816 88.112C419.296 89.432 419.536 90.908 419.536 92.54C419.536 94.148 419.284 95.624 418.78 96.968C418.3 98.312 417.556 99.38 416.548 100.172C415.54 100.964 414.256 101.36 412.696 101.36C411.688 101.36 410.824 101.24 410.104 101C409.384 100.784 408.748 100.544 408.196 100.28V107.84H404.956ZM411.616 99.92C412.696 99.92 413.56 99.596 414.208 98.948C414.88 98.276 415.36 97.388 415.648 96.284C415.96 95.156 416.116 93.908 416.116 92.54C416.116 91.148 415.972 89.9 415.684 88.796C415.396 87.692 414.94 86.816 414.316 86.168C413.716 85.496 412.936 85.16 411.976 85.16C410.992 85.16 410.2 85.388 409.6 85.844C409 86.276 408.532 86.768 408.196 87.32V98.84C408.748 99.104 409.312 99.356 409.888 99.596C410.488 99.812 411.064 99.92 411.616 99.92ZM430.375 101.36C428.695 101.36 427.291 100.964 426.163 100.172C425.059 99.38 424.219 98.312 423.643 96.968C423.091 95.624 422.815 94.148 422.815 92.54C422.815 90.908 423.103 89.432 423.679 88.112C424.255 86.768 425.083 85.7 426.163 84.908C427.243 84.116 428.527 83.72 430.015 83.72C431.647 83.72 432.991 84.032 434.047 84.656C435.127 85.256 435.919 86.144 436.423 87.32C436.951 88.496 437.215 89.936 437.215 91.64L437.143 93.08H426.235C426.235 95.048 426.655 96.68 427.495 97.976C428.359 99.272 429.559 99.92 431.095 99.92C432.271 99.92 433.243 99.668 434.011 99.164C434.803 98.66 435.511 97.952 436.135 97.04L436.855 97.58C436.327 98.492 435.727 99.224 435.055 99.776C434.407 100.328 433.687 100.736 432.895 101C432.127 101.24 431.287 101.36 430.375 101.36ZM426.235 91.64H433.795C433.795 89.552 433.483 87.956 432.859 86.852C432.235 85.724 431.287 85.16 430.015 85.16C429.295 85.16 428.647 85.448 428.071 86.024C427.519 86.576 427.075 87.344 426.739 88.328C426.403 89.288 426.235 90.392 426.235 91.64ZM441.725 101V88.4C441.725 87.32 441.569 86.456 441.257 85.808C440.969 85.136 440.285 84.8 439.205 84.8H438.845V84.08H450.725C451.805 84.08 452.525 84.38 452.885 84.98C453.245 85.58 453.425 86.24 453.425 86.96V89.12H452.705C452.705 87.944 452.345 87.056 451.625 86.456C450.905 85.832 450.005 85.52 448.925 85.52H444.965V101H441.725ZM457.514 101V88.4C457.514 87.32 457.358 86.456 457.046 85.808C456.758 85.136 456.074 84.8 454.994 84.8H454.454V84.08H457.514C458.354 84.08 459.002 84.188 459.458 84.404C459.938 84.62 460.274 85.04 460.466 85.664C460.658 86.288 460.754 87.2 460.754 88.4V97.76L468.314 84.08H471.554V101H468.314V87.32L460.754 101H457.514ZM483.681 101.36C481.905 101.36 480.429 100.964 479.253 100.172C478.077 99.38 477.201 98.312 476.625 96.968C476.049 95.624 475.761 94.148 475.761 92.54C475.761 90.908 476.049 89.432 476.625 88.112C477.201 86.768 478.077 85.7 479.253 84.908C480.429 84.116 481.905 83.72 483.681 83.72C484.953 83.72 486.021 83.816 486.885 84.008C487.773 84.2 488.445 84.524 488.901 84.98C489.357 85.436 489.621 86 489.693 86.672C489.765 87.32 489.801 88.316 489.801 89.66H489.081C488.985 88.124 488.493 86.996 487.605 86.276C486.741 85.532 485.673 85.16 484.401 85.16C483.201 85.16 482.217 85.496 481.449 86.168C480.681 86.816 480.105 87.692 479.721 88.796C479.361 89.9 479.181 91.148 479.181 92.54C479.181 93.908 479.361 95.156 479.721 96.284C480.105 97.388 480.681 98.276 481.449 98.948C482.217 99.596 483.201 99.92 484.401 99.92C485.673 99.92 486.705 99.668 487.497 99.164C488.289 98.66 488.997 97.952 489.621 97.04L490.341 97.58C489.813 98.492 489.213 99.224 488.541 99.776C487.869 100.328 487.125 100.736 486.309 101C485.517 101.24 484.641 101.36 483.681 101.36ZM498.887 101V85.52H497.087C496.007 85.52 495.107 85.832 494.387 86.456C493.667 87.056 493.307 87.944 493.307 89.12H492.587V86.96C492.587 86.24 492.767 85.58 493.127 84.98C493.487 84.38 494.207 84.08 495.287 84.08H508.067V85.52H502.127V101H498.887ZM511.726 107.84V88.4C511.726 87.32 511.57 86.456 511.258 85.808C510.97 85.136 510.286 84.8 509.206 84.8H508.486V84.08H511.726C512.638 84.08 513.322 84.212 513.778 84.476C514.258 84.74 514.594 85.148 514.786 85.7C515.266 85.22 515.914 84.776 516.73 84.368C517.546 83.936 518.578 83.72 519.826 83.72C521.266 83.72 522.466 84.116 523.426 84.908C524.386 85.7 525.106 86.768 525.586 88.112C526.066 89.432 526.306 90.908 526.306 92.54C526.306 94.148 526.054 95.624 525.55 96.968C525.07 98.312 524.326 99.38 523.318 100.172C522.31 100.964 521.026 101.36 519.466 101.36C518.458 101.36 517.594 101.24 516.874 101C516.154 100.784 515.518 100.544 514.966 100.28V107.84H511.726ZM518.386 99.92C519.466 99.92 520.33 99.596 520.978 98.948C521.65 98.276 522.13 97.388 522.418 96.284C522.73 95.156 522.886 93.908 522.886 92.54C522.886 91.148 522.742 89.9 522.454 88.796C522.166 87.692 521.71 86.816 521.086 86.168C520.486 85.496 519.706 85.16 518.746 85.16C517.762 85.16 516.97 85.388 516.37 85.844C515.77 86.276 515.302 86.768 514.966 87.32V98.84C515.518 99.104 516.082 99.356 516.658 99.596C517.258 99.812 517.834 99.92 518.386 99.92ZM531.061 101V88.4C531.061 87.32 530.905 86.456 530.593 85.808C530.305 85.136 529.621 84.8 528.541 84.8H528.001V84.08H531.061C531.901 84.08 532.549 84.188 533.005 84.404C533.485 84.62 533.821 85.04 534.013 85.664C534.205 86.288 534.301 87.2 534.301 88.4V97.76L541.861 84.08H545.101V101H541.861V87.32L534.301 101H531.061ZM550.82 107.84V88.4C550.82 87.32 550.664 86.456 550.352 85.808C550.064 85.136 549.38 84.8 548.3 84.8H547.579V84.08H550.82C551.732 84.08 552.416 84.212 552.872 84.476C553.352 84.74 553.688 85.148 553.88 85.7C554.36 85.22 555.008 84.776 555.824 84.368C556.64 83.936 557.672 83.72 558.92 83.72C560.36 83.72 561.56 84.116 562.52 84.908C563.48 85.7 564.2 86.768 564.68 88.112C565.16 89.432 565.4 90.908 565.4 92.54C565.4 94.148 565.148 95.624 564.644 96.968C564.164 98.312 563.42 99.38 562.412 100.172C561.404 100.964 560.12 101.36 558.56 101.36C557.552 101.36 556.688 101.24 555.968 101C555.248 100.784 554.612 100.544 554.06 100.28V107.84H550.82ZM557.48 99.92C558.56 99.92 559.424 99.596 560.072 98.948C560.744 98.276 561.224 97.388 561.512 96.284C561.824 95.156 561.98 93.908 561.98 92.54C561.98 91.148 561.836 89.9 561.548 88.796C561.26 87.692 560.804 86.816 560.18 86.168C559.58 85.496 558.8 85.16 557.84 85.16C556.856 85.16 556.064 85.388 555.464 85.844C554.864 86.276 554.396 86.768 554.06 87.32V98.84C554.612 99.104 555.176 99.356 555.752 99.596C556.352 99.812 556.928 99.92 557.48 99.92ZM576.599 101.36C574.919 101.36 573.491 100.964 572.315 100.172C571.139 99.38 570.239 98.312 569.615 96.968C568.991 95.624 568.679 94.148 568.679 92.54C568.679 90.908 568.991 89.432 569.615 88.112C570.239 86.768 571.139 85.7 572.315 84.908C573.491 84.116 574.919 83.72 576.599 83.72C578.279 83.72 579.707 84.116 580.883 84.908C582.059 85.7 582.959 86.768 583.583 88.112C584.207 89.432 584.519 90.908 584.519 92.54C584.519 94.148 584.207 95.624 583.583 96.968C582.959 98.312 582.059 99.38 580.883 100.172C579.707 100.964 578.279 101.36 576.599 101.36ZM576.599 99.92C577.511 99.92 578.303 99.596 578.975 98.948C579.647 98.276 580.163 97.388 580.523 96.284C580.907 95.156 581.099 93.908 581.099 92.54C581.099 91.148 580.907 89.9 580.523 88.796C580.163 87.692 579.647 86.816 578.975 86.168C578.303 85.496 577.511 85.16 576.599 85.16C575.711 85.16 574.919 85.496 574.223 86.168C573.551 86.816 573.023 87.692 572.639 88.796C572.279 89.9 572.099 91.148 572.099 92.54C572.099 93.908 572.279 95.156 572.639 96.284C573.023 97.388 573.551 98.276 574.223 98.948C574.919 99.596 575.711 99.92 576.599 99.92ZM589.1 101V88.4C589.1 87.32 588.944 86.456 588.632 85.808C588.344 85.136 587.66 84.8 586.58 84.8H586.22V84.08H595.04C596.24 84.08 597.356 84.212 598.388 84.476C599.444 84.74 600.284 85.184 600.908 85.808C601.556 86.432 601.88 87.296 601.88 88.4C601.88 89.408 601.592 90.224 601.016 90.848C600.464 91.472 599.552 91.916 598.28 92.18C599.648 92.444 600.704 92.936 601.448 93.656C602.216 94.352 602.6 95.24 602.6 96.32C602.6 97.52 602.264 98.468 601.592 99.164C600.944 99.836 600.044 100.316 598.892 100.604C597.764 100.868 596.48 101 595.04 101H589.1ZM594.68 99.74C596.12 99.74 597.224 99.464 597.992 98.912C598.784 98.36 599.18 97.496 599.18 96.32C599.18 95.192 598.772 94.34 597.956 93.764C597.164 93.188 595.952 92.9 594.32 92.9H592.34V99.38C592.604 99.476 592.964 99.56 593.42 99.632C593.9 99.704 594.32 99.74 594.68 99.74ZM592.34 91.46H594.32C595.592 91.46 596.6 91.208 597.344 90.704C598.088 90.176 598.46 89.408 598.46 88.4C598.46 87.392 598.1 86.636 597.38 86.132C596.66 85.604 595.76 85.34 594.68 85.34C594.32 85.34 593.9 85.376 593.42 85.448C592.964 85.52 592.604 85.604 592.34 85.7V91.46ZM610.808 101.36C610.304 101.36 609.752 101.276 609.152 101.108C608.576 100.964 608.012 100.7 607.46 100.316C606.908 99.932 606.452 99.416 606.092 98.768C605.756 98.12 605.588 97.304 605.588 96.32C605.588 95 606.008 93.98 606.848 93.26C607.712 92.54 608.84 92.036 610.232 91.748C611.648 91.436 613.16 91.28 614.768 91.28H615.848C615.848 89.6 615.68 88.328 615.344 87.464C615.008 86.576 614.552 85.976 613.976 85.664C613.424 85.328 612.788 85.16 612.068 85.16C611.06 85.16 610.208 85.376 609.512 85.808C608.84 86.24 608.372 87.044 608.108 88.22H606.488C606.488 87.596 606.524 87.02 606.596 86.492C606.668 85.94 606.932 85.436 607.388 84.98C607.844 84.524 608.588 84.2 609.62 84.008C610.652 83.816 611.708 83.72 612.788 83.72C613.604 83.72 614.384 83.816 615.128 84.008C615.896 84.2 616.568 84.56 617.144 85.088C617.744 85.592 618.212 86.348 618.548 87.356C618.908 88.34 619.088 89.648 619.088 91.28V101H617.288L616.028 99.38H615.848C615.488 99.836 614.9 100.28 614.084 100.712C613.268 101.144 612.176 101.36 610.808 101.36ZM612.428 99.74C613.316 99.74 614.012 99.524 614.516 99.092C615.044 98.636 615.488 98.132 615.848 97.58V92.72H614.768C612.968 92.72 611.552 93.056 610.52 93.728C609.512 94.376 609.008 95.24 609.008 96.32C609.008 97.496 609.356 98.36 610.052 98.912C610.748 99.464 611.54 99.74 612.428 99.74ZM624.612 101V88.4C624.612 87.32 624.456 86.456 624.144 85.808C623.856 85.136 623.172 84.8 622.092 84.8H621.552V84.08H624.612C625.452 84.08 626.1 84.188 626.556 84.404C627.036 84.62 627.372 85.04 627.564 85.664C627.756 86.288 627.852 87.2 627.852 88.4V91.82H635.052V84.08H638.292V96.68C638.292 97.76 638.436 98.636 638.724 99.308C639.036 99.956 639.732 100.28 640.812 100.28H641.352V101H638.292C637.452 101 636.792 100.892 636.312 100.676C635.856 100.46 635.532 100.04 635.34 99.416C635.148 98.792 635.052 97.88 635.052 96.68V93.26H627.852V101H624.612ZM644.51 101V88.4C644.51 87.32 644.354 86.456 644.042 85.808C643.754 85.136 643.07 84.8 641.99 84.8H641.45V84.08H644.51C645.35 84.08 645.998 84.188 646.454 84.404C646.934 84.62 647.27 85.04 647.462 85.664C647.654 86.288 647.75 87.2 647.75 88.4V91.82H654.95V84.08H658.19V96.68C658.19 97.76 658.334 98.636 658.622 99.308C658.934 99.956 659.63 100.28 660.71 100.28H661.25V101H658.19C657.35 101 656.69 100.892 656.21 100.676C655.754 100.46 655.43 100.04 655.238 99.416C655.046 98.792 654.95 97.88 654.95 96.68V93.26H647.75V101H644.51ZM670.853 101.36C669.173 101.36 667.745 100.964 666.569 100.172C665.393 99.38 664.493 98.312 663.869 96.968C663.245 95.624 662.933 94.148 662.933 92.54C662.933 90.908 663.245 89.432 663.869 88.112C664.493 86.768 665.393 85.7 666.569 84.908C667.745 84.116 669.173 83.72 670.853 83.72C672.533 83.72 673.961 84.116 675.137 84.908C676.313 85.7 677.213 86.768 677.837 88.112C678.461 89.432 678.773 90.908 678.773 92.54C678.773 94.148 678.461 95.624 677.837 96.968C677.213 98.312 676.313 99.38 675.137 100.172C673.961 100.964 672.533 101.36 670.853 101.36ZM670.853 99.92C671.765 99.92 672.557 99.596 673.229 98.948C673.901 98.276 674.417 97.388 674.777 96.284C675.161 95.156 675.353 93.908 675.353 92.54C675.353 91.148 675.161 89.9 674.777 88.796C674.417 87.692 673.901 86.816 673.229 86.168C672.557 85.496 671.765 85.16 670.853 85.16C669.965 85.16 669.173 85.496 668.477 86.168C667.805 86.816 667.277 87.692 666.893 88.796C666.533 89.9 666.353 91.148 666.353 92.54C666.353 93.908 666.533 95.156 666.893 96.284C667.277 97.388 667.805 98.276 668.477 98.948C669.173 99.596 669.965 99.92 670.853 99.92ZM689.582 101.36C687.902 101.36 686.498 100.964 685.37 100.172C684.266 99.38 683.426 98.312 682.85 96.968C682.298 95.624 682.022 94.148 682.022 92.54C682.022 90.908 682.31 89.432 682.886 88.112C683.462 86.768 684.29 85.7 685.37 84.908C686.45 84.116 687.734 83.72 689.222 83.72C690.854 83.72 692.198 84.032 693.254 84.656C694.334 85.256 695.126 86.144 695.63 87.32C696.158 88.496 696.422 89.936 696.422 91.64L696.35 93.08H685.442C685.442 95.048 685.862 96.68 686.702 97.976C687.566 99.272 688.766 99.92 690.302 99.92C691.478 99.92 692.45 99.668 693.218 99.164C694.01 98.66 694.718 97.952 695.342 97.04L696.062 97.58C695.534 98.492 694.934 99.224 694.262 99.776C693.614 100.328 692.894 100.736 692.102 101C691.334 101.24 690.494 101.36 689.582 101.36ZM685.442 91.64H693.002C693.002 89.552 692.69 87.956 692.066 86.852C691.442 85.724 690.494 85.16 689.222 85.16C688.502 85.16 687.854 85.448 687.278 86.024C686.726 86.576 686.282 87.344 685.946 88.328C685.61 89.288 685.442 90.392 685.442 91.64ZM710.796 101V81.56C710.796 80.48 710.64 79.616 710.328 78.968C710.04 78.296 709.356 77.96 708.276 77.96H707.556V77.24H710.796C711.636 77.24 712.284 77.348 712.74 77.564C713.22 77.78 713.556 78.2 713.748 78.824C713.94 79.448 714.036 80.36 714.036 81.56V97.76L725.556 77.24H728.796V101H725.556V80.48L714.036 101H710.796ZM735.722 101V81.56C735.722 80.48 735.566 79.616 735.254 78.968C734.966 78.296 734.282 77.96 733.202 77.96H732.482V77.24H753.002V101H749.762V78.68H738.962V101H735.722ZM760.054 101.504C759.526 101.504 759.07 101.312 758.686 100.928C758.302 100.544 758.11 100.076 758.11 99.524C758.11 98.996 758.302 98.54 758.686 98.156C759.07 97.772 759.526 97.58 760.054 97.58C760.606 97.58 761.062 97.772 761.422 98.156C761.806 98.54 761.998 98.996 761.998 99.524C761.998 100.076 761.806 100.544 761.422 100.928C761.038 101.312 760.582 101.504 760.054 101.504Z" fill="white"/>
<defs>
<clipPath id="clip0_66_1594">
<rect width="51" height="51" fill="white" transform="translate(41 43)"/>
</clipPath>
</defs>
</svg>
