<svg width="821" height="184" viewBox="0 0 821 184" fill="none" xmlns="http://www.w3.org/2000/svg">
<rect width="821" height="184" rx="15" fill="white" fill-opacity="0.05"/>
<g clip-path="url(#clip0_66_1595)">
<path d="M84.9211 94H48.0789C44.1653 94 41 90.8225 41 86.9211V50.0789C41 46.1653 44.1653 43 48.0789 43H84.9211C88.8347 43 92 46.1653 92 50.0789V86.9211C92 90.8225 88.8225 94 84.9211 94Z" fill="#F35D2E"/>
<path d="M79.3393 56.4215C80.1 56.6669 80.3208 57.6238 79.7565 58.1882C72.8003 65.083 67.7211 73.5974 64.2491 81.1793C64.0896 81.5228 63.7584 81.7681 63.3781 81.8049C62.2984 81.9154 61.1943 82.1362 60.1269 82.4429C59.5626 82.6024 58.9737 82.2834 58.8019 81.7191C57.5383 77.695 54.5448 74.4929 51.1955 71.8184C50.852 71.5485 50.7784 71.021 51.0851 70.702C51.7966 69.9536 52.545 69.3647 53.2689 68.8985C55.2195 67.6226 57.8205 68.0643 59.2559 69.9045C60.1637 71.0823 60.9612 72.346 61.6482 73.5115C67.2058 64.9358 73.5854 59.2187 78.0143 56.581C78.4315 56.3234 78.9099 56.2865 79.3393 56.4215Z" fill="white"/>
</g>
<path d="M123.216 68V45.68H119.976C118.536 45.68 117.42 46.016 116.628 46.688C115.86 47.336 115.476 48.38 115.476 49.82H114.756V47.12C114.756 46.64 114.84 46.184 115.008 45.752C115.176 45.296 115.476 44.936 115.908 44.672C116.364 44.384 117 44.24 117.816 44.24H134.556V45.68H126.456V68H123.216ZM138.729 68.36C138.225 68.36 137.673 68.276 137.073 68.108C136.497 67.964 135.933 67.7 135.381 67.316C134.829 66.932 134.373 66.416 134.013 65.768C133.677 65.12 133.509 64.304 133.509 63.32C133.509 62 133.929 60.98 134.769 60.26C135.633 59.54 136.761 59.036 138.153 58.748C139.569 58.436 141.081 58.28 142.689 58.28H143.769C143.769 56.6 143.601 55.328 143.265 54.464C142.929 53.576 142.473 52.976 141.897 52.664C141.345 52.328 140.709 52.16 139.989 52.16C138.981 52.16 138.129 52.376 137.433 52.808C136.761 53.24 136.293 54.044 136.029 55.22H134.409C134.409 54.596 134.445 54.02 134.517 53.492C134.589 52.94 134.853 52.436 135.309 51.98C135.765 51.524 136.509 51.2 137.541 51.008C138.573 50.816 139.629 50.72 140.709 50.72C141.525 50.72 142.305 50.816 143.049 51.008C143.817 51.2 144.489 51.56 145.065 52.088C145.665 52.592 146.133 53.348 146.469 54.356C146.829 55.34 147.009 56.648 147.009 58.28V68H145.209L143.949 66.38H143.769C143.409 66.836 142.821 67.28 142.005 67.712C141.189 68.144 140.097 68.36 138.729 68.36ZM140.349 66.74C141.237 66.74 141.933 66.524 142.437 66.092C142.965 65.636 143.409 65.132 143.769 64.58V59.72H142.689C140.889 59.72 139.473 60.056 138.441 60.728C137.433 61.376 136.929 62.24 136.929 63.32C136.929 64.496 137.277 65.36 137.973 65.912C138.669 66.464 139.461 66.74 140.349 66.74ZM165.242 68.36C164.33 68.36 163.43 68.132 162.542 67.676C161.678 67.22 160.838 66.488 160.021 65.48L155.882 60.26V68H152.642V55.4C152.642 54.32 152.486 53.456 152.174 52.808C151.886 52.136 151.202 51.8 150.122 51.8H149.401V51.08H152.642C153.482 51.08 154.13 51.188 154.586 51.404C155.066 51.62 155.402 52.04 155.594 52.664C155.786 53.288 155.882 54.2 155.882 55.4V59.72L160.382 53.42C160.91 52.7 161.522 52.136 162.218 51.728C162.938 51.296 163.886 51.08 165.062 51.08H165.962V51.98C165.41 51.98 164.846 52.1 164.27 52.34C163.694 52.556 163.178 52.976 162.722 53.6L158.762 59.18L162.902 64.4C163.526 65.216 164.162 65.876 164.81 66.38C165.482 66.884 166.226 67.196 167.042 67.316V68C166.85 68.096 166.586 68.18 166.25 68.252C165.938 68.324 165.602 68.36 165.242 68.36ZM178.42 68.36C178.06 68.36 177.712 68.324 177.376 68.252C177.064 68.18 176.812 68.096 176.62 68V67.316C177.436 67.196 178.168 66.908 178.816 66.452C179.488 65.972 180.136 65.288 180.76 64.4L184.54 59.18L181.12 53.6C180.784 53.048 180.304 52.64 179.68 52.376C179.08 52.112 178.42 51.98 177.7 51.98V51.08H178.6C179.776 51.08 180.736 51.284 181.48 51.692C182.224 52.1 182.824 52.676 183.28 53.42L187.06 59.72V51.08H190.3V59.72L194.08 53.42C194.536 52.676 195.136 52.1 195.88 51.692C196.624 51.284 197.584 51.08 198.76 51.08H199.66V51.98C198.94 51.98 198.268 52.112 197.644 52.376C197.044 52.64 196.576 53.048 196.24 53.6L192.82 59.18L196.6 64.4C197.224 65.288 197.86 65.972 198.508 66.452C199.18 66.908 199.924 67.196 200.74 67.316V68C200.548 68.096 200.284 68.18 199.948 68.252C199.636 68.324 199.3 68.36 198.94 68.36C198.028 68.36 197.164 68.132 196.348 67.676C195.556 67.22 194.8 66.488 194.08 65.48L190.3 60.26V68H187.06V60.26L183.28 65.48C182.56 66.488 181.792 67.22 180.976 67.676C180.184 68.132 179.332 68.36 178.42 68.36ZM208.926 68.36C207.246 68.36 205.842 67.964 204.714 67.172C203.61 66.38 202.77 65.312 202.194 63.968C201.642 62.624 201.366 61.148 201.366 59.54C201.366 57.908 201.654 56.432 202.23 55.112C202.806 53.768 203.634 52.7 204.714 51.908C205.794 51.116 207.078 50.72 208.566 50.72C210.198 50.72 211.542 51.032 212.598 51.656C213.678 52.256 214.47 53.144 214.974 54.32C215.502 55.496 215.766 56.936 215.766 58.64L215.694 60.08H204.786C204.786 62.048 205.206 63.68 206.046 64.976C206.91 66.272 208.11 66.92 209.646 66.92C210.822 66.92 211.794 66.668 212.562 66.164C213.354 65.66 214.062 64.952 214.686 64.04L215.406 64.58C214.878 65.492 214.278 66.224 213.606 66.776C212.958 67.328 212.238 67.736 211.446 68C210.678 68.24 209.838 68.36 208.926 68.36ZM204.786 58.64H212.346C212.346 56.552 212.034 54.956 211.41 53.852C210.786 52.724 209.838 52.16 208.566 52.16C207.846 52.16 207.198 52.448 206.622 53.024C206.07 53.576 205.626 54.344 205.29 55.328C204.954 56.288 204.786 57.392 204.786 58.64ZM229.276 68V55.4C229.276 54.32 229.12 53.456 228.808 52.808C228.52 52.136 227.836 51.8 226.756 51.8H226.396V51.08H242.956V68H239.716V52.52H232.516V68H229.276ZM254.735 68.36C253.055 68.36 251.651 67.964 250.523 67.172C249.419 66.38 248.579 65.312 248.003 63.968C247.451 62.624 247.175 61.148 247.175 59.54C247.175 57.908 247.463 56.432 248.039 55.112C248.615 53.768 249.443 52.7 250.523 51.908C251.603 51.116 252.887 50.72 254.375 50.72C256.007 50.72 257.351 51.032 258.407 51.656C259.487 52.256 260.279 53.144 260.783 54.32C261.311 55.496 261.575 56.936 261.575 58.64L261.503 60.08H250.595C250.595 62.048 251.015 63.68 251.855 64.976C252.719 66.272 253.919 66.92 255.455 66.92C256.631 66.92 257.603 66.668 258.371 66.164C259.163 65.66 259.871 64.952 260.495 64.04L261.215 64.58C260.687 65.492 260.087 66.224 259.415 66.776C258.767 67.328 258.047 67.736 257.255 68C256.487 68.24 255.647 68.36 254.735 68.36ZM250.595 58.64H258.155C258.155 56.552 257.843 54.956 257.219 53.852C256.595 52.724 255.647 52.16 254.375 52.16C253.655 52.16 253.007 52.448 252.431 53.024C251.879 53.576 251.435 54.344 251.099 55.328C250.763 56.288 250.595 57.392 250.595 58.64ZM266.265 74.84V55.4C266.265 54.32 266.109 53.456 265.797 52.808C265.509 52.136 264.825 51.8 263.745 51.8H263.025V51.08H266.265C267.177 51.08 267.861 51.212 268.317 51.476C268.797 51.74 269.133 52.148 269.325 52.7C269.805 52.22 270.453 51.776 271.269 51.368C272.085 50.936 273.117 50.72 274.365 50.72C275.805 50.72 277.005 51.116 277.965 51.908C278.925 52.7 279.645 53.768 280.125 55.112C280.605 56.432 280.845 57.908 280.845 59.54C280.845 61.148 280.593 62.624 280.089 63.968C279.609 65.312 278.865 66.38 277.857 67.172C276.849 67.964 275.565 68.36 274.005 68.36C272.997 68.36 272.133 68.24 271.413 68C270.693 67.784 270.057 67.544 269.505 67.28V74.84H266.265ZM272.925 66.92C274.005 66.92 274.869 66.596 275.517 65.948C276.189 65.276 276.669 64.388 276.957 63.284C277.269 62.156 277.425 60.908 277.425 59.54C277.425 58.148 277.281 56.9 276.993 55.796C276.705 54.692 276.249 53.816 275.625 53.168C275.025 52.496 274.245 52.16 273.285 52.16C272.301 52.16 271.509 52.388 270.909 52.844C270.309 53.276 269.841 53.768 269.505 54.32V65.84C270.057 66.104 270.621 66.356 271.197 66.596C271.797 66.812 272.373 66.92 272.925 66.92ZM291.684 68.36C290.004 68.36 288.6 67.964 287.472 67.172C286.368 66.38 285.528 65.312 284.952 63.968C284.4 62.624 284.124 61.148 284.124 59.54C284.124 57.908 284.412 56.432 284.988 55.112C285.564 53.768 286.392 52.7 287.472 51.908C288.552 51.116 289.836 50.72 291.324 50.72C292.956 50.72 294.3 51.032 295.356 51.656C296.436 52.256 297.228 53.144 297.732 54.32C298.26 55.496 298.524 56.936 298.524 58.64L298.452 60.08H287.544C287.544 62.048 287.964 63.68 288.804 64.976C289.668 66.272 290.868 66.92 292.404 66.92C293.58 66.92 294.552 66.668 295.32 66.164C296.112 65.66 296.82 64.952 297.444 64.04L298.164 64.58C297.636 65.492 297.036 66.224 296.364 66.776C295.716 67.328 294.996 67.736 294.204 68C293.436 68.24 292.596 68.36 291.684 68.36ZM287.544 58.64H295.104C295.104 56.552 294.792 54.956 294.168 53.852C293.544 52.724 292.596 52.16 291.324 52.16C290.604 52.16 289.956 52.448 289.38 53.024C288.828 53.576 288.384 54.344 288.048 55.328C287.712 56.288 287.544 57.392 287.544 58.64ZM300.342 73.58V67.82C300.342 67.46 300.462 67.16 300.702 66.92C300.942 66.68 301.242 66.56 301.602 66.56H302.682C303.234 65.36 303.666 64.112 303.978 62.816C304.29 61.496 304.506 60.2 304.626 58.928C304.77 57.656 304.842 56.48 304.842 55.4C304.842 54.32 304.686 53.456 304.374 52.808C304.086 52.136 303.402 51.8 302.322 51.8V51.08H316.722V66.56H318.162C318.522 66.56 318.822 66.68 319.062 66.92C319.302 67.16 319.422 67.46 319.422 67.82V73.58H317.982C317.862 72.236 317.646 71.156 317.334 70.34C317.046 69.524 316.65 68.924 316.146 68.54C315.642 68.18 314.994 68 314.202 68H305.562C304.794 68 304.146 68.18 303.618 68.54C303.114 68.924 302.718 69.524 302.43 70.34C302.142 71.156 301.926 72.236 301.782 73.58H300.342ZM305.202 66.56H313.482V52.52H307.182C307.182 55.592 307.026 58.256 306.714 60.512C306.426 62.744 305.922 64.76 305.202 66.56ZM332.393 68V55.4C332.393 54.32 332.237 53.456 331.925 52.808C331.637 52.136 330.953 51.8 329.873 51.8H329.333V51.08H332.393C333.233 51.08 333.881 51.188 334.337 51.404C334.817 51.62 335.153 52.04 335.345 52.664C335.537 53.288 335.633 54.2 335.633 55.4V58.82H342.833V51.08H346.073V63.68C346.073 64.76 346.217 65.636 346.505 66.308C346.817 66.956 347.513 67.28 348.593 67.28H349.133V68H346.073C345.233 68 344.573 67.892 344.093 67.676C343.637 67.46 343.313 67.04 343.121 66.416C342.929 65.792 342.833 64.88 342.833 63.68V60.26H335.633V68H332.393ZM355.819 68.36C355.315 68.36 354.763 68.276 354.163 68.108C353.587 67.964 353.023 67.7 352.471 67.316C351.919 66.932 351.463 66.416 351.103 65.768C350.767 65.12 350.599 64.304 350.599 63.32C350.599 62 351.019 60.98 351.859 60.26C352.723 59.54 353.851 59.036 355.243 58.748C356.659 58.436 358.171 58.28 359.779 58.28H360.859C360.859 56.6 360.691 55.328 360.355 54.464C360.019 53.576 359.563 52.976 358.987 52.664C358.435 52.328 357.799 52.16 357.079 52.16C356.071 52.16 355.219 52.376 354.523 52.808C353.851 53.24 353.383 54.044 353.119 55.22H351.499C351.499 54.596 351.535 54.02 351.607 53.492C351.679 52.94 351.943 52.436 352.399 51.98C352.855 51.524 353.599 51.2 354.631 51.008C355.663 50.816 356.719 50.72 357.799 50.72C358.615 50.72 359.395 50.816 360.139 51.008C360.907 51.2 361.579 51.56 362.155 52.088C362.755 52.592 363.223 53.348 363.559 54.356C363.919 55.34 364.099 56.648 364.099 58.28V68H362.299L361.039 66.38H360.859C360.499 66.836 359.911 67.28 359.095 67.712C358.279 68.144 357.187 68.36 355.819 68.36ZM357.439 66.74C358.327 66.74 359.023 66.524 359.527 66.092C360.055 65.636 360.499 65.132 360.859 64.58V59.72H359.779C357.979 59.72 356.563 60.056 355.531 60.728C354.523 61.376 354.019 62.24 354.019 63.32C354.019 64.496 354.367 65.36 355.063 65.912C355.759 66.464 356.551 66.74 357.439 66.74ZM379.532 68V61.052C379.172 61.196 378.68 61.34 378.056 61.484C377.456 61.628 376.748 61.7 375.932 61.7C374.924 61.7 373.916 61.568 372.908 61.304C371.924 61.04 371.096 60.536 370.424 59.792C369.776 59.024 369.452 57.92 369.452 56.48V55.4C369.452 54.32 369.296 53.456 368.984 52.808C368.696 52.136 368.012 51.8 366.932 51.8H366.572V51.08H369.632C370.472 51.08 371.12 51.188 371.576 51.404C372.056 51.62 372.392 52.04 372.584 52.664C372.776 53.288 372.872 54.2 372.872 55.4V56.84C372.872 58.088 373.208 58.976 373.88 59.504C374.552 60.008 375.296 60.26 376.112 60.26C376.832 60.26 377.492 60.188 378.092 60.044C378.692 59.9 379.172 59.756 379.532 59.612V51.08H382.772V68H379.532ZM391.995 68.36C391.491 68.36 390.939 68.276 390.339 68.108C389.763 67.964 389.199 67.7 388.647 67.316C388.095 66.932 387.639 66.416 387.279 65.768C386.943 65.12 386.775 64.304 386.775 63.32C386.775 62 387.195 60.98 388.035 60.26C388.899 59.54 390.027 59.036 391.419 58.748C392.835 58.436 394.347 58.28 395.955 58.28H397.035C397.035 56.6 396.867 55.328 396.531 54.464C396.195 53.576 395.739 52.976 395.163 52.664C394.611 52.328 393.975 52.16 393.255 52.16C392.247 52.16 391.395 52.376 390.699 52.808C390.027 53.24 389.559 54.044 389.295 55.22H387.675C387.675 54.596 387.711 54.02 387.783 53.492C387.855 52.94 388.119 52.436 388.575 51.98C389.031 51.524 389.775 51.2 390.807 51.008C391.839 50.816 392.895 50.72 393.975 50.72C394.791 50.72 395.571 50.816 396.315 51.008C397.083 51.2 397.755 51.56 398.331 52.088C398.931 52.592 399.399 53.348 399.735 54.356C400.095 55.34 400.275 56.648 400.275 58.28V68H398.475L397.215 66.38H397.035C396.675 66.836 396.087 67.28 395.271 67.712C394.455 68.144 393.363 68.36 391.995 68.36ZM393.615 66.74C394.503 66.74 395.199 66.524 395.703 66.092C396.231 65.636 396.675 65.132 397.035 64.58V59.72H395.955C394.155 59.72 392.739 60.056 391.707 60.728C390.699 61.376 390.195 62.24 390.195 63.32C390.195 64.496 390.543 65.36 391.239 65.912C391.935 66.464 392.727 66.74 393.615 66.74ZM404.791 68.36C404.599 68.36 404.299 68.324 403.891 68.252C403.507 68.18 403.219 68.108 403.027 68.036V67.136C403.603 67.136 404.167 66.992 404.719 66.704C405.295 66.392 405.799 65.828 406.231 65.012C406.687 64.172 407.047 62.984 407.311 61.448C407.575 59.888 407.707 57.872 407.707 55.4C407.707 54.32 407.551 53.456 407.239 52.808C406.951 52.136 406.255 51.8 405.151 51.8V51.08H419.767V68H416.527V52.52H410.191V55.4C410.191 58.088 410.035 60.284 409.723 61.988C409.435 63.692 409.027 65.012 408.499 65.948C407.995 66.86 407.419 67.496 406.771 67.856C406.123 68.192 405.463 68.36 404.791 68.36ZM431.895 68.36C430.215 68.36 428.787 67.964 427.611 67.172C426.435 66.38 425.535 65.312 424.911 63.968C424.287 62.624 423.975 61.148 423.975 59.54C423.975 57.908 424.287 56.432 424.911 55.112C425.535 53.768 426.435 52.7 427.611 51.908C428.787 51.116 430.215 50.72 431.895 50.72C433.575 50.72 435.003 51.116 436.179 51.908C437.355 52.7 438.255 53.768 438.879 55.112C439.503 56.432 439.815 57.908 439.815 59.54C439.815 61.148 439.503 62.624 438.879 63.968C438.255 65.312 437.355 66.38 436.179 67.172C435.003 67.964 433.575 68.36 431.895 68.36ZM431.895 66.92C432.807 66.92 433.599 66.596 434.271 65.948C434.943 65.276 435.459 64.388 435.819 63.284C436.203 62.156 436.395 60.908 436.395 59.54C436.395 58.148 436.203 56.9 435.819 55.796C435.459 54.692 434.943 53.816 434.271 53.168C433.599 52.496 432.807 52.16 431.895 52.16C431.007 52.16 430.215 52.496 429.519 53.168C428.847 53.816 428.319 54.692 427.935 55.796C427.575 56.9 427.395 58.148 427.395 59.54C427.395 60.908 427.575 62.156 427.935 63.284C428.319 64.388 428.847 65.276 429.519 65.948C430.215 66.596 431.007 66.92 431.895 66.92ZM464.197 68.72C461.941 68.72 460.381 68.168 459.517 67.064C458.677 65.96 458.257 64.472 458.257 62.6V54.86L452.317 68H451.597L445.477 54.5V68H444.037V51.08H447.457L452.857 62.96L458.257 51.08H461.497V62.6C461.497 63.488 461.605 64.352 461.821 65.192C462.061 66.008 462.385 66.68 462.793 67.208C463.201 67.736 463.669 68 464.197 68V68.72ZM483.364 68.36C481.588 68.36 480.112 67.964 478.936 67.172C477.76 66.38 476.884 65.312 476.308 63.968C475.732 62.624 475.444 61.148 475.444 59.54C475.444 57.908 475.732 56.432 476.308 55.112C476.884 53.768 477.76 52.7 478.936 51.908C480.112 51.116 481.588 50.72 483.364 50.72C484.636 50.72 485.704 50.816 486.568 51.008C487.456 51.2 488.128 51.524 488.584 51.98C489.04 52.436 489.304 53 489.376 53.672C489.448 54.32 489.484 55.316 489.484 56.66H488.764C488.668 55.124 488.176 53.996 487.288 53.276C486.424 52.532 485.356 52.16 484.084 52.16C482.884 52.16 481.9 52.496 481.132 53.168C480.364 53.816 479.788 54.692 479.404 55.796C479.044 56.9 478.864 58.148 478.864 59.54C478.864 60.908 479.044 62.156 479.404 63.284C479.788 64.388 480.364 65.276 481.132 65.948C481.9 66.596 482.884 66.92 484.084 66.92C485.356 66.92 486.388 66.668 487.18 66.164C487.972 65.66 488.68 64.952 489.304 64.04L490.024 64.58C489.496 65.492 488.896 66.224 488.224 66.776C487.552 67.328 486.808 67.736 485.992 68C485.2 68.24 484.324 68.36 483.364 68.36ZM500.767 68.36C499.087 68.36 497.659 67.964 496.483 67.172C495.307 66.38 494.407 65.312 493.783 63.968C493.159 62.624 492.847 61.148 492.847 59.54C492.847 57.908 493.159 56.432 493.783 55.112C494.407 53.768 495.307 52.7 496.483 51.908C497.659 51.116 499.087 50.72 500.767 50.72C502.447 50.72 503.875 51.116 505.051 51.908C506.227 52.7 507.127 53.768 507.751 55.112C508.375 56.432 508.687 57.908 508.687 59.54C508.687 61.148 508.375 62.624 507.751 63.968C507.127 65.312 506.227 66.38 505.051 67.172C503.875 67.964 502.447 68.36 500.767 68.36ZM500.767 66.92C501.679 66.92 502.471 66.596 503.143 65.948C503.815 65.276 504.331 64.388 504.691 63.284C505.075 62.156 505.267 60.908 505.267 59.54C505.267 58.148 505.075 56.9 504.691 55.796C504.331 54.692 503.815 53.816 503.143 53.168C502.471 52.496 501.679 52.16 500.767 52.16C499.879 52.16 499.087 52.496 498.391 53.168C497.719 53.816 497.191 54.692 496.807 55.796C496.447 56.9 496.267 58.148 496.267 59.54C496.267 60.908 496.447 62.156 496.807 63.284C497.191 64.388 497.719 65.276 498.391 65.948C499.087 66.596 499.879 66.92 500.767 66.92ZM517.66 68V52.52H515.86C514.78 52.52 513.88 52.832 513.16 53.456C512.44 54.056 512.08 54.944 512.08 56.12H511.36V53.96C511.36 53.24 511.54 52.58 511.9 51.98C512.26 51.38 512.98 51.08 514.06 51.08H526.84V52.52H520.9V68H517.66ZM530.499 74.84V55.4C530.499 54.32 530.343 53.456 530.031 52.808C529.743 52.136 529.059 51.8 527.979 51.8H527.259V51.08H530.499C531.411 51.08 532.095 51.212 532.551 51.476C533.031 51.74 533.367 52.148 533.559 52.7C534.039 52.22 534.687 51.776 535.503 51.368C536.319 50.936 537.351 50.72 538.599 50.72C540.039 50.72 541.239 51.116 542.199 51.908C543.159 52.7 543.879 53.768 544.359 55.112C544.839 56.432 545.079 57.908 545.079 59.54C545.079 61.148 544.827 62.624 544.323 63.968C543.843 65.312 543.099 66.38 542.091 67.172C541.083 67.964 539.799 68.36 538.239 68.36C537.231 68.36 536.367 68.24 535.647 68C534.927 67.784 534.291 67.544 533.739 67.28V74.84H530.499ZM537.159 66.92C538.239 66.92 539.103 66.596 539.751 65.948C540.423 65.276 540.903 64.388 541.191 63.284C541.503 62.156 541.659 60.908 541.659 59.54C541.659 58.148 541.515 56.9 541.227 55.796C540.939 54.692 540.483 53.816 539.859 53.168C539.259 52.496 538.479 52.16 537.519 52.16C536.535 52.16 535.743 52.388 535.143 52.844C534.543 53.276 534.075 53.768 533.739 54.32V65.84C534.291 66.104 534.855 66.356 535.431 66.596C536.031 66.812 536.607 66.92 537.159 66.92ZM550.167 75.2V74.12C551.271 74.12 552.207 73.868 552.975 73.364C553.767 72.884 554.451 71.876 555.027 70.34L555.747 68.36L549.987 54.32C549.627 53.408 549.099 52.724 548.403 52.268C547.731 51.812 546.939 51.536 546.027 51.44V50.72H549.087C550.167 50.72 551.055 50.972 551.751 51.476C552.471 51.98 553.023 52.688 553.407 53.6L557.511 63.572L562.047 51.08H563.847L556.827 70.34C556.347 71.66 555.831 72.668 555.279 73.364C554.751 74.06 554.151 74.54 553.479 74.804C552.831 75.068 552.087 75.2 551.247 75.2H550.167ZM565.455 73.58V67.82C565.455 67.46 565.575 67.16 565.815 66.92C566.055 66.68 566.355 66.56 566.715 66.56H567.795C568.347 65.36 568.779 64.112 569.091 62.816C569.403 61.496 569.619 60.2 569.739 58.928C569.883 57.656 569.955 56.48 569.955 55.4C569.955 54.32 569.799 53.456 569.487 52.808C569.199 52.136 568.515 51.8 567.435 51.8V51.08H581.835V66.56H583.275C583.635 66.56 583.935 66.68 584.175 66.92C584.415 67.16 584.535 67.46 584.535 67.82V73.58H583.095C582.975 72.236 582.759 71.156 582.447 70.34C582.159 69.524 581.763 68.924 581.259 68.54C580.755 68.18 580.107 68 579.315 68H570.675C569.907 68 569.259 68.18 568.731 68.54C568.227 68.924 567.831 69.524 567.543 70.34C567.255 71.156 567.039 72.236 566.895 73.58H565.455ZM570.315 66.56H578.595V52.52H572.295C572.295 55.592 572.139 58.256 571.827 60.512C571.539 62.744 571.035 64.76 570.315 66.56ZM588.506 68V55.4C588.506 54.32 588.35 53.456 588.038 52.808C587.75 52.136 587.066 51.8 585.986 51.8H585.446V51.08H588.506C589.346 51.08 589.994 51.188 590.45 51.404C590.93 51.62 591.266 52.04 591.458 52.664C591.65 53.288 591.746 54.2 591.746 55.4V58.82H598.946V51.08H602.186V63.68C602.186 64.76 602.33 65.636 602.618 66.308C602.93 66.956 603.626 67.28 604.706 67.28H605.246V68H602.186C601.346 68 600.686 67.892 600.206 67.676C599.75 67.46 599.426 67.04 599.234 66.416C599.042 65.792 598.946 64.88 598.946 63.68V60.26H591.746V68H588.506ZM608.405 68V55.4C608.405 54.32 608.249 53.456 607.937 52.808C607.649 52.136 606.965 51.8 605.885 51.8H605.345V51.08H608.405C609.245 51.08 609.893 51.188 610.349 51.404C610.829 51.62 611.165 52.04 611.357 52.664C611.549 53.288 611.645 54.2 611.645 55.4V64.76L619.205 51.08H622.445V68H619.205V54.32L611.645 68H608.405ZM638.387 68V61.052C638.027 61.196 637.535 61.34 636.911 61.484C636.311 61.628 635.603 61.7 634.787 61.7C633.779 61.7 632.771 61.568 631.763 61.304C630.779 61.04 629.951 60.536 629.279 59.792C628.631 59.024 628.307 57.92 628.307 56.48V55.4C628.307 54.32 628.151 53.456 627.839 52.808C627.551 52.136 626.867 51.8 625.787 51.8H625.427V51.08H628.487C629.327 51.08 629.975 51.188 630.431 51.404C630.911 51.62 631.247 52.04 631.439 52.664C631.631 53.288 631.727 54.2 631.727 55.4V56.84C631.727 58.088 632.063 58.976 632.735 59.504C633.407 60.008 634.151 60.26 634.967 60.26C635.687 60.26 636.347 60.188 636.947 60.044C637.547 59.9 638.027 59.756 638.387 59.612V51.08H641.627V68H638.387ZM653.407 68.36C651.727 68.36 650.323 67.964 649.195 67.172C648.091 66.38 647.251 65.312 646.675 63.968C646.123 62.624 645.847 61.148 645.847 59.54C645.847 57.908 646.135 56.432 646.711 55.112C647.287 53.768 648.115 52.7 649.195 51.908C650.275 51.116 651.559 50.72 653.047 50.72C654.679 50.72 656.023 51.032 657.079 51.656C658.159 52.256 658.951 53.144 659.455 54.32C659.983 55.496 660.247 56.936 660.247 58.64L660.175 60.08H649.267C649.267 62.048 649.687 63.68 650.527 64.976C651.391 66.272 652.591 66.92 654.127 66.92C655.303 66.92 656.275 66.668 657.043 66.164C657.835 65.66 658.543 64.952 659.167 64.04L659.887 64.58C659.359 65.492 658.759 66.224 658.087 66.776C657.439 67.328 656.719 67.736 655.927 68C655.159 68.24 654.319 68.36 653.407 68.36ZM649.267 58.64H656.827C656.827 56.552 656.515 54.956 655.891 53.852C655.267 52.724 654.319 52.16 653.047 52.16C652.327 52.16 651.679 52.448 651.103 53.024C650.551 53.576 650.107 54.344 649.771 55.328C649.435 56.288 649.267 57.392 649.267 58.64ZM671.345 68.36C669.569 68.36 668.093 67.964 666.917 67.172C665.741 66.38 664.865 65.312 664.289 63.968C663.713 62.624 663.425 61.148 663.425 59.54C663.425 57.908 663.713 56.432 664.289 55.112C664.865 53.768 665.741 52.7 666.917 51.908C668.093 51.116 669.569 50.72 671.345 50.72C672.617 50.72 673.685 50.816 674.549 51.008C675.437 51.2 676.109 51.524 676.565 51.98C677.021 52.436 677.285 53 677.357 53.672C677.429 54.32 677.465 55.316 677.465 56.66H676.745C676.649 55.124 676.157 53.996 675.269 53.276C674.405 52.532 673.337 52.16 672.065 52.16C670.865 52.16 669.881 52.496 669.113 53.168C668.345 53.816 667.769 54.692 667.385 55.796C667.025 56.9 666.845 58.148 666.845 59.54C666.845 60.908 667.025 62.156 667.385 63.284C667.769 64.388 668.345 65.276 669.113 65.948C669.881 66.596 670.865 66.92 672.065 66.92C673.337 66.92 674.369 66.668 675.161 66.164C675.953 65.66 676.661 64.952 677.285 64.04L678.005 64.58C677.477 65.492 676.877 66.224 676.205 66.776C675.533 67.328 674.789 67.736 673.973 68C673.181 68.24 672.305 68.36 671.345 68.36ZM686.551 68V52.52H684.751C683.671 52.52 682.771 52.832 682.051 53.456C681.331 54.056 680.971 54.944 680.971 56.12H680.251V53.96C680.251 53.24 680.431 52.58 680.791 51.98C681.151 51.38 681.871 51.08 682.951 51.08H695.731V52.52H689.791V68H686.551ZM699.21 68V55.4C699.21 54.32 699.054 53.456 698.742 52.808C698.454 52.136 697.77 51.8 696.69 51.8H696.33V51.08H705.15C706.35 51.08 707.466 51.212 708.498 51.476C709.554 51.74 710.394 52.184 711.018 52.808C711.666 53.432 711.99 54.296 711.99 55.4C711.99 56.408 711.702 57.224 711.126 57.848C710.574 58.472 709.662 58.916 708.39 59.18C709.758 59.444 710.814 59.936 711.558 60.656C712.326 61.352 712.71 62.24 712.71 63.32C712.71 64.52 712.374 65.468 711.702 66.164C711.054 66.836 710.154 67.316 709.002 67.604C707.874 67.868 706.59 68 705.15 68H699.21ZM704.79 66.74C706.23 66.74 707.334 66.464 708.102 65.912C708.894 65.36 709.29 64.496 709.29 63.32C709.29 62.192 708.882 61.34 708.066 60.764C707.274 60.188 706.062 59.9 704.43 59.9H702.45V66.38C702.714 66.476 703.074 66.56 703.53 66.632C704.01 66.704 704.43 66.74 704.79 66.74ZM702.45 58.46H704.43C705.702 58.46 706.71 58.208 707.454 57.704C708.198 57.176 708.57 56.408 708.57 55.4C708.57 54.392 708.21 53.636 707.49 53.132C706.77 52.604 705.87 52.34 704.79 52.34C704.43 52.34 704.01 52.376 703.53 52.448C703.074 52.52 702.714 52.604 702.45 52.7V58.46ZM720.917 68.36C720.413 68.36 719.861 68.276 719.261 68.108C718.685 67.964 718.121 67.7 717.569 67.316C717.017 66.932 716.561 66.416 716.201 65.768C715.865 65.12 715.697 64.304 715.697 63.32C715.697 62 716.117 60.98 716.957 60.26C717.821 59.54 718.949 59.036 720.341 58.748C721.757 58.436 723.269 58.28 724.877 58.28H725.957C725.957 56.6 725.789 55.328 725.453 54.464C725.117 53.576 724.661 52.976 724.085 52.664C723.533 52.328 722.897 52.16 722.177 52.16C721.169 52.16 720.317 52.376 719.621 52.808C718.949 53.24 718.481 54.044 718.217 55.22H716.597C716.597 54.596 716.633 54.02 716.705 53.492C716.777 52.94 717.041 52.436 717.497 51.98C717.953 51.524 718.697 51.2 719.729 51.008C720.761 50.816 721.817 50.72 722.897 50.72C723.713 50.72 724.493 50.816 725.237 51.008C726.005 51.2 726.677 51.56 727.253 52.088C727.853 52.592 728.321 53.348 728.657 54.356C729.017 55.34 729.197 56.648 729.197 58.28V68H727.397L726.137 66.38H725.957C725.597 66.836 725.009 67.28 724.193 67.712C723.377 68.144 722.285 68.36 720.917 68.36ZM722.537 66.74C723.425 66.74 724.121 66.524 724.625 66.092C725.153 65.636 725.597 65.132 725.957 64.58V59.72H724.877C723.077 59.72 721.661 60.056 720.629 60.728C719.621 61.376 719.117 62.24 719.117 63.32C719.117 64.496 719.465 65.36 720.161 65.912C720.857 66.464 721.649 66.74 722.537 66.74ZM136.752 101.72C134.496 101.72 132.936 101.168 132.072 100.064C131.232 98.96 130.812 97.472 130.812 95.6V87.86L124.872 101H124.152L118.032 87.5V101H116.592V84.08H120.012L125.412 95.96L130.812 84.08H134.052V95.6C134.052 96.488 134.16 97.352 134.376 98.192C134.616 99.008 134.94 99.68 135.348 100.208C135.756 100.736 136.224 101 136.752 101V101.72ZM140.475 101V88.4C140.475 87.32 140.319 86.456 140.007 85.808C139.719 85.136 139.035 84.8 137.955 84.8H137.415V84.08H140.475C141.315 84.08 141.963 84.188 142.419 84.404C142.899 84.62 143.235 85.04 143.427 85.664C143.619 86.288 143.715 87.2 143.715 88.4V90.92H146.415C147.687 90.92 148.851 91.076 149.907 91.388C150.963 91.676 151.815 92.18 152.463 92.9C153.111 93.62 153.435 94.64 153.435 95.96C153.435 97.256 153.111 98.276 152.463 99.02C151.815 99.74 150.963 100.256 149.907 100.568C148.851 100.856 147.687 101 146.415 101H140.475ZM146.055 99.74C147.231 99.74 148.179 99.452 148.899 98.876C149.643 98.3 150.015 97.328 150.015 95.96C150.015 94.592 149.643 93.62 148.899 93.044C148.179 92.468 147.231 92.18 146.055 92.18C145.695 92.18 145.275 92.216 144.795 92.288C144.339 92.36 143.979 92.444 143.715 92.54V99.38C143.979 99.476 144.339 99.56 144.795 99.632C145.275 99.704 145.695 99.74 146.055 99.74ZM159.015 101C158.175 101 157.515 100.892 157.035 100.676C156.579 100.46 156.255 100.04 156.063 99.416C155.871 98.792 155.775 97.88 155.775 96.68V84.08H159.015V96.68C159.015 97.76 159.159 98.636 159.447 99.308C159.759 99.956 160.455 100.28 161.535 100.28H162.075V101H159.015ZM180.704 101.36C178.928 101.36 177.452 100.964 176.276 100.172C175.1 99.38 174.224 98.312 173.648 96.968C173.072 95.624 172.784 94.148 172.784 92.54C172.784 90.908 173.072 89.432 173.648 88.112C174.224 86.768 175.1 85.7 176.276 84.908C177.452 84.116 178.928 83.72 180.704 83.72C181.976 83.72 183.044 83.816 183.908 84.008C184.796 84.2 185.468 84.524 185.924 84.98C186.38 85.436 186.644 86 186.716 86.672C186.788 87.32 186.824 88.316 186.824 89.66H186.104C186.008 88.124 185.516 86.996 184.628 86.276C183.764 85.532 182.696 85.16 181.424 85.16C180.224 85.16 179.24 85.496 178.472 86.168C177.704 86.816 177.128 87.692 176.744 88.796C176.384 89.9 176.204 91.148 176.204 92.54C176.204 93.908 176.384 95.156 176.744 96.284C177.128 97.388 177.704 98.276 178.472 98.948C179.24 99.596 180.224 99.92 181.424 99.92C182.696 99.92 183.728 99.668 184.52 99.164C185.312 98.66 186.02 97.952 186.644 97.04L187.364 97.58C186.836 98.492 186.236 99.224 185.564 99.776C184.892 100.328 184.148 100.736 183.332 101C182.54 101.24 181.664 101.36 180.704 101.36ZM200.518 101V88.4C200.518 87.32 200.362 86.456 200.05 85.808C199.762 85.136 199.078 84.8 197.998 84.8H197.638V84.08H206.458C207.658 84.08 208.774 84.212 209.806 84.476C210.862 84.74 211.702 85.184 212.326 85.808C212.974 86.432 213.298 87.296 213.298 88.4C213.298 89.408 213.01 90.224 212.434 90.848C211.882 91.472 210.97 91.916 209.698 92.18C211.066 92.444 212.122 92.936 212.866 93.656C213.634 94.352 214.018 95.24 214.018 96.32C214.018 97.52 213.682 98.468 213.01 99.164C212.362 99.836 211.462 100.316 210.31 100.604C209.182 100.868 207.898 101 206.458 101H200.518ZM206.098 99.74C207.538 99.74 208.642 99.464 209.41 98.912C210.202 98.36 210.598 97.496 210.598 96.32C210.598 95.192 210.19 94.34 209.374 93.764C208.582 93.188 207.37 92.9 205.738 92.9H203.758V99.38C204.022 99.476 204.382 99.56 204.838 99.632C205.318 99.704 205.738 99.74 206.098 99.74ZM203.758 91.46H205.738C207.01 91.46 208.018 91.208 208.762 90.704C209.506 90.176 209.878 89.408 209.878 88.4C209.878 87.392 209.518 86.636 208.798 86.132C208.078 85.604 207.178 85.34 206.098 85.34C205.738 85.34 205.318 85.376 204.838 85.448C204.382 85.52 204.022 85.604 203.758 85.7V91.46ZM222.226 101.36C221.722 101.36 221.17 101.276 220.57 101.108C219.994 100.964 219.43 100.7 218.878 100.316C218.326 99.932 217.87 99.416 217.51 98.768C217.174 98.12 217.006 97.304 217.006 96.32C217.006 95 217.426 93.98 218.266 93.26C219.13 92.54 220.258 92.036 221.65 91.748C223.066 91.436 224.578 91.28 226.186 91.28H227.266C227.266 89.6 227.098 88.328 226.762 87.464C226.426 86.576 225.97 85.976 225.394 85.664C224.842 85.328 224.206 85.16 223.486 85.16C222.478 85.16 221.626 85.376 220.93 85.808C220.258 86.24 219.79 87.044 219.526 88.22H217.906C217.906 87.596 217.942 87.02 218.014 86.492C218.086 85.94 218.35 85.436 218.806 84.98C219.262 84.524 220.006 84.2 221.038 84.008C222.07 83.816 223.126 83.72 224.206 83.72C225.022 83.72 225.802 83.816 226.546 84.008C227.314 84.2 227.986 84.56 228.562 85.088C229.162 85.592 229.63 86.348 229.966 87.356C230.326 88.34 230.506 89.648 230.506 91.28V101H228.706L227.446 99.38H227.266C226.906 99.836 226.318 100.28 225.502 100.712C224.686 101.144 223.594 101.36 222.226 101.36ZM223.846 99.74C224.734 99.74 225.43 99.524 225.934 99.092C226.462 98.636 226.906 98.132 227.266 97.58V92.72H226.186C224.386 92.72 222.97 93.056 221.938 93.728C220.93 94.376 220.426 95.24 220.426 96.32C220.426 97.496 220.774 98.36 221.47 98.912C222.166 99.464 222.958 99.74 223.846 99.74ZM255.686 101.72C253.43 101.72 251.87 101.168 251.006 100.064C250.166 98.96 249.746 97.472 249.746 95.6V87.86L243.806 101H243.086L236.966 87.5V101H235.526V84.08H238.946L244.346 95.96L249.746 84.08H252.986V95.6C252.986 96.488 253.094 97.352 253.31 98.192C253.55 99.008 253.874 99.68 254.282 100.208C254.69 100.736 255.158 101 255.686 101V101.72ZM259.409 101V88.4C259.409 87.32 259.253 86.456 258.941 85.808C258.653 85.136 257.969 84.8 256.889 84.8H256.349V84.08H259.409C260.249 84.08 260.897 84.188 261.353 84.404C261.833 84.62 262.169 85.04 262.361 85.664C262.553 86.288 262.649 87.2 262.649 88.4V97.76L270.209 84.08H273.449V101H270.209V87.32L262.649 101H259.409ZM287.987 101V88.4C287.987 87.32 287.831 86.456 287.519 85.808C287.231 85.136 286.547 84.8 285.467 84.8H285.107V84.08H301.667V101H298.427V85.52H291.227V101H287.987ZM313.806 101.36C312.126 101.36 310.698 100.964 309.522 100.172C308.346 99.38 307.446 98.312 306.822 96.968C306.198 95.624 305.886 94.148 305.886 92.54C305.886 90.908 306.198 89.432 306.822 88.112C307.446 86.768 308.346 85.7 309.522 84.908C310.698 84.116 312.126 83.72 313.806 83.72C315.486 83.72 316.914 84.116 318.09 84.908C319.266 85.7 320.166 86.768 320.79 88.112C321.414 89.432 321.726 90.908 321.726 92.54C321.726 94.148 321.414 95.624 320.79 96.968C320.166 98.312 319.266 99.38 318.09 100.172C316.914 100.964 315.486 101.36 313.806 101.36ZM313.806 99.92C314.718 99.92 315.51 99.596 316.182 98.948C316.854 98.276 317.37 97.388 317.73 96.284C318.114 95.156 318.306 93.908 318.306 92.54C318.306 91.148 318.114 89.9 317.73 88.796C317.37 87.692 316.854 86.816 316.182 86.168C315.51 85.496 314.718 85.16 313.806 85.16C312.918 85.16 312.126 85.496 311.43 86.168C310.758 86.816 310.23 87.692 309.846 88.796C309.486 89.9 309.306 91.148 309.306 92.54C309.306 93.908 309.486 95.156 309.846 96.284C310.23 97.388 310.758 98.276 311.43 98.948C312.126 99.596 312.918 99.92 313.806 99.92ZM323.228 106.58V100.82C323.228 100.46 323.348 100.16 323.588 99.92C323.828 99.68 324.128 99.56 324.488 99.56H325.568C326.12 98.36 326.552 97.112 326.864 95.816C327.176 94.496 327.392 93.2 327.512 91.928C327.656 90.656 327.728 89.48 327.728 88.4C327.728 87.32 327.572 86.456 327.26 85.808C326.972 85.136 326.288 84.8 325.208 84.8V84.08H339.608V99.56H341.048C341.408 99.56 341.708 99.68 341.948 99.92C342.188 100.16 342.308 100.46 342.308 100.82V106.58H340.868C340.748 105.236 340.532 104.156 340.22 103.34C339.932 102.524 339.536 101.924 339.032 101.54C338.528 101.18 337.88 101 337.088 101H328.448C327.68 101 327.032 101.18 326.504 101.54C326 101.924 325.604 102.524 325.316 103.34C325.028 104.156 324.812 105.236 324.668 106.58H323.228ZM328.088 99.56H336.368V85.52H330.068C330.068 88.592 329.912 91.256 329.6 93.512C329.312 95.744 328.808 97.76 328.088 99.56ZM346.136 101V88.4C346.136 87.32 345.98 86.456 345.668 85.808C345.38 85.136 344.696 84.8 343.616 84.8H343.256V84.08H359.816V101H356.576V85.52H349.376V101H346.136ZM365.51 101V88.4C365.51 87.32 365.354 86.456 365.042 85.808C364.754 85.136 364.07 84.8 362.99 84.8H362.45V84.08H365.51C366.35 84.08 366.998 84.188 367.454 84.404C367.934 84.62 368.27 85.04 368.462 85.664C368.654 86.288 368.75 87.2 368.75 88.4V97.76L376.31 84.08H379.55V101H376.31V87.32L368.75 101H365.51ZM391.677 101.36C389.901 101.36 388.425 100.964 387.249 100.172C386.073 99.38 385.197 98.312 384.621 96.968C384.045 95.624 383.757 94.148 383.757 92.54C383.757 90.908 384.045 89.432 384.621 88.112C385.197 86.768 386.073 85.7 387.249 84.908C388.425 84.116 389.901 83.72 391.677 83.72C392.949 83.72 394.017 83.816 394.881 84.008C395.769 84.2 396.441 84.524 396.897 84.98C397.353 85.436 397.617 86 397.689 86.672C397.761 87.32 397.797 88.316 397.797 89.66H397.077C396.981 88.124 396.489 86.996 395.601 86.276C394.737 85.532 393.669 85.16 392.397 85.16C391.197 85.16 390.213 85.496 389.445 86.168C388.677 86.816 388.101 87.692 387.717 88.796C387.357 89.9 387.177 91.148 387.177 92.54C387.177 93.908 387.357 95.156 387.717 96.284C388.101 97.388 388.677 98.276 389.445 98.948C390.213 99.596 391.197 99.92 392.397 99.92C393.669 99.92 394.701 99.668 395.493 99.164C396.285 98.66 396.993 97.952 397.617 97.04L398.337 97.58C397.809 98.492 397.209 99.224 396.537 99.776C395.865 100.328 395.121 100.736 394.305 101C393.513 101.24 392.637 101.36 391.677 101.36ZM402.635 101V88.4C402.635 87.32 402.479 86.456 402.167 85.808C401.879 85.136 401.195 84.8 400.115 84.8H399.575V84.08H402.635C403.475 84.08 404.123 84.188 404.579 84.404C405.059 84.62 405.395 85.04 405.587 85.664C405.779 86.288 405.875 87.2 405.875 88.4V90.92H408.575C409.847 90.92 411.011 91.076 412.067 91.388C413.123 91.676 413.975 92.18 414.623 92.9C415.271 93.62 415.595 94.64 415.595 95.96C415.595 97.256 415.271 98.276 414.623 99.02C413.975 99.74 413.123 100.256 412.067 100.568C411.011 100.856 409.847 101 408.575 101H402.635ZM408.215 99.74C409.391 99.74 410.339 99.452 411.059 98.876C411.803 98.3 412.175 97.328 412.175 95.96C412.175 94.592 411.803 93.62 411.059 93.044C410.339 92.468 409.391 92.18 408.215 92.18C407.855 92.18 407.435 92.216 406.955 92.288C406.499 92.36 406.139 92.444 405.875 92.54V99.38C406.139 99.476 406.499 99.56 406.955 99.632C407.435 99.704 407.855 99.74 408.215 99.74ZM421.175 101C420.335 101 419.675 100.892 419.195 100.676C418.739 100.46 418.415 100.04 418.223 99.416C418.031 98.792 417.935 97.88 417.935 96.68V84.08H421.175V96.68C421.175 97.76 421.319 98.636 421.607 99.308C421.919 99.956 422.615 100.28 423.695 100.28H424.235V101H421.175ZM427.276 101V88.4C427.276 87.32 427.12 86.456 426.808 85.808C426.52 85.136 425.836 84.8 424.756 84.8H424.396V84.08H433.216C434.416 84.08 435.532 84.212 436.564 84.476C437.62 84.74 438.46 85.184 439.084 85.808C439.732 86.432 440.056 87.296 440.056 88.4C440.056 89.408 439.768 90.224 439.192 90.848C438.64 91.472 437.728 91.916 436.456 92.18C437.824 92.444 438.88 92.936 439.624 93.656C440.392 94.352 440.776 95.24 440.776 96.32C440.776 97.52 440.44 98.468 439.768 99.164C439.12 99.836 438.22 100.316 437.068 100.604C435.94 100.868 434.656 101 433.216 101H427.276ZM432.856 99.74C434.296 99.74 435.4 99.464 436.168 98.912C436.96 98.36 437.356 97.496 437.356 96.32C437.356 95.192 436.948 94.34 436.132 93.764C435.34 93.188 434.128 92.9 432.496 92.9H430.516V99.38C430.78 99.476 431.14 99.56 431.596 99.632C432.076 99.704 432.496 99.74 432.856 99.74ZM430.516 91.46H432.496C433.768 91.46 434.776 91.208 435.52 90.704C436.264 90.176 436.636 89.408 436.636 88.4C436.636 87.392 436.276 86.636 435.556 86.132C434.836 85.604 433.936 85.34 432.856 85.34C432.496 85.34 432.076 85.376 431.596 85.448C431.14 85.52 430.78 85.604 430.516 85.7V91.46ZM448.983 101.36C448.479 101.36 447.927 101.276 447.327 101.108C446.751 100.964 446.187 100.7 445.635 100.316C445.083 99.932 444.627 99.416 444.267 98.768C443.931 98.12 443.763 97.304 443.763 96.32C443.763 95 444.183 93.98 445.023 93.26C445.887 92.54 447.015 92.036 448.407 91.748C449.823 91.436 451.335 91.28 452.943 91.28H454.023C454.023 89.6 453.855 88.328 453.519 87.464C453.183 86.576 452.727 85.976 452.151 85.664C451.599 85.328 450.963 85.16 450.243 85.16C449.235 85.16 448.383 85.376 447.687 85.808C447.015 86.24 446.547 87.044 446.283 88.22H444.663C444.663 87.596 444.699 87.02 444.771 86.492C444.843 85.94 445.107 85.436 445.563 84.98C446.019 84.524 446.763 84.2 447.795 84.008C448.827 83.816 449.883 83.72 450.963 83.72C451.779 83.72 452.559 83.816 453.303 84.008C454.071 84.2 454.743 84.56 455.319 85.088C455.919 85.592 456.387 86.348 456.723 87.356C457.083 88.34 457.263 89.648 457.263 91.28V101H455.463L454.203 99.38H454.023C453.663 99.836 453.075 100.28 452.259 100.712C451.443 101.144 450.351 101.36 448.983 101.36ZM450.603 99.74C451.491 99.74 452.187 99.524 452.691 99.092C453.219 98.636 453.663 98.132 454.023 97.58V92.72H452.943C451.143 92.72 449.727 93.056 448.695 93.728C447.687 94.376 447.183 95.24 447.183 96.32C447.183 97.496 447.531 98.36 448.227 98.912C448.923 99.464 449.715 99.74 450.603 99.74ZM468.871 101.36C467.191 101.36 465.787 100.964 464.659 100.172C463.555 99.38 462.715 98.312 462.139 96.968C461.587 95.624 461.311 94.148 461.311 92.54C461.311 90.908 461.599 89.432 462.175 88.112C462.751 86.768 463.579 85.7 464.659 84.908C465.739 84.116 467.023 83.72 468.511 83.72C470.143 83.72 471.487 84.032 472.543 84.656C473.623 85.256 474.415 86.144 474.919 87.32C475.447 88.496 475.711 89.936 475.711 91.64L475.639 93.08H464.731C464.731 95.048 465.151 96.68 465.991 97.976C466.855 99.272 468.055 99.92 469.591 99.92C470.767 99.92 471.739 99.668 472.507 99.164C473.299 98.66 474.007 97.952 474.631 97.04L475.351 97.58C474.823 98.492 474.223 99.224 473.551 99.776C472.903 100.328 472.183 100.736 471.391 101C470.623 101.24 469.783 101.36 468.871 101.36ZM464.731 91.64H472.291C472.291 89.552 471.979 87.956 471.355 86.852C470.731 85.724 469.783 85.16 468.511 85.16C467.791 85.16 467.143 85.448 466.567 86.024C466.015 86.576 465.571 87.344 465.235 88.328C464.899 89.288 464.731 90.392 464.731 91.64ZM500.022 101.72C497.766 101.72 496.206 101.168 495.342 100.064C494.502 98.96 494.082 97.472 494.082 95.6V87.86L488.142 101H487.422L481.302 87.5V101H479.862V84.08H483.282L488.682 95.96L494.082 84.08H497.322V95.6C497.322 96.488 497.43 97.352 497.646 98.192C497.886 99.008 498.21 99.68 498.618 100.208C499.026 100.736 499.494 101 500.022 101V101.72ZM510.224 106.58V100.82C510.224 100.46 510.344 100.16 510.584 99.92C510.824 99.68 511.124 99.56 511.484 99.56H512.564C513.116 98.36 513.548 97.112 513.86 95.816C514.172 94.496 514.388 93.2 514.508 91.928C514.652 90.656 514.724 89.48 514.724 88.4C514.724 87.32 514.568 86.456 514.256 85.808C513.968 85.136 513.284 84.8 512.204 84.8V84.08H526.604V99.56H528.044C528.404 99.56 528.704 99.68 528.944 99.92C529.184 100.16 529.304 100.46 529.304 100.82V106.58H527.864C527.744 105.236 527.528 104.156 527.216 103.34C526.928 102.524 526.532 101.924 526.028 101.54C525.524 101.18 524.876 101 524.084 101H515.444C514.676 101 514.028 101.18 513.5 101.54C512.996 101.924 512.6 102.524 512.312 103.34C512.024 104.156 511.808 105.236 511.664 106.58H510.224ZM515.084 99.56H523.364V85.52H517.064C517.064 88.592 516.908 91.256 516.596 93.512C516.308 95.744 515.804 97.76 515.084 99.56ZM539.509 101.36C537.829 101.36 536.401 100.964 535.225 100.172C534.049 99.38 533.149 98.312 532.525 96.968C531.901 95.624 531.589 94.148 531.589 92.54C531.589 90.908 531.901 89.432 532.525 88.112C533.149 86.768 534.049 85.7 535.225 84.908C536.401 84.116 537.829 83.72 539.509 83.72C541.189 83.72 542.617 84.116 543.793 84.908C544.969 85.7 545.869 86.768 546.493 88.112C547.117 89.432 547.429 90.908 547.429 92.54C547.429 94.148 547.117 95.624 546.493 96.968C545.869 98.312 544.969 99.38 543.793 100.172C542.617 100.964 541.189 101.36 539.509 101.36ZM539.509 99.92C540.421 99.92 541.213 99.596 541.885 98.948C542.557 98.276 543.073 97.388 543.433 96.284C543.817 95.156 544.009 93.908 544.009 92.54C544.009 91.148 543.817 89.9 543.433 88.796C543.073 87.692 542.557 86.816 541.885 86.168C541.213 85.496 540.421 85.16 539.509 85.16C538.621 85.16 537.829 85.496 537.133 86.168C536.461 86.816 535.933 87.692 535.549 88.796C535.189 89.9 535.009 91.148 535.009 92.54C535.009 93.908 535.189 95.156 535.549 96.284C535.933 97.388 536.461 98.276 537.133 98.948C537.829 99.596 538.621 99.92 539.509 99.92ZM552.011 101V88.4C552.011 87.32 551.855 86.456 551.543 85.808C551.255 85.136 550.571 84.8 549.491 84.8H549.131V84.08H561.011C562.091 84.08 562.811 84.38 563.171 84.98C563.531 85.58 563.711 86.24 563.711 86.96V89.12H562.991C562.991 87.944 562.631 87.056 561.911 86.456C561.191 85.832 560.291 85.52 559.211 85.52H555.251V101H552.011ZM574.243 101.36C572.563 101.36 571.135 100.964 569.959 100.172C568.783 99.38 567.883 98.312 567.259 96.968C566.635 95.624 566.323 94.148 566.323 92.54C566.323 90.908 566.635 89.432 567.259 88.112C567.883 86.768 568.783 85.7 569.959 84.908C571.135 84.116 572.563 83.72 574.243 83.72C575.923 83.72 577.351 84.116 578.527 84.908C579.703 85.7 580.603 86.768 581.227 88.112C581.851 89.432 582.163 90.908 582.163 92.54C582.163 94.148 581.851 95.624 581.227 96.968C580.603 98.312 579.703 99.38 578.527 100.172C577.351 100.964 575.923 101.36 574.243 101.36ZM574.243 99.92C575.155 99.92 575.947 99.596 576.619 98.948C577.291 98.276 577.807 97.388 578.167 96.284C578.551 95.156 578.743 93.908 578.743 92.54C578.743 91.148 578.551 89.9 578.167 88.796C577.807 87.692 577.291 86.816 576.619 86.168C575.947 85.496 575.155 85.16 574.243 85.16C573.355 85.16 572.563 85.496 571.867 86.168C571.195 86.816 570.667 87.692 570.283 88.796C569.923 89.9 569.743 91.148 569.743 92.54C569.743 93.908 569.923 95.156 570.283 96.284C570.667 97.388 571.195 98.276 571.867 98.948C572.563 99.596 573.355 99.92 574.243 99.92ZM586.745 101V88.4C586.745 87.32 586.589 86.456 586.277 85.808C585.989 85.136 585.305 84.8 584.225 84.8H583.865V84.08H592.685C593.885 84.08 595.001 84.212 596.033 84.476C597.089 84.74 597.929 85.184 598.553 85.808C599.201 86.432 599.525 87.296 599.525 88.4C599.525 89.408 599.237 90.224 598.661 90.848C598.109 91.472 597.197 91.916 595.925 92.18C597.293 92.444 598.349 92.936 599.093 93.656C599.861 94.352 600.245 95.24 600.245 96.32C600.245 97.52 599.909 98.468 599.237 99.164C598.589 99.836 597.689 100.316 596.537 100.604C595.409 100.868 594.125 101 592.685 101H586.745ZM592.325 99.74C593.765 99.74 594.869 99.464 595.637 98.912C596.429 98.36 596.825 97.496 596.825 96.32C596.825 95.192 596.417 94.34 595.601 93.764C594.809 93.188 593.597 92.9 591.965 92.9H589.985V99.38C590.249 99.476 590.609 99.56 591.065 99.632C591.545 99.704 591.965 99.74 592.325 99.74ZM589.985 91.46H591.965C593.237 91.46 594.245 91.208 594.989 90.704C595.733 90.176 596.105 89.408 596.105 88.4C596.105 87.392 595.745 86.636 595.025 86.132C594.305 85.604 593.405 85.34 592.325 85.34C591.965 85.34 591.545 85.376 591.065 85.448C590.609 85.52 590.249 85.604 589.985 85.7V91.46ZM611.368 101.36C609.688 101.36 608.26 100.964 607.084 100.172C605.908 99.38 605.008 98.312 604.384 96.968C603.76 95.624 603.448 94.148 603.448 92.54C603.448 90.908 603.76 89.432 604.384 88.112C605.008 86.768 605.908 85.7 607.084 84.908C608.26 84.116 609.688 83.72 611.368 83.72C613.048 83.72 614.476 84.116 615.652 84.908C616.828 85.7 617.728 86.768 618.352 88.112C618.976 89.432 619.288 90.908 619.288 92.54C619.288 94.148 618.976 95.624 618.352 96.968C617.728 98.312 616.828 99.38 615.652 100.172C614.476 100.964 613.048 101.36 611.368 101.36ZM611.368 99.92C612.28 99.92 613.072 99.596 613.744 98.948C614.416 98.276 614.932 97.388 615.292 96.284C615.676 95.156 615.868 93.908 615.868 92.54C615.868 91.148 615.676 89.9 615.292 88.796C614.932 87.692 614.416 86.816 613.744 86.168C613.072 85.496 612.28 85.16 611.368 85.16C610.48 85.16 609.688 85.496 608.992 86.168C608.32 86.816 607.792 87.692 607.408 88.796C607.048 89.9 606.868 91.148 606.868 92.54C606.868 93.908 607.048 95.156 607.408 96.284C607.792 97.388 608.32 98.276 608.992 98.948C609.688 99.596 610.48 99.92 611.368 99.92ZM624.05 107.84V88.4C624.05 87.32 623.894 86.456 623.582 85.808C623.294 85.136 622.61 84.8 621.53 84.8H620.81V84.08H624.05C624.962 84.08 625.646 84.212 626.102 84.476C626.582 84.74 626.918 85.148 627.11 85.7C627.59 85.22 628.238 84.776 629.054 84.368C629.87 83.936 630.902 83.72 632.15 83.72C633.59 83.72 634.79 84.116 635.75 84.908C636.71 85.7 637.43 86.768 637.91 88.112C638.39 89.432 638.63 90.908 638.63 92.54C638.63 94.148 638.378 95.624 637.874 96.968C637.394 98.312 636.65 99.38 635.642 100.172C634.634 100.964 633.35 101.36 631.79 101.36C630.782 101.36 629.918 101.24 629.198 101C628.478 100.784 627.842 100.544 627.29 100.28V107.84H624.05ZM630.71 99.92C631.79 99.92 632.654 99.596 633.302 98.948C633.974 98.276 634.454 97.388 634.742 96.284C635.054 95.156 635.21 93.908 635.21 92.54C635.21 91.148 635.066 89.9 634.778 88.796C634.49 87.692 634.034 86.816 633.41 86.168C632.81 85.496 632.03 85.16 631.07 85.16C630.086 85.16 629.294 85.388 628.694 85.844C628.094 86.276 627.626 86.768 627.29 87.32V98.84C627.842 99.104 628.406 99.356 628.982 99.596C629.582 99.812 630.158 99.92 630.71 99.92ZM644.249 101.504C643.721 101.504 643.265 101.312 642.881 100.928C642.497 100.544 642.305 100.076 642.305 99.524C642.305 98.996 642.497 98.54 642.881 98.156C643.265 97.772 643.721 97.58 644.249 97.58C644.801 97.58 645.257 97.772 645.617 98.156C646.001 98.54 646.193 98.996 646.193 99.524C646.193 100.076 646.001 100.544 645.617 100.928C645.233 101.312 644.777 101.504 644.249 101.504Z" fill="#FBB03B"/>
<path d="M117.816 134V114.56C117.816 113.48 117.66 112.616 117.348 111.968C117.06 111.296 116.376 110.96 115.296 110.96H114.576V110.24H123.936C124.872 110.24 125.892 110.312 126.996 110.456C128.124 110.6 129.192 110.888 130.2 111.32C131.208 111.728 132.036 112.352 132.684 113.192C133.332 114.032 133.656 115.148 133.656 116.54C133.656 117.62 133.284 118.628 132.54 119.564C131.796 120.476 130.608 121.208 128.976 121.76C130.536 122 131.748 122.396 132.612 122.948C133.476 123.476 134.076 124.124 134.412 124.892C134.748 125.66 134.916 126.536 134.916 127.52C134.916 128.864 134.616 129.968 134.016 130.832C133.416 131.672 132.624 132.32 131.64 132.776C130.68 133.232 129.612 133.556 128.436 133.748C127.284 133.916 126.144 134 125.016 134H117.816ZM124.476 132.74C126.66 132.74 128.34 132.308 129.516 131.444C130.716 130.58 131.316 129.332 131.316 127.7C131.316 126.068 130.74 124.82 129.588 123.956C128.436 123.092 126.732 122.66 124.476 122.66H121.056V132.236C121.608 132.404 122.172 132.536 122.748 132.632C123.348 132.704 123.924 132.74 124.476 132.74ZM121.056 121.22H124.476C125.436 121.22 126.348 121.04 127.212 120.68C128.1 120.32 128.82 119.78 129.372 119.06C129.948 118.34 130.236 117.44 130.236 116.36C130.236 115.208 129.888 114.272 129.192 113.552C128.52 112.832 127.68 112.316 126.672 112.004C125.688 111.668 124.716 111.5 123.756 111.5C123.3 111.5 122.82 111.536 122.316 111.608C121.836 111.68 121.416 111.764 121.056 111.86V121.22ZM161.199 134.36C160.287 134.36 159.387 134.132 158.499 133.676C157.635 133.22 156.795 132.488 155.979 131.48L151.839 126.26V134H148.599V121.4C148.599 120.32 148.443 119.456 148.131 118.808C147.843 118.136 147.159 117.8 146.079 117.8H145.359V117.08H148.599C149.439 117.08 150.087 117.188 150.543 117.404C151.023 117.62 151.359 118.04 151.551 118.664C151.743 119.288 151.839 120.2 151.839 121.4V125.72L156.339 119.42C156.867 118.7 157.479 118.136 158.175 117.728C158.895 117.296 159.843 117.08 161.019 117.08H161.919V117.98C161.367 117.98 160.803 118.1 160.227 118.34C159.651 118.556 159.135 118.976 158.679 119.6L154.719 125.18L158.859 130.4C159.483 131.216 160.119 131.876 160.767 132.38C161.439 132.884 162.183 133.196 162.999 133.316V134C162.807 134.096 162.543 134.18 162.207 134.252C161.895 134.324 161.559 134.36 161.199 134.36ZM171.528 134.36C169.848 134.36 168.42 133.964 167.244 133.172C166.068 132.38 165.168 131.312 164.544 129.968C163.92 128.624 163.608 127.148 163.608 125.54C163.608 123.908 163.92 122.432 164.544 121.112C165.168 119.768 166.068 118.7 167.244 117.908C168.42 117.116 169.848 116.72 171.528 116.72C173.208 116.72 174.636 117.116 175.812 117.908C176.988 118.7 177.888 119.768 178.512 121.112C179.136 122.432 179.448 123.908 179.448 125.54C179.448 127.148 179.136 128.624 178.512 129.968C177.888 131.312 176.988 132.38 175.812 133.172C174.636 133.964 173.208 134.36 171.528 134.36ZM171.528 132.92C172.44 132.92 173.232 132.596 173.904 131.948C174.576 131.276 175.092 130.388 175.452 129.284C175.836 128.156 176.028 126.908 176.028 125.54C176.028 124.148 175.836 122.9 175.452 121.796C175.092 120.692 174.576 119.816 173.904 119.168C173.232 118.496 172.44 118.16 171.528 118.16C170.64 118.16 169.848 118.496 169.152 119.168C168.48 119.816 167.952 120.692 167.568 121.796C167.208 122.9 167.028 124.148 167.028 125.54C167.028 126.908 167.208 128.156 167.568 129.284C167.952 130.388 168.48 131.276 169.152 131.948C169.848 132.596 170.64 132.92 171.528 132.92ZM188.422 134V118.52H186.622C185.542 118.52 184.642 118.832 183.922 119.456C183.202 120.056 182.842 120.944 182.842 122.12H182.122V119.96C182.122 119.24 182.302 118.58 182.662 117.98C183.022 117.38 183.742 117.08 184.822 117.08H197.602V118.52H191.662V134H188.422ZM207.177 134.36C205.497 134.36 204.069 133.964 202.893 133.172C201.717 132.38 200.817 131.312 200.193 129.968C199.569 128.624 199.257 127.148 199.257 125.54C199.257 123.908 199.569 122.432 200.193 121.112C200.817 119.768 201.717 118.7 202.893 117.908C204.069 117.116 205.497 116.72 207.177 116.72C208.857 116.72 210.285 117.116 211.461 117.908C212.637 118.7 213.537 119.768 214.161 121.112C214.785 122.432 215.097 123.908 215.097 125.54C215.097 127.148 214.785 128.624 214.161 129.968C213.537 131.312 212.637 132.38 211.461 133.172C210.285 133.964 208.857 134.36 207.177 134.36ZM207.177 132.92C208.089 132.92 208.881 132.596 209.553 131.948C210.225 131.276 210.741 130.388 211.101 129.284C211.485 128.156 211.677 126.908 211.677 125.54C211.677 124.148 211.485 122.9 211.101 121.796C210.741 120.692 210.225 119.816 209.553 119.168C208.881 118.496 208.089 118.16 207.177 118.16C206.289 118.16 205.497 118.496 204.801 119.168C204.129 119.816 203.601 120.692 203.217 121.796C202.857 122.9 202.677 124.148 202.677 125.54C202.677 126.908 202.857 128.156 203.217 129.284C203.601 130.388 204.129 131.276 204.801 131.948C205.497 132.596 206.289 132.92 207.177 132.92ZM219.859 140.84V121.4C219.859 120.32 219.703 119.456 219.391 118.808C219.103 118.136 218.419 117.8 217.339 117.8H216.619V117.08H219.859C220.771 117.08 221.455 117.212 221.911 117.476C222.391 117.74 222.727 118.148 222.919 118.7C223.399 118.22 224.047 117.776 224.863 117.368C225.679 116.936 226.711 116.72 227.959 116.72C229.399 116.72 230.599 117.116 231.559 117.908C232.519 118.7 233.239 119.768 233.719 121.112C234.199 122.432 234.439 123.908 234.439 125.54C234.439 127.148 234.187 128.624 233.683 129.968C233.203 131.312 232.459 132.38 231.451 133.172C230.443 133.964 229.159 134.36 227.599 134.36C226.591 134.36 225.727 134.24 225.007 134C224.287 133.784 223.651 133.544 223.099 133.28V140.84H219.859ZM226.519 132.92C227.599 132.92 228.463 132.596 229.111 131.948C229.783 131.276 230.263 130.388 230.551 129.284C230.863 128.156 231.019 126.908 231.019 125.54C231.019 124.148 230.875 122.9 230.587 121.796C230.299 120.692 229.843 119.816 229.219 119.168C228.619 118.496 227.839 118.16 226.879 118.16C225.895 118.16 225.103 118.388 224.503 118.844C223.903 119.276 223.435 119.768 223.099 120.32V131.84C223.651 132.104 224.215 132.356 224.791 132.596C225.391 132.812 225.967 132.92 226.519 132.92ZM245.638 134.36C243.958 134.36 242.53 133.964 241.354 133.172C240.178 132.38 239.278 131.312 238.654 129.968C238.03 128.624 237.718 127.148 237.718 125.54C237.718 123.908 238.03 122.432 238.654 121.112C239.278 119.768 240.178 118.7 241.354 117.908C242.53 117.116 243.958 116.72 245.638 116.72C247.318 116.72 248.746 117.116 249.922 117.908C251.098 118.7 251.998 119.768 252.622 121.112C253.246 122.432 253.558 123.908 253.558 125.54C253.558 127.148 253.246 128.624 252.622 129.968C251.998 131.312 251.098 132.38 249.922 133.172C248.746 133.964 247.318 134.36 245.638 134.36ZM245.638 132.92C246.55 132.92 247.342 132.596 248.014 131.948C248.686 131.276 249.202 130.388 249.562 129.284C249.946 128.156 250.138 126.908 250.138 125.54C250.138 124.148 249.946 122.9 249.562 121.796C249.202 120.692 248.686 119.816 248.014 119.168C247.342 118.496 246.55 118.16 245.638 118.16C244.75 118.16 243.958 118.496 243.262 119.168C242.59 119.816 242.062 120.692 241.678 121.796C241.318 122.9 241.138 124.148 241.138 125.54C241.138 126.908 241.318 128.156 241.678 129.284C242.062 130.388 242.59 131.276 243.262 131.948C243.958 132.596 244.75 132.92 245.638 132.92ZM277.94 134.72C275.684 134.72 274.124 134.168 273.26 133.064C272.42 131.96 272 130.472 272 128.6V120.86L266.06 134H265.34L259.22 120.5V134H257.78V117.08H261.2L266.6 128.96L272 117.08H275.24V128.6C275.24 129.488 275.348 130.352 275.564 131.192C275.804 132.008 276.128 132.68 276.536 133.208C276.944 133.736 277.412 134 277.94 134V134.72ZM290.518 134V121.4C290.518 120.32 290.362 119.456 290.05 118.808C289.762 118.136 289.078 117.8 287.998 117.8H287.638V117.08H296.458C297.658 117.08 298.774 117.212 299.806 117.476C300.862 117.74 301.702 118.184 302.326 118.808C302.974 119.432 303.298 120.296 303.298 121.4C303.298 122.408 303.01 123.224 302.434 123.848C301.882 124.472 300.97 124.916 299.698 125.18C301.066 125.444 302.122 125.936 302.866 126.656C303.634 127.352 304.018 128.24 304.018 129.32C304.018 130.52 303.682 131.468 303.01 132.164C302.362 132.836 301.462 133.316 300.31 133.604C299.182 133.868 297.898 134 296.458 134H290.518ZM296.098 132.74C297.538 132.74 298.642 132.464 299.41 131.912C300.202 131.36 300.598 130.496 300.598 129.32C300.598 128.192 300.19 127.34 299.374 126.764C298.582 126.188 297.37 125.9 295.738 125.9H293.758V132.38C294.022 132.476 294.382 132.56 294.838 132.632C295.318 132.704 295.738 132.74 296.098 132.74ZM293.758 124.46H295.738C297.01 124.46 298.018 124.208 298.762 123.704C299.506 123.176 299.878 122.408 299.878 121.4C299.878 120.392 299.518 119.636 298.798 119.132C298.078 118.604 297.178 118.34 296.098 118.34C295.738 118.34 295.318 118.376 294.838 118.448C294.382 118.52 294.022 118.604 293.758 118.7V124.46ZM315.142 134.36C313.366 134.36 311.89 133.964 310.714 133.172C309.538 132.38 308.662 131.312 308.086 129.968C307.51 128.624 307.222 127.148 307.222 125.54C307.222 123.908 307.51 122.432 308.086 121.112C308.662 119.768 309.538 118.7 310.714 117.908C311.89 117.116 313.366 116.72 315.142 116.72C316.414 116.72 317.482 116.816 318.346 117.008C319.234 117.2 319.906 117.524 320.362 117.98C320.818 118.436 321.082 119 321.154 119.672C321.226 120.32 321.262 121.316 321.262 122.66H320.542C320.446 121.124 319.954 119.996 319.066 119.276C318.202 118.532 317.134 118.16 315.862 118.16C314.662 118.16 313.678 118.496 312.91 119.168C312.142 119.816 311.566 120.692 311.182 121.796C310.822 122.9 310.642 124.148 310.642 125.54C310.642 126.908 310.822 128.156 311.182 129.284C311.566 130.388 312.142 131.276 312.91 131.948C313.678 132.596 314.662 132.92 315.862 132.92C317.134 132.92 318.166 132.668 318.958 132.164C319.75 131.66 320.458 130.952 321.082 130.04L321.802 130.58C321.274 131.492 320.674 132.224 320.002 132.776C319.33 133.328 318.586 133.736 317.77 134C316.978 134.24 316.102 134.36 315.142 134.36ZM332.184 134.36C330.504 134.36 329.1 133.964 327.972 133.172C326.868 132.38 326.028 131.312 325.452 129.968C324.9 128.624 324.624 127.148 324.624 125.54C324.624 123.908 324.912 122.432 325.488 121.112C326.064 119.768 326.892 118.7 327.972 117.908C329.052 117.116 330.336 116.72 331.824 116.72C333.456 116.72 334.8 117.032 335.856 117.656C336.936 118.256 337.728 119.144 338.232 120.32C338.76 121.496 339.024 122.936 339.024 124.64L338.952 126.08H328.044C328.044 128.048 328.464 129.68 329.304 130.976C330.168 132.272 331.368 132.92 332.904 132.92C334.08 132.92 335.052 132.668 335.82 132.164C336.612 131.66 337.32 130.952 337.944 130.04L338.664 130.58C338.136 131.492 337.536 132.224 336.864 132.776C336.216 133.328 335.496 133.736 334.704 134C333.936 134.24 333.096 134.36 332.184 134.36ZM328.044 124.64H335.604C335.604 122.552 335.292 120.956 334.668 119.852C334.044 118.724 333.096 118.16 331.824 118.16C331.104 118.16 330.456 118.448 329.88 119.024C329.328 119.576 328.884 120.344 328.548 121.328C328.212 122.288 328.044 123.392 328.044 124.64ZM352.714 140.84V121.4C352.714 120.32 352.558 119.456 352.246 118.808C351.958 118.136 351.274 117.8 350.194 117.8H349.474V117.08H352.714C353.626 117.08 354.31 117.212 354.766 117.476C355.246 117.74 355.582 118.148 355.774 118.7C356.254 118.22 356.902 117.776 357.718 117.368C358.534 116.936 359.566 116.72 360.814 116.72C362.254 116.72 363.454 117.116 364.414 117.908C365.374 118.7 366.094 119.768 366.574 121.112C367.054 122.432 367.294 123.908 367.294 125.54C367.294 127.148 367.042 128.624 366.538 129.968C366.058 131.312 365.314 132.38 364.306 133.172C363.298 133.964 362.014 134.36 360.454 134.36C359.446 134.36 358.582 134.24 357.862 134C357.142 133.784 356.506 133.544 355.954 133.28V140.84H352.714ZM359.374 132.92C360.454 132.92 361.318 132.596 361.966 131.948C362.638 131.276 363.118 130.388 363.406 129.284C363.718 128.156 363.874 126.908 363.874 125.54C363.874 124.148 363.73 122.9 363.442 121.796C363.154 120.692 362.698 119.816 362.074 119.168C361.474 118.496 360.694 118.16 359.734 118.16C358.75 118.16 357.958 118.388 357.358 118.844C356.758 119.276 356.29 119.768 355.954 120.32V131.84C356.506 132.104 357.07 132.356 357.646 132.596C358.246 132.812 358.822 132.92 359.374 132.92ZM375.577 134.36C375.073 134.36 374.521 134.276 373.921 134.108C373.345 133.964 372.781 133.7 372.229 133.316C371.677 132.932 371.221 132.416 370.861 131.768C370.525 131.12 370.357 130.304 370.357 129.32C370.357 128 370.777 126.98 371.617 126.26C372.481 125.54 373.609 125.036 375.001 124.748C376.417 124.436 377.929 124.28 379.537 124.28H380.617C380.617 122.6 380.449 121.328 380.113 120.464C379.777 119.576 379.321 118.976 378.745 118.664C378.193 118.328 377.557 118.16 376.837 118.16C375.829 118.16 374.977 118.376 374.281 118.808C373.609 119.24 373.141 120.044 372.877 121.22H371.257C371.257 120.596 371.293 120.02 371.365 119.492C371.437 118.94 371.701 118.436 372.157 117.98C372.613 117.524 373.357 117.2 374.389 117.008C375.421 116.816 376.477 116.72 377.557 116.72C378.373 116.72 379.153 116.816 379.897 117.008C380.665 117.2 381.337 117.56 381.913 118.088C382.513 118.592 382.981 119.348 383.317 120.356C383.677 121.34 383.857 122.648 383.857 124.28V134H382.057L380.797 132.38H380.617C380.257 132.836 379.669 133.28 378.853 133.712C378.037 134.144 376.945 134.36 375.577 134.36ZM377.197 132.74C378.085 132.74 378.781 132.524 379.285 132.092C379.813 131.636 380.257 131.132 380.617 130.58V125.72H379.537C377.737 125.72 376.321 126.056 375.289 126.728C374.281 127.376 373.777 128.24 373.777 129.32C373.777 130.496 374.125 131.36 374.821 131.912C375.517 132.464 376.309 132.74 377.197 132.74ZM395.825 134.36C394.049 134.36 392.573 133.964 391.397 133.172C390.221 132.38 389.345 131.312 388.769 129.968C388.193 128.624 387.905 127.148 387.905 125.54C387.905 123.908 388.193 122.432 388.769 121.112C389.345 119.768 390.221 118.7 391.397 117.908C392.573 117.116 394.049 116.72 395.825 116.72C397.097 116.72 398.165 116.816 399.029 117.008C399.917 117.2 400.589 117.524 401.045 117.98C401.501 118.436 401.765 119 401.837 119.672C401.909 120.32 401.945 121.316 401.945 122.66H401.225C401.129 121.124 400.637 119.996 399.749 119.276C398.885 118.532 397.817 118.16 396.545 118.16C395.345 118.16 394.361 118.496 393.593 119.168C392.825 119.816 392.249 120.692 391.865 121.796C391.505 122.9 391.325 124.148 391.325 125.54C391.325 126.908 391.505 128.156 391.865 129.284C392.249 130.388 392.825 131.276 393.593 131.948C394.361 132.596 395.345 132.92 396.545 132.92C397.817 132.92 398.849 132.668 399.641 132.164C400.433 131.66 401.141 130.952 401.765 130.04L402.485 130.58C401.957 131.492 401.357 132.224 400.685 132.776C400.013 133.328 399.269 133.736 398.453 134C397.661 134.24 396.785 134.36 395.825 134.36ZM406.64 134V121.4C406.64 120.32 406.484 119.456 406.172 118.808C405.884 118.136 405.2 117.8 404.12 117.8H403.76V117.08H420.32V134H417.08V118.52H409.88V134H406.64ZM426.014 134V121.4C426.014 120.32 425.858 119.456 425.546 118.808C425.258 118.136 424.574 117.8 423.494 117.8H422.954V117.08H426.014C426.854 117.08 427.502 117.188 427.958 117.404C428.438 117.62 428.774 118.04 428.966 118.664C429.158 119.288 429.254 120.2 429.254 121.4V130.76L436.814 117.08H440.054V134H436.814V120.32L429.254 134H426.014ZM452.181 134.36C450.405 134.36 448.929 133.964 447.753 133.172C446.577 132.38 445.701 131.312 445.125 129.968C444.549 128.624 444.261 127.148 444.261 125.54C444.261 123.908 444.549 122.432 445.125 121.112C445.701 119.768 446.577 118.7 447.753 117.908C448.929 117.116 450.405 116.72 452.181 116.72C453.453 116.72 454.521 116.816 455.385 117.008C456.273 117.2 456.945 117.524 457.401 117.98C457.857 118.436 458.121 119 458.193 119.672C458.265 120.32 458.301 121.316 458.301 122.66H457.581C457.485 121.124 456.993 119.996 456.105 119.276C455.241 118.532 454.173 118.16 452.901 118.16C451.701 118.16 450.717 118.496 449.949 119.168C449.181 119.816 448.605 120.692 448.221 121.796C447.861 122.9 447.681 124.148 447.681 125.54C447.681 126.908 447.861 128.156 448.221 129.284C448.605 130.388 449.181 131.276 449.949 131.948C450.717 132.596 451.701 132.92 452.901 132.92C454.173 132.92 455.205 132.668 455.997 132.164C456.789 131.66 457.497 130.952 458.121 130.04L458.841 130.58C458.313 131.492 457.713 132.224 457.041 132.776C456.369 133.328 455.625 133.736 454.809 134C454.017 134.24 453.141 134.36 452.181 134.36ZM466.667 134.36C466.163 134.36 465.611 134.276 465.011 134.108C464.435 133.964 463.871 133.7 463.319 133.316C462.767 132.932 462.311 132.416 461.951 131.768C461.615 131.12 461.447 130.304 461.447 129.32C461.447 128 461.867 126.98 462.707 126.26C463.571 125.54 464.699 125.036 466.091 124.748C467.507 124.436 469.019 124.28 470.627 124.28H471.707C471.707 122.6 471.539 121.328 471.203 120.464C470.867 119.576 470.411 118.976 469.835 118.664C469.283 118.328 468.647 118.16 467.927 118.16C466.919 118.16 466.067 118.376 465.371 118.808C464.699 119.24 464.231 120.044 463.967 121.22H462.347C462.347 120.596 462.383 120.02 462.455 119.492C462.527 118.94 462.791 118.436 463.247 117.98C463.703 117.524 464.447 117.2 465.479 117.008C466.511 116.816 467.567 116.72 468.647 116.72C469.463 116.72 470.243 116.816 470.987 117.008C471.755 117.2 472.427 117.56 473.003 118.088C473.603 118.592 474.071 119.348 474.407 120.356C474.767 121.34 474.947 122.648 474.947 124.28V134H473.147L471.887 132.38H471.707C471.347 132.836 470.759 133.28 469.943 133.712C469.127 134.144 468.035 134.36 466.667 134.36ZM468.287 132.74C469.175 132.74 469.871 132.524 470.375 132.092C470.903 131.636 471.347 131.132 471.707 130.58V125.72H470.627C468.827 125.72 467.411 126.056 466.379 126.728C465.371 127.376 464.867 128.24 464.867 129.32C464.867 130.496 465.215 131.36 465.911 131.912C466.607 132.464 467.399 132.74 468.287 132.74ZM480.471 134V121.4C480.471 120.32 480.315 119.456 480.003 118.808C479.715 118.136 479.031 117.8 477.951 117.8H477.411V117.08H480.471C481.311 117.08 481.959 117.188 482.415 117.404C482.895 117.62 483.231 118.04 483.423 118.664C483.615 119.288 483.711 120.2 483.711 121.4V124.82H490.911V117.08H494.151V129.68C494.151 130.76 494.295 131.636 494.583 132.308C494.895 132.956 495.591 133.28 496.671 133.28H497.211V134H494.151C493.311 134 492.651 133.892 492.171 133.676C491.715 133.46 491.391 133.04 491.199 132.416C491.007 131.792 490.911 130.88 490.911 129.68V126.26H483.711V134H480.471ZM506.813 134.36C505.133 134.36 503.705 133.964 502.529 133.172C501.353 132.38 500.453 131.312 499.829 129.968C499.205 128.624 498.893 127.148 498.893 125.54C498.893 123.908 499.205 122.432 499.829 121.112C500.453 119.768 501.353 118.7 502.529 117.908C503.705 117.116 505.133 116.72 506.813 116.72C508.493 116.72 509.921 117.116 511.097 117.908C512.273 118.7 513.173 119.768 513.797 121.112C514.421 122.432 514.733 123.908 514.733 125.54C514.733 127.148 514.421 128.624 513.797 129.968C513.173 131.312 512.273 132.38 511.097 133.172C509.921 133.964 508.493 134.36 506.813 134.36ZM506.813 132.92C507.725 132.92 508.517 132.596 509.189 131.948C509.861 131.276 510.377 130.388 510.737 129.284C511.121 128.156 511.313 126.908 511.313 125.54C511.313 124.148 511.121 122.9 510.737 121.796C510.377 120.692 509.861 119.816 509.189 119.168C508.517 118.496 507.725 118.16 506.813 118.16C505.925 118.16 505.133 118.496 504.437 119.168C503.765 119.816 503.237 120.692 502.853 121.796C502.493 122.9 502.313 124.148 502.313 125.54C502.313 126.908 502.493 128.156 502.853 129.284C503.237 130.388 503.765 131.276 504.437 131.948C505.133 132.596 505.925 132.92 506.813 132.92ZM528.315 134V121.4C528.315 120.32 528.159 119.456 527.847 118.808C527.559 118.136 526.875 117.8 525.795 117.8H525.435V117.08H541.995V134H538.755V118.52H531.555V134H528.315ZM554.134 134.36C552.454 134.36 551.026 133.964 549.85 133.172C548.674 132.38 547.774 131.312 547.15 129.968C546.526 128.624 546.214 127.148 546.214 125.54C546.214 123.908 546.526 122.432 547.15 121.112C547.774 119.768 548.674 118.7 549.85 117.908C551.026 117.116 552.454 116.72 554.134 116.72C555.814 116.72 557.242 117.116 558.418 117.908C559.594 118.7 560.494 119.768 561.118 121.112C561.742 122.432 562.054 123.908 562.054 125.54C562.054 127.148 561.742 128.624 561.118 129.968C560.494 131.312 559.594 132.38 558.418 133.172C557.242 133.964 555.814 134.36 554.134 134.36ZM554.134 132.92C555.046 132.92 555.838 132.596 556.51 131.948C557.182 131.276 557.698 130.388 558.058 129.284C558.442 128.156 558.634 126.908 558.634 125.54C558.634 124.148 558.442 122.9 558.058 121.796C557.698 120.692 557.182 119.816 556.51 119.168C555.838 118.496 555.046 118.16 554.134 118.16C553.246 118.16 552.454 118.496 551.758 119.168C551.086 119.816 550.558 120.692 550.174 121.796C549.814 122.9 549.634 124.148 549.634 125.54C549.634 126.908 549.814 128.156 550.174 129.284C550.558 130.388 551.086 131.276 551.758 131.948C552.454 132.596 553.246 132.92 554.134 132.92ZM575.636 134V121.4C575.636 120.32 575.48 119.456 575.168 118.808C574.88 118.136 574.196 117.8 573.116 117.8H572.756V117.08H589.316V134H586.076V118.52H578.876V134H575.636ZM595.694 141.2V140.12C596.798 140.12 597.734 139.868 598.502 139.364C599.294 138.884 599.978 137.876 600.554 136.34L601.274 134.36L595.514 120.32C595.154 119.408 594.626 118.724 593.93 118.268C593.258 117.812 592.466 117.536 591.554 117.44V116.72H594.614C595.694 116.72 596.582 116.972 597.278 117.476C597.998 117.98 598.55 118.688 598.934 119.6L603.038 129.572L607.574 117.08H609.374L602.354 136.34C601.874 137.66 601.358 138.668 600.806 139.364C600.278 140.06 599.678 140.54 599.006 140.804C598.358 141.068 597.614 141.2 596.774 141.2H595.694ZM613.502 134V121.4C613.502 120.32 613.346 119.456 613.034 118.808C612.746 118.136 612.062 117.8 610.982 117.8H610.442V117.08H613.502C614.342 117.08 614.99 117.188 615.446 117.404C615.926 117.62 616.262 118.04 616.454 118.664C616.646 119.288 616.742 120.2 616.742 121.4V124.82H623.942V117.08H627.182V129.68C627.182 130.76 627.326 131.636 627.614 132.308C627.926 132.956 628.622 133.28 629.702 133.28H630.242V134H627.182C626.342 134 625.682 133.892 625.202 133.676C624.746 133.46 624.422 133.04 624.23 132.416C624.038 131.792 623.942 130.88 623.942 129.68V126.26H616.742V134H613.502ZM646.109 134.36C645.197 134.36 644.297 134.132 643.409 133.676C642.545 133.22 641.705 132.488 640.889 131.48L636.749 126.26V134H633.509V121.4C633.509 120.32 633.353 119.456 633.041 118.808C632.753 118.136 632.069 117.8 630.989 117.8H630.269V117.08H633.509C634.349 117.08 634.997 117.188 635.453 117.404C635.933 117.62 636.269 118.04 636.461 118.664C636.653 119.288 636.749 120.2 636.749 121.4V125.72L641.249 119.42C641.777 118.7 642.389 118.136 643.085 117.728C643.805 117.296 644.753 117.08 645.929 117.08H646.829V117.98C646.277 117.98 645.713 118.1 645.137 118.34C644.561 118.556 644.045 118.976 643.589 119.6L639.629 125.18L643.769 130.4C644.393 131.216 645.029 131.876 645.677 132.38C646.349 132.884 647.093 133.196 647.909 133.316V134C647.717 134.096 647.453 134.18 647.117 134.252C646.805 134.324 646.469 134.36 646.109 134.36ZM655.543 134V118.52H653.743C652.663 118.52 651.763 118.832 651.043 119.456C650.323 120.056 649.963 120.944 649.963 122.12H649.243V119.96C649.243 119.24 649.423 118.58 649.783 117.98C650.143 117.38 650.863 117.08 651.943 117.08H664.723V118.52H658.783V134H655.543ZM671.874 134.36C671.37 134.36 670.818 134.276 670.218 134.108C669.642 133.964 669.078 133.7 668.526 133.316C667.974 132.932 667.518 132.416 667.158 131.768C666.822 131.12 666.654 130.304 666.654 129.32C666.654 128 667.074 126.98 667.914 126.26C668.778 125.54 669.906 125.036 671.298 124.748C672.714 124.436 674.226 124.28 675.834 124.28H676.914C676.914 122.6 676.746 121.328 676.41 120.464C676.074 119.576 675.618 118.976 675.042 118.664C674.49 118.328 673.854 118.16 673.134 118.16C672.126 118.16 671.274 118.376 670.578 118.808C669.906 119.24 669.438 120.044 669.174 121.22H667.554C667.554 120.596 667.59 120.02 667.662 119.492C667.734 118.94 667.998 118.436 668.454 117.98C668.91 117.524 669.654 117.2 670.686 117.008C671.718 116.816 672.774 116.72 673.854 116.72C674.67 116.72 675.45 116.816 676.194 117.008C676.962 117.2 677.634 117.56 678.21 118.088C678.81 118.592 679.278 119.348 679.614 120.356C679.974 121.34 680.154 122.648 680.154 124.28V134H678.354L677.094 132.38H676.914C676.554 132.836 675.966 133.28 675.15 133.712C674.334 134.144 673.242 134.36 671.874 134.36ZM673.494 132.74C674.382 132.74 675.078 132.524 675.582 132.092C676.11 131.636 676.554 131.132 676.914 130.58V125.72H675.834C674.034 125.72 672.618 126.056 671.586 126.728C670.578 127.376 670.074 128.24 670.074 129.32C670.074 130.496 670.422 131.36 671.118 131.912C671.814 132.464 672.606 132.74 673.494 132.74ZM705.334 134.72C703.078 134.72 701.518 134.168 700.654 133.064C699.814 131.96 699.394 130.472 699.394 128.6V120.86L693.454 134H692.734L686.614 120.5V134H685.174V117.08H688.594L693.994 128.96L699.394 117.08H702.634V128.6C702.634 129.488 702.742 130.352 702.958 131.192C703.198 132.008 703.522 132.68 703.93 133.208C704.338 133.736 704.806 134 705.334 134V134.72ZM709.921 134.504C709.393 134.504 708.937 134.312 708.553 133.928C708.169 133.544 707.977 133.076 707.977 132.524C707.977 131.996 708.169 131.54 708.553 131.156C708.937 130.772 709.393 130.58 709.921 130.58C710.473 130.58 710.929 130.772 711.289 131.156C711.673 131.54 711.865 131.996 711.865 132.524C711.865 133.076 711.673 133.544 711.289 133.928C710.905 134.312 710.449 134.504 709.921 134.504Z" fill="white"/>
<defs>
<clipPath id="clip0_66_1595">
<rect width="51" height="51" fill="white" transform="translate(41 43)"/>
</clipPath>
</defs>
</svg>
