<svg width="325" height="270" viewBox="0 0 325 270" fill="none" xmlns="http://www.w3.org/2000/svg">
<path d="M121.396 140.497C121.396 146.575 116.004 151.169 110.372 151.169H94.0879L98.0106 147.093H110.372C114.24 147.093 117.134 144.355 117.134 140.497C117.134 136.64 114.272 133.953 110.372 133.953H104.566V145.39H100.304V129.868H110.379C116.315 129.868 121.396 134.192 121.396 140.497Z" fill="white"/>
<path d="M132.556 135.502C137.972 135.502 141.898 138.752 141.898 143.596C141.898 148.344 137.972 151.63 132.556 151.63C127.231 151.63 123.245 148.192 123.245 143.596C123.245 138.94 127.2 135.502 132.556 135.502ZM132.556 147.673C135.598 147.673 137.638 145.969 137.638 143.594C137.638 141.157 135.598 139.426 132.556 139.426C129.631 139.426 127.504 141.162 127.504 143.594C127.506 145.97 129.665 147.675 132.556 147.675V147.673Z" fill="white"/>
<path d="M154.198 151.63C148.478 151.63 144.035 148.83 143.731 144.631H148.174C148.631 146.671 151.034 147.979 154.138 147.979C157.029 147.979 159.067 146.762 159.067 145.119C159.067 140.037 144.004 145.21 144.004 135.473C144.004 131.735 147.96 129.416 153.194 129.416C158.732 129.416 162.619 132.065 162.962 135.929H158.55C158.184 134.286 155.934 132.948 153.187 132.948C150.205 132.948 148.259 134.074 148.259 135.595C148.259 140.307 163.321 135.382 163.321 145.241C163.327 148.775 159.889 151.63 154.198 151.63Z" fill="url(#paint0_linear_43_632)"/>
<path d="M181.025 151.173L180.6 149.165C179.048 150.717 176.826 151.63 174.239 151.63C169.189 151.63 165.385 148.192 165.385 143.596C165.385 138.94 169.158 135.502 174.239 135.502C176.796 135.502 179.048 136.384 180.6 137.967L181.025 135.959H184.799V151.172L181.025 151.173ZM175.153 147.857C178.378 147.857 180.54 146.121 180.54 143.596C180.54 141.04 178.349 139.246 175.153 139.246C171.956 139.246 169.646 141.071 169.646 143.596C169.65 146.061 171.961 147.857 175.156 147.857H175.153Z" fill="url(#paint1_linear_43_632)"/>
<path d="M188.552 131.444V151.169H192.814V129.66C191.373 130.273 189.858 130.9 188.552 131.444Z" fill="url(#paint2_linear_43_632)"/>
<path d="M199.941 144.631C200.398 146.822 202.345 148.283 204.901 148.283C206.726 148.283 208.186 147.613 208.978 146.518H213.299C212.142 149.622 208.887 151.63 204.717 151.63C199.483 151.63 195.559 148.192 195.559 143.596C195.559 138.94 199.459 135.502 204.717 135.502C209.917 135.502 213.817 138.752 213.817 143.596C213.827 143.942 213.807 144.289 213.757 144.631H199.941ZM209.434 142.501C209.009 140.34 207.213 138.94 204.722 138.94C202.257 138.94 200.401 140.37 199.944 142.501H209.434Z" fill="url(#paint3_linear_43_632)"/>
<path d="M223.579 151.63C219.015 151.63 215.911 149.622 215.576 146.458H219.837C220.081 147.797 221.42 148.588 223.574 148.588C225.308 148.588 226.616 147.828 226.616 146.853C226.616 143.505 215.966 146.458 215.966 140.341C215.966 137.663 218.704 135.504 223.147 135.504C227.712 135.504 230.421 137.481 230.663 140.647H226.402C226.22 139.43 225.125 138.578 223.116 138.578C221.442 138.578 220.225 139.308 220.225 140.312C220.225 143.562 230.906 140.281 230.906 146.854C230.913 149.587 228.022 151.63 223.579 151.63Z" fill="url(#paint4_linear_43_632)"/>
<path d="M113.998 160.943H114.973V166.143C114.973 168.103 113.462 169.601 111.733 169.59C110.004 169.578 108.686 168.392 108.371 166.591H109.346C109.624 167.838 110.544 168.671 111.74 168.671C112.984 168.671 114.015 167.56 114.015 166.145L113.998 160.943Z" fill="#808080"/>
<path d="M121.81 163.361H122.785V169.412H121.951L121.831 168.215C121.613 168.63 121.287 168.978 120.886 169.221C120.485 169.464 120.025 169.592 119.556 169.593C118.02 169.593 116.932 168.239 116.932 166.353V163.366H117.907V166.353C117.907 167.744 118.68 168.675 119.857 168.675C121.033 168.675 121.828 167.732 121.828 166.353L121.81 163.361Z" fill="#808080"/>
<path d="M127.237 169.59C125.701 169.59 124.626 168.94 124.475 167.703H125.394C125.528 168.454 126.156 168.852 127.245 168.852C128.067 168.852 128.696 168.392 128.696 167.812C128.696 166.024 124.67 167.388 124.67 164.958C124.67 163.983 125.625 163.181 127.027 163.181C128.514 163.181 129.465 163.894 129.554 165.092H128.659C128.61 164.427 128.09 163.907 127.014 163.907C126.241 163.907 125.599 164.367 125.599 164.947C125.599 166.676 129.613 165.214 129.613 167.801C129.619 168.815 128.639 169.59 127.237 169.59Z" fill="#808080"/>
<path d="M133.078 166.578C133.078 168.054 133.647 168.67 134.916 168.67V169.59C132.933 169.59 132.111 168.574 132.111 166.578V164.269H130.842V163.858L132.68 162.009H133.079V163.363H134.917V164.269H133.078V166.578Z" fill="#808080"/>
<path d="M140.876 169.413H139.901V163.366H140.735L140.855 164.526C141.302 163.693 142.064 163.184 142.984 163.184C144.06 163.184 144.895 163.873 145.269 164.971C145.668 163.883 146.538 163.184 147.602 163.184C149.078 163.184 150.118 164.526 150.118 166.424V169.413H149.143V166.426C149.143 165.023 148.394 164.092 147.305 164.092C146.24 164.092 145.491 165.035 145.491 166.426V169.413H144.516V166.426C144.516 165.023 143.792 164.092 142.678 164.092C141.59 164.092 140.852 165.035 140.852 166.426L140.876 169.413Z" fill="#808080"/>
<path d="M157.235 169.413L157.115 168.166C156.889 168.601 156.546 168.965 156.126 169.216C155.705 169.468 155.223 169.599 154.733 169.593C153.075 169.593 151.819 168.226 151.819 166.4C151.819 164.573 153.077 163.184 154.733 163.184C155.222 163.178 155.702 163.309 156.121 163.561C156.54 163.813 156.88 164.176 157.104 164.611L157.237 163.366H158.071V169.413H157.235ZM154.986 168.711C156.233 168.711 157.099 167.768 157.099 166.388C157.099 165.009 156.228 164.055 154.986 164.055C153.686 164.055 152.786 165.03 152.786 166.388C152.786 167.747 153.716 168.706 154.986 168.706V168.711Z" fill="#808080"/>
<path d="M161.128 169.412H160.153V160.948H161.128V165.954H162.204L164.175 163.368H165.264L162.93 166.39L165.555 169.412H164.417L162.228 166.848H161.128V169.412Z" fill="#808080"/>
<path d="M167.065 166.663C167.173 167.909 168.04 168.816 169.177 168.816C169.571 168.82 169.959 168.718 170.299 168.52C170.64 168.322 170.921 168.036 171.112 167.692H172.104C171.608 168.865 170.532 169.59 169.179 169.59C167.401 169.59 166.083 168.223 166.083 166.397C166.083 164.57 167.383 163.181 169.179 163.181C171.017 163.181 172.31 164.481 172.31 166.397C172.31 166.481 172.297 166.559 172.297 166.663H167.065ZM171.333 166.107C171.225 164.837 170.378 163.979 169.18 163.979C168.031 163.979 167.173 164.861 167.068 166.107H171.333Z" fill="#808080"/>
<path d="M178.223 169.412H177.248V160.948H178.47L181.566 168.348L184.653 160.948H185.862V169.412H184.887V162.617L182.008 169.412H181.125L178.223 162.587V169.412Z" fill="#808080"/>
<path d="M190.569 163.181C192.431 163.181 193.785 164.481 193.785 166.397C193.785 168.312 192.431 169.59 190.569 169.59C190.148 169.599 189.729 169.523 189.338 169.365C188.947 169.208 188.592 168.973 188.295 168.675C187.997 168.376 187.764 168.02 187.608 167.628C187.452 167.237 187.378 166.818 187.389 166.397C187.389 164.547 188.755 163.181 190.569 163.181ZM190.569 168.67C191.911 168.67 192.818 167.75 192.818 166.384C192.818 165.017 191.898 164.086 190.569 164.086C189.3 164.086 188.356 165.061 188.356 166.384C188.356 167.706 189.313 168.67 190.569 168.67Z" fill="#808080"/>
<path d="M196.396 169.412H195.421V163.366H196.255L196.375 164.563C196.586 164.146 196.91 163.796 197.31 163.553C197.709 163.309 198.169 163.182 198.637 163.185C200.197 163.185 201.273 164.528 201.273 166.426V169.412H200.298V166.426C200.298 165.023 199.524 164.092 198.339 164.092C197.155 164.092 196.38 165.035 196.38 166.426L196.396 169.412Z" fill="#808080"/>
<path d="M203.965 166.663C204.074 167.909 204.94 168.816 206.077 168.816C206.471 168.82 206.859 168.718 207.2 168.52C207.54 168.322 207.821 168.036 208.013 167.692H209.004C208.508 168.865 207.433 169.59 206.079 169.59C204.301 169.59 202.983 168.223 202.983 166.397C202.983 164.57 204.283 163.181 206.079 163.181C207.917 163.181 209.21 164.481 209.21 166.397C209.21 166.481 209.197 166.559 209.197 166.663H203.965ZM208.234 166.107C208.125 164.837 207.278 163.979 206.081 163.979C204.932 163.979 204.074 164.861 203.968 166.107H208.234Z" fill="#808080"/>
<path d="M212.766 171.79L213.588 169.408H212.028L209.973 163.361H210.964L212.693 168.398H213.926L215.655 163.361H216.63L213.777 171.79H212.766Z" fill="#808080"/>
<path d="M166.07 114.348H160.599V61.3906L166.07 58.1293V114.348Z" fill="url(#paint5_linear_43_632)"/>
<path d="M159.811 46.5349L176.428 43.2101L171.784 55.6609L168.644 53.264L124.363 78.3849L123.781 73.8203L163.062 49.1658L159.811 46.5349Z" fill="url(#paint6_linear_43_632)"/>
<path d="M131.911 80.8549L131.908 80.8581V81.8819H131.911V114.354H137.38V77.5984L131.911 80.8549Z" fill="url(#paint7_linear_43_632)"/>
<path d="M206.712 105.675C206.317 108.473 204.864 110.713 202.267 112.521C200.546 113.719 198.424 114.354 196.128 114.354H164.949V109.346L194.973 109.509C196.471 109.532 197.948 109.158 199.255 108.425C200.717 107.573 201.604 106.475 201.894 105.15C202.254 103.501 201.65 101.544 200.106 99.3328L185.738 78.3849H191.528L204.872 98.2505C206.411 100.543 207.064 103.179 206.712 105.675Z" fill="url(#paint8_linear_43_632)"/>
<path d="M184.493 67.2C182.194 67.2 180.07 67.8338 178.352 69.0298C175.752 70.8384 174.303 73.0776 173.908 75.8743C173.555 78.3703 174.208 81.0076 175.749 83.3005L189.093 103.168H194.882L180.517 82.215C178.966 80.0066 178.364 78.0501 178.729 76.3991C179.018 75.078 179.907 73.9763 181.371 73.1231C182.678 72.3918 184.155 72.0185 185.652 72.0409L210.189 72.2456L212.081 67.2081L184.493 67.2Z" fill="url(#paint9_linear_43_632)"/>
<path d="M172.006 103.168H180.851L175.054 94.7405L172.006 103.168Z" fill="url(#paint10_linear_43_632)"/>
<path d="M151.726 72.8079V114.349H146.253V72.439V71.4152L151.726 68.1571V72.8079Z" fill="url(#paint11_linear_43_632)"/>
<defs>
<linearGradient id="paint0_linear_43_632" x1="137.201" y1="151.526" x2="236.529" y2="84.8248" gradientUnits="userSpaceOnUse">
<stop stop-color="#F1472B"/>
<stop offset="0.2" stop-color="#F35D2E"/>
<stop offset="1" stop-color="#FBB03B"/>
</linearGradient>
<linearGradient id="paint1_linear_43_632" x1="146.088" y1="164.76" x2="245.416" y2="98.0587" gradientUnits="userSpaceOnUse">
<stop stop-color="#F1472B"/>
<stop offset="0.2" stop-color="#F35D2E"/>
<stop offset="1" stop-color="#FBB03B"/>
</linearGradient>
<linearGradient id="paint2_linear_43_632" x1="149.092" y1="169.235" x2="248.42" y2="102.534" gradientUnits="userSpaceOnUse">
<stop stop-color="#F1472B"/>
<stop offset="0.2" stop-color="#F35D2E"/>
<stop offset="1" stop-color="#FBB03B"/>
</linearGradient>
<linearGradient id="paint3_linear_43_632" x1="154.518" y1="177.315" x2="253.846" y2="110.612" gradientUnits="userSpaceOnUse">
<stop stop-color="#F1472B"/>
<stop offset="0.2" stop-color="#F35D2E"/>
<stop offset="1" stop-color="#FBB03B"/>
</linearGradient>
<linearGradient id="paint4_linear_43_632" x1="160.321" y1="185.955" x2="259.648" y2="119.254" gradientUnits="userSpaceOnUse">
<stop stop-color="#F1472B"/>
<stop offset="0.2" stop-color="#F35D2E"/>
<stop offset="1" stop-color="#FBB03B"/>
</linearGradient>
<linearGradient id="paint5_linear_43_632" x1="167.147" y1="111.67" x2="156.094" y2="37.9809" gradientUnits="userSpaceOnUse">
<stop stop-color="#F1472B"/>
<stop offset="0.2" stop-color="#F35D2E"/>
<stop offset="1" stop-color="#FBB03B"/>
</linearGradient>
<linearGradient id="paint6_linear_43_632" x1="158.66" y1="115.896" x2="147.607" y2="42.2075" gradientUnits="userSpaceOnUse">
<stop stop-color="#F1472B"/>
<stop offset="0.2" stop-color="#F35D2E"/>
<stop offset="1" stop-color="#FBB03B"/>
</linearGradient>
<linearGradient id="paint7_linear_43_632" x1="137.636" y1="115.927" x2="127.633" y2="49.2291" gradientUnits="userSpaceOnUse">
<stop stop-color="#F1472B"/>
<stop offset="0.2" stop-color="#F35D2E"/>
<stop offset="1" stop-color="#FBB03B"/>
</linearGradient>
<linearGradient id="paint8_linear_43_632" x1="184.111" y1="118.981" x2="194.986" y2="46.478" gradientUnits="userSpaceOnUse">
<stop stop-color="#F1472B"/>
<stop offset="0.2" stop-color="#F35D2E"/>
<stop offset="1" stop-color="#FBB03B"/>
</linearGradient>
<linearGradient id="paint9_linear_43_632" x1="185.738" y1="119.905" x2="196.791" y2="46.2164" gradientUnits="userSpaceOnUse">
<stop stop-color="#F1472B"/>
<stop offset="0.2" stop-color="#F35D2E"/>
<stop offset="1" stop-color="#FBB03B"/>
</linearGradient>
<linearGradient id="paint10_linear_43_632" x1="174.177" y1="118.171" x2="185.23" y2="44.4824" gradientUnits="userSpaceOnUse">
<stop stop-color="#F1472B"/>
<stop offset="0.2" stop-color="#F35D2E"/>
<stop offset="1" stop-color="#FBB03B"/>
</linearGradient>
<linearGradient id="paint11_linear_43_632" x1="152.384" y1="113.885" x2="141.329" y2="40.1957" gradientUnits="userSpaceOnUse">
<stop stop-color="#F1472B"/>
<stop offset="0.2" stop-color="#F35D2E"/>
<stop offset="1" stop-color="#FBB03B"/>
</linearGradient>
</defs>
</svg>
